<?xml version="1.0" standalone="no"?>
<!DOCTYPE svg PUBLIC "-//W3C//DTD SVG 1.1//EN" "http://www.w3.org/Graphics/SVG/1.1/DTD/svg11.dtd" >
<svg xmlns="http://www.w3.org/2000/svg" xmlns:xlink="http://www.w3.org/1999/xlink" version="1.1">
<metadata>
Created by FontForge 20170731 at Wed Oct  5 13:10:23 2005
 By Aleksey,,,
(c) Copyright 2005 by Tong Duc Thinh. All Rights Reserved
</metadata>
<defs>
<font id="SFUGillSansItalic" horiz-adv-x="469" >
  <font-face 
    font-family="SFU GillSans"
    font-weight="400"
    font-style="italic"
    font-stretch="normal"
    units-per-em="1000"
    panose-1="0 0 4 0 0 0 0 0 0 0"
    ascent="800"
    descent="-200"
    x-height="449"
    cap-height="682"
    bbox="-201 -250 1009 1134"
    underline-thickness="50"
    underline-position="-175"
    slope="-11"
    unicode-range="U+0020-F002"
  />
<missing-glyph horiz-adv-x="500" 
d="M63 0v1134h375v-1134h-375zM125 63h250v1009h-250v-1009z" />
    <glyph glyph-name=".notdef" horiz-adv-x="500" 
d="M63 0v1134h375v-1134h-375zM125 63h250v1009h-250v-1009z" />
    <glyph glyph-name=".null" horiz-adv-x="0" 
 />
    <glyph glyph-name="glyph2" horiz-adv-x="278" 
 />
    <glyph glyph-name="space" unicode=" " horiz-adv-x="278" 
 />
    <glyph glyph-name="exclam" unicode="!" horiz-adv-x="250" 
d="M131 166h-37q8 64 14 226q5 137 18 225q11 74 62 74q40 0 40 -59q0 -30 -31 -170zM100 102q24 0 41 -17t17 -41t-17 -41t-41 -17t-41 17t-17 41t17 41t41 17z" />
    <glyph glyph-name="quotedbl" unicode="&#x22;" horiz-adv-x="354" 
d="M248 716h96v-117l-23 -137h-50l-23 137v117zM86 716h96v-117l-23 -137h-50l-23 137v117z" />
    <glyph glyph-name="numbersign" unicode="#" horiz-adv-x="584" 
d="M195 617h72l-41 -195h194l41 195h72l-41 -195h91v-69h-105l-36 -170h141v-69h-155l-41 -195h-72l41 195h-194l-41 -195h-72l41 195h-90v69h104l36 170h-140v69h154zM212 353l-36 -170h194l36 170h-194z" />
    <glyph glyph-name="dollar" unicode="$" horiz-adv-x="500" 
d="M483 604l-13 -90q-61 39 -130 53l-30 -214q152 -81 152 -186q0 -78 -64 -127q-58 -45 -139 -49l-14 -101h-74l14 101q-87 12 -145 54l14 98q64 -42 144 -64l29 214q-69 39 -102 73q-48 50 -48 112q0 76 64 125q57 43 137 48l5 40h74l-5 -40q68 -9 131 -47zM242 395
l24 175q-99 -15 -99 -81q0 -50 75 -94zM296 254l-26 -181q39 4 69 25q34 24 34 61q0 53 -77 95z" />
    <glyph glyph-name="percent" unicode="%" horiz-adv-x="708" 
d="M289 539q0 33 -23 56t-56 23q-34 0 -56.5 -22.5t-22.5 -56.5q0 -31 24 -55t55 -24q33 0 56 23t23 56zM362 539q0 -62 -45 -107t-107 -45q-63 0 -107.5 44.5t-44.5 107.5q0 65 43.5 108.5t108.5 43.5q64 0 108 -44t44 -108zM631 691l-448 -700h-76l449 700h75zM607 144
q0 33 -23 56t-56 23q-34 0 -56.5 -22.5t-22.5 -56.5q0 -31 24 -55t55 -24q33 0 56 23t23 56zM680 144q0 -62 -45 -107t-107 -45q-63 0 -107.5 44.5t-44.5 107.5q0 65 43.5 108.5t108.5 43.5q64 0 108 -44t44 -108z" />
    <glyph glyph-name="ampersand" unicode="&#x26;" horiz-adv-x="688" 
d="M565 343h88q-58 -148 -139 -224q59 -56 123 -56q14 0 22 3l-33 -71q-8 -4 -24 -4q-37 0 -78.5 22.5t-67.5 52.5q-102 -75 -211 -75q-87 0 -140.5 52t-53.5 139q0 65 50 123q43 50 109 79q-38 74 -38 144q0 69 45.5 116t113.5 47q57 0 95 -40.5t38 -98.5q0 -115 -145 -196
q38 -71 137 -184q70 70 109 171zM377 547q0 28 -15.5 48t-43.5 20q-31 0 -49 -31q-16 -26 -16 -59q0 -42 28 -102q39 19 65 50q31 36 31 74zM143 181q0 -52 35 -84t88 -32q59 0 132 53q-94 105 -149 196q-106 -59 -106 -133z" />
    <glyph glyph-name="quotesingle" unicode="'" horiz-adv-x="188" 
d="M86 716h96v-117l-23 -137h-50l-23 137v117z" />
    <glyph glyph-name="parenleft" unicode="(" horiz-adv-x="292" 
d="M286 691h48q-63 -78 -133 -239q-28 -64 -48 -183q-19 -110 -19 -189q0 -175 62 -310h-42q-45 84 -72 185q-29 106 -29 197q0 149 67 289q52 109 166 250z" />
    <glyph glyph-name="parenright" unicode=")" horiz-adv-x="292" 
d="M-7 -230h-48q63 78 133 239q28 64 48 183q19 110 19 189q0 175 -62 310h42q45 -84 72 -185q29 -106 29 -197q0 -149 -67 -289q-52 -109 -166 -250z" />
    <glyph glyph-name="asterisk" unicode="*" horiz-adv-x="448" 
d="M291 665v0l-25 -127q14 -2 20 -10l84 80q26 25 46 25q32 0 32 -36q0 -27 -32 -39l-124 -45q2 -6 2 -12t-2 -11l101 -37q55 -20 55 -50q0 -12 -10 -22.5t-22 -10.5q-23 0 -58 35l-72 71q-10 -10 -20 -10l23 -123q2 -11 2 -21q0 -44 -33 -44q-34 0 -34 47q0 14 3 28l24 113
q-9 1 -19 10l-78 -72q-36 -33 -58 -33q-12 0 -21 10.5t-9 22.5q0 31 54 50l105 36q-1 6 -1 12q0 7 1 11l-113 42q-44 16 -44 40q0 15 10 27t25 12q16 0 47 -29l82 -77q4 8 19 10l-23 119q-3 16 -3 26q0 43 33 43q35 0 35 -43q0 -9 -2 -18z" />
    <glyph glyph-name="plus" unicode="+" horiz-adv-x="584" 
d="M266 589h82v-195h195v-82h-195v-195h-82v195h-195v82h195v195z" />
    <glyph glyph-name="comma" unicode="," horiz-adv-x="198" 
d="M-24 -144l6 44q66 22 66 86q-39 17 -39 51q0 27 18 43t45 16q30 0 47 -26q16 -22 16 -53q0 -62 -50 -107q-44 -39 -109 -54z" />
    <glyph glyph-name="hyphen" unicode="-" horiz-adv-x="250" 
d="M250 265l-12 -85h-238l12 85h238z" />
    <glyph glyph-name="hyphen" unicode="&#x2010;" horiz-adv-x="250" 
d="M250 265l-12 -85h-238l12 85h238z" />
    <glyph glyph-name="period" unicode="." horiz-adv-x="198" 
d="M74 102q24 0 41 -17t17 -41t-17 -41t-41 -17t-41 17t-17 41t17 41t41 17z" />
    <glyph glyph-name="slash" unicode="/" horiz-adv-x="281" 
d="M28 -9l196 700h70l-196 -700h-70z" />
    <glyph glyph-name="zero" unicode="0" horiz-adv-x="521" 
d="M501 444q0 -169 -67 -302q-76 -151 -203 -151q-180 0 -180 243q0 153 59 285q77 172 216 172q175 0 175 -247zM409 455q0 155 -87 155q-83 0 -136 -153q-41 -119 -41 -221q0 -164 85 -164q87 0 139 156q40 119 40 227z" />
    <glyph glyph-name="one" unicode="1" horiz-adv-x="521" 
d="M374 691l-108 -691h-90l109 691h89z" />
    <glyph glyph-name="two" unicode="2" horiz-adv-x="521" 
d="M119 547l13 97q80 47 154 47t119.5 -44.5t45.5 -118.5q0 -86 -104 -236q-45 -64 -164 -208h260l-12 -84h-414q204 251 277 361q70 106 70 160q0 85 -96 85q-69 0 -149 -59z" />
    <glyph glyph-name="three" unicode="3" horiz-adv-x="521" 
d="M129 567l13 94q69 30 141 30q82 0 132.5 -47.5t50.5 -129.5q0 -114 -133 -163q92 -39 92 -154q0 -74 -51 -132q-66 -74 -186 -74q-80 0 -164 38l12 81q78 -38 148 -38q62 0 102 31q45 34 45 94q0 53 -35.5 86t-88.5 28l11 81q59 4 102 32q52 34 52 89q0 46 -30 71.5
t-77 25.5q-71 0 -136 -43z" />
    <glyph glyph-name="four" unicode="4" horiz-adv-x="521" 
d="M455 691l-63 -408h98l-10 -73h-101l-33 -210h-87l36 210h-256v39l362 442h54zM343 515l-189 -232h152l39 230z" />
    <glyph glyph-name="five" unicode="5" horiz-adv-x="521" 
d="M477 682l-15 -84h-196l-27 -170q89 -5 142 -57.5t53 -140.5q0 -109 -72.5 -174t-183.5 -65q-95 0 -163 51l31 79q65 -49 137 -49q69 0 113 44t44 113q0 58 -43 90q-39 28 -99 28q-23 0 -60 -8l61 343h278z" />
    <glyph glyph-name="six" unicode="6" horiz-adv-x="521" 
d="M414 682l-196 -286l2 -2q30 23 88 23q75 0 118 -47.5t43 -123.5q0 -97 -68 -175q-71 -80 -167 -80q-89 0 -137 61q-43 55 -43 147q0 102 94 240l166 243h100zM380 239q0 42 -25 69.5t-67 27.5q-59 0 -102 -43.5t-43 -103.5q0 -46 23 -78q26 -35 70 -35q60 0 102 51
t42 112z" />
    <glyph glyph-name="seven" unicode="7" horiz-adv-x="521" 
d="M528 682l-319 -691h-93l280 607h-275l12 84h395z" />
    <glyph glyph-name="eight" unicode="8" horiz-adv-x="521" 
d="M376 356q90 -39 90 -145q0 -96 -68.5 -158t-165.5 -62q-86 0 -139 51.5t-53 137.5q0 145 146 187q-77 48 -77 134q0 80 59 135t139 55q82 0 133.5 -47t51.5 -128q0 -56 -31.5 -98.5t-84.5 -61.5zM403 515q0 42 -25.5 68.5t-67.5 26.5q-47 0 -79.5 -34t-32.5 -81
q0 -43 25 -69.5t68 -26.5q47 0 79.5 34.5t32.5 81.5zM377 209q0 52 -30.5 80.5t-82.5 28.5q-56 0 -95.5 -41.5t-39.5 -97.5q0 -47 31 -77t78 -30q57 0 98 40t41 97z" />
    <glyph glyph-name="nine" unicode="9" horiz-adv-x="521" 
d="M129 -9l202 294l-2 2q-42 -24 -87 -24q-72 0 -118 45t-46 117q0 104 67 183q70 83 172 83q81 0 131 -60q46 -56 46 -139q0 -115 -97 -256l-168 -245h-100zM402 488q0 49 -22 80q-24 35 -71 35q-59 0 -101 -52q-38 -49 -38 -110q0 -97 94 -97q54 0 96 44.5t42 99.5z" />
    <glyph glyph-name="colon" unicode=":" horiz-adv-x="198" 
d="M130 463q24 0 41 -17t17 -41t-17 -41t-41 -17t-41 17t-17 41t17 41t41 17zM74 102q24 0 41 -17t17 -41t-17 -41t-41 -17t-41 17t-17 41t17 41t41 17z" />
    <glyph glyph-name="semicolon" unicode=";" horiz-adv-x="198" 
d="M-10 -144l6 44q66 22 66 86q-39 17 -39 51q0 27 18 43t45 16q30 0 47 -26q16 -22 16 -53q0 -62 -50 -107q-44 -39 -109 -54zM130 463q24 0 41 -17t17 -41t-17 -41t-41 -17t-41 17t-17 41t17 41t41 17z" />
    <glyph glyph-name="less" unicode="&#x3c;" horiz-adv-x="584" 
d="M70 313v82l474 202v-87l-376 -156l376 -156v-87z" />
    <glyph glyph-name="equal" unicode="=" horiz-adv-x="584" 
d="M71 503h472v-82h-472v82zM71 285h472v-82h-472v82z" />
    <glyph glyph-name="greater" unicode="&#x3e;" horiz-adv-x="584" 
d="M544 313l-474 -202v87l376 156l-376 156v87l474 -202v-82z" />
    <glyph glyph-name="question" unicode="?" horiz-adv-x="354" 
d="M88 554l14 99q61 38 112 38q68 0 107 -42.5t39 -111.5q0 -63 -47 -120q-31 -34 -92 -105q-54 -65 -64 -146h-55q0 92 44 169q17 30 83 111q44 54 44 89q0 34 -20 54.5t-54 20.5q-50 0 -111 -56zM118 102q24 0 41 -17t17 -41t-17 -41t-41 -17t-41 17t-17 41t17 41t41 17z
" />
    <glyph glyph-name="at" unicode="@" horiz-adv-x="1010" 
d="M891 9h90q-133 -219 -433 -219q-220 0 -352 108q-142 116 -142 331q0 187 110 329q133 171 373 171q176 0 294 -101q125 -107 125 -280q0 -125 -82 -233q-88 -117 -210 -117q-97 0 -97 82q-70 -81 -148 -81q-84 0 -134 71q-45 62 -45 150q0 108 71 205q78 104 183 104
q93 0 147 -90l17 76h88l-82 -377q-3 -14 -3 -22q0 -38 35 -38q25 0 66 30q121 88 121 241q0 141 -107 228q-99 81 -243 81q-179 0 -292.5 -120.5t-113.5 -300.5q0 -187 120 -285q111 -90 302 -90q239 0 342 147zM332 213q0 -57 24 -96q29 -47 83 -47q75 0 128 89
q46 77 46 157q0 59 -26 98q-30 45 -87 45q-74 0 -125 -89q-43 -77 -43 -157z" />
    <glyph glyph-name="A" unicode="A" horiz-adv-x="521" 
d="M352 686l133 -686h-84l-41 214h-214l-90 -214h-91l301 686h86zM292 566l-116 -280h170l-52 280h-2z" />
    <glyph glyph-name="B" unicode="B" horiz-adv-x="510" 
d="M134 682h100q94 0 151 -39q65 -45 65 -134q0 -90 -94 -135q141 -49 141 -183q0 -94 -79 -146q-68 -45 -167 -45h-212zM213 604l-27 -195h49q52 0 85 25q38 27 38 77q0 94 -117 94q-13 0 -28 -1zM175 333l-36 -257h103q163 0 163 119q0 62 -52 102q-48 36 -112 36h-66z
" />
    <glyph glyph-name="C" unicode="C" horiz-adv-x="552" 
d="M580 691l-18 -86h-50q-191 0 -289 -113q-77 -89 -77 -211q0 -89 44 -144q49 -60 135 -60q48 0 108 26q53 24 96 58l-15 -110q-105 -60 -202 -60q-120 0 -193 83q-70 79 -70 201q0 196 138 310q128 106 328 106h65z" />
    <glyph glyph-name="D" unicode="D" horiz-adv-x="656" 
d="M216 600l-73 -519h82q77 0 120 10q62 15 105 56q70 67 70 196t-96 200q-77 57 -177 57h-31zM39 0l97 682h81q178 0 283 -81q117 -90 117 -261q0 -162 -96 -251t-260 -89h-222z" />
    <glyph glyph-name="E" unicode="E" horiz-adv-x="510" 
d="M498 682l-11 -81h-273l-30 -214h241l-11 -81h-242l-33 -225h359l-12 -81h-448l99 682h361z" />
    <glyph glyph-name="F" unicode="F" horiz-adv-x="417" 
d="M455 682l-11 -81h-237l-30 -214h218l-12 -81h-218l-43 -306h-91l99 682h325z" />
    <glyph glyph-name="G" unicode="G" horiz-adv-x="604" 
d="M577 296l-35 -245q-115 -60 -220 -60q-131 0 -210 86q-77 83 -77 214q0 147 100 259q126 141 368 141q43 0 118 -9l-11 -82q-82 9 -121 9q-178 0 -276 -108q-81 -89 -81 -207q0 -94 51 -155q54 -66 146 -66q67 0 131 33l16 118h-97l10 72h188z" />
    <glyph glyph-name="H" unicode="H" horiz-adv-x="698" 
d="M687 682l-96 -682h-94l43 302h-369l-42 -302h-94l96 682h93l-41 -295h369l41 295h94z" />
    <glyph glyph-name="I" unicode="I" horiz-adv-x="240" 
d="M229 682l-96 -682h-94l96 682h94z" />
    <glyph glyph-name="J" unicode="J" horiz-adv-x="240" 
d="M232 682l-103 -732q-25 -180 -176 -180q-32 0 -65 6l-21 84q37 -8 66 -8q51 0 77 27q23 24 30 77l102 726h90z" />
    <glyph glyph-name="K" unicode="K" horiz-adv-x="563" 
d="M573 682l-314 -315l305 -367h-107l-281 357l-50 -357h-92l96 682h92l-45 -292l2 -2l290 294h104z" />
    <glyph glyph-name="L" unicode="L" horiz-adv-x="417" 
d="M221 682l-89 -606h280l-11 -76h-366l96 682h90z" />
    <glyph glyph-name="M" unicode="M" horiz-adv-x="813" 
d="M743 682v-682h-90v517h-2l-274 -517l-118 522h-2l-168 -522h-90l225 682h78l106 -462l245 462h90z" />
    <glyph glyph-name="N" unicode="N" horiz-adv-x="688" 
d="M678 682l-96 -682h-49l-339 498l-70 -498h-85l96 682h46l341 -502l71 502h85z" />
    <glyph glyph-name="O" unicode="O" horiz-adv-x="656" 
d="M623 405q0 -159 -83 -279q-94 -135 -246 -135q-115 0 -182 89q-61 80 -61 199q0 151 84 273q95 139 247 139q116 0 182 -87q59 -79 59 -199zM531 421q0 80 -34 130q-40 58 -116 58q-111 0 -179 -117q-59 -101 -59 -226q0 -81 35 -133q41 -60 118 -60q112 0 179 124
q56 102 56 224z" />
    <glyph glyph-name="P" unicode="P" horiz-adv-x="448" 
d="M123 682h117q221 0 221 -193q0 -72 -47 -129q-60 -72 -171 -72h-82l-40 -288h-94zM205 601l-32 -232h66q57 0 93.5 33.5t36.5 89.5q0 53 -34.5 81t-89.5 28h-40z" />
    <glyph glyph-name="Q" unicode="Q" horiz-adv-x="656" 
d="M623 -15h15q-3 -77 -44 -126q-45 -54 -120 -54q-84 0 -145 58q-54 51 -81 137q-100 20 -152 107q-45 75 -45 184q0 143 83 262q96 138 245 138q121 0 186 -85q58 -77 58 -202q0 -145 -67 -253q-74 -119 -207 -151q15 -50 54 -81.5t90 -31.5q44 0 79.5 28t50.5 70z
M531 416q0 83 -32 133q-39 60 -117 60q-117 0 -185 -126q-54 -100 -54 -214q0 -187 159 -187q110 0 175 118q54 97 54 216z" />
    <glyph glyph-name="R" unicode="R" horiz-adv-x="531" 
d="M132 682h123q232 0 232 -185q0 -63 -38.5 -107t-101.5 -60q30 -19 57 -75l122 -255h-98l-78 162q-35 73 -52 94q-36 45 -90 45h-36l-42 -301h-94zM214 601l-30 -219h48q158 0 158 120q0 99 -123 99h-53z" />
    <glyph glyph-name="S" unicode="S" horiz-adv-x="458" 
d="M439 664l-13 -93q-56 36 -120 36q-52 0 -84 -25q-36 -28 -36 -78q0 -44 60 -96l111 -96q60 -65 60 -141q0 -82 -61 -132q-57 -48 -141 -48q-82 0 -165 49l14 100q94 -65 160 -65q40 0 70.5 24.5t30.5 63.5q0 45 -67 110q-52 46 -104 91q-60 65 -60 141q0 83 70 137
q64 49 150 49q63 0 125 -27z" />
    <glyph glyph-name="T" unicode="T" horiz-adv-x="510" 
d="M557 682l-12 -85h-192l-84 -597h-94l84 597h-192l12 85h478z" />
    <glyph glyph-name="U" unicode="U" horiz-adv-x="635" 
d="M637 682l-59 -421q-38 -270 -284 -270q-102 0 -166 54q-68 57 -68 157q0 20 3 41l62 439h90l-63 -446q-2 -14 -2 -28q0 -64 42 -99.5t107 -35.5q80 0 131 51q40 40 58 166l55 392h94z" />
    <glyph glyph-name="V" unicode="V" horiz-adv-x="510" 
d="M565 682l-333 -688h-35l-133 688h88l89 -476h2l228 476h94z" />
    <glyph glyph-name="W" unicode="W" horiz-adv-x="927" 
d="M986 682l-330 -688h-35l-132 484l-232 -484h-36l-161 688h86l111 -483h2l230 483h35l133 -491l234 491h95z" />
    <glyph glyph-name="X" unicode="X" horiz-adv-x="667" 
d="M703 682l-292 -331l222 -351h-107l-177 281l-244 -281h-123l317 361l-202 321h103l162 -251l222 251h119z" />
    <glyph glyph-name="Y" unicode="Y" horiz-adv-x="490" 
d="M557 682l-239 -342l-48 -340h-90l48 340l-160 342h95l116 -250l174 250h104z" />
    <glyph glyph-name="Z" unicode="Z" horiz-adv-x="583" 
d="M647 682l-497 -597h404l-12 -85h-574l495 597h-388l12 85h560z" />
    <glyph glyph-name="bracketleft" unicode="[" horiz-adv-x="333" 
d="M376 682l-9 -66h-129l-108 -771h128l-9 -66h-211l127 903h211z" />
    <glyph glyph-name="backslash" unicode="\" horiz-adv-x="281" 
d="M279 -9h-70l-196 700h70z" />
    <glyph glyph-name="bracketright" unicode="]" horiz-adv-x="333" 
d="M-48 -221l9 66h129l108 771h-128l9 66h211l-127 -903h-211z" />
    <glyph glyph-name="asciicircum" unicode="^" 
d="M133 291h-90l173 391h71l173 -391h-89l-120 292z" />
    <glyph glyph-name="underscore" unicode="_" horiz-adv-x="500" 
d="M-6 -75h512v-50h-512v50z" />
    <glyph glyph-name="grave" unicode="`" horiz-adv-x="333" 
d="M201 670l68 -146h-56l-113 146h101z" />
    <glyph glyph-name="a" unicode="a" 
d="M446 449l-63 -449h-85l8 52l-2 2q-58 -63 -121 -63q-67 0 -109 57q-39 52 -39 121q0 137 83.5 215.5t221.5 78.5q62 0 106 -14zM316 130l37 259q-13 1 -26 1q-112 0 -167 -82q-38 -56 -38 -124q0 -47 20 -82q25 -41 69 -41q53 0 105 69z" />
    <glyph glyph-name="b" unicode="b" 
d="M210 682l-38 -267l2 -2q50 50 109 50q78 0 121 -66q37 -57 37 -139q0 -109 -61 -181q-77 -91 -231 -91q-73 0 -119 7l93 689h87zM122 56h47q89 0 138 59q47 54 47 145q0 54 -21 88q-25 41 -76 41q-28 0 -58 -15q-34 -17 -38 -42z" />
    <glyph glyph-name="c" unicode="c" horiz-adv-x="385" 
d="M357 100l-10 -82q-60 -32 -125 -32q-93 0 -145.5 56.5t-52.5 150.5q0 121 86 197q82 73 205 73q32 0 77 -8l-11 -75q-32 7 -65 7q-83 0 -144 -53.5t-61 -135.5q0 -61 31 -97q32 -39 92 -39q59 0 123 38z" />
    <glyph glyph-name="d" unicode="d" 
d="M478 682l-96 -682q-50 -14 -115 -14q-108 0 -169 49q-67 54 -67 159q0 92 67 171q83 98 228 98h36l31 219h85zM306 58l46 334h-22q-89 0 -149 -53q-63 -56 -63 -143q0 -140 149 -140q25 0 39 2z" />
    <glyph glyph-name="e" unicode="e" horiz-adv-x="438" 
d="M388 117l-12 -81q-68 -50 -150 -50q-90 0 -141 65q-47 59 -47 152q0 101 55 177q60 83 158 83q75 0 119 -58q40 -53 40 -130q0 -21 -3 -42h-280q-4 -23 -4 -43q0 -57 31 -94q32 -40 88 -40q63 0 146 61zM140 292h188q0 101 -81 101q-73 0 -107 -101z" />
    <glyph glyph-name="f" unicode="f" horiz-adv-x="271" 
d="M287 449l-11 -75h-91l-72 -563h-83l72 563h-72l11 75h71q7 106 57 170q57 72 159 72q49 0 109 -21l-12 -84q-45 25 -88 25q-127 0 -141 -162h91z" />
    <glyph glyph-name="g" unicode="g" horiz-adv-x="427" 
d="M445 449l-9 -66h-87q30 -43 30 -89q0 -119 -105 -163q-8 -3 -96 -22q-57 -12 -57 -38q0 -21 64 -37q90 -22 118 -37q64 -34 64 -99q0 -64 -63 -99q-51 -29 -120 -29q-68 0 -123 24q-72 32 -72 92q0 64 129 91v2q-78 29 -78 79q0 58 89 83q-81 38 -81 129q0 73 47.5 126
t119.5 53h230zM298 290q0 38 -21.5 64t-58.5 26t-63 -33t-26 -71t22 -64.5t59 -26.5q40 0 65 34q23 30 23 71zM286 -110q0 41 -100 64q-116 -22 -116 -66q0 -54 121 -54q35 0 60 11q35 15 35 45z" />
    <glyph glyph-name="h" unicode="h" 
d="M202 682l-43 -305l2 -2q76 88 156 88q104 0 104 -124q0 -19 -2 -33l-43 -306h-85l43 311q2 14 2 22q0 66 -53 66q-58 0 -136 -107l-41 -292h-85l96 682h85z" />
    <glyph glyph-name="i" unicode="i" horiz-adv-x="188" 
d="M171 449l-63 -449h-85l63 449h85zM144 639q20 0 34.5 -14.5t14.5 -34.5t-14.5 -34.5t-34.5 -14.5t-34.5 14.5t-14.5 34.5t14.5 34.5t34.5 14.5z" />
    <glyph glyph-name="j" unicode="j" horiz-adv-x="188" 
d="M20 -67l66 516h85l-69 -540q-18 -139 -155 -139q-29 0 -50 9l11 75q21 -5 38 -5q63 0 74 84zM192 590q0 -20 -14.5 -34.5t-34.5 -14.5t-34.5 14.5t-14.5 34.5t14.5 34.5t34.5 14.5t34.5 -14.5t14.5 -34.5z" />
    <glyph glyph-name="k" unicode="k" horiz-adv-x="458" 
d="M204 682l-61 -426l2 -2l188 195h108l-206 -212l220 -237h-108l-207 228l-32 -228h-84l95 682h85z" />
    <glyph glyph-name="l" unicode="l" horiz-adv-x="188" 
d="M204 682l-96 -682h-85l96 682h85z" />
    <glyph glyph-name="m" unicode="m" horiz-adv-x="740" 
d="M171 449l-12 -78l2 -2q77 87 155 87q87 0 102 -101q82 101 168 101q52 0 79 -35.5t27 -89.5q0 -19 -3 -40l-41 -291h-85l42 295q2 14 2 27q0 67 -48 67q-62 0 -141 -104l-41 -285h-85l40 284q3 21 3 37q0 68 -53 68q-58 0 -135 -104l-40 -285h-85l64 449h85z" />
    <glyph glyph-name="n" unicode="n" 
d="M178 449l-11 -79l2 -2q72 88 149 88q55 0 85 -43q25 -37 25 -95q0 -15 -3 -35l-43 -283h-84l41 286q2 14 2 28q0 72 -51 72q-58 0 -135 -100l-41 -286h-84l63 449h85z" />
    <glyph glyph-name="o" unicode="o" horiz-adv-x="448" 
d="M418 267q0 -108 -51 -188q-59 -93 -162 -93q-85 0 -129 60q-40 53 -40 141q0 107 53 186q60 90 162 90q81 0 126 -59q41 -53 41 -137zM123 178q0 -44 17 -77q22 -42 62 -42q65 0 101 78q28 61 28 135q0 47 -16 81q-21 43 -64 43q-63 0 -99 -82q-29 -64 -29 -136z" />
    <glyph glyph-name="p" unicode="p" horiz-adv-x="490" 
d="M209 563l-16 -114q36 14 76 14q84 0 137 -63q49 -60 49 -146q0 -101 -62 -176q-76 -92 -209 -92h-56l-30 -216h-85l80 568q-11 -8 -35 -49q-19 -33 -40 -33q-4 0 -4 6q0 29 32 74q27 40 55 62l23 165h85zM184 386l-46 -328h41q84 0 136.5 56t52.5 140q0 62 -34 103.5
t-94 41.5q-28 0 -56 -13z" />
    <glyph glyph-name="q" unicode="q" 
d="M444 463l-97 -693h-85l34 243q-55 -27 -93 -27q-82 0 -129 61q-43 56 -43 141q0 131 95 206q87 69 223 69h95zM305 76l44 317q-104 6 -167.5 -50.5t-63.5 -159.5q0 -56 31 -91.5t86 -35.5q27 0 70 20z" />
    <glyph glyph-name="r" unicode="r" horiz-adv-x="313" 
d="M185 449l-13 -85l2 -2q33 47 49 63q33 31 70 31q20 0 37 -7v-96q-27 15 -52 15q-40 0 -74 -40q-19 -22 -47 -75l-35 -253h-85l63 449h85z" />
    <glyph glyph-name="s" unicode="s" horiz-adv-x="354" 
d="M323 416v-89q-77 59 -135 59q-23 0 -42 -12.5t-19 -34.5q0 -26 46 -58q40 -28 87 -63q46 -44 46 -98q0 -60 -39.5 -97t-99.5 -37q-72 0 -156 59l15 82q84 -67 138 -67q24 0 41 13.5t17 36.5q0 29 -46 64l-84 64q-46 44 -46 96q0 61 41 96q38 33 100 33q68 0 136 -47z" />
    <glyph glyph-name="t" unicode="t" horiz-adv-x="281" 
d="M285 449l-9 -66h-90l-43 -246q-3 -17 -3 -31q0 -44 47 -44q34 0 82 27l-5 -83q-48 -20 -93 -20q-52 0 -84 25q-35 27 -35 77q0 11 2 23l47 272h-79l10 66h82l17 92h84l-16 -92h86z" />
    <glyph glyph-name="u" unicode="u" 
d="M436 449l-64 -449h-84l10 74l-2 2q-79 -83 -148 -83q-52 0 -81 37q-28 34 -28 87q0 15 3 36l42 296h85l-42 -296q-2 -14 -2 -28q0 -67 50 -67q52 0 135 99l41 292h85z" />
    <glyph glyph-name="v" unicode="v" horiz-adv-x="375" 
d="M411 449l-231 -458h-42l-102 458h84l59 -285h2l144 285h86z" />
    <glyph glyph-name="w" unicode="w" horiz-adv-x="615" 
d="M647 449l-231 -458h-40l-58 294h-2l-152 -294h-39l-93 458h83l54 -302h2l146 302h42l56 -302h2l147 302h83z" />
    <glyph glyph-name="x" unicode="x" horiz-adv-x="427" 
d="M443 449l-181 -222l114 -227h-91l-82 168l-130 -168h-104l196 238l-106 211h91l71 -151l117 151h105z" />
    <glyph glyph-name="y" unicode="y" horiz-adv-x="375" 
d="M400 449l-322 -679h-90l122 257l-87 422h85l60 -309h2l141 309h89z" />
    <glyph glyph-name="z" unicode="z" horiz-adv-x="458" 
d="M447 449l-298 -374h261l-16 -75h-407l293 374h-227l10 75h384z" />
    <glyph glyph-name="braceleft" unicode="{" horiz-adv-x="333" 
d="M28 219v80q63 0 86 54q15 35 15 109v88q0 86 27 128q34 50 115 50h39v-76h-15q-54 0 -71 -24q-14 -19 -14 -77v-72q0 -87 -15 -130q-22 -63 -86 -90q64 -27 86 -90q15 -43 15 -130v-72q0 -58 14 -77q17 -24 71 -24h15v-76h-39q-81 0 -115 51q-27 41 -27 127v88
q0 74 -15 109q-23 54 -86 54z" />
    <glyph glyph-name="bar" unicode="|" horiz-adv-x="260" 
d="M108 -250v1000h76v-1000h-76z" />
    <glyph glyph-name="braceright" unicode="}" horiz-adv-x="333" 
d="M305 299v-80q-63 0 -86 -54q-15 -35 -15 -109v-88q0 -86 -27 -127q-34 -51 -115 -51h-39v76h15q54 0 71 24q14 19 14 77v72q0 87 15 130q22 63 86 90q-64 27 -86 90q-15 43 -15 130v72q0 58 -14 77q-17 24 -71 24h-15v76h39q81 0 115 -50q27 -42 27 -128v-88
q0 -74 15 -109q23 -54 86 -54z" />
    <glyph glyph-name="asciitilde" unicode="~" horiz-adv-x="584" 
d="M39 198v0v83q76 64 149 64q41 0 125 -38t121 -38q58 0 140 67v-83q-75 -64 -146 -64q-42 0 -124 38t-123 38q-55 0 -142 -67z" />
    <glyph glyph-name="euro" horiz-adv-x="498" 
d="M522 633l-23 -156l-48 6q0 157 -94 157q-103 0 -161 -211h172l-21 -48h-164q-6 -24 -16 -73h147l-21 -47h-134q-6 -41 -6 -74q0 -56 21 -91q26 -43 78 -43q58 0 101 68q24 38 51 119l55 -10l-54 -188q-77 -53 -159 -53q-111 0 -166 84q-47 71 -47 188h-74l21 47h56
q3 25 12 73h-66l21 48h59q41 112 108 183q83 88 187 88q94 0 165 -67z" />
    <glyph glyph-name="exclamdown" unicode="&#xa1;" horiz-adv-x="250" 
d="M120 295h37q-8 -64 -14 -226q-5 -137 -18 -225q-11 -74 -62 -74q-40 0 -40 59q0 31 31 170zM151 359q-24 0 -41 17t-17 41t17 41t41 17t41 -17t17 -41t-17 -41t-41 -17z" />
    <glyph glyph-name="cent" unicode="&#xa2;" horiz-adv-x="385" 
d="M394 454l-11 -74q-35 7 -63 7l-100 -325q10 -1 19 -1q66 0 124 47l-13 -90q-47 -32 -117 -32q-21 0 -36 5l-56 -179h-46l58 188q-125 46 -125 198q0 112 80 187q76 71 190 76l53 176h49l-55 -176q35 -3 49 -7zM177 74l96 309q-71 -15 -114.5 -64.5t-43.5 -120.5
q0 -84 62 -124z" />
    <glyph glyph-name="sterling" unicode="&#xa3;" 
d="M506 679l-12 -84q-27 11 -51 11q-104 0 -184 -231h109l-24 -81h-110l-68 -200l28 2q25 0 75 -8.5t75 -8.5q56 0 113 27l-13 -93q-47 -22 -111 -22q-30 0 -88.5 8.5t-88.5 8.5q-65 0 -115 -16h-5l105 302h-88l24 81h89q45 133 95 204q77 112 181 112q28 0 64 -12z" />
    <glyph glyph-name="currency" unicode="&#xa4;" horiz-adv-x="552" 
d="M463 226l67 -67l-57 -57l-67 67q-51 -35 -115 -35q-63 0 -115 35l-67 -67l-57 57l67 67q-35 50 -35 115q0 63 35 115l-67 67l57 57l67 -67q49 35 115 35q62 0 115 -35l67 67l57 -57l-67 -67q35 -48 35 -115q0 -66 -35 -115zM291 468q-53 0 -90 -37t-37 -90
q0 -52 37.5 -89.5t89.5 -37.5q53 0 90 37t37 90t-37 90t-90 37z" />
    <glyph glyph-name="yen" unicode="&#xa5;" horiz-adv-x="552" 
d="M541 366l-14 -66h-198l-16 -74h199l-14 -66h-198l-34 -160h-88l33 160h-198l15 66h197l15 74h-199l14 66h167l-133 350h89l116 -339h6l232 339h110l-264 -350h163z" />
    <glyph glyph-name="brokenbar" unicode="&#xa6;" horiz-adv-x="260" 
d="M92 -175v350h76v-350h-76zM92 325v350h76v-350h-76z" />
    <glyph glyph-name="section" unicode="&#xa7;" horiz-adv-x="490" 
d="M461 544l-80 -29q11 21 11 41q0 29 -18.5 47t-47.5 18q-38 0 -66 -23t-28 -60q0 -42 57 -93q102 -91 104 -95q57 -64 57 -138q0 -54 -42 -102q-38 -42 -93 -64q51 -67 51 -121q0 -72 -52.5 -113.5t-126.5 -41.5q-73 0 -116 34q-47 38 -46 109l77 43q-2 -15 -2 -28
q0 -88 87 -88q38 0 63 19q29 22 29 58q0 41 -68 109q-51 45 -103 91q-60 65 -60 130q0 61 45 107q41 43 104 56q-54 58 -54 118q0 77 58 122q53 41 132 41q57 0 92 -30q39 -32 39 -87q0 -15 -3 -30zM254 102q43 10 73 35q36 30 36 69q0 64 -99 144q-50 -2 -86 -25
q-43 -28 -43 -75q0 -33 46 -81q8 -9 73 -67z" />
    <glyph glyph-name="dieresis" unicode="&#xa8;" horiz-adv-x="333" 
d="M309 639q19 0 32.5 -13.5t13.5 -32.5t-13.5 -32.5t-32.5 -13.5t-32.5 13.5t-13.5 32.5t13.5 32.5t32.5 13.5zM130 639q19 0 32.5 -13.5t13.5 -32.5t-13.5 -32.5t-32.5 -13.5t-32.5 13.5t-13.5 32.5t13.5 32.5t32.5 13.5z" />
    <glyph glyph-name="copyright" unicode="&#xa9;" horiz-adv-x="740" 
d="M488 300l60 -18q-15 -66 -64 -99.5t-118 -33.5q-92 0 -143 63q-46 58 -46 153q0 90 53.5 145.5t143.5 55.5q133 0 167 -115l-58 -14q-30 75 -114 75q-62 0 -96 -49q-29 -43 -29 -108t30 -105q33 -44 96 -44q44 0 76 25.5t42 68.5zM369 728q154 0 261.5 -107t107.5 -261
t-107.5 -261.5t-261.5 -107.5t-261 107.5t-107 261.5t107 261t261 107zM369 667q-128 0 -217.5 -89.5t-89.5 -217.5t89.5 -218t217.5 -90t218 90t90 218t-90 217.5t-218 89.5z" />
    <glyph glyph-name="ordfeminine" unicode="&#xaa;" horiz-adv-x="313" 
d="M327 682l-42 -270h-66l3 23q-36 -26 -70 -26q-44 0 -72 31t-28 75q0 83 60 132q55 44 141 44q38 0 74 -9zM231 493l23 149q-60 0 -95 -29q-39 -31 -39 -90q0 -26 12 -46q13 -23 38 -23q26 0 61 39z" />
    <glyph glyph-name="guillemotleft" unicode="&#xab;" horiz-adv-x="438" 
d="M446 449l-173 -235l84 -214h-68l-88 224l168 225h77zM252 449l-173 -235l84 -214h-68l-88 224l168 225h77z" />
    <glyph glyph-name="logicalnot" unicode="&#xac;" horiz-adv-x="584" 
d="M543 126h-82v213h-391v82h473v-295z" />
    <glyph glyph-name="sfthyphen" unicode="&#xad;" horiz-adv-x="338" 
d="M8 174l33 122h246l-33 -122h-246z" />
    <glyph glyph-name="registered" unicode="&#xae;" horiz-adv-x="740" 
d="M208 156v396h175q52 0 89 -25q42 -29 42 -79q0 -49 -32 -80t-81 -34v-2q39 -14 92 -99l48 -77h-78l-35 62q-32 57 -45 72q-30 34 -73 34h-38v-168h-64zM272 379h92q82 0 82 60q0 29 -20.5 44t-50.5 15h-103v-119zM369 728q154 0 261.5 -107t107.5 -261t-107.5 -261.5
t-261.5 -107.5t-261 107.5t-107 261.5t107 261t261 107zM369 667q-128 0 -217.5 -89.5t-89.5 -217.5t89.5 -218t217.5 -90t218 90t90 218t-90 217.5t-218 89.5z" />
    <glyph glyph-name="macron" unicode="&#xaf;" horiz-adv-x="333" 
d="M378 635l-9 -64h-322l9 64h322z" />
    <glyph glyph-name="macron" unicode="&#x2c9;" horiz-adv-x="333" 
d="M378 635l-9 -64h-322l9 64h322z" />
    <glyph glyph-name="degree" unicode="&#xb0;" horiz-adv-x="396" 
d="M197 675q-35 0 -58.5 -23.5t-23.5 -58.5t23.5 -59t58.5 -24t59 24t24 59t-24 58.5t-59 23.5zM197 728q56 0 95.5 -39.5t39.5 -95.5t-39.5 -95.5t-95.5 -39.5t-95.5 39.5t-39.5 95.5t39.5 95.5t95.5 39.5z" />
    <glyph glyph-name="plusminus" unicode="&#xb1;" horiz-adv-x="584" 
d="M71 82h472v-82h-472v82zM266 589h82v-195h195v-82h-195v-195h-82v195h-195v82h195v195z" />
    <glyph glyph-name="twosuperior" unicode="&#xb2;" horiz-adv-x="323" 
d="M92 605l9 60q48 26 96 26q42 0 71 -20q33 -24 33 -64q0 -47 -60 -123q-26 -33 -95 -104h150l-7 -48h-259q209 217 209 267q0 41 -52 41q-42 0 -95 -35z" />
    <glyph glyph-name="threesuperior" unicode="&#xb3;" horiz-adv-x="323" 
d="M107 616l8 58q44 17 89 17q48 0 79 -22q35 -26 35 -72q0 -57 -74 -83q50 -21 50 -79q0 -52 -49 -82q-41 -26 -96 -26q-50 0 -103 21l7 49q53 -22 94 -22q81 0 81 63q0 54 -75 54l7 45q87 9 87 61q0 45 -55 45q-41 0 -85 -27z" />
    <glyph glyph-name="acute" unicode="&#xb4;" horiz-adv-x="333" 
d="M226 670h101l-113 -146h-56z" />
    <glyph glyph-name="mu" unicode="&#xb5;" horiz-adv-x="552" 
d="M135 449h85l-58 -276q-4 -19 -4 -37q0 -86 80 -86q101 0 127 124l57 275h85l-93 -449h-77l4 32q-20 -16 -38 -27q-32 -19 -72 -19q-59 0 -97 54l-43 -213h-84z" />
    <glyph glyph-name="mu" unicode="&#x3bc;" horiz-adv-x="552" 
d="M135 449h85l-58 -276q-4 -19 -4 -37q0 -86 80 -86q101 0 127 124l57 275h85l-93 -449h-77l4 32q-20 -16 -38 -27q-32 -19 -72 -19q-59 0 -97 54l-43 -213h-84z" />
    <glyph glyph-name="paragraph" unicode="&#xb6;" horiz-adv-x="542" 
d="M218 -199v510q-91 5 -144 58.5t-53 144.5q0 102 65 154q60 48 165 48h309v-81h-71v-834h-81v834h-109v-834h-81z" />
    <glyph glyph-name="ch270" unicode="&#xb7;" horiz-adv-x="249" 
d="M38 348q0 34 23 57t57 23t57.5 -23t23.5 -57t-23.5 -57.5t-57.5 -23.5t-57 23.5t-23 57.5z" />
    <glyph glyph-name="ch270" unicode="&#x2219;" horiz-adv-x="249" 
d="M38 348q0 34 23 57t57 23t57.5 -23t23.5 -57t-23.5 -57.5t-57.5 -23.5t-57 23.5t-23 57.5z" />
    <glyph glyph-name="cedilla" unicode="&#xb8;" horiz-adv-x="333" 
d="M180 7l-9 -24q46 -21 46 -68q0 -40 -34 -64q-30 -22 -72 -22q-33 0 -68 7l12 46q28 -7 42 -7q47 0 47 38q0 21 -27 35l28 59h35z" />
    <glyph glyph-name="onesuperior" unicode="&#xb9;" horiz-adv-x="323" 
d="M265 691l-66 -359h-64l65 359h65z" />
    <glyph glyph-name="ordmasculine" unicode="&#xba;" horiz-adv-x="302" 
d="M316 571q0 -68 -36 -115q-40 -52 -106 -52q-55 0 -84.5 33t-29.5 89q0 67 38 114q41 51 106 51q53 0 82.5 -33t29.5 -87zM249 574q0 71 -45 71q-41 0 -62 -49q-15 -36 -15 -84q0 -23 11 -41q13 -21 35 -21q37 0 59 46q17 37 17 78z" />
    <glyph glyph-name="guillemotright" unicode="&#xbb;" horiz-adv-x="438" 
d="M170 0l173 235l-84 214h68l88 -224l-168 -225h-77zM-26 0l173 235l-84 214h68l88 -224l-168 -225h-77z" />
    <glyph glyph-name="onequarter" unicode="&#xbc;" horiz-adv-x="844" 
d="M665 360l-37 -209h58l-6 -43h-60l-20 -108h-63l21 108h-151v23l217 229h41zM580 242l-86 -91h72l16 89zM263 691l-66 -359h-64l65 359h65zM664 691l-542 -718h-69l543 718h68z" />
    <glyph glyph-name="onehalf" unicode="&#xbd;" horiz-adv-x="844" 
d="M263 691l-66 -359h-64l65 359h65zM664 691l-542 -718h-69l543 718h68zM506 273l9 60q48 26 96 26q42 0 71 -20q33 -24 33 -64q0 -47 -60 -123q-26 -33 -95 -104h150l-7 -48h-259q209 217 209 267q0 41 -52 41q-42 0 -95 -35z" />
    <glyph glyph-name="threequarters" unicode="&#xbe;" horiz-adv-x="844" 
d="M135 616l8 58q44 17 89 17q48 0 79 -22q35 -26 35 -72q0 -57 -74 -83q50 -21 50 -79q0 -52 -49 -82q-41 -26 -96 -26q-50 0 -103 21l7 49q53 -22 94 -22q81 0 81 63q0 54 -75 54l7 45q87 9 87 61q0 45 -55 45q-41 0 -85 -27zM730 691l-542 -718h-69l543 718h68zM731 360
l-37 -209h58l-6 -43h-60l-20 -108h-63l21 108h-151v23l217 229h41zM646 242l-86 -91h72l16 89z" />
    <glyph glyph-name="questiondown" unicode="&#xbf;" horiz-adv-x="354" 
d="M271 -93l-14 -99q-61 -38 -112 -38q-68 0 -107 42.5t-39 111.5q0 63 47 120q31 34 92 105q54 65 64 146h55q0 -92 -44 -169q-17 -30 -83 -111q-44 -54 -44 -89q0 -34 20 -54.5t54 -20.5q50 0 111 56zM241 359q-24 0 -41 17t-17 41t17 41t41 17t41 -17t17 -41t-17 -41
t-41 -17z" />
    <glyph glyph-name="Agrave" unicode="&#xc0;" horiz-adv-x="521" 
d="M319 726h-20l-142 112h90zM485 0h-84l-41 214h-214l-90 -214h-91l301 686h86zM346 286l-52 280h-2l-116 -280h170z" />
    <glyph glyph-name="Aacute" unicode="&#xc1;" horiz-adv-x="521" 
d="M352 686l133 -686h-84l-41 214h-214l-90 -214h-91l301 686h86zM292 566l-116 -280h170l-52 280h-2zM371 838h90l-142 -112h-20z" />
    <glyph glyph-name="Acircumflex" unicode="&#xc2;" horiz-adv-x="521" 
d="M352 686l133 -686h-84l-41 214h-214l-90 -214h-91l301 686h86zM292 566l-116 -280h170l-52 280h-2zM338 795l80 -99h-33l-76 59l-97 -59h-38l105 99h59z" />
    <glyph glyph-name="Atilde" unicode="&#xc3;" horiz-adv-x="521" 
d="M352 686l133 -686h-84l-41 214h-214l-90 -214h-91l301 686h86zM292 566l-116 -280h170l-52 280h-2zM398 805h29q-11 -32 -33 -54q-25 -26 -55 -26q-8 0 -40.5 20t-44.5 20q-20 1 -40 -39h-29q30 79 88 80q12 0 44 -20.5t42 -20.5q20 -1 39 40z" />
    <glyph glyph-name="Adieresis" unicode="&#xc4;" horiz-adv-x="521" 
d="M352 686l133 -686h-84l-41 214h-214l-90 -214h-91l301 686h86zM292 566l-116 -280h170l-52 280h-2zM421 857q19 0 32.5 -13.5t13.5 -32.5t-13.5 -32.5t-32.5 -13.5t-32.5 13.5t-13.5 32.5t13.5 32.5t32.5 13.5zM242 857q19 0 32.5 -13.5t13.5 -32.5t-13.5 -32.5
t-32.5 -13.5t-32.5 13.5t-13.5 32.5t13.5 32.5t32.5 13.5z" />
    <glyph glyph-name="Aring" unicode="&#xc5;" horiz-adv-x="521" 
d="M352 686l133 -686h-84l-41 214h-214l-90 -214h-91l301 686h86zM292 566l-116 -280h170l-52 280h-2zM331 909q39 0 66.5 -27.5t27.5 -66.5t-27.5 -66.5t-66.5 -27.5t-66.5 27.5t-27.5 66.5t27.5 66.5t66.5 27.5zM331 868q-23 0 -39 -16t-16 -39q0 -22 16.5 -38.5
t38.5 -16.5q23 0 39 16t16 39t-16 39t-39 16z" />
    <glyph glyph-name="AE" unicode="&#xc6;" horiz-adv-x="833" 
d="M801 682l-11 -81h-261l-30 -211h245l-11 -81h-245l-32 -228h356l-11 -81h-446l43 309h-152l-170 -309h-97l389 682h433zM440 607h-31l-124 -226h123z" />
    <glyph glyph-name="Ccedilla" unicode="&#xc7;" horiz-adv-x="552" 
d="M529 161l-15 -110q-107 -61 -213 -60l-5 -13q46 -21 46 -68q0 -40 -34 -64q-30 -22 -72 -22q-33 0 -68 7l12 46q28 -7 42 -7q47 0 47 38q0 21 -27 35l25 52q-103 17 -162 97q-56 75 -56 183q0 196 138 310q128 106 328 106h65l-18 -86h-50q-191 0 -289 -113
q-77 -89 -77 -211q0 -89 44 -144q49 -60 135 -60q48 0 108 26q53 24 96 58z" />
    <glyph glyph-name="Egrave" unicode="&#xc8;" horiz-adv-x="510" 
d="M498 682l-11 -81h-273l-30 -214h241l-11 -81h-242l-33 -225h359l-12 -81h-448l99 682h361zM342 726h-20l-142 112h90z" />
    <glyph glyph-name="Eacute" unicode="&#xc9;" horiz-adv-x="510" 
d="M498 682l-11 -81h-273l-30 -214h241l-11 -81h-242l-33 -225h359l-12 -81h-448l99 682h361zM393 838h90l-142 -112h-20z" />
    <glyph glyph-name="Ecircumflex" unicode="&#xca;" horiz-adv-x="510" 
d="M498 682l-11 -81h-273l-30 -214h241l-11 -81h-242l-33 -225h359l-12 -81h-448l99 682h361zM361 795l80 -99h-33l-76 59l-97 -59h-38l105 99h59z" />
    <glyph glyph-name="Edieresis" unicode="&#xcb;" horiz-adv-x="510" 
d="M498 682l-11 -81h-273l-30 -214h241l-11 -81h-242l-33 -225h359l-12 -81h-448l99 682h361zM427 857q19 0 32.5 -13.5t13.5 -32.5t-13.5 -32.5t-32.5 -13.5t-32.5 13.5t-13.5 32.5t13.5 32.5t32.5 13.5zM248 857q19 0 32.5 -13.5t13.5 -32.5t-13.5 -32.5t-32.5 -13.5
t-32.5 13.5t-13.5 32.5t13.5 32.5t32.5 13.5z" />
    <glyph glyph-name="Igrave" unicode="&#xcc;" horiz-adv-x="240" 
d="M229 682l-96 -682h-94l96 682h94zM192 722h-20l-142 112h90z" />
    <glyph glyph-name="Iacute" unicode="&#xcd;" horiz-adv-x="240" 
d="M229 682l-96 -682h-94l96 682h94zM244 834h90l-142 -112h-20z" />
    <glyph glyph-name="Icircumflex" unicode="&#xce;" horiz-adv-x="240" 
d="M229 682l-96 -682h-94l96 682h94zM271 888l75 -148h-41l-83 99l-134 -99h-47l131 148h99z" />
    <glyph glyph-name="Idieresis" unicode="&#xcf;" horiz-adv-x="240" 
d="M229 682l-96 -682h-94l96 682h94zM292 857q19 0 32.5 -13.5t13.5 -32.5t-13.5 -32.5t-32.5 -13.5t-32.5 13.5t-13.5 32.5t13.5 32.5t32.5 13.5zM113 857q19 0 32.5 -13.5t13.5 -32.5t-13.5 -32.5t-32.5 -13.5t-32.5 13.5t-13.5 32.5t13.5 32.5t32.5 13.5z" />
    <glyph glyph-name="Eth" unicode="&#xd0;" horiz-adv-x="656" 
d="M216 601l-31 -219h156l-11 -81h-156l-31 -220h82q78 0 120 9q64 14 105 55q70 70 70 198q0 258 -304 258zM136 682h81q207 0 316 -109q84 -84 84 -233q0 -162 -94 -251t-258 -89h-226l43 301h-79l12 81h78z" />
    <glyph glyph-name="Ntilde" unicode="&#xd1;" horiz-adv-x="688" 
d="M678 682l-96 -682h-49l-339 498l-70 -498h-85l96 682h46l341 -502l71 502h85zM535 870v0h39q0 -44 -19 -76q-22 -38 -63 -38q-17 0 -67.5 19t-70.5 19q-31 0 -34 -37h-40q1 46 18 76q21 38 63 38q22 0 70.5 -19t69.5 -19q29 0 34 37z" />
    <glyph glyph-name="Ograve" unicode="&#xd2;" horiz-adv-x="656" 
d="M623 405q0 -159 -83 -279q-94 -135 -246 -135q-115 0 -182 89q-61 80 -61 199q0 151 84 273q95 139 247 139q117 0 182 -87q59 -78 59 -199zM531 421q0 80 -34 130q-39 58 -116 58q-111 0 -179 -117q-59 -101 -59 -226q0 -81 35 -133q40 -60 118 -60q112 0 179 124
q56 103 56 224zM392 731h-20l-142 112h90z" />
    <glyph glyph-name="Oacute" unicode="&#xd3;" horiz-adv-x="656" 
d="M623 405q0 -159 -83 -279q-94 -135 -246 -135q-115 0 -182 89q-61 80 -61 199q0 151 84 273q95 139 247 139q117 0 182 -87q59 -78 59 -199zM531 421q0 80 -34 130q-39 58 -116 58q-111 0 -179 -117q-59 -101 -59 -226q0 -81 35 -133q40 -60 118 -60q112 0 179 124
q56 103 56 224zM444 843h90l-142 -112h-20z" />
    <glyph glyph-name="Ocircumflex" unicode="&#xd4;" horiz-adv-x="656" 
d="M623 405q0 -159 -83 -279q-94 -135 -246 -135q-115 0 -182 89q-61 80 -61 199q0 151 84 273q95 139 247 139q117 0 182 -87q59 -78 59 -199zM531 421q0 80 -34 130q-39 58 -116 58q-111 0 -179 -117q-59 -101 -59 -226q0 -81 35 -133q40 -60 118 -60q112 0 179 124
q56 103 56 224zM418 795l80 -99h-33l-76 59l-97 -59h-38l105 99h59z" />
    <glyph glyph-name="Otilde" unicode="&#xd5;" horiz-adv-x="656" 
d="M623 405q0 -159 -83 -279q-94 -135 -246 -135q-115 0 -182 89q-61 80 -61 199q0 151 84 273q95 139 247 139q117 0 182 -87q59 -78 59 -199zM531 421q0 80 -34 130q-39 58 -116 58q-111 0 -179 -117q-59 -101 -59 -226q0 -81 35 -133q40 -60 118 -60q112 0 179 124
q56 103 56 224zM479 805h29q-11 -32 -33 -54q-25 -26 -55 -26q-8 0 -40.5 20t-44.5 20q-20 1 -40 -39h-29q30 79 88 80q12 0 44 -20.5t42 -20.5q20 -1 39 40z" />
    <glyph glyph-name="Odieresis" unicode="&#xd6;" horiz-adv-x="656" 
d="M623 405q0 -159 -83 -279q-94 -135 -246 -135q-115 0 -182 89q-61 80 -61 199q0 151 84 273q95 139 247 139q116 0 182 -87q59 -79 59 -199zM531 421q0 80 -34 130q-40 58 -116 58q-111 0 -179 -117q-59 -101 -59 -226q0 -81 35 -133q41 -60 118 -60q112 0 179 124
q56 102 56 224zM500 857q19 0 32.5 -13.5t13.5 -32.5t-13.5 -32.5t-32.5 -13.5t-32.5 13.5t-13.5 32.5t13.5 32.5t32.5 13.5zM321 857q19 0 32.5 -13.5t13.5 -32.5t-13.5 -32.5t-32.5 -13.5t-32.5 13.5t-13.5 32.5t13.5 32.5t32.5 13.5z" />
    <glyph glyph-name="multiply" unicode="&#xd7;" horiz-adv-x="584" 
d="M94 200l154 154l-154 154l59 59l154 -154l153 153l59 -59l-153 -153l153 -153l-59 -59l-153 153l-154 -154z" />
    <glyph glyph-name="Oslash" unicode="&#xd8;" horiz-adv-x="656" 
d="M521 500l-326 -388q36 -39 101 -39q112 0 179 124q56 102 56 224q0 39 -10 79zM548 622l65 78l38 -45l-68 -81q40 -66 40 -169q0 -159 -83 -279q-94 -135 -246 -135q-90 0 -152 57l-75 -89l-38 41l75 90q-53 78 -53 189q0 151 84 273q95 139 247 139q97 0 166 -69z
M163 161l330 395q-37 53 -112 53q-111 0 -179 -117q-59 -101 -59 -226q0 -52 20 -105z" />
    <glyph glyph-name="Ugrave" unicode="&#xd9;" horiz-adv-x="635" 
d="M637 682l-59 -421q-38 -270 -284 -270q-102 0 -166 54q-68 57 -68 157q0 20 3 41l62 439h90l-63 -446q-2 -14 -2 -28q0 -64 42 -99.5t107 -35.5q80 0 131 51q40 40 58 166l55 392h94zM392 686h-20l-142 112h90z" />
    <glyph glyph-name="Uacute" unicode="&#xda;" horiz-adv-x="635" 
d="M637 682l-59 -421q-38 -270 -284 -270q-102 0 -166 54q-68 57 -68 157q0 20 3 41l62 439h90l-63 -446q-2 -14 -2 -28q0 -64 42 -99.5t107 -35.5q80 0 131 51q40 40 58 166l55 392h94zM444 798h90l-142 -112h-20z" />
    <glyph glyph-name="Ucircumflex" unicode="&#xdb;" horiz-adv-x="635" 
d="M637 682l-59 -421q-38 -270 -284 -270q-102 0 -166 54q-68 57 -68 157q0 20 3 41l62 439h90l-63 -446q-2 -14 -2 -28q0 -64 42 -99.5t107 -35.5q80 0 131 51q40 40 58 166l55 392h94zM468 888l75 -148h-41l-83 99l-134 -99h-47l131 148h99z" />
    <glyph glyph-name="Udieresis" unicode="&#xdc;" horiz-adv-x="635" 
d="M637 682l-59 -421q-38 -270 -284 -270q-102 0 -166 54q-68 57 -68 157q0 20 3 41l62 439h90l-63 -446q-2 -14 -2 -28q0 -64 42 -99.5t107 -35.5q80 0 131 51q40 40 58 166l55 392h94zM489 857q19 0 32.5 -13.5t13.5 -32.5t-13.5 -32.5t-32.5 -13.5t-32.5 13.5t-13.5 32.5
t13.5 32.5t32.5 13.5zM310 857q19 0 32.5 -13.5t13.5 -32.5t-13.5 -32.5t-32.5 -13.5t-32.5 13.5t-13.5 32.5t13.5 32.5t32.5 13.5z" />
    <glyph glyph-name="Yacute" unicode="&#xdd;" horiz-adv-x="490" 
d="M557 682l-239 -342l-48 -340h-90l48 340l-160 342h95l116 -250l174 250h104zM372 798h90l-142 -112h-20z" />
    <glyph glyph-name="Thorn" unicode="&#xde;" horiz-adv-x="448" 
d="M123 682h93l-20 -144h24q101 0 158 -45q63 -49 63 -148q0 -72 -47 -129q-60 -72 -171 -72h-82l-20 -144h-94zM185 457l-32 -232h66q58 0 94.5 33t36.5 90q0 54 -36 83q-33 26 -89 26h-40z" />
    <glyph glyph-name="germandbls" unicode="&#xdf;" horiz-adv-x="500" 
d="M41 0l63 449q34 242 201 242q72 0 119 -45t47 -117q0 -51 -31 -91t-80 -52v-2q45 -18 70 -65q22 -43 22 -95q0 -90 -51 -160q-57 -78 -144 -78q-32 0 -53 14l9 64q16 -4 34 -4q62 0 94 58q26 46 26 113q0 121 -112 133l8 58q54 -5 93 24t39 82q0 42 -23.5 70.5
t-64.5 28.5q-59 0 -88 -58q-19 -36 -29 -110l-64 -459h-85z" />
    <glyph glyph-name="agrave" unicode="&#xe0;" 
d="M446 449l-63 -449h-85l8 52l-2 2q-58 -63 -121 -63q-67 0 -109 57q-39 52 -39 121q0 137 84 217q83 77 221 77q62 0 106 -14zM316 130l37 259q-13 1 -26 1q-112 0 -167 -82q-38 -56 -38 -124q0 -48 20 -82q24 -41 69 -41q53 0 105 69zM300 503h-20l-142 112h90z" />
    <glyph glyph-name="aacute" unicode="&#xe1;" 
d="M446 449l-63 -449h-85l8 52l-2 2q-58 -63 -121 -63q-67 0 -109 57q-39 52 -39 121q0 137 84 217q83 77 221 77q62 0 106 -14zM316 130l37 259q-13 1 -26 1q-112 0 -167 -82q-38 -56 -38 -124q0 -48 20 -82q24 -41 69 -41q53 0 105 69zM352 615h90l-142 -112h-20z" />
    <glyph glyph-name="acircumflex" unicode="&#xe2;" 
d="M446 449l-63 -449h-85l8 52l-2 2q-58 -63 -121 -63q-67 0 -109 57q-39 52 -39 121q0 137 84 217q83 77 221 77q62 0 106 -14zM316 130l37 259q-13 1 -26 1q-112 0 -167 -82q-38 -56 -38 -124q0 -48 20 -82q24 -41 69 -41q53 0 105 69zM366 581l80 -99h-33l-76 59l-97 -59
h-38l105 99h59z" />
    <glyph glyph-name="atilde" unicode="&#xe3;" 
d="M446 449l-63 -449h-85l8 52l-2 2q-58 -63 -121 -63q-67 0 -109 57q-39 52 -39 121q0 137 84 217q83 77 221 77q62 0 106 -14zM316 130l37 259q-13 1 -26 1q-112 0 -167 -82q-38 -56 -38 -124q0 -48 20 -82q24 -41 69 -41q53 0 105 69zM417 582h29q-11 -32 -33 -54
q-25 -26 -55 -26q-8 0 -40.5 20t-44.5 20q-20 1 -40 -39h-29q30 79 88 80q12 0 44 -20.5t42 -20.5q20 -1 39 40z" />
    <glyph glyph-name="adieresis" unicode="&#xe4;" 
d="M446 449l-63 -449h-85l8 52l-2 2q-58 -63 -121 -63q-67 0 -109 57q-39 52 -39 121q0 137 83.5 215.5t221.5 78.5q62 0 106 -14zM316 130l37 259q-13 1 -26 1q-112 0 -167 -82q-38 -56 -38 -124q0 -47 20 -82q25 -41 69 -41q53 0 105 69zM397 639q19 0 32.5 -13.5
t13.5 -32.5t-13.5 -32.5t-32.5 -13.5t-32.5 13.5t-13.5 32.5t13.5 32.5t32.5 13.5zM218 639q19 0 32.5 -13.5t13.5 -32.5t-13.5 -32.5t-32.5 -13.5t-32.5 13.5t-13.5 32.5t13.5 32.5t32.5 13.5z" />
    <glyph glyph-name="aring" unicode="&#xe5;" 
d="M446 449l-63 -449h-85l8 52l-2 2q-58 -63 -121 -63q-67 0 -109 57q-39 52 -39 121q0 137 83.5 215.5t221.5 78.5q62 0 106 -14zM316 130l37 259q-13 1 -26 1q-112 0 -167 -82q-38 -56 -38 -124q0 -47 20 -82q25 -41 69 -41q53 0 105 69zM307 691q39 0 66.5 -27.5
t27.5 -66.5t-27.5 -66.5t-66.5 -27.5t-66.5 27.5t-27.5 66.5t27.5 66.5t66.5 27.5zM307 650q-23 0 -39 -16t-16 -39q0 -22 16.5 -38.5t38.5 -16.5q23 0 39 16t16 39t-16 39t-39 16z" />
    <glyph glyph-name="ae" unicode="&#xe6;" horiz-adv-x="646" 
d="M588 119l-12 -87q-73 -46 -146 -46q-104 0 -152 85q-75 -85 -151 -85q-51 0 -83 28.5t-32 78.5q0 123 249 168q9 29 9 54q0 74 -62 74q-67 0 -148 -83l14 96q76 61 150 61q68 0 100 -61q56 61 139 61q72 0 114 -65q36 -57 36 -132q0 -26 -4 -51h-267q-6 -26 -6 -49
q0 -49 28.5 -79.5t77.5 -30.5q65 0 146 63zM350 274h182q2 40 -13 72q-22 47 -71 47q-45 0 -72 -38q-23 -33 -26 -81zM241 106l13 93q-155 -31 -155 -102q0 -41 45 -41q44 0 97 50z" />
    <glyph glyph-name="ccedilla" unicode="&#xe7;" horiz-adv-x="385" 
d="M357 100l-10 -82q-60 -32 -131 -32l-5 -13q46 -21 46 -68q0 -40 -34 -64q-30 -22 -72 -22q-33 0 -68 7l12 46q28 -7 42 -7q47 0 47 38q0 21 -27 35l25 52q-77 11 -119 69q-39 53 -39 134q0 121 86 197q82 73 205 73q32 0 77 -8l-11 -75q-32 7 -65 7q-83 0 -144 -53.5
t-61 -135.5q0 -61 31 -97q32 -39 92 -39q59 0 123 38z" />
    <glyph glyph-name="egrave" unicode="&#xe8;" horiz-adv-x="438" 
d="M388 117l-12 -81q-68 -50 -150 -50q-90 0 -141 65q-47 59 -47 152q0 102 54 177q61 83 159 83q75 0 119 -58q40 -52 40 -130q0 -21 -3 -42h-280q-4 -23 -4 -43q0 -57 31 -94q33 -40 88 -40q63 0 146 61zM140 292h188q0 101 -81 101q-73 0 -107 -101zM261 503h-20
l-142 112h90z" />
    <glyph glyph-name="eacute" unicode="&#xe9;" horiz-adv-x="438" 
d="M388 117l-12 -81q-68 -50 -150 -50q-90 0 -141 65q-47 59 -47 152q0 102 54 177q61 83 159 83q75 0 119 -58q40 -52 40 -130q0 -21 -3 -42h-280q-4 -23 -4 -43q0 -57 31 -94q33 -40 88 -40q63 0 146 61zM140 292h188q0 101 -81 101q-73 0 -107 -101zM313 615h90
l-142 -112h-20z" />
    <glyph glyph-name="ecircumflex" unicode="&#xea;" horiz-adv-x="438" 
d="M388 117l-12 -81q-68 -50 -150 -50q-90 0 -141 65q-47 59 -47 152q0 102 54 177q61 83 159 83q75 0 119 -58q40 -52 40 -130q0 -21 -3 -42h-280q-4 -23 -4 -43q0 -57 31 -94q33 -40 88 -40q63 0 146 61zM140 292h188q0 101 -81 101q-73 0 -107 -101zM285 571l80 -99h-33
l-76 59l-97 -59h-38l105 99h59z" />
    <glyph glyph-name="edieresis" unicode="&#xeb;" horiz-adv-x="438" 
d="M388 117l-12 -81q-68 -50 -150 -50q-90 0 -141 65q-47 59 -47 152q0 101 55 177q60 83 158 83q75 0 119 -58q40 -53 40 -130q0 -21 -3 -42h-280q-4 -23 -4 -43q0 -57 31 -94q32 -40 88 -40q63 0 146 61zM140 292h188q0 101 -81 101q-73 0 -107 -101zM362 639
q19 0 32.5 -13.5t13.5 -32.5t-13.5 -32.5t-32.5 -13.5t-32.5 13.5t-13.5 32.5t13.5 32.5t32.5 13.5zM183 639q19 0 32.5 -13.5t13.5 -32.5t-13.5 -32.5t-32.5 -13.5t-32.5 13.5t-13.5 32.5t13.5 32.5t32.5 13.5z" />
    <glyph glyph-name="igrave" unicode="&#xec;" horiz-adv-x="188" 
d="M171 449l-63 -449h-85l63 449h85zM139 489h-20l-142 112h90z" />
    <glyph glyph-name="iacute" unicode="&#xed;" horiz-adv-x="188" 
d="M171 449l-63 -449h-85l63 449h85zM190 601h90l-142 -112h-20z" />
    <glyph glyph-name="icircumflex" unicode="&#xee;" horiz-adv-x="188" 
d="M171 449l-63 -449h-85l63 449h85zM216 670l75 -148h-41l-83 99l-134 -99h-47l131 148h99z" />
    <glyph glyph-name="idieresis" unicode="&#xef;" horiz-adv-x="188" 
d="M171 449l-63 -449h-85l63 449h85zM237 639q19 0 32.5 -13.5t13.5 -32.5t-13.5 -32.5t-32.5 -13.5t-32.5 13.5t-13.5 32.5t13.5 32.5t32.5 13.5zM58 639q19 0 32.5 -13.5t13.5 -32.5t-13.5 -32.5t-32.5 -13.5t-32.5 13.5t-13.5 32.5t13.5 32.5t32.5 13.5z" />
    <glyph glyph-name="eth" unicode="&#xf0;" horiz-adv-x="448" 
d="M343 269q0 127 -93 127q-63 0 -99 -83q-29 -66 -29 -138q0 -41 19 -78q22 -44 60 -44q62 0 105 80q37 68 37 136zM437 652l-89 -47q83 -124 83 -280q0 -125 -53 -221q-64 -118 -179 -118q-82 0 -126 62q-37 54 -37 140q0 103 53 184q61 91 160 91q51 0 83 -30l2 2
q-12 65 -58 132l-91 -49l-25 40l86 45q-17 20 -35 32l52 56q31 -19 57 -49l93 49z" />
    <glyph glyph-name="ntilde" unicode="&#xf1;" 
d="M178 449l-11 -79l2 -2q72 88 149 88q55 0 85 -43q25 -37 25 -95q0 -15 -3 -35l-43 -283h-84l41 286q2 14 2 28q0 72 -51 72q-58 0 -135 -100l-41 -286h-84l63 449h85zM396 652v0h39q0 -44 -19 -76q-22 -38 -63 -38q-17 0 -67.5 19t-70.5 19q-31 0 -34 -37h-40q1 46 18 76
q21 38 63 38q22 0 70.5 -19t69.5 -19q29 0 34 37z" />
    <glyph glyph-name="ograve" unicode="&#xf2;" horiz-adv-x="448" 
d="M418 267q0 -109 -51 -188q-59 -93 -162 -93q-85 0 -129 60q-40 54 -40 141q0 107 52 186q61 90 163 90q81 0 126 -59q41 -53 41 -137zM123 178q0 -44 17 -78q22 -41 62 -41q65 0 101 78q28 61 28 135q0 48 -16 81q-21 43 -64 43q-62 0 -99 -82q-29 -65 -29 -136zM261 503
h-20l-142 112h90z" />
    <glyph glyph-name="oacute" unicode="&#xf3;" horiz-adv-x="448" 
d="M418 267q0 -109 -51 -188q-59 -93 -162 -93q-85 0 -129 60q-40 54 -40 141q0 107 52 186q61 90 163 90q81 0 126 -59q41 -53 41 -137zM123 178q0 -44 17 -78q22 -41 62 -41q65 0 101 78q28 61 28 135q0 48 -16 81q-21 43 -64 43q-62 0 -99 -82q-29 -65 -29 -136zM313 615
h90l-142 -112h-20z" />
    <glyph glyph-name="ocircumflex" unicode="&#xf4;" horiz-adv-x="448" 
d="M418 267q0 -109 -51 -188q-59 -93 -162 -93q-85 0 -129 60q-40 54 -40 141q0 107 52 186q61 90 163 90q81 0 126 -59q41 -53 41 -137zM123 178q0 -44 17 -78q22 -41 62 -41q65 0 101 78q28 61 28 135q0 48 -16 81q-21 43 -64 43q-62 0 -99 -82q-29 -65 -29 -136zM289 571
l80 -99h-33l-76 59l-97 -59h-38l105 99h59z" />
    <glyph glyph-name="otilde" unicode="&#xf5;" horiz-adv-x="448" 
d="M418 267q0 -109 -51 -188q-59 -93 -162 -93q-85 0 -129 60q-40 54 -40 141q0 107 52 186q61 90 163 90q81 0 126 -59q41 -53 41 -137zM123 178q0 -44 17 -78q22 -41 62 -41q65 0 101 78q28 61 28 135q0 48 -16 81q-21 43 -64 43q-62 0 -99 -82q-29 -65 -29 -136zM349 582
h29q-11 -32 -33 -54q-25 -26 -55 -26q-8 0 -40.5 20t-44.5 20q-20 1 -40 -39h-29q30 79 88 80q12 0 44 -20.5t42 -20.5q20 -1 39 40z" />
    <glyph glyph-name="odieresis" unicode="&#xf6;" horiz-adv-x="448" 
d="M418 267q0 -108 -51 -188q-59 -93 -162 -93q-85 0 -129 60q-40 53 -40 141q0 107 53 186q60 90 162 90q81 0 126 -59q41 -53 41 -137zM123 178q0 -44 17 -77q22 -42 62 -42q65 0 101 78q28 61 28 135q0 47 -16 81q-21 43 -64 43q-63 0 -99 -82q-29 -64 -29 -136zM367 639
q19 0 32.5 -13.5t13.5 -32.5t-13.5 -32.5t-32.5 -13.5t-32.5 13.5t-13.5 32.5t13.5 32.5t32.5 13.5zM188 639q19 0 32.5 -13.5t13.5 -32.5t-13.5 -32.5t-32.5 -13.5t-32.5 13.5t-13.5 32.5t13.5 32.5t32.5 13.5z" />
    <glyph glyph-name="divide" unicode="&#xf7;" horiz-adv-x="584" 
d="M71 394h472v-82h-472v82zM307 259q22 0 37.5 -15.5t15.5 -37.5t-15.5 -37.5t-37.5 -15.5t-37.5 15.5t-15.5 37.5t15.5 37.5t37.5 15.5zM307 553q22 0 37.5 -15.5t15.5 -37.5t-15.5 -37.5t-37.5 -15.5t-37.5 15.5t-15.5 37.5t15.5 37.5t37.5 15.5z" />
    <glyph glyph-name="oslash" unicode="&#xf8;" horiz-adv-x="448" 
d="M127 143l184 214q-22 39 -60 39q-63 0 -99 -82q-29 -64 -29 -136q0 -20 4 -35zM430 429l-39 -46q27 -49 27 -116q0 -108 -51 -188q-59 -93 -162 -93q-73 0 -116 45l-41 -47l-30 33l44 51q-26 49 -26 119q0 107 53 186q60 90 162 90q70 0 113 -45l37 43zM328 309
l-184 -214q22 -36 58 -36q65 0 101 78q28 61 28 135q0 21 -3 37z" />
    <glyph glyph-name="ugrave" unicode="&#xf9;" 
d="M436 449l-64 -449h-84l10 74l-2 2q-79 -83 -148 -83q-51 0 -81 37q-28 34 -28 87q0 15 3 36l42 296h85l-42 -296q-2 -14 -2 -28q0 -67 50 -67q52 0 135 99l41 292h85zM271 463h-20l-142 112h90z" />
    <glyph glyph-name="uacute" unicode="&#xfa;" 
d="M436 449l-64 -449h-84l10 74l-2 2q-79 -83 -148 -83q-51 0 -81 37q-28 34 -28 87q0 15 3 36l42 296h85l-42 -296q-2 -14 -2 -28q0 -67 50 -67q52 0 135 99l41 292h85zM323 575h90l-142 -112h-20z" />
    <glyph glyph-name="ucircumflex" unicode="&#xfb;" 
d="M436 449l-64 -449h-84l10 74l-2 2q-79 -83 -148 -83q-52 0 -81 37q-28 34 -28 87q0 15 3 36l42 296h85l-42 -296q-2 -14 -2 -28q0 -67 50 -67q52 0 135 99l41 292h85zM356 670l75 -148h-41l-83 99l-134 -99h-47l131 148h99z" />
    <glyph glyph-name="udieresis" unicode="&#xfc;" 
d="M436 449l-64 -449h-84l10 74l-2 2q-79 -83 -148 -83q-52 0 -81 37q-28 34 -28 87q0 15 3 36l42 296h85l-42 -296q-2 -14 -2 -28q0 -67 50 -67q52 0 135 99l41 292h85zM377 639q19 0 32.5 -13.5t13.5 -32.5t-13.5 -32.5t-32.5 -13.5t-32.5 13.5t-13.5 32.5t13.5 32.5
t32.5 13.5zM198 639q19 0 32.5 -13.5t13.5 -32.5t-13.5 -32.5t-32.5 -13.5t-32.5 13.5t-13.5 32.5t13.5 32.5t32.5 13.5z" />
    <glyph glyph-name="yacute" unicode="&#xfd;" horiz-adv-x="375" 
d="M400 449l-322 -679h-90l122 257l-87 422h85l60 -309h2l141 309h89zM270 575h90l-142 -112h-20z" />
    <glyph glyph-name="thorn" unicode="&#xfe;" horiz-adv-x="490" 
d="M184 386l-46 -328h41q84 0 136.5 56t52.5 140q0 62 -34 103.5t-94 41.5q-28 0 -56 -13zM13 -230l128 912h85l-33 -233q36 14 76 14q84 0 137 -63q49 -60 49 -146q0 -101 -62 -176q-76 -92 -209 -92h-56l-30 -216h-85z" />
    <glyph glyph-name="ydieresis" unicode="&#xff;" horiz-adv-x="375" 
d="M400 449l-322 -679h-90l122 257l-87 422h85l60 -309h2l141 309h89zM330 639q19 0 32.5 -13.5t13.5 -32.5t-13.5 -32.5t-32.5 -13.5t-32.5 13.5t-13.5 32.5t13.5 32.5t32.5 13.5zM151 639q19 0 32.5 -13.5t13.5 -32.5t-13.5 -32.5t-32.5 -13.5t-32.5 13.5t-13.5 32.5
t13.5 32.5t32.5 13.5z" />
    <glyph glyph-name="glyph271" unicode="&#x102;" horiz-adv-x="521" 
d="M352 686l133 -686h-84l-41 214h-214l-90 -214h-91l301 686h86zM292 566l-116 -280h170l-52 280h-2zM376 799h39q-27 -93 -113 -93q-43 0 -67.5 25t-22.5 68h38q2 -52 55 -52q42 0 71 52z" />
    <glyph glyph-name="glyph272" unicode="&#x103;" 
d="M446 449l-63 -449h-85l8 52l-2 2q-58 -63 -121 -63q-67 0 -109 57q-39 52 -39 121q0 137 84 217q83 77 221 77q62 0 106 -14zM316 130l37 259q-13 1 -26 1q-112 0 -167 -82q-38 -56 -38 -124q0 -48 20 -82q24 -41 69 -41q53 0 105 69zM360 585h39q-27 -93 -113 -93
q-43 0 -67.5 25t-22.5 68h38q2 -52 55 -52q42 0 71 52z" />
    <glyph glyph-name="Cacute" unicode="&#x106;" horiz-adv-x="711" 
d="M580 691l-18 -86h-50q-191 0 -289 -113q-77 -89 -77 -211q0 -89 44 -144q49 -60 135 -60q48 0 108 26q53 24 96 58l-15 -110q-105 -60 -202 -60q-120 0 -193 83q-70 79 -70 201q0 196 138 310q128 106 328 106h65zM403 925h101l-113 -146h-56z" />
    <glyph glyph-name="cacute" unicode="&#x107;" horiz-adv-x="441" 
d="M357 100l-10 -82q-60 -32 -125 -32q-93 0 -145.5 56.5t-52.5 150.5q0 121 86 197q82 73 205 73q32 0 77 -8l-11 -75q-32 7 -65 7q-83 0 -144 -53.5t-61 -135.5q0 -61 31 -97q32 -39 92 -39q59 0 123 38zM204 670h101l-113 -146h-56z" />
    <glyph glyph-name="Ccaron" unicode="&#x10c;" horiz-adv-x="711" 
d="M580 691l-18 -86h-50q-191 0 -289 -113q-77 -89 -77 -211q0 -89 44 -144q49 -60 135 -60q48 0 108 26q53 24 96 58l-15 -110q-105 -60 -202 -60q-120 0 -193 83q-70 79 -70 201q0 196 138 310q128 106 328 106h65zM330 777l-75 148h41l83 -99l134 99h47l-131 -148h-99z
" />
    <glyph glyph-name="ccaron" unicode="&#x10d;" horiz-adv-x="441" 
d="M357 100l-10 -82q-60 -32 -125 -32q-93 0 -145.5 56.5t-52.5 150.5q0 121 86 197q82 73 205 73q32 0 77 -8l-11 -75q-32 7 -65 7q-83 0 -144 -53.5t-61 -135.5q0 -61 31 -97q32 -39 92 -39q59 0 123 38zM131 522l-75 148h41l83 -99l134 99h47l-131 -148h-99z" />
    <glyph glyph-name="Dslash" unicode="&#x110;" horiz-adv-x="656" 
d="M216 601l-31 -219h156l-11 -81h-156l-31 -220h82q79 0 120 9q89 19 134 91q41 65 41 162q0 258 -304 258zM136 682h81q207 0 316 -109q84 -84 84 -233q0 -163 -94 -251.5t-258 -88.5h-226l43 301h-79l12 81h78z" />
    <glyph glyph-name="dcroat" unicode="&#x111;" 
d="M306 58l46 334h-22q-89 0 -149 -53q-63 -55 -63 -143q0 -140 149 -140q25 0 39 2zM460 555h39v-50h-46l-71 -505q-50 -14 -115 -14q-108 0 -169 49q-67 54 -67 159q0 92 67 171q83 98 228 98h36l6 42h-140v50h147l18 127h85z" />
    <glyph glyph-name="Gbreve" unicode="&#x11e;" horiz-adv-x="767" 
d="M577 296l-35 -245q-115 -60 -220 -60q-131 0 -210 86q-77 83 -77 214q0 147 100 259q126 141 368 141q43 0 118 -9l-11 -82q-82 9 -121 9q-178 0 -276 -108q-81 -89 -81 -207q0 -94 51 -155q54 -66 146 -66q67 0 131 33l16 118h-97l10 72h188zM504 914h49
q-37 -128 -141 -128q-53 0 -84 37t-28 91h47q1 -29 20 -46.5t49 -17.5q53 0 88 64z" />
    <glyph glyph-name="gbreve" unicode="&#x11f;" horiz-adv-x="492" 
d="M445 449l-9 -66h-87q30 -43 30 -89q0 -119 -105 -163q-8 -3 -96 -22q-57 -12 -57 -38q0 -21 64 -37q90 -22 118 -37q64 -34 64 -99q0 -64 -63 -99q-51 -29 -120 -29q-68 0 -123 24q-72 32 -72 92q0 64 129 91v2q-78 29 -78 79q0 58 89 83q-81 38 -81 129q0 73 47.5 126
t119.5 53h230zM298 290q0 38 -21.5 64t-58.5 26t-63 -33t-26 -71t22 -64.5t59 -26.5q40 0 65 34q23 30 23 71zM286 -110q0 41 -100 64q-116 -22 -116 -66q0 -54 121 -54q35 0 60 11q35 15 35 45zM304 659h49q-37 -128 -141 -128q-53 0 -84 37t-28 91h47q1 -29 20 -46.5
t49 -17.5q53 0 88 64z" />
    <glyph glyph-name="glyph273" unicode="&#x128;" horiz-adv-x="240" 
d="M229 682l-96 -682h-94l96 682h94zM270 800h29q-11 -32 -33 -54q-25 -26 -55 -26q-8 0 -40.5 20t-44.5 20q-20 1 -40 -39h-29q30 79 88 80q12 0 44 -20.5t42 -20.5q20 -1 39 40z" />
    <glyph glyph-name="glyph274" unicode="&#x129;" horiz-adv-x="188" 
d="M171 449l-63 -449h-85l63 449h85zM232 569h29q-11 -32 -33 -54q-25 -26 -55 -26q-8 0 -40.5 20t-44.5 20q-20 1 -40 -39h-29q30 79 88 80q12 0 44 -20.5t42 -20.5q20 -1 39 40z" />
    <glyph glyph-name="Idotaccent" unicode="&#x130;" horiz-adv-x="429" 
d="M229 682l-96 -682h-94l96 682h94zM247 894q19 0 32.5 -13.5t13.5 -32.5t-13.5 -32.5t-32.5 -13.5t-32.5 13.5t-13.5 32.5t13.5 32.5t32.5 13.5z" />
    <glyph glyph-name="dotlessi" unicode="&#x131;" horiz-adv-x="188" 
d="M171 449l-63 -449h-85l63 449h85z" />
    <glyph glyph-name="Lslash" unicode="&#x141;" horiz-adv-x="417" 
d="M306 449l-135 -112l-39 -261h280l-11 -76h-366l37 265l-72 -60l13 89l72 61l46 327h90l-37 -255l135 113z" />
    <glyph glyph-name="lslash" unicode="&#x142;" horiz-adv-x="188" 
d="M230 388l-75 -56l-47 -332h-85l38 269l-73 -54l7 61l75 55l49 351h85l-40 -288l75 56z" />
    <glyph glyph-name="OE" unicode="&#x152;" horiz-adv-x="969" 
d="M932 682l-12 -81h-275l-29 -213h258l-12 -81h-258l-31 -226h367l-11 -81h-452q-20 0 -59.5 -2t-59.5 -2q-146 0 -226.5 81t-80.5 226q0 124 82 235q106 144 293 144h506zM556 601h-56q3 0 -49 1h-39q-129 0 -200 -92q-64 -83 -64 -216q0 -96 45 -152q49 -61 143 -61h147z
" />
    <glyph glyph-name="oe" unicode="&#x153;" horiz-adv-x="719" 
d="M677 235h-277q-5 -26 -5 -49q0 -60 31.5 -95t90.5 -35q74 0 141 67l-14 -94q-64 -43 -133 -43q-107 0 -169 93q-67 -93 -146 -93q-85 0 -129 60q-40 53 -40 141q0 107 53 186q60 90 162 90q88 0 133 -80q64 80 146 80q157 0 157 -196q0 -15 -1 -32zM312 284q0 40 -15 71
q-19 40 -55 41q-63 2 -100 -81q-28 -65 -28 -137q0 -45 17 -77q21 -40 62 -42q64 -3 96 85q23 64 23 140zM408 294h188q-2 102 -83 102t-105 -102z" />
    <glyph glyph-name="Scedilla" unicode="&#x15e;" horiz-adv-x="656" 
d="M439 664l-13 -93q-56 36 -120 36q-52 0 -84 -25q-36 -28 -36 -78q0 -44 60 -96l111 -96q60 -65 60 -141q0 -82 -61 -132q-57 -48 -141 -48q-82 0 -165 49l14 100q94 -65 160 -65q40 0 70.5 24.5t30.5 63.5q0 45 -67 110q-52 46 -104 91q-60 65 -60 141q0 83 70 137
q64 49 150 49q63 0 125 -27zM219 7l-9 -24q46 -21 46 -68q0 -40 -34 -64q-30 -22 -72 -22q-33 0 -68 7l12 46q28 -7 42 -7q47 0 47 38q0 21 -27 35l28 59h35z" />
    <glyph glyph-name="scedilla" unicode="&#x15f;" horiz-adv-x="383" 
d="M323 416v-89q-77 59 -135 59q-23 0 -42 -12.5t-19 -34.5q0 -26 46 -58q40 -28 87 -63q46 -44 46 -98q0 -60 -39.5 -97t-99.5 -37q-72 0 -156 59l15 82q84 -67 138 -67q24 0 41 13.5t17 36.5q0 29 -46 64l-84 64q-46 44 -46 96q0 61 41 96q38 33 100 33q68 0 136 -47z
M122 7l-9 -24q46 -21 46 -68q0 -40 -34 -64q-30 -22 -72 -22q-33 0 -68 7l12 46q28 -7 42 -7q47 0 47 38q0 21 -27 35l28 59h35z" />
    <glyph glyph-name="Scaron" unicode="&#x160;" horiz-adv-x="458" 
d="M439 664l-13 -93q-56 36 -120 36q-52 0 -84 -25q-36 -28 -36 -78q0 -44 60 -96l111 -96q60 -65 60 -141q0 -82 -61 -132q-57 -48 -141 -48q-82 0 -165 49l14 100q94 -65 160 -65q40 0 70.5 24.5t30.5 63.5q0 45 -67 110q-52 46 -104 91q-60 65 -60 141q0 83 70 137
q64 49 150 49q63 0 125 -27zM245 740l-75 148h41l83 -99l134 99h47l-131 -148h-99z" />
    <glyph glyph-name="scaron" unicode="&#x161;" horiz-adv-x="354" 
d="M323 416v-89q-77 59 -135 59q-23 0 -42 -12.5t-19 -34.5q0 -26 46 -58q40 -28 87 -63q46 -44 46 -98q0 -60 -39.5 -97t-99.5 -37q-72 0 -156 59l15 82q84 -67 138 -67q24 0 41 13.5t17 36.5q0 29 -46 64l-84 64q-46 44 -46 96q0 61 41 96q38 33 100 33q68 0 136 -47z
M164 522l-75 148h41l83 -99l134 99h47l-131 -148h-99z" />
    <glyph glyph-name="ch903" unicode="&#x168;" horiz-adv-x="635" 
d="M637 682l-59 -421q-38 -270 -284 -270q-102 0 -166 54q-68 57 -68 157q0 20 3 41l62 439h90l-63 -446q-2 -14 -2 -28q0 -64 42 -99.5t107 -35.5q80 0 131 51q40 40 58 166l55 392h94zM479 765h29q-11 -32 -33 -54q-25 -26 -55 -26q-8 0 -40.5 20t-44.5 20q-20 1 -40 -39
h-29q30 79 88 80q12 0 44 -20.5t42 -20.5q20 -1 39 40z" />
    <glyph glyph-name="ch904" unicode="&#x169;" 
d="M436 449l-64 -449h-84l10 74l-2 2q-79 -83 -148 -83q-51 0 -81 37q-28 34 -28 87q0 15 3 36l42 296h85l-42 -296q-2 -14 -2 -28q0 -67 50 -67q52 0 135 99l41 292h85zM349 551h29q-11 -32 -33 -54q-25 -26 -55 -26q-8 0 -40.5 20t-44.5 20q-20 1 -40 -39h-29q30 79 88 80
q12 0 44 -20.5t42 -20.5q20 -1 39 40z" />
    <glyph glyph-name="Ydieresis" unicode="&#x178;" horiz-adv-x="490" 
d="M557 682l-239 -342l-48 -340h-90l48 340l-160 342h95l116 -250l174 250h104zM417 857q19 0 32.5 -13.5t13.5 -32.5t-13.5 -32.5t-32.5 -13.5t-32.5 13.5t-13.5 32.5t13.5 32.5t32.5 13.5zM238 857q19 0 32.5 -13.5t13.5 -32.5t-13.5 -32.5t-32.5 -13.5t-32.5 13.5
t-13.5 32.5t13.5 32.5t32.5 13.5z" />
    <glyph glyph-name="Zcaron" unicode="&#x17d;" horiz-adv-x="583" 
d="M647 682l-497 -597h404l-12 -85h-574l495 597h-388l12 85h560zM307 740l-75 148h41l83 -99l134 99h47l-131 -148h-99z" />
    <glyph glyph-name="zcaron" unicode="&#x17e;" horiz-adv-x="458" 
d="M447 449l-298 -374h261l-16 -75h-407l293 374h-227l10 75h384zM216 522l-75 148h41l83 -99l134 99h47l-131 -148h-99z" />
    <glyph glyph-name="florin" unicode="&#x192;" horiz-adv-x="552" 
d="M23 -198l17 76q48 -11 75 -11q48 0 58 59l90 524h-98l11 68h99l14 85q21 126 140 126q37 0 101 -19l-17 -75q-49 12 -78 12q-32 0 -46 -24q-8 -15 -15 -54l-9 -51h99l-12 -68h-100l-93 -533q-11 -66 -37 -94q-30 -33 -93 -33q-47 0 -106 12z" />
    <glyph glyph-name="glyph277" unicode="&#x1a0;" horiz-adv-x="656" 
d="M531 421q0 80 -34 130q-39 58 -116 58q-111 0 -179 -117q-59 -101 -59 -226q0 -81 35 -133q40 -60 118 -60q112 0 179 124q56 103 56 224zM451 681l103 -17q6 8 11 20q-21 17 -13 39q10 27 37 27q40 0 40 -45q0 -64 -80 -85q74 -80 74 -215q0 -159 -83 -279
q-94 -135 -246 -135q-115 0 -182 89q-61 80 -61 199q0 151 84 273q95 139 247 139q38 0 69 -10z" />
    <glyph glyph-name="glyph278" unicode="&#x1a1;" horiz-adv-x="448" 
d="M123 178q0 -44 17 -78q22 -41 62 -41q65 0 101 78q28 61 28 135q0 48 -16 81q-21 43 -64 43q-62 0 -99 -82q-29 -65 -29 -136zM323 448l70 -12q6 10 8 16q-21 17 -13 39q10 27 37 27q40 0 40 -45q0 -62 -78 -84q31 -50 31 -122q0 -109 -51 -188q-59 -93 -162 -93
q-85 0 -129 60q-40 54 -40 141q0 107 52 186q61 90 163 90q41 0 72 -15z" />
    <glyph glyph-name="glyph279" unicode="&#x1af;" horiz-adv-x="635" 
d="M628 620l-50 -359q-38 -270 -284 -270q-102 0 -166 54q-68 57 -68 157q0 20 3 41l62 439h90l-63 -446q-2 -14 -2 -28q0 -64 42 -99.5t107 -35.5q80 0 131 51q40 40 58 166l55 392h64l27 -18q6 8 11 20q-21 17 -13 39q10 27 37 27q40 0 40 -45q0 -65 -81 -85z" />
    <glyph glyph-name="glyph280" unicode="&#x1b0;" 
d="M427 389l-55 -389h-84l10 74l-2 2q-79 -83 -148 -83q-51 0 -81 37q-28 34 -28 87q0 15 3 36l42 296h85l-42 -296q-2 -14 -2 -28q0 -67 50 -67q52 0 135 99l41 292h55l28 -13q6 10 8 16q-21 17 -13 39q10 27 37 27q40 0 40 -45q0 -64 -79 -84z" />
    <glyph glyph-name="circumflex" unicode="&#x2c6;" horiz-adv-x="333" 
d="M288 670l75 -148h-41l-83 99l-134 -99h-47l131 148h99z" />
    <glyph glyph-name="caron" unicode="&#x2c7;" horiz-adv-x="333" 
d="M153 522l-75 148h41l83 -99l134 99h47l-131 -148h-99z" />
    <glyph glyph-name="breve" unicode="&#x2d8;" horiz-adv-x="333" 
d="M308 659h49q-37 -128 -141 -128q-53 0 -84 37t-28 91h47q1 -29 20 -46.5t49 -17.5q53 0 88 64z" />
    <glyph glyph-name="dotaccent" unicode="&#x2d9;" horiz-adv-x="333" 
d="M220 639q19 0 32.5 -13.5t13.5 -32.5t-13.5 -32.5t-32.5 -13.5t-32.5 13.5t-13.5 32.5t13.5 32.5t32.5 13.5z" />
    <glyph glyph-name="ring" unicode="&#x2da;" horiz-adv-x="333" 
d="M219 691q39 0 66.5 -27.5t27.5 -66.5t-27.5 -66.5t-66.5 -27.5t-66.5 27.5t-27.5 66.5t27.5 66.5t66.5 27.5zM219 650q-23 0 -39 -16t-16 -39q0 -22 16.5 -38.5t38.5 -16.5q23 0 39 16t16 39t-16 39t-39 16z" />
    <glyph glyph-name="ogonek" unicode="&#x2db;" horiz-adv-x="333" 
d="M220 -111l-10 -68q-32 -8 -62 -8q-43 0 -75 24q-35 27 -35 69t37 101h77q-29 -51 -29 -74t18 -36.5t41 -13.5q14 0 38 6z" />
    <glyph glyph-name="tilde" unicode="&#x2dc;" horiz-adv-x="333" 
d="M328 652v0h39q0 -44 -19 -76q-22 -38 -63 -38q-17 0 -67.5 19t-70.5 19q-31 0 -34 -37h-40q1 46 18 76q21 38 63 38q22 0 70.5 -19t69.5 -19q29 0 34 37z" />
    <glyph glyph-name="hungarumlaut" unicode="&#x2dd;" horiz-adv-x="333" 
d="M312 670h101l-113 -146h-56zM153 670h101l-113 -146h-56z" />
    <glyph glyph-name="glyph281" unicode="&#x1ea0;" horiz-adv-x="521" 
d="M352 686l133 -686h-84l-41 214h-214l-90 -214h-91l301 686h86zM292 566l-116 -280h170l-52 280h-2zM230 0q20 0 33.5 -13.5t13.5 -33.5t-13.5 -33.5t-33.5 -13.5t-33.5 13.5t-13.5 33.5q0 19 14 33t33 14z" />
    <glyph glyph-name="glyph282" unicode="&#x1ea1;" 
d="M446 449l-63 -449h-85l8 52l-2 2q-58 -63 -121 -63q-67 0 -109 57q-39 52 -39 121q0 137 84 217q83 77 221 77q62 0 106 -14zM316 130l37 259q-13 1 -26 1q-112 0 -167 -82q-38 -56 -38 -124q0 -48 20 -82q24 -41 69 -41q53 0 105 69zM183 -49q20 0 33.5 -13.5
t13.5 -33.5t-13.5 -33.5t-33.5 -13.5t-33.5 13.5t-13.5 33.5q0 19 14 33t33 14z" />
    <glyph glyph-name="glyph283" unicode="&#x1ea2;" horiz-adv-x="521" 
d="M352 686l133 -686h-84l-41 214h-214l-90 -214h-91l301 686h86zM292 566l-116 -280h170l-52 280h-2zM304 716l5 59q55 4 55 39q0 28 -35 28q-27 0 -54 -16l5 36q30 12 57 12q31 0 50 -14q23 -16 23 -46q0 -37 -47 -54z" />
    <glyph glyph-name="glyph284" unicode="&#x1ea3;" 
d="M446 449l-63 -449h-85l8 52l-2 2q-58 -63 -121 -63q-67 0 -109 57q-39 52 -39 121q0 137 84 217q83 77 221 77q62 0 106 -14zM316 130l37 259q-13 1 -26 1q-112 0 -167 -82q-38 -56 -38 -124q0 -48 20 -82q24 -41 69 -41q53 0 105 69zM295 493l5 59q55 4 55 39
q0 28 -35 28q-27 0 -54 -16l5 36q30 12 57 12q31 0 50 -14q23 -16 23 -46q0 -37 -47 -54z" />
    <glyph glyph-name="glyph285" unicode="&#x1ea4;" horiz-adv-x="521" 
d="M352 686l133 -686h-84l-41 214h-214l-90 -214h-91l301 686h86zM292 566l-116 -280h170l-52 280h-2zM338 795l80 -99h-33l-76 59l-97 -59h-38l105 99h59zM482 867h90l-142 -112h-20z" />
    <glyph glyph-name="glyph286" unicode="&#x1ea5;" 
d="M446 449l-63 -449h-85l8 52l-2 2q-58 -63 -121 -63q-67 0 -109 57q-39 52 -39 121q0 137 84 217q83 77 221 77q62 0 106 -14zM316 130l37 259q-13 1 -26 1q-112 0 -167 -82q-38 -56 -38 -124q0 -48 20 -82q24 -41 69 -41q53 0 105 69zM366 581l80 -99h-33l-76 59l-97 -59
h-38l105 99h59zM510 653h90l-142 -112h-20z" />
    <glyph glyph-name="glyph287" unicode="&#x1ea6;" horiz-adv-x="521" 
d="M352 686l133 -686h-84l-41 214h-214l-90 -214h-91l301 686h86zM292 566l-116 -280h170l-52 280h-2zM338 795l80 -99h-33l-76 59l-97 -59h-38l105 99h59zM206 755h-20l-142 112h90z" />
    <glyph glyph-name="glyph288" unicode="&#x1ea7;" 
d="M446 449l-63 -449h-85l8 52l-2 2q-58 -63 -121 -63q-67 0 -109 57q-39 52 -39 121q0 137 84 217q83 77 221 77q62 0 106 -14zM316 130l37 259q-13 1 -26 1q-112 0 -167 -82q-38 -56 -38 -124q0 -48 20 -82q24 -41 69 -41q53 0 105 69zM366 581l80 -99h-33l-76 59l-97 -59
h-38l105 99h59zM234 541h-20l-142 112h90z" />
    <glyph glyph-name="glyph289" unicode="&#x1ea8;" horiz-adv-x="521" 
d="M352 686l133 -686h-84l-41 214h-214l-90 -214h-91l301 686h86zM292 566l-116 -280h170l-52 280h-2zM338 795l80 -99h-33l-76 59l-97 -59h-38l105 99h59zM411 755l5 59q55 4 55 39q0 28 -35 28q-27 0 -54 -16l5 36q30 12 57 12q31 0 50 -14q23 -16 23 -46q0 -37 -47 -54z
" />
    <glyph glyph-name="glyph290" unicode="&#x1ea9;" 
d="M446 449l-63 -449h-85l8 52l-2 2q-58 -63 -121 -63q-67 0 -109 57q-39 52 -39 121q0 137 84 217q83 77 221 77q62 0 106 -14zM316 130l37 259q-13 1 -26 1q-112 0 -167 -82q-38 -56 -38 -124q0 -48 20 -82q24 -41 69 -41q53 0 105 69zM366 581l80 -99h-33l-76 59l-97 -59
h-38l105 99h59zM439 541l5 59q55 4 55 39q0 28 -35 28q-27 0 -54 -16l5 36q30 12 57 12q31 0 50 -14q23 -16 23 -46q0 -37 -47 -54z" />
    <glyph glyph-name="glyph291" unicode="&#x1eaa;" horiz-adv-x="521" 
d="M352 686l133 -686h-84l-41 214h-214l-90 -214h-91l301 686h86zM292 566l-116 -280h170l-52 280h-2zM338 795l80 -99h-33l-76 59l-97 -59h-38l105 99h59zM398 895h29q-11 -32 -33 -54q-25 -26 -55 -26q-8 0 -40.5 20t-44.5 20q-20 1 -40 -39h-29q30 79 88 80
q12 0 44 -20.5t42 -20.5q20 -1 39 40z" />
    <glyph glyph-name="glyph292" unicode="&#x1eab;" 
d="M446 449l-63 -449h-85l8 52l-2 2q-58 -63 -121 -63q-67 0 -109 57q-39 52 -39 121q0 137 84 217q83 77 221 77q62 0 106 -14zM316 130l37 259q-13 1 -26 1q-112 0 -167 -82q-38 -56 -38 -124q0 -48 20 -82q24 -41 69 -41q53 0 105 69zM365 581l80 -99h-33l-76 59l-97 -59
h-38l105 99h59zM425 681h29q-11 -32 -33 -54q-25 -26 -55 -26q-8 0 -40.5 20t-44.5 20q-20 1 -40 -39h-29q30 79 88 80q12 0 44 -20.5t42 -20.5q20 -1 39 40z" />
    <glyph glyph-name="glyph293" unicode="&#x1eac;" horiz-adv-x="521" 
d="M352 686l133 -686h-84l-41 214h-214l-90 -214h-91l301 686h86zM292 566l-116 -280h170l-52 280h-2zM338 795l80 -99h-33l-76 59l-97 -59h-38l105 99h59zM230 0q20 0 33.5 -13.5t13.5 -33.5t-13.5 -33.5t-33.5 -13.5t-33.5 13.5t-13.5 33.5q0 19 14 33t33 14z" />
    <glyph glyph-name="glyph294" unicode="&#x1ead;" 
d="M446 449l-63 -449h-85l8 52l-2 2q-58 -63 -121 -63q-67 0 -109 57q-39 52 -39 121q0 137 84 217q83 77 221 77q62 0 106 -14zM316 130l37 259q-13 1 -26 1q-112 0 -167 -82q-38 -56 -38 -124q0 -48 20 -82q24 -41 69 -41q53 0 105 69zM366 581l80 -99h-33l-76 59l-97 -59
h-38l105 99h59zM183 -49q20 0 33.5 -13.5t13.5 -33.5t-13.5 -33.5t-33.5 -13.5t-33.5 13.5t-13.5 33.5q0 19 14 33t33 14z" />
    <glyph glyph-name="glyph295" unicode="&#x1eae;" horiz-adv-x="521" 
d="M352 686l133 -686h-84l-41 214h-214l-90 -214h-91l301 686h86zM292 566l-116 -280h170l-52 280h-2zM376 799h39q-27 -93 -113 -93q-43 0 -67.5 25t-22.5 68h38q2 -52 55 -52q42 0 71 52zM371 911h90l-142 -112h-20z" />
    <glyph glyph-name="glyph296" unicode="&#x1eaf;" 
d="M446 449l-63 -449h-85l8 52l-2 2q-58 -63 -121 -63q-67 0 -109 57q-39 52 -39 121q0 137 84 217q83 77 221 77q62 0 106 -14zM316 130l37 259q-13 1 -26 1q-112 0 -167 -82q-38 -56 -38 -124q0 -48 20 -82q24 -41 69 -41q53 0 105 69zM360 585h39q-27 -93 -113 -93
q-43 0 -67.5 25t-22.5 68h38q2 -52 55 -52q42 0 71 52zM355 697h90l-142 -112h-20z" />
    <glyph glyph-name="glyph297" unicode="&#x1eb0;" horiz-adv-x="521" 
d="M352 686l133 -686h-84l-41 214h-214l-90 -214h-91l301 686h86zM292 566l-116 -280h170l-52 280h-2zM376 799h39q-27 -93 -113 -93q-43 0 -67.5 25t-22.5 68h38q2 -52 55 -52q42 0 71 52zM319 799h-20l-142 112h90z" />
    <glyph glyph-name="glyph298" unicode="&#x1eb1;" 
d="M446 449l-63 -449h-85l8 52l-2 2q-58 -63 -121 -63q-67 0 -109 57q-39 52 -39 121q0 137 84 217q83 77 221 77q62 0 106 -14zM316 130l37 259q-13 1 -26 1q-112 0 -167 -82q-38 -56 -38 -124q0 -48 20 -82q24 -41 69 -41q53 0 105 69zM361 585h39q-27 -93 -113 -93
q-43 0 -67.5 25t-22.5 68h38q2 -52 55 -52q42 0 71 52zM304 585h-20l-142 112h90z" />
    <glyph glyph-name="glyph299" unicode="&#x1eb2;" horiz-adv-x="521" 
d="M352 686l133 -686h-84l-41 214h-214l-90 -214h-91l301 686h86zM292 566l-116 -280h170l-52 280h-2zM376 799h39q-27 -93 -113 -93q-43 0 -67.5 25t-22.5 68h38q2 -52 55 -52q42 0 71 52zM304 789l5 59q55 4 55 39q0 28 -35 28q-27 0 -54 -16l5 36q30 12 57 12
q31 0 50 -14q23 -16 23 -46q0 -37 -47 -54z" />
    <glyph glyph-name="glyph300" unicode="&#x1eb3;" 
d="M446 449l-63 -449h-85l8 52l-2 2q-58 -63 -121 -63q-67 0 -109 57q-39 52 -39 121q0 137 84 217q83 77 221 77q62 0 106 -14zM316 130l37 259q-13 1 -26 1q-112 0 -167 -82q-38 -56 -38 -124q0 -48 20 -82q24 -41 69 -41q53 0 105 69zM360 585h39q-27 -93 -113 -93
q-43 0 -67.5 25t-22.5 68h38q2 -52 55 -52q42 0 71 52zM288 575l5 59q55 4 55 39q0 28 -35 28q-27 0 -54 -16l5 36q30 12 57 12q31 0 50 -14q23 -16 23 -46q0 -37 -47 -54z" />
    <glyph glyph-name="glyph301" unicode="&#x1eb4;" horiz-adv-x="521" 
d="M352 686l133 -686h-84l-41 214h-214l-90 -214h-91l301 686h86zM292 566l-116 -280h170l-52 280h-2zM376 799h39q-27 -93 -113 -93q-43 0 -67.5 25t-22.5 68h38q2 -52 55 -52q42 0 71 52zM508 888h29q-11 -32 -33 -54q-25 -26 -55 -26q-8 0 -40.5 20t-44.5 20
q-20 1 -40 -39h-29q30 79 88 80q12 0 44 -20.5t42 -20.5q20 -1 39 40z" />
    <glyph glyph-name="glyph302" unicode="&#x1eb5;" 
d="M446 449l-63 -449h-85l8 52l-2 2q-58 -63 -121 -63q-67 0 -109 57q-39 52 -39 121q0 137 84 217q83 77 221 77q62 0 106 -14zM316 130l37 259q-13 1 -26 1q-112 0 -167 -82q-38 -56 -38 -124q0 -48 20 -82q24 -41 69 -41q53 0 105 69zM361 585h39q-27 -93 -113 -93
q-43 0 -67.5 25t-22.5 68h38q2 -52 55 -52q42 0 71 52zM493 674h29q-11 -32 -33 -54q-25 -26 -55 -26q-8 0 -40.5 20t-44.5 20q-20 1 -40 -39h-29q30 79 88 80q12 0 44 -20.5t42 -20.5q20 -1 39 40z" />
    <glyph glyph-name="glyph303" unicode="&#x1eb6;" horiz-adv-x="521" 
d="M352 686l133 -686h-84l-41 214h-214l-90 -214h-91l301 686h86zM292 566l-116 -280h170l-52 280h-2zM376 799h39q-27 -93 -113 -93q-43 0 -67.5 25t-22.5 68h38q2 -52 55 -52q42 0 71 52zM230 0q20 0 33.5 -13.5t13.5 -33.5t-13.5 -33.5t-33.5 -13.5t-33.5 13.5
t-13.5 33.5q0 19 14 33t33 14z" />
    <glyph glyph-name="glyph304" unicode="&#x1eb7;" 
d="M446 449l-63 -449h-85l8 52l-2 2q-58 -63 -121 -63q-67 0 -109 57q-39 52 -39 121q0 137 84 217q83 77 221 77q62 0 106 -14zM316 130l37 259q-13 1 -26 1q-112 0 -167 -82q-38 -56 -38 -124q0 -48 20 -82q24 -41 69 -41q53 0 105 69zM183 -49q20 0 33.5 -13.5
t13.5 -33.5t-13.5 -33.5t-33.5 -13.5t-33.5 13.5t-13.5 33.5q0 19 14 33t33 14zM360 585h39q-27 -93 -113 -93q-43 0 -67.5 25t-22.5 68h38q2 -52 55 -52q42 0 71 52z" />
    <glyph glyph-name="glyph305" unicode="&#x1eb8;" horiz-adv-x="510" 
d="M498 682l-11 -81h-273l-30 -214h241l-11 -81h-242l-33 -225h359l-12 -81h-448l99 682h361zM268 -40q20 0 33.5 -13.5t13.5 -33.5t-13.5 -33.5t-33.5 -13.5t-33.5 13.5t-13.5 33.5q0 19 14 33t33 14z" />
    <glyph glyph-name="glyph306" unicode="&#x1eb9;" horiz-adv-x="438" 
d="M388 117l-12 -81q-68 -50 -150 -50q-90 0 -141 65q-47 59 -47 152q0 102 54 177q61 83 159 83q75 0 119 -58q40 -52 40 -130q0 -21 -3 -42h-280q-4 -23 -4 -43q0 -57 31 -94q33 -40 88 -40q63 0 146 61zM140 292h188q0 101 -81 101q-73 0 -107 -101zM226 -54
q20 0 33.5 -13.5t13.5 -33.5t-13.5 -33.5t-33.5 -13.5t-33.5 13.5t-13.5 33.5q0 19 14 33t33 14z" />
    <glyph glyph-name="glyph307" unicode="&#x1eba;" horiz-adv-x="510" 
d="M498 682l-11 -81h-273l-30 -214h241l-11 -81h-242l-33 -225h359l-12 -81h-448l99 682h361zM327 716l5 59q55 4 55 39q0 28 -35 28q-27 0 -54 -16l5 36q30 12 57 12q31 0 50 -14q23 -16 23 -46q0 -37 -47 -54z" />
    <glyph glyph-name="glyph308" unicode="&#x1ebb;" horiz-adv-x="438" 
d="M388 117l-12 -81q-68 -50 -150 -50q-90 0 -141 65q-47 59 -47 152q0 102 54 177q61 83 159 83q75 0 119 -58q40 -52 40 -130q0 -21 -3 -42h-280q-4 -23 -4 -43q0 -57 31 -94q33 -40 88 -40q63 0 146 61zM140 292h188q0 101 -81 101q-73 0 -107 -101zM246 494l5 59
q55 4 55 39q0 28 -35 28q-27 0 -54 -16l5 36q30 12 57 12q31 0 50 -14q23 -16 23 -46q0 -37 -47 -54z" />
    <glyph glyph-name="glyph309" unicode="&#x1ebc;" horiz-adv-x="510" 
d="M498 682l-11 -81h-273l-30 -214h241l-11 -81h-242l-33 -225h359l-12 -81h-448l99 682h361zM421 805h29q-11 -32 -33 -54q-25 -26 -55 -26q-8 0 -40.5 20t-44.5 20q-20 1 -40 -39h-29q30 79 88 80q12 0 44 -20.5t42 -20.5q20 -1 39 40z" />
    <glyph glyph-name="glyph310" unicode="&#x1ebd;" horiz-adv-x="438" 
d="M388 117l-12 -81q-68 -50 -150 -50q-90 0 -141 65q-47 59 -47 152q0 102 54 177q61 83 159 83q75 0 119 -58q40 -52 40 -130q0 -21 -3 -42h-280q-4 -23 -4 -43q0 -57 31 -94q33 -40 88 -40q63 0 146 61zM140 292h188q0 101 -81 101q-73 0 -107 -101zM346 582h29
q-11 -32 -33 -54q-25 -26 -55 -26q-8 0 -40.5 20t-44.5 20q-20 1 -40 -39h-29q30 79 88 80q12 0 44 -20.5t42 -20.5q20 -1 39 40z" />
    <glyph glyph-name="glyph311" unicode="&#x1ebe;" horiz-adv-x="510" 
d="M498 682l-11 -81h-273l-30 -214h241l-11 -81h-242l-33 -225h359l-12 -81h-448l99 682h361zM361 795l80 -99h-33l-76 59l-97 -59h-38l105 99h59zM505 867h90l-142 -112h-20z" />
    <glyph glyph-name="glyph312" unicode="&#x1ebf;" horiz-adv-x="438" 
d="M388 117l-12 -81q-68 -50 -150 -50q-90 0 -141 65q-47 59 -47 152q0 102 54 177q61 83 159 83q75 0 119 -58q40 -52 40 -130q0 -21 -3 -42h-280q-4 -23 -4 -43q0 -57 31 -94q33 -40 88 -40q63 0 146 61zM140 292h188q0 101 -81 101q-73 0 -107 -101zM285 571l80 -99h-33
l-76 59l-97 -59h-38l105 99h59zM429 643h90l-142 -112h-20z" />
    <glyph glyph-name="glyph313" unicode="&#x1ec0;" horiz-adv-x="510" 
d="M498 682l-11 -81h-273l-30 -214h241l-11 -81h-242l-33 -225h359l-12 -81h-448l99 682h361zM361 795l80 -99h-33l-76 59l-97 -59h-38l105 99h59zM229 755h-20l-142 112h90z" />
    <glyph glyph-name="glyph314" unicode="&#x1ec1;" horiz-adv-x="438" 
d="M388 117l-12 -81q-68 -50 -150 -50q-90 0 -141 65q-47 59 -47 152q0 102 54 177q61 83 159 83q75 0 119 -58q40 -52 40 -130q0 -21 -3 -42h-280q-4 -23 -4 -43q0 -57 31 -94q33 -40 88 -40q63 0 146 61zM140 292h188q0 101 -81 101q-73 0 -107 -101zM286 571l80 -99h-33
l-76 59l-97 -59h-38l105 99h59zM154 531h-20l-142 112h90z" />
    <glyph glyph-name="glyph315" unicode="&#x1ec2;" horiz-adv-x="510" 
d="M498 682l-11 -81h-273l-30 -214h241l-11 -81h-242l-33 -225h359l-12 -81h-448l99 682h361zM361 795l80 -99h-33l-76 59l-97 -59h-38l105 99h59zM434 755l5 59q55 4 55 39q0 28 -35 28q-27 0 -54 -16l5 36q30 12 57 12q31 0 50 -14q23 -16 23 -46q0 -37 -47 -54z" />
    <glyph glyph-name="glyph316" unicode="&#x1ec3;" horiz-adv-x="438" 
d="M388 117l-12 -81q-68 -50 -150 -50q-90 0 -141 65q-47 59 -47 152q0 102 54 177q61 83 159 83q75 0 119 -58q40 -52 40 -130q0 -21 -3 -42h-280q-4 -23 -4 -43q0 -57 31 -94q33 -40 88 -40q63 0 146 61zM140 292h188q0 101 -81 101q-73 0 -107 -101zM286 571l80 -99h-33
l-76 59l-97 -59h-38l105 99h59zM359 531l5 59q55 4 55 39q0 28 -35 28q-27 0 -54 -16l5 36q30 12 57 12q31 0 50 -14q23 -16 23 -46q0 -37 -47 -54z" />
    <glyph glyph-name="glyph317" unicode="&#x1ec4;" horiz-adv-x="510" 
d="M498 682l-11 -81h-273l-30 -214h241l-11 -81h-242l-33 -225h359l-12 -81h-448l99 682h361zM361 795l80 -99h-33l-76 59l-97 -59h-38l105 99h59zM421 895h29q-11 -32 -33 -54q-25 -26 -55 -26q-8 0 -40.5 20t-44.5 20q-20 1 -40 -39h-29q30 79 88 80q12 0 44 -20.5
t42 -20.5q20 -1 39 40z" />
    <glyph glyph-name="glyph318" unicode="&#x1ec5;" horiz-adv-x="438" 
d="M388 117l-12 -81q-68 -50 -150 -50q-90 0 -141 65q-47 59 -47 152q0 102 54 177q61 83 159 83q75 0 119 -58q40 -52 40 -130q0 -21 -3 -42h-280q-4 -23 -4 -43q0 -57 31 -94q33 -40 88 -40q63 0 146 61zM140 292h188q0 101 -81 101q-73 0 -107 -101zM286 571l80 -99h-33
l-76 59l-97 -59h-38l105 99h59zM346 671h29q-11 -32 -33 -54q-25 -26 -55 -26q-8 0 -40.5 20t-44.5 20q-20 1 -40 -39h-29q30 79 88 80q12 0 44 -20.5t42 -20.5q20 -1 39 40z" />
    <glyph glyph-name="glyph319" unicode="&#x1ec6;" horiz-adv-x="510" 
d="M498 682l-11 -81h-273l-30 -214h241l-11 -81h-242l-33 -225h359l-12 -81h-448l99 682h361zM361 795l80 -99h-33l-76 59l-97 -59h-38l105 99h59zM268 -40q20 0 33.5 -13.5t13.5 -33.5t-13.5 -33.5t-33.5 -13.5t-33.5 13.5t-13.5 33.5q0 19 14 33t33 14z" />
    <glyph glyph-name="glyph320" unicode="&#x1ec7;" horiz-adv-x="438" 
d="M388 117l-12 -81q-68 -50 -150 -50q-90 0 -141 65q-47 59 -47 152q0 102 54 177q61 83 159 83q75 0 119 -58q40 -52 40 -130q0 -21 -3 -42h-280q-4 -23 -4 -43q0 -57 31 -94q33 -40 88 -40q63 0 146 61zM140 292h188q0 101 -81 101q-73 0 -107 -101zM285 571l80 -99h-33
l-76 59l-97 -59h-38l105 99h59zM226 -54q20 0 33.5 -13.5t13.5 -33.5t-13.5 -33.5t-33.5 -13.5t-33.5 13.5t-13.5 33.5q0 19 14 33t33 14z" />
    <glyph glyph-name="glyph321" unicode="&#x1ec8;" horiz-adv-x="240" 
d="M229 682l-96 -682h-94l96 682h94zM177 712l5 59q55 4 55 39q0 28 -35 28q-27 0 -54 -16l5 36q30 12 57 12q31 0 50 -14q23 -16 23 -46q0 -37 -47 -54z" />
    <glyph glyph-name="glyph322" unicode="&#x1ec9;" horiz-adv-x="188" 
d="M171 449l-63 -449h-85l63 449h85zM124 480l5 59q55 4 55 39q0 28 -35 28q-27 0 -54 -16l5 36q30 12 57 12q31 0 50 -14q23 -16 23 -46q0 -37 -47 -54z" />
    <glyph glyph-name="glyph323" unicode="&#x1eca;" horiz-adv-x="240" 
d="M229 682l-96 -682h-94l96 682h94zM75 -40q20 0 33.5 -13.5t13.5 -33.5t-13.5 -33.5t-33.5 -13.5t-33.5 13.5t-13.5 33.5q0 19 14 33t33 14z" />
    <glyph glyph-name="glyph324" unicode="&#x1ecb;" horiz-adv-x="188" 
d="M184 449l-63 -449h-85l63 449h85zM152 577q18 0 31 -13t13 -31t-13 -31t-31 -13t-31 13t-13 31t13 31t31 13zM67 -40q20 0 33.5 -13.5t13.5 -33.5t-13.5 -33.5t-33.5 -13.5t-33.5 13.5t-13.5 33.5q0 19 14 33t33 14z" />
    <glyph glyph-name="glyph325" unicode="&#x1ecc;" horiz-adv-x="656" 
d="M623 405q0 -159 -83 -279q-94 -135 -246 -135q-115 0 -182 89q-61 80 -61 199q0 151 84 273q95 139 247 139q117 0 182 -87q59 -78 59 -199zM531 421q0 80 -34 130q-39 58 -116 58q-111 0 -179 -117q-59 -101 -59 -226q0 -81 35 -133q40 -60 118 -60q112 0 179 124
q56 103 56 224zM294 -49q20 0 33.5 -13.5t13.5 -33.5t-13.5 -33.5t-33.5 -13.5t-33.5 13.5t-13.5 33.5q0 19 14 33t33 14z" />
    <glyph glyph-name="glyph326" unicode="&#x1ecd;" horiz-adv-x="448" 
d="M418 267q0 -109 -51 -188q-59 -93 -162 -93q-85 0 -129 60q-40 54 -40 141q0 107 52 186q61 90 163 90q81 0 126 -59q41 -53 41 -137zM123 178q0 -44 17 -78q22 -41 62 -41q65 0 101 78q28 61 28 135q0 48 -16 81q-21 43 -64 43q-62 0 -99 -82q-29 -65 -29 -136zM205 -54
q20 0 33.5 -13.5t13.5 -33.5t-13.5 -33.5t-33.5 -13.5t-33.5 13.5t-13.5 33.5q0 19 14 33t33 14z" />
    <glyph glyph-name="glyph327" unicode="&#x1ece;" horiz-adv-x="656" 
d="M623 405q0 -159 -83 -279q-94 -135 -246 -135q-115 0 -182 89q-61 80 -61 199q0 151 84 273q95 139 247 139q117 0 182 -87q59 -78 59 -199zM531 421q0 80 -34 130q-39 58 -116 58q-111 0 -179 -117q-59 -101 -59 -226q0 -81 35 -133q40 -60 118 -60q112 0 179 124
q56 103 56 224zM377 722l5 59q55 4 55 39q0 28 -35 28q-27 0 -54 -16l5 36q30 12 57 12q31 0 50 -14q23 -16 23 -46q0 -37 -47 -54z" />
    <glyph glyph-name="glyph328" unicode="&#x1ecf;" horiz-adv-x="448" 
d="M418 267q0 -109 -51 -188q-59 -93 -162 -93q-85 0 -129 60q-40 54 -40 141q0 107 52 186q61 90 163 90q81 0 126 -59q41 -53 41 -137zM123 178q0 -44 17 -78q22 -41 62 -41q65 0 101 78q28 61 28 135q0 48 -16 81q-21 43 -64 43q-62 0 -99 -82q-29 -65 -29 -136zM246 493
l5 59q55 4 55 39q0 28 -35 28q-27 0 -54 -16l5 36q30 12 57 12q31 0 50 -14q23 -16 23 -46q0 -37 -47 -54z" />
    <glyph glyph-name="glyph329" unicode="&#x1ed0;" horiz-adv-x="656" 
d="M623 405q0 -159 -83 -279q-94 -135 -246 -135q-115 0 -182 89q-61 80 -61 199q0 151 84 273q95 139 247 139q117 0 182 -87q59 -78 59 -199zM531 421q0 80 -34 130q-39 58 -116 58q-111 0 -179 -117q-59 -101 -59 -226q0 -81 35 -133q40 -60 118 -60q112 0 179 124
q56 103 56 224zM418 795l80 -99h-33l-76 59l-97 -59h-38l105 99h59zM562 867h90l-142 -112h-20z" />
    <glyph glyph-name="glyph330" unicode="&#x1ed1;" horiz-adv-x="448" 
d="M418 267q0 -109 -51 -188q-59 -93 -162 -93q-85 0 -129 60q-40 54 -40 141q0 107 52 186q61 90 163 90q81 0 126 -59q41 -53 41 -137zM123 178q0 -44 17 -78q22 -41 62 -41q65 0 101 78q28 61 28 135q0 48 -16 81q-21 43 -64 43q-62 0 -99 -82q-29 -65 -29 -136zM289 571
l80 -99h-33l-76 59l-97 -59h-38l105 99h59zM433 643h90l-142 -112h-20z" />
    <glyph glyph-name="glyph331" unicode="&#x1ed2;" horiz-adv-x="656" 
d="M623 405q0 -159 -83 -279q-94 -135 -246 -135q-115 0 -182 89q-61 80 -61 199q0 151 84 273q95 139 247 139q117 0 182 -87q59 -78 59 -199zM531 421q0 80 -34 130q-39 58 -116 58q-111 0 -179 -117q-59 -101 -59 -226q0 -81 35 -133q40 -60 118 -60q112 0 179 124
q56 103 56 224zM418 795l80 -99h-33l-76 59l-97 -59h-38l105 99h59zM286 755h-20l-142 112h90z" />
    <glyph glyph-name="glyph332" unicode="&#x1ed3;" horiz-adv-x="448" 
d="M418 267q0 -109 -51 -188q-59 -93 -162 -93q-85 0 -129 60q-40 54 -40 141q0 107 52 186q61 90 163 90q81 0 126 -59q41 -53 41 -137zM123 178q0 -44 17 -78q22 -41 62 -41q65 0 101 78q28 61 28 135q0 48 -16 81q-21 43 -64 43q-62 0 -99 -82q-29 -65 -29 -136zM289 571
l80 -99h-33l-76 59l-97 -59h-38l105 99h59zM157 531h-20l-142 112h90z" />
    <glyph glyph-name="glyph333" unicode="&#x1ed4;" horiz-adv-x="656" 
d="M623 405q0 -159 -83 -279q-94 -135 -246 -135q-115 0 -182 89q-61 80 -61 199q0 151 84 273q95 139 247 139q117 0 182 -87q59 -78 59 -199zM531 421q0 80 -34 130q-39 58 -116 58q-111 0 -179 -117q-59 -101 -59 -226q0 -81 35 -133q40 -60 118 -60q112 0 179 124
q56 103 56 224zM419 795l80 -99h-33l-76 59l-97 -59h-38l105 99h59zM492 755l5 59q55 4 55 39q0 28 -35 28q-27 0 -54 -16l5 36q30 12 57 12q31 0 50 -14q23 -16 23 -46q0 -37 -47 -54z" />
    <glyph glyph-name="glyph334" unicode="&#x1ed5;" horiz-adv-x="448" 
d="M418 267q0 -109 -51 -188q-59 -93 -162 -93q-85 0 -129 60q-40 54 -40 141q0 107 52 186q61 90 163 90q81 0 126 -59q41 -53 41 -137zM123 178q0 -44 17 -78q22 -41 62 -41q65 0 101 78q28 61 28 135q0 48 -16 81q-21 43 -64 43q-62 0 -99 -82q-29 -65 -29 -136zM289 571
l80 -99h-33l-76 59l-97 -59h-38l105 99h59zM362 531l5 59q55 4 55 39q0 28 -35 28q-27 0 -54 -16l5 36q30 12 57 12q31 0 50 -14q23 -16 23 -46q0 -37 -47 -54z" />
    <glyph glyph-name="glyph335" unicode="&#x1ed6;" horiz-adv-x="656" 
d="M623 405q0 -159 -83 -279q-94 -135 -246 -135q-115 0 -182 89q-61 80 -61 199q0 151 84 273q95 139 247 139q117 0 182 -87q59 -78 59 -199zM531 421q0 80 -34 130q-39 58 -116 58q-111 0 -179 -117q-59 -101 -59 -226q0 -81 35 -133q40 -60 118 -60q112 0 179 124
q56 103 56 224zM419 795l80 -99h-33l-76 59l-97 -59h-38l105 99h59zM479 895h29q-11 -32 -33 -54q-25 -26 -55 -26q-8 0 -40.5 20t-44.5 20q-20 1 -40 -39h-29q30 79 88 80q12 0 44 -20.5t42 -20.5q20 -1 39 40z" />
    <glyph glyph-name="glyph336" unicode="&#x1ed7;" horiz-adv-x="448" 
d="M418 267q0 -109 -51 -188q-59 -93 -162 -93q-85 0 -129 60q-40 54 -40 141q0 107 52 186q61 90 163 90q81 0 126 -59q41 -53 41 -137zM123 178q0 -44 17 -78q22 -41 62 -41q65 0 101 78q28 61 28 135q0 48 -16 81q-21 43 -64 43q-62 0 -99 -82q-29 -65 -29 -136zM289 571
l80 -99h-33l-76 59l-97 -59h-38l105 99h59zM349 671h29q-11 -32 -33 -54q-25 -26 -55 -26q-8 0 -40.5 20t-44.5 20q-20 1 -40 -39h-29q30 79 88 80q12 0 44 -20.5t42 -20.5q20 -1 39 40z" />
    <glyph glyph-name="glyph337" unicode="&#x1ed8;" horiz-adv-x="656" 
d="M623 405q0 -159 -83 -279q-94 -135 -246 -135q-115 0 -182 89q-61 80 -61 199q0 151 84 273q95 139 247 139q117 0 182 -87q59 -78 59 -199zM531 421q0 80 -34 130q-39 58 -116 58q-111 0 -179 -117q-59 -101 -59 -226q0 -81 35 -133q40 -60 118 -60q112 0 179 124
q56 103 56 224zM418 795l80 -99h-33l-76 59l-97 -59h-38l105 99h59zM294 -49q20 0 33.5 -13.5t13.5 -33.5t-13.5 -33.5t-33.5 -13.5t-33.5 13.5t-13.5 33.5q0 19 14 33t33 14z" />
    <glyph glyph-name="glyph338" unicode="&#x1ed9;" horiz-adv-x="448" 
d="M418 267q0 -109 -51 -188q-59 -93 -162 -93q-85 0 -129 60q-40 54 -40 141q0 107 52 186q61 90 163 90q81 0 126 -59q41 -53 41 -137zM123 178q0 -44 17 -78q22 -41 62 -41q65 0 101 78q28 61 28 135q0 48 -16 81q-21 43 -64 43q-62 0 -99 -82q-29 -65 -29 -136zM289 571
l80 -99h-33l-76 59l-97 -59h-38l105 99h59zM205 -54q20 0 33.5 -13.5t13.5 -33.5t-13.5 -33.5t-33.5 -13.5t-33.5 13.5t-13.5 33.5q0 19 14 33t33 14z" />
    <glyph glyph-name="glyph339" unicode="&#x1eda;" horiz-adv-x="656" 
d="M531 421q0 80 -34 130q-39 58 -116 58q-111 0 -179 -117q-59 -101 -59 -226q0 -81 35 -133q40 -60 118 -60q112 0 179 124q56 103 56 224zM451 681l103 -17q6 8 11 20q-21 17 -13 39q10 27 37 27q40 0 40 -45q0 -64 -80 -85q74 -80 74 -215q0 -159 -83 -279
q-94 -135 -246 -135q-115 0 -182 89q-61 80 -61 199q0 151 84 273q95 139 247 139q38 0 69 -10zM444 843h90l-142 -112h-20z" />
    <glyph glyph-name="glyph340" unicode="&#x1edb;" horiz-adv-x="448" 
d="M123 178q0 -44 17 -78q22 -41 62 -41q65 0 101 78q28 61 28 135q0 48 -16 81q-21 43 -64 43q-62 0 -99 -82q-29 -65 -29 -136zM323 448l70 -12q6 10 8 16q-21 17 -13 39q10 27 37 27q40 0 40 -45q0 -62 -78 -84q31 -50 31 -122q0 -109 -51 -188q-59 -93 -162 -93
q-85 0 -129 60q-40 54 -40 141q0 107 52 186q61 90 163 90q41 0 72 -15zM313 615h90l-142 -112h-20z" />
    <glyph glyph-name="glyph341" unicode="&#x1edc;" horiz-adv-x="656" 
d="M531 421q0 80 -34 130q-39 58 -116 58q-111 0 -179 -117q-59 -101 -59 -226q0 -81 35 -133q40 -60 118 -60q112 0 179 124q56 103 56 224zM451 681l103 -17q6 8 11 20q-21 17 -13 39q10 27 37 27q40 0 40 -45q0 -64 -80 -85q74 -80 74 -215q0 -159 -83 -279
q-94 -135 -246 -135q-115 0 -182 89q-61 80 -61 199q0 151 84 273q95 139 247 139q38 0 69 -10zM392 731h-20l-142 112h90z" />
    <glyph glyph-name="glyph342" unicode="&#x1edd;" horiz-adv-x="448" 
d="M123 178q0 -44 17 -78q22 -41 62 -41q65 0 101 78q28 61 28 135q0 48 -16 81q-21 43 -64 43q-62 0 -99 -82q-29 -65 -29 -136zM323 448l70 -12q6 10 8 16q-21 17 -13 39q10 27 37 27q40 0 40 -45q0 -62 -78 -84q31 -50 31 -122q0 -109 -51 -188q-59 -93 -162 -93
q-85 0 -129 60q-40 54 -40 141q0 107 52 186q61 90 163 90q41 0 72 -15zM261 503h-20l-142 112h90z" />
    <glyph glyph-name="glyph343" unicode="&#x1ede;" horiz-adv-x="656" 
d="M531 421q0 80 -34 130q-39 58 -116 58q-111 0 -179 -117q-59 -101 -59 -226q0 -81 35 -133q40 -60 118 -60q112 0 179 124q56 103 56 224zM451 681l103 -17q6 8 11 20q-21 17 -13 39q10 27 37 27q40 0 40 -45q0 -64 -80 -85q74 -80 74 -215q0 -159 -83 -279
q-94 -135 -246 -135q-115 0 -182 89q-61 80 -61 199q0 151 84 273q95 139 247 139q38 0 69 -10zM377 722l5 59q55 4 55 39q0 28 -35 28q-27 0 -54 -16l5 36q30 12 57 12q31 0 50 -14q23 -16 23 -46q0 -37 -47 -54z" />
    <glyph glyph-name="glyph344" unicode="&#x1edf;" horiz-adv-x="448" 
d="M123 178q0 -44 17 -78q22 -41 62 -41q65 0 101 78q28 61 28 135q0 48 -16 81q-21 43 -64 43q-62 0 -99 -82q-29 -65 -29 -136zM323 448l70 -12q6 10 8 16q-21 17 -13 39q10 27 37 27q40 0 40 -45q0 -62 -78 -84q31 -50 31 -122q0 -109 -51 -188q-59 -93 -162 -93
q-85 0 -129 60q-40 54 -40 141q0 107 52 186q61 90 163 90q41 0 72 -15zM246 493l5 59q55 4 55 39q0 28 -35 28q-27 0 -54 -16l5 36q30 12 57 12q31 0 50 -14q23 -16 23 -46q0 -37 -47 -54z" />
    <glyph glyph-name="glyph345" unicode="&#x1ee0;" horiz-adv-x="656" 
d="M531 421q0 80 -34 130q-39 58 -116 58q-111 0 -179 -117q-59 -101 -59 -226q0 -81 35 -133q40 -60 118 -60q112 0 179 124q56 103 56 224zM451 681l103 -17q6 8 11 20q-21 17 -13 39q10 27 37 27q40 0 40 -45q0 -64 -80 -85q74 -80 74 -215q0 -159 -83 -279
q-94 -135 -246 -135q-115 0 -182 89q-61 80 -61 199q0 151 84 273q95 139 247 139q38 0 69 -10zM479 805h29q-11 -32 -33 -54q-25 -26 -55 -26q-8 0 -40.5 20t-44.5 20q-20 1 -40 -39h-29q30 79 88 80q12 0 44 -20.5t42 -20.5q20 -1 39 40z" />
    <glyph glyph-name="glyph346" unicode="&#x1ee1;" horiz-adv-x="448" 
d="M123 178q0 -44 17 -78q22 -41 62 -41q65 0 101 78q28 61 28 135q0 48 -16 81q-21 43 -64 43q-62 0 -99 -82q-29 -65 -29 -136zM323 448l70 -12q6 10 8 16q-21 17 -13 39q10 27 37 27q40 0 40 -45q0 -62 -78 -84q31 -50 31 -122q0 -109 -51 -188q-59 -93 -162 -93
q-85 0 -129 60q-40 54 -40 141q0 107 52 186q61 90 163 90q41 0 72 -15zM349 582h29q-11 -32 -33 -54q-25 -26 -55 -26q-8 0 -40.5 20t-44.5 20q-20 1 -40 -39h-29q30 79 88 80q12 0 44 -20.5t42 -20.5q20 -1 39 40z" />
    <glyph glyph-name="glyph347" unicode="&#x1ee2;" horiz-adv-x="656" 
d="M531 421q0 80 -34 130q-39 58 -116 58q-111 0 -179 -117q-59 -101 -59 -226q0 -81 35 -133q40 -60 118 -60q112 0 179 124q56 103 56 224zM451 681l103 -17q6 8 11 20q-21 17 -13 39q10 27 37 27q40 0 40 -45q0 -64 -80 -85q74 -80 74 -215q0 -159 -83 -279
q-94 -135 -246 -135q-115 0 -182 89q-61 80 -61 199q0 151 84 273q95 139 247 139q38 0 69 -10zM294 -49q20 0 33.5 -13.5t13.5 -33.5t-13.5 -33.5t-33.5 -13.5t-33.5 13.5t-13.5 33.5q0 19 14 33t33 14z" />
    <glyph glyph-name="glyph348" unicode="&#x1ee3;" horiz-adv-x="448" 
d="M123 178q0 -44 17 -78q22 -41 62 -41q65 0 101 78q28 61 28 135q0 48 -16 81q-21 43 -64 43q-62 0 -99 -82q-29 -65 -29 -136zM323 448l70 -12q6 10 8 16q-21 17 -13 39q10 27 37 27q40 0 40 -45q0 -62 -78 -84q31 -50 31 -122q0 -109 -51 -188q-59 -93 -162 -93
q-85 0 -129 60q-40 54 -40 141q0 107 52 186q61 90 163 90q41 0 72 -15zM205 -54q20 0 33.5 -13.5t13.5 -33.5t-13.5 -33.5t-33.5 -13.5t-33.5 13.5t-13.5 33.5q0 19 14 33t33 14z" />
    <glyph glyph-name="glyph349" unicode="&#x1ee4;" horiz-adv-x="635" 
d="M637 682l-59 -421q-38 -270 -284 -270q-102 0 -166 54q-68 57 -68 157q0 20 3 41l62 439h90l-63 -446q-2 -14 -2 -28q0 -64 42 -99.5t107 -35.5q80 0 131 51q40 40 58 166l55 392h94zM294 -49q20 0 33.5 -13.5t13.5 -33.5t-13.5 -33.5t-33.5 -13.5t-33.5 13.5t-13.5 33.5
q0 19 14 33t33 14z" />
    <glyph glyph-name="glyph350" unicode="&#x1ee5;" 
d="M436 449l-64 -449h-84l10 74l-2 2q-79 -83 -148 -83q-51 0 -81 37q-28 34 -28 87q0 15 3 36l42 296h85l-42 -296q-2 -14 -2 -28q0 -67 50 -67q52 0 135 99l41 292h85zM175 -46q20 0 33.5 -13.5t13.5 -33.5t-13.5 -33.5t-33.5 -13.5t-33.5 13.5t-13.5 33.5q0 19 14 33
t33 14z" />
    <glyph glyph-name="glyph351" unicode="&#x1ee6;" horiz-adv-x="635" 
d="M637 682l-59 -421q-38 -270 -284 -270q-102 0 -166 54q-68 57 -68 157q0 20 3 41l62 439h90l-63 -446q-2 -14 -2 -28q0 -64 42 -99.5t107 -35.5q80 0 131 51q40 40 58 166l55 392h94zM377 676l5 59q55 4 55 39q0 28 -35 28q-27 0 -54 -16l5 36q30 12 57 12q31 0 50 -14
q23 -16 23 -46q0 -37 -47 -54z" />
    <glyph glyph-name="glyph352" unicode="&#x1ee7;" 
d="M436 449l-64 -449h-84l10 74l-2 2q-79 -83 -148 -83q-51 0 -81 37q-28 34 -28 87q0 15 3 36l42 296h85l-42 -296q-2 -14 -2 -28q0 -67 50 -67q52 0 135 99l41 292h85zM256 452l5 59q55 4 55 39q0 28 -35 28q-27 0 -54 -16l5 36q30 12 57 12q31 0 50 -14q23 -16 23 -46
q0 -37 -47 -54z" />
    <glyph glyph-name="glyph353" unicode="&#x1ee8;" horiz-adv-x="635" 
d="M628 620l-50 -359q-38 -270 -284 -270q-102 0 -166 54q-68 57 -68 157q0 20 3 41l62 439h90l-63 -446q-2 -14 -2 -28q0 -64 42 -99.5t107 -35.5q80 0 131 51q40 40 58 166l55 392h64l27 -18q6 8 11 20q-21 17 -13 39q10 27 37 27q40 0 40 -45q0 -65 -81 -85zM444 798h90
l-142 -112h-20z" />
    <glyph glyph-name="glyph354" unicode="&#x1ee9;" 
d="M427 389l-55 -389h-84l10 74l-2 2q-79 -83 -148 -83q-51 0 -81 37q-28 34 -28 87q0 15 3 36l42 296h85l-42 -296q-2 -14 -2 -28q0 -67 50 -67q52 0 135 99l41 292h55l28 -13q6 10 8 16q-21 17 -13 39q10 27 37 27q40 0 40 -45q0 -64 -79 -84zM323 575h90l-142 -112h-20z
" />
    <glyph glyph-name="glyph355" unicode="&#x1eea;" horiz-adv-x="635" 
d="M628 620l-50 -359q-38 -270 -284 -270q-102 0 -166 54q-68 57 -68 157q0 20 3 41l62 439h90l-63 -446q-2 -14 -2 -28q0 -64 42 -99.5t107 -35.5q80 0 131 51q40 40 58 166l55 392h64l27 -18q6 8 11 20q-21 17 -13 39q10 27 37 27q40 0 40 -45q0 -65 -81 -85zM392 686h-20
l-142 112h90z" />
    <glyph glyph-name="glyph356" unicode="&#x1eeb;" 
d="M427 389l-55 -389h-84l10 74l-2 2q-79 -83 -148 -83q-51 0 -81 37q-28 34 -28 87q0 15 3 36l42 296h85l-42 -296q-2 -14 -2 -28q0 -67 50 -67q52 0 135 99l41 292h55l28 -13q6 10 8 16q-21 17 -13 39q10 27 37 27q40 0 40 -45q0 -64 -79 -84zM271 463h-20l-142 112h90z
" />
    <glyph glyph-name="glyph357" unicode="&#x1eec;" horiz-adv-x="635" 
d="M628 620l-50 -359q-38 -270 -284 -270q-102 0 -166 54q-68 57 -68 157q0 20 3 41l62 439h90l-63 -446q-2 -14 -2 -28q0 -64 42 -99.5t107 -35.5q80 0 131 51q40 40 58 166l55 392h64l27 -18q6 8 11 20q-21 17 -13 39q10 27 37 27q40 0 40 -45q0 -65 -81 -85zM377 676
l5 59q55 4 55 39q0 28 -35 28q-27 0 -54 -16l5 36q30 12 57 12q31 0 50 -14q23 -16 23 -46q0 -37 -47 -54z" />
    <glyph glyph-name="glyph358" unicode="&#x1eed;" 
d="M427 389l-55 -389h-84l10 74l-2 2q-79 -83 -148 -83q-51 0 -81 37q-28 34 -28 87q0 15 3 36l42 296h85l-42 -296q-2 -14 -2 -28q0 -67 50 -67q52 0 135 99l41 292h55l28 -13q6 10 8 16q-21 17 -13 39q10 27 37 27q40 0 40 -45q0 -64 -79 -84zM256 452l5 59q55 4 55 39
q0 28 -35 28q-27 0 -54 -16l5 36q30 12 57 12q31 0 50 -14q23 -16 23 -46q0 -37 -47 -54z" />
    <glyph glyph-name="glyph359" unicode="&#x1eee;" horiz-adv-x="635" 
d="M628 620l-50 -359q-38 -270 -284 -270q-102 0 -166 54q-68 57 -68 157q0 20 3 41l62 439h90l-63 -446q-2 -14 -2 -28q0 -64 42 -99.5t107 -35.5q80 0 131 51q40 40 58 166l55 392h64l27 -18q6 8 11 20q-21 17 -13 39q10 27 37 27q40 0 40 -45q0 -65 -81 -85zM479 765h29
q-11 -32 -33 -54q-25 -26 -55 -26q-8 0 -40.5 20t-44.5 20q-20 1 -40 -39h-29q30 79 88 80q12 0 44 -20.5t42 -20.5q20 -1 39 40z" />
    <glyph glyph-name="glyph360" unicode="&#x1eef;" 
d="M427 389l-55 -389h-84l10 74l-2 2q-79 -83 -148 -83q-51 0 -81 37q-28 34 -28 87q0 15 3 36l42 296h85l-42 -296q-2 -14 -2 -28q0 -67 50 -67q52 0 135 99l41 292h55l28 -13q6 10 8 16q-21 17 -13 39q10 27 37 27q40 0 40 -45q0 -64 -79 -84zM349 551h29q-11 -32 -33 -54
q-25 -26 -55 -26q-8 0 -40.5 20t-44.5 20q-20 1 -40 -39h-29q30 79 88 80q12 0 44 -20.5t42 -20.5q20 -1 39 40z" />
    <glyph glyph-name="glyph361" unicode="&#x1ef0;" horiz-adv-x="635" 
d="M628 620l-50 -359q-38 -270 -284 -270q-102 0 -166 54q-68 57 -68 157q0 20 3 41l62 439h90l-63 -446q-2 -14 -2 -28q0 -64 42 -99.5t107 -35.5q80 0 131 51q40 40 58 166l55 392h64l27 -18q6 8 11 20q-21 17 -13 39q10 27 37 27q40 0 40 -45q0 -65 -81 -85zM294 -49
q20 0 33.5 -13.5t13.5 -33.5t-13.5 -33.5t-33.5 -13.5t-33.5 13.5t-13.5 33.5q0 19 14 33t33 14z" />
    <glyph glyph-name="glyph362" unicode="&#x1ef1;" 
d="M427 389l-55 -389h-84l10 74l-2 2q-79 -83 -148 -83q-51 0 -81 37q-28 34 -28 87q0 15 3 36l42 296h85l-42 -296q-2 -14 -2 -28q0 -67 50 -67q52 0 135 99l41 292h55l28 -13q6 10 8 16q-21 17 -13 39q10 27 37 27q40 0 40 -45q0 -64 -79 -84zM175 -46q20 0 33.5 -13.5
t13.5 -33.5t-13.5 -33.5t-33.5 -13.5t-33.5 13.5t-13.5 33.5q0 19 14 33t33 14z" />
    <glyph glyph-name="glyph363" unicode="&#x1ef2;" horiz-adv-x="490" 
d="M557 682l-239 -342l-48 -340h-90l48 340l-160 342h95l116 -250l174 250h104zM320 686h-20l-142 112h90z" />
    <glyph glyph-name="glyph364" unicode="&#x1ef3;" horiz-adv-x="375" 
d="M400 449l-322 -679h-90l122 257l-87 422h85l60 -309h2l141 309h89zM219 463h-20l-142 112h90z" />
    <glyph glyph-name="glyph365" unicode="&#x1ef4;" horiz-adv-x="490" 
d="M557 682l-239 -342l-48 -340h-90l48 340l-160 342h95l116 -250l174 250h104zM213 -40q20 0 33.5 -13.5t13.5 -33.5t-13.5 -33.5t-33.5 -13.5t-33.5 13.5t-13.5 33.5q0 19 14 33t33 14z" />
    <glyph glyph-name="glyph366" unicode="&#x1ef5;" horiz-adv-x="375" 
d="M400 449l-322 -679h-90l122 257l-87 422h85l60 -309h2l141 309h89zM248 -16q20 0 33.5 -13.5t13.5 -33.5t-13.5 -33.5t-33.5 -13.5t-33.5 13.5t-13.5 33.5q0 19 14 33t33 14z" />
    <glyph glyph-name="glyph367" unicode="&#x1ef6;" horiz-adv-x="490" 
d="M557 682l-239 -342l-48 -340h-90l48 340l-160 342h95l116 -250l174 250h104zM305 676l5 59q55 4 55 39q0 28 -35 28q-27 0 -54 -16l5 36q30 12 57 12q31 0 50 -14q23 -16 23 -46q0 -37 -47 -54z" />
    <glyph glyph-name="glyph368" unicode="&#x1ef7;" horiz-adv-x="375" 
d="M400 449l-322 -679h-90l122 257l-87 422h85l60 -309h2l141 309h89zM204 452l5 59q55 4 55 39q0 28 -35 28q-27 0 -54 -16l5 36q30 12 57 12q31 0 50 -14q23 -16 23 -46q0 -37 -47 -54z" />
    <glyph glyph-name="glyph369" unicode="&#x1ef8;" horiz-adv-x="490" 
d="M557 682l-239 -342l-48 -340h-90l48 340l-160 342h95l116 -250l174 250h104zM421 765h29q-11 -32 -33 -54q-25 -26 -55 -26q-8 0 -40.5 20t-44.5 20q-20 1 -40 -39h-29q30 79 88 80q12 0 44 -20.5t42 -20.5q20 -1 39 40z" />
    <glyph glyph-name="glyph370" unicode="&#x1ef9;" horiz-adv-x="375" 
d="M400 449l-322 -679h-90l122 257l-87 422h85l60 -309h2l141 309h89zM298 551h29q-11 -32 -33 -54q-25 -26 -55 -26q-8 0 -40.5 20t-44.5 20q-20 1 -40 -39h-29q30 79 88 80q12 0 44 -20.5t42 -20.5q20 -1 39 40z" />
    <glyph glyph-name="endash" unicode="&#x2013;" horiz-adv-x="500" 
d="M509 285v-64h-518v64h518z" />
    <glyph glyph-name="emdash" unicode="&#x2014;" horiz-adv-x="1000" 
d="M1009 285v-64h-1018v64h1018z" />
    <glyph glyph-name="quoteleft" unicode="&#x2018;" horiz-adv-x="198" 
d="M236 690v0l-6 -44q-66 -22 -66 -86q39 -17 39 -51q0 -27 -18 -43t-45 -16q-30 0 -47 26q-16 22 -16 53q0 62 50 107q44 39 109 54z" />
    <glyph glyph-name="quoteright" unicode="&#x2019;" horiz-adv-x="198" 
d="M60 451v0l6 44q66 22 66 86q-39 17 -39 51q0 27 18 43t45 16q30 0 47 -26q16 -22 16 -53q0 -62 -50 -107q-44 -39 -109 -54z" />
    <glyph glyph-name="quotesinglbase" unicode="&#x201a;" horiz-adv-x="198" 
d="M-24 -144v0l6 44q66 22 66 86q-39 17 -39 51q0 27 18 43t45 16q30 0 47 -26q16 -22 16 -53q0 -62 -50 -107q-44 -39 -109 -54z" />
    <glyph glyph-name="quotedblleft" unicode="&#x201c;" horiz-adv-x="406" 
d="M439 690v0l-6 -44q-66 -22 -66 -86q39 -17 39 -51q0 -27 -18 -43t-45 -16q-30 0 -47 26q-16 22 -16 53q0 62 50 107q44 39 109 54zM224 690v0l-6 -44q-66 -22 -66 -86q39 -17 39 -51q0 -27 -18 -43t-45 -16q-30 0 -47 26q-16 22 -16 53q0 62 50 107q44 39 109 54z" />
    <glyph glyph-name="quotedblright" unicode="&#x201d;" horiz-adv-x="406" 
d="M277 451v0l6 44q66 22 66 86q-39 17 -39 51q0 27 18 43t45 16q30 0 47 -26q16 -22 16 -53q0 -62 -50 -107q-44 -39 -109 -54zM62 451v0l6 44q66 22 66 86q-39 17 -39 51q0 27 18 43t45 16q30 0 47 -26q16 -22 16 -53q0 -62 -50 -107q-44 -39 -109 -54z" />
    <glyph glyph-name="quotedblbase" unicode="&#x201e;" horiz-adv-x="406" 
d="M191 -144v0l6 44q66 22 66 86q-39 17 -39 51q0 27 18 43t45 16q30 0 47 -26q16 -22 16 -53q0 -62 -50 -107q-44 -39 -109 -54zM-24 -144v0l6 44q66 22 66 86q-39 17 -39 51q0 27 18 43t45 16q30 0 47 -26q16 -22 16 -53q0 -62 -50 -107q-44 -39 -109 -54z" />
    <glyph glyph-name="dagger" unicode="&#x2020;" horiz-adv-x="479" 
d="M245 405q-5 65 -5 129q0 157 63 157q36 0 36 -66q0 -81 -66 -220q77 29 140 29q58 0 58 -42q0 -19 -23 -31q-18 -9 -39 -9q-47 0 -136 29q-2 -230 -28 -438q-9 -72 -17 -100q-19 -73 -55 -73q-42 0 -42 70q0 134 114 541q-82 -29 -135 -29q-60 0 -60 42q0 39 66 39
q43 0 129 -28z" />
    <glyph glyph-name="daggerdbl" unicode="&#x2021;" horiz-adv-x="458" 
d="M267 405q-3 -35 -3 -149q0 -35 -16 -84q-22 -68 -34 -118q86 29 129 29q56 0 56 -42q0 -41 -64 -41q-34 0 -121 31q0 -20 2 -61t2 -62q0 -138 -57 -138q-42 0 -42 54q0 61 69 207q-77 -31 -120 -31q-73 0 -73 39q0 23 25 35q19 9 44 9q47 0 124 -28q3 33 3 66q0 16 -1 48
t-1 48q0 26 17 72q24 66 35 116q-75 -25 -124 -25q-63 0 -63 38q0 45 63 45q46 0 124 -33q-4 44 -4 128q0 133 58 133q40 0 40 -54q0 -60 -68 -205l2 -2q63 33 128 33q61 0 61 -41q0 -42 -67 -42q-53 0 -124 25z" />
    <glyph glyph-name="bullet" unicode="&#x2022;" horiz-adv-x="354" 
d="M316 341q0 -51 -36.5 -87.5t-87.5 -36.5t-87.5 36.5t-36.5 87.5t36.5 87.5t87.5 36.5t87.5 -36.5t36.5 -87.5z" />
    <glyph glyph-name="ellipsis" unicode="&#x2026;" horiz-adv-x="1000" 
d="M804 111q25 0 42 -17.5t17 -42.5t-17 -42.5t-42 -17.5t-42.5 17.5t-17.5 42.5t17.5 42.5t42.5 17.5zM470 111q25 0 42.5 -17.5t17.5 -42.5t-17.5 -42.5t-42.5 -17.5t-42.5 17.5t-17.5 42.5t17.5 42.5t42.5 17.5zM136 109q25 0 42.5 -17t17.5 -42t-17.5 -42t-42.5 -17
t-42 17t-17 42t17 42t42 17z" />
    <glyph glyph-name="perthousand" unicode="&#x2030;" horiz-adv-x="1010" 
d="M259 539q0 33 -23 56t-56 23q-34 0 -56.5 -22.5t-22.5 -56.5q0 -31 24 -55t55 -24q33 0 56 23t23 56zM332 539q0 -62 -45 -107t-107 -45q-63 0 -107.5 44.5t-44.5 107.5q0 65 43.5 108.5t108.5 43.5q64 0 108 -44t44 -108zM601 691l-448 -700h-76l449 700h75zM933 144
q0 33 -23 56t-56 23q-34 0 -56.5 -22.5t-22.5 -56.5q0 -31 24 -55t55 -24q33 0 56 23t23 56zM1006 144q0 -62 -45 -107t-107 -45q-63 0 -107.5 44.5t-44.5 107.5q0 65 43.5 108.5t108.5 43.5q64 0 108 -44t44 -108zM577 144q0 33 -23 56t-56 23q-34 0 -56.5 -22.5
t-22.5 -56.5q0 -31 24 -55t55 -24q33 0 56 23t23 56zM650 144q0 -62 -45 -107t-107 -45q-63 0 -107.5 44.5t-44.5 107.5q0 65 43.5 108.5t108.5 43.5q64 0 108 -44t44 -108z" />
    <glyph glyph-name="guilsinglleft" unicode="&#x2039;" horiz-adv-x="229" 
d="M245 449l-173 -235l84 -214h-68l-88 224l168 225h77z" />
    <glyph glyph-name="guilsinglright" unicode="&#x203a;" horiz-adv-x="229" 
d="M-36 0l173 235l-84 214h68l88 -224l-168 -225h-77z" />
    <glyph glyph-name="fraction" unicode="&#x2044;" horiz-adv-x="208" 
d="M410 691l-542 -718h-69l543 718h68z" />
    <glyph glyph-name="franc" unicode="&#x20a3;" horiz-adv-x="1035" 
d="M455 682l-11 -81h-237l-30 -214h218l-12 -81h-218l-43 -306h-91l99 682h325zM837 449l-13 -85l2 -2q33 47 49 63q33 31 70 31q20 0 37 -7v-96q-27 15 -52 15q-40 0 -74 -40q-19 -22 -47 -75l-35 -253h-85l63 449h85z" />
    <glyph glyph-name="u20AB" unicode="&#x20ab;" horiz-adv-x="393" 
d="M197 501q-48 0 -84 -88q-20 -49 -20 -90q0 -51 39 -51q41 0 74 71q28 60 28 107q0 51 -37 51zM200 267q-53 -62 -106 -62q-91 0 -91 102q0 81 54 153q59 78 137 78q34 0 61 -24l20 75h-100l10 36h100l2 16q0 31 -48 32l7 33q67 2 128 14l15 3q6 0 6 -9q-1 -2 -3 -12
l-19 -77h65l-10 -36h-65l-69 -280q-5 -20 -5 -27q0 -15 12 -15q6 0 49 42l20 -18q-70 -86 -117 -86q-43 0 -53 62zM9 160h221v-56h-221v56z" />
    <glyph glyph-name="trademark" unicode="&#x2122;" horiz-adv-x="1000" 
d="M199 318v339h-129v59h325v-59h-130v-339h-66zM440 318v398h98l99 -318h2l96 318h96v-398h-61v334h-2l-100 -334h-60l-105 339h-2v-339h-61z" />
    <glyph glyph-name="minus" unicode="&#x2212;" horiz-adv-x="584" 
d="M71 394h472v-82h-472v82z" />
    <glyph glyph-name="SF370000" unicode="&#x255f;" horiz-adv-x="718" 
d="M352 686l133 -686h-84l-41 214h-214l-90 -214h-91l301 686h86zM292 566l-116 -280h170l-52 280h-2z" />
    <glyph glyph-name="SF420000" unicode="&#x2560;" horiz-adv-x="681" 
d="M498 682l-11 -81h-273l-30 -214h241l-11 -81h-242l-33 -225h359l-12 -81h-448l99 682h361z" />
    <glyph glyph-name="SF190000" unicode="&#x2561;" horiz-adv-x="429" 
d="M229 682l-96 -682h-94l96 682h94z" />
    <glyph glyph-name="SF200000" unicode="&#x2562;" horiz-adv-x="773" 
d="M623 405q0 -159 -83 -279q-94 -135 -246 -135q-115 0 -182 89q-61 80 -61 199q0 151 84 273q95 139 247 139q116 0 182 -87q59 -79 59 -199zM531 421q0 80 -34 130q-40 58 -116 58q-111 0 -179 -117q-59 -101 -59 -226q0 -81 35 -133q41 -60 118 -60q112 0 179 124
q56 102 56 224z" />
    <glyph glyph-name="SF230000" unicode="&#x2563;" horiz-adv-x="811" 
d="M637 682l-59 -421q-38 -270 -284 -270q-102 0 -166 54q-68 57 -68 157q0 20 3 41l62 439h90l-63 -446q-2 -14 -2 -28q0 -64 42 -99.5t107 -35.5q80 0 131 51q40 40 58 166l55 392h94z" />
    <glyph glyph-name="SF470000" unicode="&#x2564;" horiz-adv-x="699" 
d="M557 682l-239 -342l-48 -340h-90l48 340l-160 342h95l116 -250l174 250h104z" />
    <glyph glyph-name="SF480000" unicode="&#x2565;" horiz-adv-x="541" 
d="M446 449l-63 -449h-85l8 52l-2 2q-58 -63 -121 -63q-67 0 -109 57q-39 52 -39 121q0 137 83.5 215.5t221.5 78.5q62 0 106 -14zM316 130l37 259q-13 1 -26 1q-112 0 -167 -82q-38 -56 -38 -124q0 -47 20 -82q25 -41 69 -41q53 0 105 69z" />
    <glyph glyph-name="SF410000" unicode="&#x2566;" horiz-adv-x="431" 
d="M388 117l-12 -81q-68 -50 -150 -50q-90 0 -141 65q-47 59 -47 152q0 101 55 177q60 83 158 83q75 0 119 -58q40 -53 40 -130q0 -21 -3 -42h-280q-4 -23 -4 -43q0 -57 31 -94q32 -40 88 -40q63 0 146 61zM140 292h188q0 101 -81 101q-73 0 -107 -101z" />
    <glyph glyph-name="SF450000" unicode="&#x2567;" horiz-adv-x="314" 
d="M171 449l-63 -449h-85l63 449h85zM144 639q20 0 34.5 -14.5t14.5 -34.5t-14.5 -34.5t-34.5 -14.5t-34.5 14.5t-14.5 34.5t14.5 34.5t34.5 14.5z" />
    <glyph glyph-name="SF460000" unicode="&#x2568;" horiz-adv-x="314" 
d="M171 449l-63 -449h-85l63 449h85z" />
    <glyph glyph-name="SF400000" unicode="&#x2569;" horiz-adv-x="498" 
d="M418 267q0 -108 -51 -188q-59 -93 -162 -93q-85 0 -129 60q-40 53 -40 141q0 107 53 186q60 90 162 90q81 0 126 -59q41 -53 41 -137zM123 178q0 -44 17 -77q22 -42 62 -42q65 0 101 78q28 61 28 135q0 47 -16 81q-21 43 -64 43q-63 0 -99 -82q-29 -64 -29 -136z" />
    <glyph glyph-name="SF540000" unicode="&#x256a;" horiz-adv-x="557" 
d="M436 449l-64 -449h-84l10 74l-2 2q-79 -83 -148 -83q-52 0 -81 37q-28 34 -28 87q0 15 3 36l42 296h85l-42 -296q-2 -14 -2 -28q0 -67 50 -67q52 0 135 99l41 292h85z" />
    <glyph glyph-name="SF530000" unicode="&#x256b;" horiz-adv-x="497" 
d="M400 449l-322 -679h-90l122 257l-87 422h85l60 -309h2l141 309h89z" />
    <glyph glyph-name="circle" unicode="&#x25cb;" horiz-adv-x="718" 
d="M516 902l75 -148h-41l-83 99l-134 -99h-47l131 148h99zM428 1090h101l-113 -146h-56z" />
    <glyph glyph-name="H18533" unicode="&#x25cf;" horiz-adv-x="718" 
d="M516 902l75 -148h-41l-83 99l-134 -99h-47l131 148h99zM512 1091l68 -146h-56l-113 146h101z" />
    <glyph glyph-name="invbullet" unicode="&#x25d8;" horiz-adv-x="718" 
d="M516 902l75 -148h-41l-83 99l-134 -99h-47l131 148h99zM614 903q9 28 11 64q1 11 8 13q2 0 8 1q67 11 67 54q0 35 -28 35q-5 0 -14 -1t-14 -1q-21 0 -21 18q0 28 32 28q46 0 75 -24q31 -27 27 -72q-6 -59 -87 -81q-25 -7 -31 -34h-33z" />
    <glyph glyph-name="invcircle" unicode="&#x25d9;" horiz-adv-x="718" 
d="M516 902l75 -148h-41l-83 99l-134 -99h-47l131 148h99zM603 1072v0h39q0 -44 -19 -76q-22 -38 -63 -38q-17 0 -67.5 19t-70.5 19q-31 0 -34 -37h-40q1 46 18 76q21 38 63 38q22 0 70.5 -19t69.5 -19q29 0 34 37z" />
    <glyph glyph-name="fi" unicode="&#xf001;" horiz-adv-x="479" 
d="M299 449l-11 -75h-95l-84 -563h-83l83 563h-66l11 75h65q15 112 53 168q50 74 151 74q61 0 102 -32q44 -35 43 -95h-81q-10 54 -67 54q-59 0 -84 -44q-18 -32 -33 -125h96zM454 449l-66 -449h-85l66 449h85z" />
    <glyph glyph-name="fl" unicode="&#xf002;" horiz-adv-x="479" 
d="M302 449l-14 -75h-94l-85 -563h-83l83 563h-65l11 75h64q15 111 51 167q49 75 147 75q27 0 49 -9l-10 -69q-17 5 -38 5q-98 0 -114 -169h98zM488 682l-101 -682h-85l101 682h85z" />
    <glyph glyph-name="periodcentered" horiz-adv-x="260" 
d="M151 406q25 0 42.5 -17.5t17.5 -42.5t-17.5 -43t-42.5 -18t-43 18t-18 43t18 42.5t43 17.5z" />
    <glyph glyph-name="HT" horiz-adv-x="278" 
 />
    <glyph glyph-name="nonmarkingreturn" horiz-adv-x="278" 
 />
    <glyph glyph-name="glyph231" horiz-adv-x="278" 
 />
    <glyph glyph-name="glyph232" horiz-adv-x="278" 
 />
    <glyph glyph-name="glyph275" horiz-adv-x="249" 
 />
    <glyph glyph-name="glyph276" horiz-adv-x="249" 
 />
    <glyph glyph-name="glyph261" horiz-adv-x="500" 
d="M253 522q9 28 11 64q1 11 8 13q2 0 8 1q67 11 67 54q0 35 -28 35q-5 0 -14 -1t-14 -1q-21 0 -21 18q0 28 32 28q46 0 75 -24q31 -27 27 -72q-6 -59 -87 -81q-25 -7 -31 -34h-33z" />
    <glyph glyph-name="glyph262" horiz-adv-x="541" 
d="M313 670l75 -148h-41l-83 99l-134 -99h-47l131 148h99zM224 859h101l-113 -146h-56z" />
    <glyph glyph-name="glyph263" horiz-adv-x="541" 
d="M313 670l75 -148h-41l-83 99l-134 -99h-47l131 148h99zM309 859l68 -146h-56l-113 146h101z" />
    <glyph glyph-name="glyph264" horiz-adv-x="541" 
d="M313 670l75 -148h-41l-83 99l-134 -99h-47l131 148h99zM411 671q9 28 11 64q1 11 8 13q2 0 8 1q67 11 67 54q0 35 -28 35q-5 0 -14 -1t-14 -1q-21 0 -21 18q0 28 32 28q46 0 75 -24q31 -27 27 -72q-6 -59 -87 -81q-25 -7 -31 -34h-33z" />
    <glyph glyph-name="glyph265" horiz-adv-x="541" 
d="M313 670l75 -148h-41l-83 99l-134 -99h-47l131 148h99zM400 840v0h39q0 -44 -19 -76q-22 -38 -63 -38q-17 0 -67.5 19t-70.5 19q-31 0 -34 -37h-40q1 46 18 76q21 38 63 38q22 0 70.5 -19t69.5 -19q29 0 34 37z" />
    <glyph glyph-name="glyph266" horiz-adv-x="541" 
d="M338 658h49q-37 -128 -141 -128q-53 0 -84 37t-28 91h47q1 -29 20 -46.5t49 -17.5q53 0 88 64zM303 859h101l-113 -146h-56z" />
    <glyph glyph-name="glyph267" horiz-adv-x="541" 
d="M338 658h49q-37 -128 -141 -128q-53 0 -84 37t-28 91h47q1 -29 20 -46.5t49 -17.5q53 0 88 64zM256 859l68 -146h-56l-113 146h101z" />
    <glyph glyph-name="glyph268" horiz-adv-x="541" 
d="M338 658h49q-37 -128 -141 -128q-53 0 -84 37t-28 91h47q1 -29 20 -46.5t49 -17.5q53 0 88 64zM306 671q9 28 11 64q1 11 8 13q2 0 8 1q67 11 67 54q0 35 -28 35q-5 0 -14 -1t-14 -1q-21 0 -21 18q0 28 32 28q46 0 75 -24q31 -27 27 -72q-6 -59 -87 -81q-25 -7 -31 -34
h-33z" />
    <glyph glyph-name="glyph269" horiz-adv-x="541" 
d="M338 658h49q-37 -128 -141 -128q-53 0 -84 37t-28 91h47q1 -29 20 -46.5t49 -17.5q53 0 88 64zM400 840v0h39q0 -44 -19 -76q-22 -38 -63 -38q-17 0 -67.5 19t-70.5 19q-31 0 -34 -37h-40q1 46 18 76q21 38 63 38q22 0 70.5 -19t69.5 -19q29 0 34 37z" />
    <glyph glyph-name="glyph270" horiz-adv-x="249" 
 />
  </font>
</defs>
</svg>
