<?xml version="1.0" standalone="no"?>
<!DOCTYPE svg PUBLIC "-//W3C//DTD SVG 1.1//EN" "http://www.w3.org/Graphics/SVG/1.1/DTD/svg11.dtd" >
<svg xmlns="http://www.w3.org/2000/svg" xmlns:xlink="http://www.w3.org/1999/xlink" version="1.1">
<metadata>
Created by FontForge 20170731 at Wed Oct  5 13:12:54 2005
 By Aleksey,,,
(c) Copyright 2005 by Tong Duc Thinh. All Rights Reserved
</metadata>
<defs>
<font id="SFUGillSansLight" horiz-adv-x="490" >
  <font-face 
    font-family="SFU GillSans"
    font-weight="300"
    font-stretch="normal"
    units-per-em="1000"
    panose-1="0 0 3 0 0 0 0 0 0 0"
    ascent="800"
    descent="-200"
    x-height="449"
    cap-height="682"
    bbox="-215 -250 1036 1134"
    underline-thickness="50"
    underline-position="-175"
    unicode-range="U+0020-F002"
  />
<missing-glyph horiz-adv-x="500" 
d="M63 0v1134h375v-1134h-375zM125 63h250v1009h-250v-1009z" />
    <glyph glyph-name=".notdef" horiz-adv-x="500" 
d="M63 0v1134h375v-1134h-375zM125 63h250v1009h-250v-1009z" />
    <glyph glyph-name=".null" horiz-adv-x="0" 
 />
    <glyph glyph-name="nonmarkingreturn" horiz-adv-x="278" 
 />
    <glyph glyph-name="space" unicode=" " horiz-adv-x="278" 
 />
    <glyph glyph-name="exclam" unicode="!" horiz-adv-x="177" 
d="M121 97v-97h-65v97h65zM121 682l-17 -490h-31l-17 490h65z" />
    <glyph glyph-name="quotedbl" unicode="&#x22;" horiz-adv-x="278" 
d="M175 684h66v-109l-12 -125h-42l-12 125v109zM37 684h66v-109l-12 -125h-42l-12 125v109z" />
    <glyph glyph-name="numbersign" unicode="#" horiz-adv-x="660" 
d="M261 698h46l-42 -205h190l43 205h46l-43 -205h82v-46h-91l-40 -191h131v-46h-141l-42 -203h-46l42 203h-190l-42 -203h-46l42 203h-83v46h93l39 191h-132v46h142zM255 447l-39 -191h190l40 191h-191z" />
    <glyph glyph-name="dollar" unicode="$" horiz-adv-x="521" 
d="M455 600v-56q-84 61 -171 70v-261q200 -54 200 -187q0 -58 -42 -106q-55 -62 -158 -69v-108h-48v108q-118 9 -201 80v55q104 -75 201 -88v277q-196 59 -196 180q0 75 62 121q55 41 134 45v30h48v-30q96 -8 171 -61zM236 368v246q-55 -1 -97 -30q-48 -33 -48 -86
q0 -90 145 -130zM284 299v-261q58 3 101 34q48 36 48 91q0 57 -49 92q-32 23 -100 44z" />
    <glyph glyph-name="percent" unicode="%" horiz-adv-x="698" 
d="M679 149q0 -67 -47 -114t-114 -47t-114 47t-47 114t47 114t114 47t114 -47t47 -114zM636 149q0 49 -34.5 83.5t-83.5 34.5t-83.5 -34.5t-34.5 -83.5t34.5 -83.5t83.5 -34.5t83.5 34.5t34.5 83.5zM341 530q0 -67 -47 -114t-114 -47t-114 47t-47 114t47 114t114 47t114 -47
t47 -114zM298 530q0 49 -34.5 83.5t-83.5 34.5t-83.5 -34.5t-34.5 -83.5t34.5 -83.5t83.5 -34.5t83.5 34.5t34.5 83.5zM645 688l-549 -699h-50l550 699h49z" />
    <glyph glyph-name="ampersand" unicode="&#x26;" horiz-adv-x="615" 
d="M508 340h56q-32 -100 -94 -193l139 -147h-67l-103 107q-103 -116 -235 -116q-77 0 -126 42q-52 44 -52 120q0 135 169 208q-85 90 -85 159q0 65 48 107t114 42q63 0 106 -39.5t43 -101.5q0 -108 -143 -181l155 -161q46 70 75 154zM244 384q128 52 128 139q0 43 -30 70
t-73 27q-44 0 -76 -27t-32 -70q0 -63 83 -139zM403 144l-173 180q-68 -30 -101 -60q-46 -43 -46 -104q0 -59 36 -89.5t96 -30.5q102 0 188 104z" />
    <glyph glyph-name="quotesingle" unicode="'" horiz-adv-x="222" 
d="M78 684h66v-109l-12 -125h-42l-12 125v109z" />
    <glyph glyph-name="parenleft" unicode="(" horiz-adv-x="333" 
d="M131 231q0 -130 50 -251q52 -125 145 -210h-50q-196 196 -196 461t195 460h50q-92 -85 -144 -210q-50 -121 -50 -250z" />
    <glyph glyph-name="parenright" unicode=")" horiz-adv-x="333" 
d="M202 231q0 130 -50 250q-52 126 -145 210h50q196 -196 196 -460q0 -265 -196 -461h-50q93 85 145 210q50 121 50 251z" />
    <glyph glyph-name="asterisk" unicode="*" horiz-adv-x="469" 
d="M395 613l-140 -113l2 -5l180 16v-47l-180 20l-3 -6l141 -114l-34 -34l-116 141l-5 -1l17 -185h-46l18 185l-4 1l-115 -141l-35 34l142 114l-2 5l-183 -17v46l182 -18l1 6l-140 113l35 35l114 -139l5 2l-18 180h46l-17 -179l5 -3l116 139z" />
    <glyph glyph-name="plus" unicode="+" horiz-adv-x="660" 
d="M68 373h240v240h44v-240h240v-44h-240v-240h-44v240h-240v44z" />
    <glyph glyph-name="comma" unicode="," horiz-adv-x="177" 
d="M121 97v-76q0 -91 -65 -138v35q21 31 21 82h-21v97h65z" />
    <glyph glyph-name="hyphen" unicode="-" horiz-adv-x="313" 
d="M275 249v-47h-237v47h237z" />
    <glyph glyph-name="hyphen" unicode="&#x2010;" horiz-adv-x="313" 
d="M275 249v-47h-237v47h237z" />
    <glyph glyph-name="period" unicode="." horiz-adv-x="177" 
d="M121 97v-97h-65v97h65z" />
    <glyph glyph-name="slash" unicode="/" horiz-adv-x="281" 
d="M223 691h46l-219 -700h-47z" />
    <glyph glyph-name="zero" unicode="0" horiz-adv-x="500" 
d="M468 338q0 -126 -45 -222q-58 -125 -171 -125q-114 0 -173 119q-47 93 -47 219q0 214 93 307q55 55 125 55t123 -53q95 -95 95 -300zM417 343q0 106 -32 188q-45 112 -135 112q-89 0 -134 -114q-33 -84 -33 -188q0 -105 32 -188q44 -114 133 -114q91 0 136 114
q33 83 33 190z" />
    <glyph glyph-name="one" unicode="1" horiz-adv-x="500" 
d="M275 682v-682h-51v682h51z" />
    <glyph glyph-name="two" unicode="2" horiz-adv-x="500" 
d="M45 569v60q76 62 159 62q84 0 142 -56.5t58 -139.5q0 -162 -251 -448h317v-47h-433q316 304 316 494q0 65 -44 107t-109 42q-70 0 -155 -74z" />
    <glyph glyph-name="three" unicode="3" horiz-adv-x="500" 
d="M74 598v49q60 44 144 44t140 -43q63 -48 63 -129q0 -57 -34 -98t-90 -58v-2q132 -44 132 -174q0 -87 -58 -141.5t-146 -54.5q-87 0 -157 34v47q71 -33 151 -33q69 0 114 38.5t45 106.5q0 75 -52 115q-47 37 -124 36v48q66 0 114 32q54 37 54 100q0 60 -50 96
q-44 32 -106 32q-73 0 -140 -45z" />
    <glyph glyph-name="four" unicode="4" horiz-adv-x="500" 
d="M376 691v-387h95v-41h-95v-263h-51v263h-311v17l343 411h19zM325 304v288h-2l-238 -288h240z" />
    <glyph glyph-name="five" unicode="5" horiz-adv-x="500" 
d="M386 682v-47h-241v-216q28 4 55 4q101 0 163.5 -56t62.5 -155q0 -96 -62.5 -158.5t-158.5 -62.5q-78 0 -164 45v58q96 -55 166 -55q74 0 121 47.5t47 121.5q0 82 -50.5 126t-133.5 44q-46 0 -94 -14v318h289z" />
    <glyph glyph-name="six" unicode="6" horiz-adv-x="500" 
d="M345 691l30 -36q-94 -66 -159 -147q-79 -97 -95 -192q72 53 151 53q82 0 136.5 -52.5t54.5 -133.5q0 -85 -54.5 -138.5t-139.5 -53.5q-101 0 -157 71q-51 65 -51 169q0 248 284 460zM112 257q-2 -18 -2 -35q0 -77 39 -127q42 -56 117 -56q61 0 103.5 38.5t42.5 98.5
q0 62 -42.5 103.5t-104.5 41.5q-79 0 -153 -64z" />
    <glyph glyph-name="seven" unicode="7" horiz-adv-x="500" 
d="M475 682l-312 -691l-44 19l282 625h-372v47h446z" />
    <glyph glyph-name="eight" unicode="8" horiz-adv-x="500" 
d="M158 355q-89 60 -89 154q0 74 53 128t127 54q75 0 128.5 -53t53.5 -128q0 -96 -87 -155q101 -61 101 -169q0 -82 -55.5 -138.5t-137.5 -56.5t-139 55t-57 136q0 112 102 173zM251 377q57 0 93 38.5t36 96.5q0 55 -38 93t-93 38t-92 -39t-37 -94q0 -56 37.5 -94.5
t93.5 -38.5zM249 329q-60 0 -101 -42.5t-41 -102.5q0 -61 42 -103t103 -42q64 0 103 42.5t39 107.5q0 60 -42 100t-103 40z" />
    <glyph glyph-name="nine" unicode="9" horiz-adv-x="500" 
d="M144 -9l-28 37q223 162 256 337q-81 -51 -150 -51q-81 0 -135.5 53t-54.5 134q0 84 54 137t138 53q103 0 159 -69q51 -64 51 -170q0 -254 -290 -461zM381 426q1 16 1 30q0 82 -36 131q-40 56 -119 56q-61 0 -102.5 -39.5t-41.5 -99.5q0 -61 40 -101.5t101 -40.5
q86 0 157 64z" />
    <glyph glyph-name="colon" unicode=":" horiz-adv-x="177" 
d="M121 449v-97h-65v97h65zM121 97v-97h-65v97h65z" />
    <glyph glyph-name="semicolon" unicode=";" horiz-adv-x="177" 
d="M121 97v-76q0 -91 -65 -138v35q21 31 21 82h-21v97h65zM121 449v-97h-65v97h65z" />
    <glyph glyph-name="less" unicode="&#x3c;" horiz-adv-x="660" 
d="M68 329v42l524 220v-49l-464 -192l464 -192v-49z" />
    <glyph glyph-name="equal" unicode="=" horiz-adv-x="660" 
d="M68 493h524v-44h-524v44zM68 252h524v-44h-524v44z" />
    <glyph glyph-name="greater" unicode="&#x3e;" horiz-adv-x="660" 
d="M592 329l-524 -220v49l464 192l-464 192v49l524 -220v-42z" />
    <glyph glyph-name="question" unicode="?" horiz-adv-x="281" 
d="M25 595l23 78q36 18 68 18q59 0 92 -40.5t33 -101.5q0 -66 -33 -121q-21 -31 -63 -94q-33 -50 -33 -92q0 -30 19 -63l-18 -14q-39 45 -39 92q0 43 58 141.5t58 155.5q0 36 -19 63q-22 31 -56 31q-48 0 -80 -53h-10zM150 97v-97h-65v97h65z" />
    <glyph glyph-name="at" unicode="@" horiz-adv-x="800" 
d="M558 505h61l-83 -392q-6 -28 -6 -37q0 -22 24 -22q58 0 119 72q72 86 72 210q0 120 -65 204q-86 111 -261 111q-170 0 -275 -110t-105 -281t106.5 -275t278.5 -104q214 0 328 152h50q-56 -95 -163 -146q-98 -46 -216 -46q-190 0 -307.5 115t-117.5 305q0 174 101 293
q116 137 326 137q180 0 278 -116q83 -98 83 -239q0 -140 -87 -238q-78 -88 -165 -88q-59 0 -59 54q0 15 4 34l-2 2q-75 -90 -165 -90q-79 0 -127 65q-42 59 -42 141q0 114 67 203q74 98 184 98q103 0 146 -94h2zM518 336q0 58 -34 98t-91 40q-88 0 -142 -94
q-46 -80 -46 -167q0 -61 31 -106q35 -50 94 -50q79 0 137 100q51 88 51 179z" />
    <glyph glyph-name="A" unicode="A" horiz-adv-x="667" 
d="M348 687l315 -687h-55l-108 236h-333l-108 -236h-55l315 687h29zM480 280l-147 321l-146 -321h293z" />
    <glyph glyph-name="B" unicode="B" horiz-adv-x="531" 
d="M80 682h142q227 0 227 -176q0 -98 -98 -152q158 -33 158 -173q0 -91 -71 -140q-62 -41 -158 -41h-200v682zM133 638v-272h73q186 0 186 136t-188 136h-71zM133 322v-278h141q76 0 123 31q55 35 55 107q0 140 -201 140h-118z" />
    <glyph glyph-name="C" unicode="C" horiz-adv-x="677" 
d="M647 634v-58q-125 66 -243 66q-130 0 -214 -86t-84 -216q0 -133 85.5 -216.5t219.5 -83.5q110 0 243 70v-55q-120 -64 -242 -64q-154 0 -258.5 98t-104.5 251q0 149 104 250t254 101q116 0 240 -57z" />
    <glyph glyph-name="D" unicode="D" horiz-adv-x="740" 
d="M79 682h239q198 0 295 -114q77 -90 77 -227q0 -138 -80 -230q-97 -111 -283 -111h-248v682zM132 638v-594h192q134 0 221.5 81.5t87.5 215.5q0 135 -88 216t-224 81h-189z" />
    <glyph glyph-name="E" unicode="E" 
d="M452 682v-44h-319v-273h311v-44h-311v-277h327v-44h-380v682h372z" />
    <glyph glyph-name="F" unicode="F" horiz-adv-x="438" 
d="M429 682v-44h-298v-259h269v-44h-269v-335h-53v682h351z" />
    <glyph glyph-name="G" unicode="G" horiz-adv-x="719" 
d="M650 633v-60q-122 69 -242 69q-131 0 -216 -85t-85 -216q0 -138 88 -219.5t228 -81.5q103 0 187 42v184h-144v44h197v-261q-120 -58 -242 -58q-156 0 -262 97q-109 100 -109 255q0 154 107 252q104 96 259 96q105 0 234 -58z" />
    <glyph glyph-name="H" unicode="H" horiz-adv-x="719" 
d="M640 682v-682h-53v323h-455v-323h-53v682h53v-315h455v315h53z" />
    <glyph glyph-name="I" unicode="I" horiz-adv-x="208" 
d="M131 682v-682h-53v682h53z" />
    <glyph glyph-name="J" unicode="J" horiz-adv-x="208" 
d="M135 682v-682q0 -199 -143 -199q-14 0 -32 2l-5 50q17 -4 31 -4q96 0 96 137v696h53z" />
    <glyph glyph-name="K" unicode="K" horiz-adv-x="531" 
d="M522 682l-325 -340l356 -342h-67l-357 342v-342h-53v682h53v-340l327 340h66z" />
    <glyph glyph-name="L" unicode="L" horiz-adv-x="469" 
d="M132 682v-638h337v-44h-390v682h53z" />
    <glyph glyph-name="M" unicode="M" horiz-adv-x="781" 
d="M390 365l260 317h53v-682h-53v605h-2l-258 -319l-258 319h-2v-605h-53v682h53z" />
    <glyph glyph-name="N" unicode="N" horiz-adv-x="771" 
d="M693 682v-682h-44l-518 596v-596h-53v682h45l517 -596v596h53z" />
    <glyph glyph-name="O" unicode="O" horiz-adv-x="823" 
d="M773 341q0 -150 -105.5 -250t-256.5 -100q-150 0 -255 100t-105 250t105 250t255 100q151 0 256.5 -100t105.5 -250zM716 341q0 128 -87.5 214.5t-215.5 86.5t-216.5 -86.5t-88.5 -214.5t88.5 -214.5t216.5 -86.5t215.5 86.5t87.5 214.5z" />
    <glyph glyph-name="P" unicode="P" horiz-adv-x="510" 
d="M78 682h188q98 0 156 -40q67 -47 67 -140q0 -94 -69 -142q-60 -41 -159 -41h-130v-319h-53v682zM131 638v-275h127q174 0 174 138q0 70 -51 106q-44 31 -117 31h-133z" />
    <glyph glyph-name="Q" unicode="Q" horiz-adv-x="823" 
d="M743 -74l-59 -69q-177 22 -310 134q-137 11 -230 111t-93 238q0 152 103.5 251.5t256.5 99.5t257 -97q105 -100 105 -252q0 -112 -65 -205q-86 -123 -257 -146q115 -80 214 -80q32 0 67 25zM716 341q0 128 -88 214.5t-216 86.5q-127 0 -215.5 -87t-88.5 -214
q0 -126 87.5 -213.5t213.5 -87.5q128 0 217.5 87t89.5 214z" />
    <glyph glyph-name="R" unicode="R" horiz-adv-x="573" 
d="M79 682h175q97 0 156 -39q70 -45 70 -137q0 -118 -130 -166q36 -19 91 -104l154 -236h-62l-119 187q-59 93 -95 118q-32 22 -95 22h-92v-327h-53v682zM132 638v-267h113q178 0 178 134q0 71 -57 105q-47 28 -123 28h-111z" />
    <glyph glyph-name="S" unicode="S" horiz-adv-x="469" 
d="M400 648v-58q-91 52 -153 52q-59 0 -100 -35q-44 -37 -44 -95q0 -76 84 -114q16 -7 157 -68q84 -51 84 -152q0 -81 -58 -134t-140 -53q-85 0 -175 60v62q101 -73 172 -73q60 0 102 38t42 98q0 83 -84 123q-10 5 -157 68q-84 48 -84 143q0 78 59 131q58 50 137 50t158 -43
z" />
    <glyph glyph-name="T" unicode="T" horiz-adv-x="573" 
d="M569 682v-44h-256v-638h-53v638h-256v44h565z" />
    <glyph glyph-name="U" unicode="U" horiz-adv-x="698" 
d="M582 682h53v-372q0 -141 -72 -227q-77 -92 -214 -92q-133 0 -211 88q-74 84 -74 219v384h53v-382q0 -114 58 -184q63 -76 174 -76q113 0 176 78q57 72 57 189v375z" />
    <glyph glyph-name="V" unicode="V" horiz-adv-x="594" 
d="M591 682l-286 -689h-15l-287 689h53l242 -577l240 577h53z" />
    <glyph glyph-name="W" unicode="W" horiz-adv-x="1031" 
d="M516 569l-229 -576h-14l-274 689h54l226 -566l229 566h16l228 -566l226 566h54l-274 -689h-13z" />
    <glyph glyph-name="X" unicode="X" horiz-adv-x="688" 
d="M344 388l259 294h68l-293 -333l310 -349h-68l-276 312l-276 -312h-68l309 349l-293 333h68z" />
    <glyph glyph-name="Y" unicode="Y" horiz-adv-x="583" 
d="M583 682l-265 -316v-366h-53v366l-265 316h64l228 -270l227 270h64z" />
    <glyph glyph-name="Z" unicode="Z" horiz-adv-x="635" 
d="M602 682l5 -19l-511 -619h515v-44h-597l-5 15l511 623h-488v44h570z" />
    <glyph glyph-name="bracketleft" unicode="[" horiz-adv-x="302" 
d="M117 635v-808h178v-47h-226v902h226v-47h-178z" />
    <glyph glyph-name="backslash" unicode="\" horiz-adv-x="281" 
d="M232 -9l-220 700h47l219 -700h-46z" />
    <glyph glyph-name="bracketright" unicode="]" horiz-adv-x="302" 
d="M185 -173v808h-178v47h226v-902h-226v47h178z" />
    <glyph glyph-name="asciicircum" unicode="^" horiz-adv-x="660" 
d="M330 691l219 -262l-32 -26l-187 225l-188 -225l-31 26z" />
    <glyph glyph-name="underscore" unicode="_" horiz-adv-x="500" 
d="M-6 -75h512v-50h-512v50z" />
    <glyph glyph-name="grave" unicode="`" horiz-adv-x="333" 
d="M77 677h81l104 -156h-33z" />
    <glyph glyph-name="a" unicode="a" horiz-adv-x="427" 
d="M421 78v-40l-8 -6q-55 -41 -83 -41q-19 0 -26 20q-4 8 -6 36q-72 -56 -141 -56q-49 0 -85 32.5t-36 81.5q0 87 93 130q66 29 169 34v57q0 92 -100 92q-61 0 -137 -57v49q78 48 145 48q60 0 98 -27q42 -31 42 -90v-280q0 -23 11 -23q13 0 64 40zM298 89v140
q-75 3 -136 -23q-78 -34 -78 -101q0 -34 28 -55q25 -19 61 -19q60 0 125 58z" />
    <glyph glyph-name="b" unicode="b" horiz-adv-x="510" 
d="M62 25v657h48v-297q75 73 162 73q92 0 146 -63t54 -156q0 -114 -68.5 -181t-182.5 -67q-73 0 -159 34zM110 331v-272q56 -21 110 -21q88 0 144.5 55.5t56.5 142.5q0 75 -39 126q-44 56 -116 56q-79 0 -156 -87z" />
    <glyph glyph-name="c" unicode="c" horiz-adv-x="417" 
d="M379 436v-53q-66 28 -117 28q-79 0 -125 -56q-44 -52 -44 -132q0 -83 45.5 -134t127.5 -51q56 0 121 26v-50q-69 -23 -125 -23q-101 0 -160.5 63t-59.5 164q0 102 57 169q61 71 161 71q50 0 119 -22z" />
    <glyph glyph-name="d" unicode="d" horiz-adv-x="510" 
d="M449 682v-682h-48v35q-64 -44 -133 -44q-98 0 -162.5 68t-64.5 166q0 100 63.5 166.5t163.5 66.5q60 0 133 -36v260h48zM401 79v290q-66 42 -131 42q-79 0 -128.5 -51.5t-49.5 -131.5q0 -82 53 -136t135 -54q60 0 121 41z" />
    <glyph glyph-name="e" unicode="e" horiz-adv-x="479" 
d="M445 241h-354q-1 -12 -1 -23q0 -75 52.5 -127.5t127.5 -52.5q84 0 167 67v-54q-78 -60 -173 -60q-101 0 -164 70q-60 67 -60 169q0 95 56.5 161.5t149.5 66.5q92 0 147 -63q52 -60 52 -154zM97 280h291q-25 131 -142 131q-58 0 -99 -37q-37 -35 -50 -94z" />
    <glyph glyph-name="f" unicode="f" horiz-adv-x="240" 
d="M332 672v-45q-51 17 -81 17q-109 0 -109 -139v-56h87v-39h-87v-410h-48v410h-83v39h83v74q0 73 42 120.5t114 47.5q35 0 82 -19z" />
    <glyph glyph-name="g" unicode="g" horiz-adv-x="427" 
d="M417 449v-39h-102q62 -58 62 -119q0 -88 -66 -128q-22 -14 -123 -42q-66 -19 -66 -52q0 -38 76 -45q122 -10 142 -17q76 -25 76 -106q0 -71 -69 -105q-52 -26 -132 -26q-75 0 -127 23q-70 31 -70 97q0 89 131 109v2q-73 17 -73 64q0 46 90 73v2q-54 16 -87 55t-33 94
q0 79 57 122q52 38 134 38h180zM331 290q0 50 -35.5 84.5t-85.5 34.5t-84 -33.5t-34 -83.5q0 -51 34 -86.5t85 -35.5q50 0 85 35t35 85zM370 -103q0 79 -143 79q-163 0 -163 -83t154 -83q56 0 96 17q56 22 56 70z" />
    <glyph glyph-name="h" unicode="h" 
d="M110 682v-311h2q58 87 148 87q81 0 125 -52q42 -48 42 -131v-275h-48v256q0 155 -122 155q-85 0 -147 -96v-315h-48v682h48z" />
    <glyph glyph-name="i" unicode="i" horiz-adv-x="188" 
d="M118 449v-449h-48v449h48zM118 682v-82h-48v82h48z" />
    <glyph glyph-name="j" unicode="j" horiz-adv-x="188" 
d="M116 449v-499q0 -74 -29 -122q-35 -59 -104 -58l-11 41q58 2 80 44q16 31 16 96v498h48zM116 682v-82h-48v82h48z" />
    <glyph glyph-name="k" unicode="k" horiz-adv-x="427" 
d="M107 682v-682h-48v682h48zM425 449l-246 -213l284 -236h-66l-283 236l248 213h63z" />
    <glyph glyph-name="l" unicode="l" horiz-adv-x="188" 
d="M118 682v-682h-48v682h48z" />
    <glyph glyph-name="m" unicode="m" horiz-adv-x="771" 
d="M108 449v-79h2q56 88 143 88q102 0 145 -108q65 108 156 108q75 0 118 -55q38 -49 38 -127v-276h-48v255q0 65 -25 106q-31 50 -92 50q-46 0 -82 -33q-24 -22 -54 -72v-306h-48v256q0 66 -26 106q-30 49 -92 49q-77 0 -135 -96v-315h-48v449h48z" />
    <glyph glyph-name="n" unicode="n" 
d="M110 449v-78h2q58 87 148 87q81 0 125 -53q42 -49 42 -131v-274h-48v256q0 155 -122 155q-88 0 -147 -96v-315h-48v449h48z" />
    <glyph glyph-name="o" unicode="o" horiz-adv-x="542" 
d="M499 224q0 -100 -64.5 -166.5t-163.5 -66.5t-164 66.5t-65 166.5t65 167t164 67q100 0 164 -67t64 -167zM448 224q0 79 -49.5 133t-127.5 54q-79 0 -128.5 -53.5t-49.5 -133.5q0 -79 49.5 -132.5t128.5 -53.5q78 0 127.5 53.5t49.5 132.5z" />
    <glyph glyph-name="p" unicode="p" horiz-adv-x="510" 
d="M111 449v-25q69 34 135 34q98 0 160 -66.5t62 -165.5q0 -97 -63.5 -166t-160.5 -69q-64 0 -133 34v-255h-48v679h48zM111 378v-306q63 -34 124 -34q82 0 131 51t49 133t-52 135.5t-134 53.5q-56 0 -118 -33z" />
    <glyph glyph-name="q" unicode="q" horiz-adv-x="510" 
d="M447 449v-679h-48v256q-77 -35 -147 -35q-97 0 -156 63.5t-59 161.5q0 101 61.5 171.5t160.5 70.5q67 0 140 -40v31h48zM399 74v297q-67 40 -130 40q-81 0 -131 -58.5t-50 -140.5q0 -80 47 -128.5t127 -48.5q67 0 137 39z" />
    <glyph glyph-name="r" unicode="r" horiz-adv-x="333" 
d="M373 405l-28 -45q-56 51 -90 51q-68 0 -144 -129v-282h-48v449h48v-118h2q80 127 157 127q43 0 103 -53z" />
    <glyph glyph-name="s" unicode="s" horiz-adv-x="354" 
d="M309 420v-52q-70 46 -123 46q-37 0 -65 -19q-31 -22 -31 -57q0 -45 60 -71q37 -16 113 -49q60 -37 60 -103q0 -57 -44.5 -90.5t-102.5 -33.5q-68 0 -135 41v47q81 -41 141 -41q38 0 66.5 20.5t28.5 57.5q0 41 -68 77q-52 23 -105 45q-60 36 -60 97q0 56 46 91
q42 32 99 32q54 0 120 -38z" />
    <glyph glyph-name="t" unicode="t" horiz-adv-x="302" 
d="M150 598v-149h126v-39h-126v-267q0 -63 9 -81q12 -24 58 -24q33 0 82 22v-46q-41 -23 -93 -23q-45 0 -74.5 26t-29.5 70v323h-121v39h121v107l33 42h15z" />
    <glyph glyph-name="u" unicode="u" 
d="M379 0v74h-2q-31 -44 -62 -63q-35 -20 -86 -20q-78 0 -122.5 50t-44.5 130v278h48v-277q0 -59 32.5 -96.5t90.5 -37.5q51 0 87 26q28 21 59 70v315h48v-449h-48z" />
    <glyph glyph-name="v" unicode="v" horiz-adv-x="427" 
d="M427 449l-193 -458h-30l-204 458h49l169 -378l162 378h47z" />
    <glyph glyph-name="w" unicode="w" horiz-adv-x="708" 
d="M708 449l-194 -458h-23l-138 365l-139 -365h-22l-192 458h47l153 -366l141 366h26l137 -366l156 366h48z" />
    <glyph glyph-name="x" unicode="x" horiz-adv-x="479" 
d="M244 197l-176 -197h-62l205 230l-205 219h62l176 -186l176 186h62l-206 -219l206 -230h-62z" />
    <glyph glyph-name="y" unicode="y" horiz-adv-x="417" 
d="M423 449l-336 -679h-49l157 317l-189 362h50l163 -314l155 314h49z" />
    <glyph glyph-name="z" unicode="z" horiz-adv-x="396" 
d="M381 449l4 -15l-295 -390h295v-44h-370l-5 15l297 390h-278v44h352z" />
    <glyph glyph-name="braceleft" unicode="{" horiz-adv-x="333" 
d="M49 194v64q61 1 81 56q13 34 13 108v97q0 171 143 163v-54q-56 0 -74 -27q-14 -22 -14 -82v-97q0 -159 -97 -196q97 -37 97 -196v-97q0 -60 14 -82q18 -27 74 -27v-54q-143 -8 -143 163v97q0 74 -13 108q-20 55 -81 56z" />
    <glyph glyph-name="bar" unicode="|" horiz-adv-x="222" 
d="M86 750h48v-1000h-48v1000z" />
    <glyph glyph-name="braceright" unicode="}" horiz-adv-x="333" 
d="M284 258v-64q-61 -1 -81 -56q-13 -34 -13 -108v-97q0 -171 -143 -163v54q56 0 74 27q14 22 14 82v97q0 159 97 196q-97 37 -97 196v97q0 60 -14 82q-18 27 -74 27v54q143 8 143 -163v-97q0 -74 13 -108q20 -55 81 -56z" />
    <glyph glyph-name="asciitilde" unicode="~" horiz-adv-x="660" 
d="M67 291v0v54q81 59 140 59q38 0 127.5 -39.5t118.5 -39.5q47 0 139 66v-54q-81 -59 -137 -59q-39 0 -126 39.5t-121 39.5q-52 0 -141 -66z" />
    <glyph glyph-name="euro" horiz-adv-x="498" 
d="M522 633l-23 -156l-48 6q0 157 -94 157q-103 0 -161 -211h172l-21 -48h-164q-6 -24 -16 -73h147l-21 -47h-134q-6 -41 -6 -74q0 -56 21 -91q26 -43 78 -43q58 0 101 68q24 38 51 119l55 -10l-54 -188q-77 -53 -159 -53q-111 0 -166 84q-47 71 -47 188h-74l21 47h56
q3 25 12 73h-66l21 48h59q41 112 108 183q83 88 187 88q94 0 165 -67z" />
    <glyph glyph-name="exclamdown" unicode="&#xa1;" horiz-adv-x="177" 
d="M56 364v97h65v-97h-65zM56 -221l17 490h31l17 -490h-65z" />
    <glyph glyph-name="cent" unicode="&#xa2;" horiz-adv-x="417" 
d="M410 638l-67 -190q22 -6 34 -12v-53q-27 14 -50 20l-125 -355q28 -10 65 -10q61 0 120 27v-47q-58 -27 -121 -27q-38 0 -80 9l-68 -189h-44l74 207q-106 61 -106 197q0 109 58 174q60 69 167 69q17 0 35 -2l65 182h43zM164 67l124 344h-24q-81 0 -127 -55
q-44 -51 -44 -134q0 -97 71 -155z" />
    <glyph glyph-name="sterling" unicode="&#xa3;" horiz-adv-x="552" 
d="M507 682l24 -47q-32 8 -54 8q-95 0 -160 -102q-40 -63 -77 -187h106v-47h-120l-67 -254q74 7 104 7q20 0 135 -17q27 -4 41 -4q50 0 99 27v-53q-44 -22 -96 -22q-32 0 -95.5 10.5t-95.5 10.5q-63 0 -157 -17l84 312h-84v47h97q93 337 268 337q24 0 48 -9z" />
    <glyph glyph-name="currency" unicode="&#xa4;" horiz-adv-x="556" 
d="M277 557q74 0 136 -48l63 63l32 -32l-63 -63q48 -60 48 -135t-48 -136l63 -63l-32 -32l-63 63q-60 -48 -136 -48q-75 0 -135 48l-63 -63l-32 32l63 63q-48 64 -48 136q0 74 48 135l-63 63l32 32l63 -63q62 48 135 48zM277 509q-70 0 -118.5 -48.5t-48.5 -118.5t48.5 -119
t118.5 -49t119 49t49 119t-49 118.5t-119 48.5z" />
    <glyph glyph-name="yen" unicode="&#xa5;" horiz-adv-x="556" 
d="M2 716h72l207 -354l204 354h69l-210 -354h179v-47h-212v-76h212v-47h-212v-192h-64v192h-214v47h214v76h-214v47h181z" />
    <glyph glyph-name="brokenbar" unicode="&#xa6;" horiz-adv-x="222" 
d="M86 675h48v-350h-48v350zM86 175h48v-350h-48v350z" />
    <glyph glyph-name="section" unicode="&#xa7;" horiz-adv-x="396" 
d="M337 581h-51q-14 66 -86 66q-37 0 -64.5 -24.5t-27.5 -60.5q0 -59 68 -123q43 -37 126 -115q68 -67 68 -141t-84 -162q49 -57 49 -119q0 -61 -40 -96.5t-102 -35.5q-52 0 -89.5 28.5t-43.5 79.5h50q14 -64 85 -64q40 0 67 24.5t27 63.5q0 56 -68 119q-43 37 -127 115
q-68 67 -68 143q0 75 84 159q-50 64 -50 121q0 61 40 96.5t102 35.5q53 0 91 -29t44 -81zM324 179q0 55 -58 113q-12 12 -125 115q-64 -63 -64 -127q0 -58 57 -114q18 -17 122 -113q68 64 68 126z" />
    <glyph glyph-name="dieresis" unicode="&#xa8;" horiz-adv-x="333" 
d="M255 636q18 0 31 -13t13 -31t-13 -31t-31 -13t-31 13t-13 31t13 31t31 13zM78 636q18 0 31 -13t13 -31t-13 -31t-31 -13t-31 13t-13 31t13 31t31 13z" />
    <glyph glyph-name="copyright" unicode="&#xa9;" horiz-adv-x="800" 
d="M562 449l-47 -12q-35 81 -111 81q-64 0 -101 -44.5t-37 -109.5q0 -71 30 -120q36 -58 103 -58q89 0 123 100l44 -16q-16 -58 -60 -93t-104 -35q-86 0 -138 66q-49 60 -49 148t51.5 145.5t138.5 57.5q102 0 157 -110zM400 728q156 0 264.5 -108.5t108.5 -264.5
t-108.5 -264.5t-264.5 -108.5q-155 0 -264 109t-109 264q0 156 108.5 264.5t264.5 108.5zM400 681q-136 0 -231 -95t-95 -231t95 -231t231 -95t231 95t95 231t-95 231t-231 95z" />
    <glyph glyph-name="ordfeminine" unicode="&#xaa;" horiz-adv-x="281" 
d="M280 474v-36q-46 -29 -64 -29q-23 0 -27 29q-43 -29 -84 -29q-33 0 -57 19q-27 20 -27 52q0 91 168 99v31q0 50 -58 50q-37 0 -94 -38v39q52 30 99 30q95 0 95 -77v-148q0 -20 9 -20zM189 471v79q-125 0 -125 -71q0 -40 51 -40q35 0 74 32z" />
    <glyph glyph-name="guillemotleft" unicode="&#xab;" horiz-adv-x="500" 
d="M293 231l188 -224h-60l-189 224l189 224h60zM80 231l188 -224h-60l-189 224l189 224h60z" />
    <glyph glyph-name="logicalnot" unicode="&#xac;" horiz-adv-x="660" 
d="M68 483h524v-284h-44v240h-480v44z" />
    <glyph glyph-name="sfthyphen" unicode="&#xad;" horiz-adv-x="338" 
d="M8 174l33 122h246l-33 -122h-246z" />
    <glyph glyph-name="registered" unicode="&#xae;" horiz-adv-x="800" 
d="M250 547h162q56 0 92 -23q41 -28 41 -81q0 -91 -107 -109q42 -25 59 -49q21 -30 63 -130h-59q-45 99 -63 121q-41 51 -117 51h-23v-172h-48v392zM298 366h65q57 0 83 10q42 16 42 63q0 45 -39 60q-24 9 -79 9h-72v-142zM400 728q156 0 264.5 -108.5t108.5 -264.5
t-108.5 -264.5t-264.5 -108.5q-155 0 -264 109t-109 264q0 156 108.5 264.5t264.5 108.5zM400 681q-136 0 -231 -95t-95 -231t95 -231t231 -95t231 95t95 231t-95 231t-231 95z" />
    <glyph glyph-name="macron" unicode="&#xaf;" horiz-adv-x="333" 
d="M300 623v-51h-267v51h267z" />
    <glyph glyph-name="macron" unicode="&#x2c9;" horiz-adv-x="333" 
d="M300 623v-51h-267v51h267z" />
    <glyph glyph-name="degree" unicode="&#xb0;" horiz-adv-x="400" 
d="M200 691q58 0 99 -40.5t41 -98.5t-41 -99t-99 -41t-98.5 41t-40.5 99t40.5 98.5t98.5 40.5zM200 651q-41 0 -70 -29.5t-29 -70.5t29 -70t70 -29t70.5 29t29.5 70t-29.5 70.5t-70.5 29.5z" />
    <glyph glyph-name="plusminus" unicode="&#xb1;" horiz-adv-x="660" 
d="M68 44h524v-44h-524v44zM68 373h240v240h44v-240h240v-44h-240v-240h-44v240h-240v44z" />
    <glyph glyph-name="twosuperior" unicode="&#xb2;" horiz-adv-x="313" 
d="M38 616v41q49 34 100 34q49 0 86.5 -28t37.5 -75q0 -81 -145 -225h184v-31h-271q190 159 190 257q0 33 -25.5 52.5t-59.5 19.5q-40 0 -97 -45z" />
    <glyph glyph-name="threesuperior" unicode="&#xb3;" horiz-adv-x="313" 
d="M48 632v34q38 25 90 25q48 0 84 -21q42 -25 42 -70q0 -58 -65 -79v-2q70 -20 70 -89q0 -48 -40 -77q-36 -26 -86 -26q-53 0 -99 19v32q46 -21 95 -21q38 0 63.5 18t25.5 54q0 74 -105 74v31q38 0 65 13q35 17 35 51q0 30 -29 48q-25 15 -57 15q-42 0 -89 -29z" />
    <glyph glyph-name="acute" unicode="&#xb4;" horiz-adv-x="333" 
d="M338 677l-152 -156h-33l104 156h81z" />
    <glyph glyph-name="mu" unicode="&#xb5;" horiz-adv-x="556" 
d="M101 449h48v-233q0 -181 132 -181t132 167v247h48v-449h-48v50q-53 -59 -133 -59q-76 0 -131 59v-227h-48v626z" />
    <glyph glyph-name="mu" unicode="&#x3bc;" horiz-adv-x="556" 
d="M101 449h48v-233q0 -181 132 -181t132 167v247h48v-449h-48v50q-53 -59 -133 -59q-76 0 -131 59v-227h-48v626z" />
    <glyph glyph-name="paragraph" unicode="&#xb6;" horiz-adv-x="650" 
d="M621 716v-68h-96v-847h-62v847h-130v-847h-64v504q-96 -4 -158 53t-62 153q0 99 69 154q63 51 165 51h338z" />
    <glyph glyph-name="ch270" unicode="&#xb7;" horiz-adv-x="249" 
d="M38 348q0 34 23 57t57 23t57.5 -23t23.5 -57t-23.5 -57.5t-57.5 -23.5t-57 23.5t-23 57.5z" />
    <glyph glyph-name="ch270" unicode="&#x2219;" horiz-adv-x="249" 
d="M38 348q0 34 23 57t57 23t57.5 -23t23.5 -57t-23.5 -57.5t-57.5 -23.5t-57 23.5t-23 57.5z" />
    <glyph glyph-name="cedilla" unicode="&#xb8;" horiz-adv-x="333" 
d="M198 8l-12 -43q62 -10 62 -63q0 -39 -31 -59q-26 -18 -67 -18q-22 0 -44 5l5 32q19 -2 33 -2q65 0 65 39q0 38 -62 39l21 70h30z" />
    <glyph glyph-name="onesuperior" unicode="&#xb9;" horiz-adv-x="313" 
d="M177 687v-355h-42v355h42z" />
    <glyph glyph-name="ordmasculine" unicode="&#xba;" horiz-adv-x="354" 
d="M329 550q0 -66 -42.5 -103.5t-109.5 -37.5q-64 0 -108 39t-44 102q0 64 43.5 102.5t108.5 38.5q62 0 107 -40t45 -101zM284 550q0 46 -30.5 77t-76.5 31q-47 0 -77 -30.5t-30 -77.5q0 -48 29.5 -78t77.5 -30q47 0 77 30.5t30 77.5z" />
    <glyph glyph-name="guillemotright" unicode="&#xbb;" horiz-adv-x="500" 
d="M420 231l-188 224h60l189 -224l-189 -224h-60zM207 231l-188 224h60l189 -224l-189 -224h-60z" />
    <glyph glyph-name="onequarter" unicode="&#xbc;" horiz-adv-x="833" 
d="M637 360v-198h56v-28h-56v-134h-42v134h-183v13l205 213h20zM595 162v131l-126 -131h126zM183 687v-355h-42v355h42zM627 691l-526 -718h-39l526 718h39z" />
    <glyph glyph-name="onehalf" unicode="&#xbd;" horiz-adv-x="833" 
d="M183 687v-355h-42v355h42zM627 691l-526 -718h-39l526 718h39zM482 284v41q49 34 100 34q49 0 86.5 -28t37.5 -75q0 -81 -145 -225h184v-31h-271q190 159 190 257q0 33 -25.5 52.5t-59.5 19.5q-40 0 -97 -45z" />
    <glyph glyph-name="threequarters" unicode="&#xbe;" horiz-adv-x="833" 
d="M71 632v34q38 25 90 25q48 0 84 -21q42 -25 42 -70q0 -58 -65 -79v-2q70 -20 70 -89q0 -48 -40 -77q-36 -26 -86 -26q-53 0 -99 19v32q46 -21 95 -21q38 0 63.5 18t25.5 54q0 74 -105 74v31q38 0 65 13q35 17 35 51q0 30 -29 48q-25 15 -57 15q-42 0 -89 -29zM679 691
l-526 -718h-39l526 718h39zM689 360v-198h56v-28h-56v-134h-42v134h-183v13l205 213h20zM647 162v131l-126 -131h126z" />
    <glyph glyph-name="questiondown" unicode="&#xbf;" horiz-adv-x="281" 
d="M238 -134l-23 -78q-36 -18 -68 -18q-59 0 -93 42q-32 39 -32 100q0 66 33 121q21 31 63 94q33 50 33 92q0 30 -19 63l18 14q39 -45 39 -92q0 -43 -58 -141.5t-58 -155.5q0 -36 19 -63q22 -31 56 -31q48 0 80 53h10zM113 364v97h65v-97h-65z" />
    <glyph glyph-name="Agrave" unicode="&#xc0;" horiz-adv-x="667" 
d="M334 728l-166 140h72zM663 0h-55l-108 236h-333l-108 -236h-55l315 687h29zM480 280l-147 321l-146 -321h293z" />
    <glyph glyph-name="Aacute" unicode="&#xc1;" horiz-adv-x="667" 
d="M348 687l315 -687h-55l-108 236h-333l-108 -236h-55l315 687h29zM480 280l-147 321l-146 -321h293zM334 727l94 140h72z" />
    <glyph glyph-name="Acircumflex" unicode="&#xc2;" horiz-adv-x="667" 
d="M348 687l315 -687h-55l-108 236h-333l-108 -236h-55l315 687h29zM480 280l-147 321l-146 -321h293zM342 835l115 -148h-34l-89 98l-90 -98h-34l117 148h15z" />
    <glyph glyph-name="Atilde" unicode="&#xc3;" horiz-adv-x="667" 
d="M348 687l315 -687h-55l-108 236h-333l-108 -236h-55l315 687h29zM480 280l-147 321l-146 -321h293zM222 728l-28 -5q0 34 18.5 57t51.5 23q24 0 74 -20.5t71 -20.5q32 0 38 41l25 5q3 -32 -17 -56.5t-52 -24.5q-23 0 -74.5 21t-71.5 21q-30 0 -35 -41z" />
    <glyph glyph-name="Adieresis" unicode="&#xc4;" horiz-adv-x="667" 
d="M348 687l315 -687h-55l-108 236h-333l-108 -236h-55l315 687h29zM480 280l-147 321l-146 -321h293zM422 854q18 0 31 -13t13 -31t-13 -31t-31 -13t-31 13t-13 31t13 31t31 13zM245 854q18 0 31 -13t13 -31t-13 -31t-31 -13t-31 13t-13 31t13 31t31 13z" />
    <glyph glyph-name="Aring" unicode="&#xc5;" horiz-adv-x="667" 
d="M348 687l315 -687h-55l-108 236h-333l-108 -236h-55l315 687h29zM480 280l-147 321l-146 -321h293zM334 870q-25 0 -42.5 -17t-17.5 -42t17.5 -42.5t42.5 -17.5t42 17.5t17 42.5t-17 42t-42 17zM334 897q36 0 61 -25t25 -61t-25 -61.5t-61 -25.5t-61.5 25.5t-25.5 61.5
t25.5 61t61.5 25z" />
    <glyph glyph-name="AE" unicode="&#xc6;" horiz-adv-x="865" 
d="M818 682v-44h-321v-272h314v-44h-314v-278h330v-44h-383v322h-200l-200 -322h-58l426 682h406zM442 645l-169 -279h171v279h-2z" />
    <glyph glyph-name="Ccedilla" unicode="&#xc7;" horiz-adv-x="677" 
d="M654 110v-55q-120 -64 -242 -64q-16 0 -23 2l-8 -28q62 -10 62 -63q0 -39 -31 -59q-26 -18 -67 -18q-22 0 -44 5l5 32q19 -2 33 -2q65 0 65 39q0 38 -62 39l17 57q-136 17 -223 112.5t-87 232.5q0 149 104 250t254 101q116 0 240 -57v-58q-125 66 -243 66
q-130 0 -214 -86t-84 -216q0 -133 85.5 -216.5t219.5 -83.5q110 0 243 70z" />
    <glyph glyph-name="Egrave" unicode="&#xc8;" 
d="M452 682v-44h-319v-273h311v-44h-311v-277h327v-44h-380v682h372zM269 727l-166 140h72z" />
    <glyph glyph-name="Eacute" unicode="&#xc9;" 
d="M452 682v-44h-319v-273h311v-44h-311v-277h327v-44h-380v682h372zM270 728l94 140h72z" />
    <glyph glyph-name="Ecircumflex" unicode="&#xca;" 
d="M452 682v-44h-319v-273h311v-44h-311v-277h327v-44h-380v682h372zM277 856l115 -148h-34l-89 98l-90 -98h-34l117 148h15z" />
    <glyph glyph-name="Edieresis" unicode="&#xcb;" 
d="M452 682v-44h-319v-273h311v-44h-311v-277h327v-44h-380v682h372zM334 854q18 0 31 -13t13 -31t-13 -31t-31 -13t-31 13t-13 31t13 31t31 13zM157 854q18 0 31 -13t13 -31t-13 -31t-31 -13t-31 13t-13 31t13 31t31 13z" />
    <glyph glyph-name="Igrave" unicode="&#xcc;" horiz-adv-x="208" 
d="M131 682v-682h-53v682h53zM105 728l-166 140h72z" />
    <glyph glyph-name="Iacute" unicode="&#xcd;" horiz-adv-x="208" 
d="M131 682v-682h-53v682h53zM105 728l94 140h72z" />
    <glyph glyph-name="Icircumflex" unicode="&#xce;" horiz-adv-x="208" 
d="M131 682v-682h-53v682h53zM136 894l106 -164h-38l-99 109l-100 -109h-38l108 164h61z" />
    <glyph glyph-name="Idieresis" unicode="&#xcf;" horiz-adv-x="208" 
d="M131 682v-682h-53v682h53zM193 854q18 0 31 -13t13 -31t-13 -31t-31 -13t-31 13t-13 31t13 31t31 13zM16 854q18 0 31 -13t13 -31t-13 -31t-31 -13t-31 13t-13 31t13 31t31 13z" />
    <glyph glyph-name="Eth" unicode="&#xd0;" horiz-adv-x="740" 
d="M79 682h239q198 0 295 -114q77 -90 77 -227q0 -138 -80 -230q-97 -111 -283 -111h-248v320h-102v44h102v318zM132 638v-274h221v-44h-221v-276h192q134 0 221.5 81.5t87.5 215.5q0 135 -88 216t-224 81h-189z" />
    <glyph glyph-name="Ntilde" unicode="&#xd1;" horiz-adv-x="771" 
d="M693 682v-682h-44l-518 596v-596h-53v682h45l517 -596v596h53zM254 766v0h-32q0 41 21 68t61 27q30 0 88 -24.5t82 -24.5q38 0 45 49h30q3 -39 -20 -67.5t-62 -28.5q-28 0 -86.5 24.5t-84.5 24.5q-36 0 -42 -48z" />
    <glyph glyph-name="Ograve" unicode="&#xd2;" horiz-adv-x="823" 
d="M773 341q0 -151 -105 -250.5t-257 -99.5q-151 0 -255.5 99.5t-104.5 250.5t104.5 250.5t255.5 99.5q152 0 257 -99.5t105 -250.5zM716 341q0 129 -87 215t-216 86t-217 -86t-88 -215t88 -215t217 -86t216 86t87 215zM412 729l-166 140h72z" />
    <glyph glyph-name="Oacute" unicode="&#xd3;" horiz-adv-x="823" 
d="M773 341q0 -151 -105 -250.5t-257 -99.5q-151 0 -255.5 99.5t-104.5 250.5t104.5 250.5t255.5 99.5q152 0 257 -99.5t105 -250.5zM716 341q0 129 -87 215t-216 86t-217 -86t-88 -215t88 -215t217 -86t216 86t87 215zM411 728l94 140h72z" />
    <glyph glyph-name="Ocircumflex" unicode="&#xd4;" horiz-adv-x="823" 
d="M773 341q0 -151 -105 -250.5t-257 -99.5q-151 0 -255.5 99.5t-104.5 250.5t104.5 250.5t255.5 99.5q152 0 257 -99.5t105 -250.5zM716 341q0 129 -87 215t-216 86t-217 -86t-88 -215t88 -215t217 -86t216 86t87 215zM419 855l115 -148h-34l-89 98l-90 -98h-34l117 148h15
z" />
    <glyph glyph-name="Otilde" unicode="&#xd5;" horiz-adv-x="823" 
d="M773 341q0 -151 -105 -250.5t-257 -99.5q-151 0 -255.5 99.5t-104.5 250.5t104.5 250.5t255.5 99.5q152 0 257 -99.5t105 -250.5zM716 341q0 129 -87 215t-216 86t-217 -86t-88 -215t88 -215t217 -86t216 86t87 215zM299 729l-28 -5q0 34 18.5 57t51.5 23q24 0 74 -20.5
t71 -20.5q32 0 38 41l25 5q3 -32 -17 -56.5t-52 -24.5q-23 0 -74.5 21t-71.5 21q-30 0 -35 -41z" />
    <glyph glyph-name="Odieresis" unicode="&#xd6;" horiz-adv-x="823" 
d="M773 341q0 -150 -105.5 -250t-256.5 -100q-150 0 -255 100t-105 250t105 250t255 100q151 0 256.5 -100t105.5 -250zM716 341q0 128 -87.5 214.5t-215.5 86.5t-216.5 -86.5t-88.5 -214.5t88.5 -214.5t216.5 -86.5t215.5 86.5t87.5 214.5zM500 854q18 0 31 -13t13 -31
t-13 -31t-31 -13t-31 13t-13 31t13 31t31 13zM323 854q18 0 31 -13t13 -31t-13 -31t-31 -13t-31 13t-13 31t13 31t31 13z" />
    <glyph glyph-name="multiply" unicode="&#xd7;" horiz-adv-x="660" 
d="M129 521l32 32l169 -169l169 169l32 -32l-169 -169l169 -169l-32 -32l-169 169l-169 -169l-32 32l169 169z" />
    <glyph glyph-name="Oslash" unicode="&#xd8;" horiz-adv-x="823" 
d="M195 129l406 450q-76 63 -188 63q-128 0 -216.5 -86.5t-88.5 -214.5q0 -125 87 -212zM195 59l-63 -70l-38 29l64 71q-107 105 -107 252q0 150 105 250t255 100q125 0 225 -74l63 70l37 -25l-67 -74q104 -101 104 -247q0 -150 -105.5 -250t-256.5 -100q-115 0 -216 68z
M635 549l-405 -451q79 -58 183 -58q128 0 215.5 86.5t87.5 214.5q0 114 -81 208z" />
    <glyph glyph-name="Ugrave" unicode="&#xd9;" horiz-adv-x="698" 
d="M582 682h53v-372q0 -141 -71 -227q-77 -92 -215 -92q-134 0 -211 88q-74 83 -74 219v384h53v-382q0 -114 58 -184q62 -76 174 -76q114 0 176 78q57 72 57 189v375zM350 688l-166 140h72z" />
    <glyph glyph-name="Uacute" unicode="&#xda;" horiz-adv-x="698" 
d="M582 682h53v-372q0 -141 -71 -227q-77 -92 -215 -92q-134 0 -211 88q-74 83 -74 219v384h53v-382q0 -114 58 -184q62 -76 174 -76q114 0 176 78q57 72 57 189v375zM349 686l94 140h72z" />
    <glyph glyph-name="Ucircumflex" unicode="&#xdb;" horiz-adv-x="698" 
d="M582 682h53v-372q0 -141 -72 -227q-77 -92 -214 -92q-133 0 -211 88q-74 84 -74 219v384h53v-382q0 -114 58 -184q63 -76 174 -76q113 0 176 78q57 72 57 189v375zM381 894l106 -164h-38l-99 109l-100 -109h-38l108 164h61z" />
    <glyph glyph-name="Udieresis" unicode="&#xdc;" horiz-adv-x="698" 
d="M582 682h53v-372q0 -141 -72 -227q-77 -92 -214 -92q-133 0 -211 88q-74 84 -74 219v384h53v-382q0 -114 58 -184q63 -76 174 -76q113 0 176 78q57 72 57 189v375zM438 854q18 0 31 -13t13 -31t-13 -31t-31 -13t-31 13t-13 31t13 31t31 13zM261 854q18 0 31 -13t13 -31
t-13 -31t-31 -13t-31 13t-13 31t13 31t31 13z" />
    <glyph glyph-name="Yacute" unicode="&#xdd;" horiz-adv-x="583" 
d="M583 682l-265 -316v-366h-53v366l-265 316h64l228 -270l227 270h64zM291 688l94 140h72z" />
    <glyph glyph-name="Thorn" unicode="&#xde;" horiz-adv-x="510" 
d="M78 682h53v-159h135q98 0 156 -40q67 -47 67 -140q0 -94 -69 -142q-60 -41 -159 -41h-130v-160h-53v682zM131 479v-275h127q174 0 174 138q0 70 -51 106q-44 31 -117 31h-133z" />
    <glyph glyph-name="germandbls" unicode="&#xdf;" horiz-adv-x="500" 
d="M62 0v487q0 93 46.5 148.5t138.5 55.5q76 0 129 -45t53 -120q0 -47 -23 -87q-25 -44 -67 -60q120 -47 120 -181q0 -86 -46 -144q-50 -63 -133 -63q-29 0 -62 9v50q34 -12 60 -12q64 0 99 49q31 44 31 110q0 68 -34 111t-101 48v45q50 -4 79 36q26 35 26 86q0 60 -35.5 94
t-95.5 34q-137 0 -137 -173v-478h-48z" />
    <glyph glyph-name="agrave" unicode="&#xe0;" horiz-adv-x="427" 
d="M421 78v-40l-8 -6q-55 -41 -83 -41q-19 0 -26 20q-4 8 -6 36q-72 -56 -141 -56q-50 0 -85.5 32.5t-35.5 81.5q0 88 93 130q64 29 169 34v57q0 92 -100 92q-61 0 -137 -57v49q78 48 145 48q61 0 98 -27q42 -31 42 -90v-280q0 -23 11 -23q13 0 64 40zM298 89v140
q-76 3 -136 -23q-78 -34 -78 -101q0 -34 28 -55q25 -19 61 -19q60 0 125 58zM205 508l-166 140h72z" />
    <glyph glyph-name="aacute" unicode="&#xe1;" horiz-adv-x="427" 
d="M421 78v-40l-8 -6q-55 -41 -83 -41q-19 0 -26 20q-4 8 -6 36q-72 -56 -141 -56q-50 0 -85.5 32.5t-35.5 81.5q0 88 93 130q64 29 169 34v57q0 92 -100 92q-61 0 -137 -57v49q78 48 145 48q61 0 98 -27q42 -31 42 -90v-280q0 -23 11 -23q13 0 64 40zM298 89v140
q-76 3 -136 -23q-78 -34 -78 -101q0 -34 28 -55q25 -19 61 -19q60 0 125 58zM206 508l94 140h72z" />
    <glyph glyph-name="acircumflex" unicode="&#xe2;" horiz-adv-x="427" 
d="M421 78v-40l-8 -6q-55 -41 -83 -41q-19 0 -26 20q-4 8 -6 36q-72 -56 -141 -56q-50 0 -85.5 32.5t-35.5 81.5q0 88 93 130q64 29 169 34v57q0 92 -100 92q-61 0 -137 -57v49q78 48 145 48q61 0 98 -27q42 -31 42 -90v-280q0 -23 11 -23q13 0 64 40zM298 89v140
q-76 3 -136 -23q-78 -34 -78 -101q0 -34 28 -55q25 -19 61 -19q60 0 125 58zM214 616l115 -148h-34l-89 98l-90 -98h-34l117 148h15z" />
    <glyph glyph-name="atilde" unicode="&#xe3;" horiz-adv-x="427" 
d="M421 78v-40l-8 -6q-55 -41 -83 -41q-19 0 -26 20q-4 8 -6 36q-72 -56 -141 -56q-50 0 -85.5 32.5t-35.5 81.5q0 88 93 130q64 29 169 34v57q0 92 -100 92q-61 0 -137 -57v49q78 48 145 48q61 0 98 -27q42 -31 42 -90v-280q0 -23 11 -23q13 0 64 40zM298 89v140
q-76 3 -136 -23q-78 -34 -78 -101q0 -34 28 -55q25 -19 61 -19q60 0 125 58zM93 508l-28 -5q0 34 18.5 57t51.5 23q24 0 74 -20.5t71 -20.5q32 0 38 41l25 5q3 -32 -17 -56.5t-52 -24.5q-23 0 -74.5 21t-71.5 21q-30 0 -35 -41z" />
    <glyph glyph-name="adieresis" unicode="&#xe4;" horiz-adv-x="427" 
d="M421 78v-40l-8 -6q-55 -41 -83 -41q-19 0 -26 20q-4 8 -6 36q-72 -56 -141 -56q-49 0 -85 32.5t-36 81.5q0 87 93 130q66 29 169 34v57q0 92 -100 92q-61 0 -137 -57v49q78 48 145 48q60 0 98 -27q42 -31 42 -90v-280q0 -23 11 -23q13 0 64 40zM298 89v140
q-75 3 -136 -23q-78 -34 -78 -101q0 -34 28 -55q25 -19 61 -19q60 0 125 58zM302 636q18 0 31 -13t13 -31t-13 -31t-31 -13t-31 13t-13 31t13 31t31 13zM125 636q18 0 31 -13t13 -31t-13 -31t-31 -13t-31 13t-13 31t13 31t31 13z" />
    <glyph glyph-name="aring" unicode="&#xe5;" horiz-adv-x="427" 
d="M421 78v-40l-8 -6q-55 -41 -83 -41q-19 0 -26 20q-4 8 -6 36q-72 -56 -141 -56q-49 0 -85 32.5t-36 81.5q0 87 93 130q66 29 169 34v57q0 92 -100 92q-61 0 -137 -57v49q78 48 145 48q60 0 98 -27q42 -31 42 -90v-280q0 -23 11 -23q13 0 64 40zM298 89v140
q-75 3 -136 -23q-78 -34 -78 -101q0 -34 28 -55q25 -19 61 -19q60 0 125 58zM214 652q-25 0 -42.5 -17t-17.5 -42t17.5 -42.5t42.5 -17.5t42 17.5t17 42.5t-17 42t-42 17zM214 679q36 0 61 -25t25 -61t-25 -61.5t-61 -25.5t-61.5 25.5t-25.5 61.5t25.5 61t61.5 25z" />
    <glyph glyph-name="ae" unicode="&#xe6;" horiz-adv-x="667" 
d="M630 243h-289v-59q0 -64 33.5 -105t95.5 -41q79 0 160 59v-55q-82 -51 -165 -51t-143 70q-97 -70 -169 -70q-51 0 -85.5 32.5t-34.5 83.5q0 69 69 109q53 31 191 66v33q0 99 -90 99q-70 0 -149 -56v50q73 50 156 50q81 0 122 -69q54 69 125 69q84 0 132 -68
q41 -59 41 -147zM341 282h236q-2 55 -35 92t-86 37q-52 0 -83 -37.5t-32 -91.5zM293 89v154q-214 -52 -214 -138q0 -34 25 -54t59 -20q53 0 130 58z" />
    <glyph glyph-name="ccedilla" unicode="&#xe7;" horiz-adv-x="417" 
d="M387 64v-50q-69 -23 -125 -23q-12 0 -18 2l-8 -28q62 -10 62 -63q0 -39 -31 -59q-26 -18 -67 -18q-22 0 -44 5l5 32q19 -2 33 -2q65 0 65 39q0 38 -62 39l17 57q-82 15 -128 78q-44 59 -44 145q0 102 57 169q61 71 161 71q50 0 119 -22v-53q-66 28 -117 28
q-79 0 -125 -56q-44 -52 -44 -132q0 -83 45.5 -134t127.5 -51q56 0 121 26z" />
    <glyph glyph-name="egrave" unicode="&#xe8;" horiz-adv-x="479" 
d="M445 241h-354q-1 -12 -1 -23q0 -75 52.5 -127.5t127.5 -52.5q84 0 167 67v-54q-78 -60 -173 -60q-102 0 -163 68t-61 171q0 95 56 161.5t150 66.5q93 0 146 -61.5t53 -155.5zM97 280h291q-25 131 -142 131q-120 0 -149 -131zM245 508l-166 140h72z" />
    <glyph glyph-name="eacute" unicode="&#xe9;" horiz-adv-x="479" 
d="M445 241h-354q-1 -12 -1 -23q0 -75 52.5 -127.5t127.5 -52.5q84 0 167 67v-54q-78 -60 -173 -60q-102 0 -163 68t-61 171q0 95 56 161.5t150 66.5q93 0 146 -61.5t53 -155.5zM97 280h291q-25 131 -142 131q-120 0 -149 -131zM246 508l94 140h72z" />
    <glyph glyph-name="ecircumflex" unicode="&#xea;" horiz-adv-x="479" 
d="M445 241h-354q-1 -12 -1 -23q0 -75 52.5 -127.5t127.5 -52.5q84 0 167 67v-54q-78 -60 -173 -60q-102 0 -163 68t-61 171q0 95 56 161.5t150 66.5q93 0 146 -61.5t53 -155.5zM97 280h291q-25 131 -142 131q-120 0 -149 -131zM254 616l115 -148h-34l-89 98l-90 -98h-34
l117 148h15z" />
    <glyph glyph-name="edieresis" unicode="&#xeb;" horiz-adv-x="479" 
d="M445 241h-354q-1 -12 -1 -23q0 -75 52.5 -127.5t127.5 -52.5q84 0 167 67v-54q-78 -60 -173 -60q-101 0 -164 70q-60 67 -60 169q0 95 56.5 161.5t149.5 66.5q92 0 147 -63q52 -60 52 -154zM97 280h291q-25 131 -142 131q-58 0 -99 -37q-37 -35 -50 -94zM328 636
q18 0 31 -13t13 -31t-13 -31t-31 -13t-31 13t-13 31t13 31t31 13zM151 636q18 0 31 -13t13 -31t-13 -31t-31 -13t-31 13t-13 31t13 31t31 13z" />
    <glyph glyph-name="igrave" unicode="&#xec;" horiz-adv-x="188" 
d="M118 449v-449h-48v449h48zM94 498l-166 140h72z" />
    <glyph glyph-name="iacute" unicode="&#xed;" horiz-adv-x="188" 
d="M118 449v-449h-48v449h48zM94 498l94 140h72z" />
    <glyph glyph-name="icircumflex" unicode="&#xee;" horiz-adv-x="188" 
d="M118 449v-449h-48v449h48zM126 676l106 -164h-38l-99 109l-100 -109h-38l108 164h61z" />
    <glyph glyph-name="idieresis" unicode="&#xef;" horiz-adv-x="188" 
d="M118 449v-449h-48v449h48zM183 636q18 0 31 -13t13 -31t-13 -31t-31 -13t-31 13t-13 31t13 31t31 13zM6 636q18 0 31 -13t13 -31t-13 -31t-31 -13t-31 13t-13 31t13 31t31 13z" />
    <glyph glyph-name="eth" unicode="&#xf0;" horiz-adv-x="559" 
d="M473 227q0 86 -53.5 138.5t-139.5 52.5q-83 0 -139.5 -56.5t-56.5 -140.5t56.5 -137t141.5 -53q88 0 139.5 54t51.5 142zM483 649l-116 -53q157 -132 157 -346q0 -116 -65 -187q-68 -72 -183 -72q-100 0 -169 65t-69 165q0 103 70 170t173 67q109 0 179 -82l2 2
q-36 115 -141 197l-143 -67l-15 33l125 58q-37 26 -90 47l19 36q65 -24 118 -61l133 61z" />
    <glyph glyph-name="ntilde" unicode="&#xf1;" 
d="M110 449v-78h2q58 87 148 87q81 0 125 -53q42 -49 42 -131v-274h-48v256q0 155 -122 155q-88 0 -147 -96v-315h-48v449h48zM114 548v0h-32q0 41 21 68t61 27q30 0 88 -24.5t82 -24.5q38 0 45 49h30q3 -39 -20 -67.5t-62 -28.5q-28 0 -86.5 24.5t-84.5 24.5q-36 0 -42 -48
z" />
    <glyph glyph-name="ograve" unicode="&#xf2;" horiz-adv-x="542" 
d="M499 224q0 -100 -64 -166.5t-164 -66.5t-164.5 66.5t-64.5 166.5t64.5 167t164.5 67t164 -66.5t64 -167.5zM448 224q0 79 -49 133t-128 54q-80 0 -129 -53.5t-49 -133.5t49.5 -133t128.5 -53t128 53.5t49 132.5zM271 508l-166 140h72z" />
    <glyph glyph-name="oacute" unicode="&#xf3;" horiz-adv-x="542" 
d="M499 224q0 -100 -64 -166.5t-164 -66.5t-164.5 66.5t-64.5 166.5t64.5 167t164.5 67t164 -66.5t64 -167.5zM448 224q0 79 -49 133t-128 54q-80 0 -129 -53.5t-49 -133.5t49.5 -133t128.5 -53t128 53.5t49 132.5zM271 508l94 140h72z" />
    <glyph glyph-name="ocircumflex" unicode="&#xf4;" horiz-adv-x="542" 
d="M499 224q0 -100 -64 -166.5t-164 -66.5t-164.5 66.5t-64.5 166.5t64.5 167t164.5 67t164 -66.5t64 -167.5zM448 224q0 79 -49 133t-128 54q-80 0 -129 -53.5t-49 -133.5t49.5 -133t128.5 -53t128 53.5t49 132.5zM280 616l115 -148h-34l-89 98l-90 -98h-34l117 148h15z
" />
    <glyph glyph-name="otilde" unicode="&#xf5;" horiz-adv-x="542" 
d="M499 224q0 -100 -64 -166.5t-164 -66.5t-164.5 66.5t-64.5 166.5t64.5 167t164.5 67t164 -66.5t64 -167.5zM448 224q0 79 -49 133t-128 54q-80 0 -129 -53.5t-49 -133.5t49.5 -133t128.5 -53t128 53.5t49 132.5zM160 509l-28 -5q0 34 18.5 57t51.5 23q24 0 74 -20.5
t71 -20.5q32 0 38 41l25 5q3 -32 -17 -56.5t-52 -24.5q-23 0 -74.5 21t-71.5 21q-30 0 -35 -41z" />
    <glyph glyph-name="odieresis" unicode="&#xf6;" horiz-adv-x="542" 
d="M499 224q0 -100 -64.5 -166.5t-163.5 -66.5t-164 66.5t-65 166.5t65 167t164 67q100 0 164 -67t64 -167zM448 224q0 79 -49.5 133t-127.5 54q-79 0 -128.5 -53.5t-49.5 -133.5q0 -79 49.5 -132.5t128.5 -53.5q78 0 127.5 53.5t49.5 132.5zM360 636q18 0 31 -13t13 -31
t-13 -31t-31 -13t-31 13t-13 31t13 31t31 13zM183 636q18 0 31 -13t13 -31t-13 -31t-31 -13t-31 13t-13 31t13 31t31 13z" />
    <glyph glyph-name="divide" unicode="&#xf7;" horiz-adv-x="660" 
d="M68 373h524v-44h-524v44zM330 478q-16 0 -27.5 11.5t-11.5 27.5q0 17 11 28t28 11q39 0 39 -39q0 -17 -11 -28t-28 -11zM330 146q-16 0 -27.5 11.5t-11.5 27.5q0 17 11 28t28 11q39 0 39 -39q0 -17 -11 -28t-28 -11z" />
    <glyph glyph-name="oslash" unicode="&#xf8;" horiz-adv-x="542" 
d="M133 103l242 274q-44 34 -104 34q-79 0 -128.5 -53.5t-49.5 -133.5q0 -68 40 -121zM132 36l-57 -66l-33 30l58 66q-58 63 -58 158q0 100 65 167t164 67q79 0 137 -44l53 60l31 -25l-54 -62q61 -69 61 -163q0 -100 -64.5 -166.5t-163.5 -66.5q-78 0 -139 45zM404 348
l-239 -275q53 -35 106 -35q78 0 127.5 53.5t49.5 132.5q0 78 -44 124z" />
    <glyph glyph-name="ugrave" unicode="&#xf9;" 
d="M379 0v74h-2q-32 -45 -62 -63q-34 -20 -86 -20q-79 0 -123 50t-44 130v278h48v-277q0 -59 32.5 -96.5t90.5 -37.5q51 0 87 26q28 21 59 70v315h48v-449h-48zM244 458l-166 140h72z" />
    <glyph glyph-name="uacute" unicode="&#xfa;" 
d="M379 0v74h-2q-32 -45 -62 -63q-34 -20 -86 -20q-79 0 -123 50t-44 130v278h48v-277q0 -59 32.5 -96.5t90.5 -37.5q51 0 87 26q28 21 59 70v315h48v-449h-48zM244 458l94 140h72z" />
    <glyph glyph-name="ucircumflex" unicode="&#xfb;" 
d="M379 0v74h-2q-31 -44 -62 -63q-35 -20 -86 -20q-78 0 -122.5 50t-44.5 130v278h48v-277q0 -59 32.5 -96.5t90.5 -37.5q51 0 87 26q28 21 59 70v315h48v-449h-48zM277 676l106 -164h-38l-99 109l-100 -109h-38l108 164h61z" />
    <glyph glyph-name="udieresis" unicode="&#xfc;" 
d="M379 0v74h-2q-31 -44 -62 -63q-35 -20 -86 -20q-78 0 -122.5 50t-44.5 130v278h48v-277q0 -59 32.5 -96.5t90.5 -37.5q51 0 87 26q28 21 59 70v315h48v-449h-48zM334 636q18 0 31 -13t13 -31t-13 -31t-31 -13t-31 13t-13 31t13 31t31 13zM157 636q18 0 31 -13t13 -31
t-13 -31t-31 -13t-31 13t-13 31t13 31t31 13z" />
    <glyph glyph-name="yacute" unicode="&#xfd;" horiz-adv-x="417" 
d="M423 449l-336 -679h-49l157 317l-189 362h50l163 -314l155 314h49zM219 458l94 140h72z" />
    <glyph glyph-name="thorn" unicode="&#xfe;" horiz-adv-x="510" 
d="M111 682v-258q69 34 135 34q98 0 160 -66.5t62 -165.5q0 -97 -63.5 -166t-160.5 -69q-64 0 -133 34v-255h-48v912h48zM111 378v-306q63 -34 124 -34q82 0 131 51t49 133t-52 135.5t-134 53.5q-56 0 -118 -33z" />
    <glyph glyph-name="ydieresis" unicode="&#xff;" horiz-adv-x="417" 
d="M423 449l-336 -679h-49l157 317l-189 362h50l163 -314l155 314h49zM297 636q18 0 31 -13t13 -31t-13 -31t-31 -13t-31 13t-13 31t13 31t31 13zM120 636q18 0 31 -13t13 -31t-13 -31t-31 -13t-31 13t-13 31t13 31t31 13z" />
    <glyph glyph-name="glyph271" unicode="&#x102;" horiz-adv-x="667" 
d="M348 687l315 -687h-55l-108 236h-333l-108 -236h-55l315 687h29zM480 280l-147 321l-146 -321h293zM421 809h35q-38 -102 -121 -102q-77 0 -124 102h36q29 -60 87 -60q56 0 87 60z" />
    <glyph glyph-name="glyph272" unicode="&#x103;" horiz-adv-x="427" 
d="M421 78v-40l-8 -6q-55 -41 -83 -41q-19 0 -26 20q-4 8 -6 36q-72 -56 -141 -56q-50 0 -85.5 32.5t-35.5 81.5q0 88 93 130q64 29 169 34v57q0 92 -100 92q-61 0 -137 -57v49q78 48 145 48q61 0 98 -27q42 -31 42 -90v-280q0 -23 11 -23q13 0 64 40zM298 89v140
q-76 3 -136 -23q-78 -34 -78 -101q0 -34 28 -55q25 -19 61 -19q60 0 125 58zM291 590h35q-38 -102 -121 -102q-77 0 -124 102h36q29 -60 87 -60q56 0 87 60z" />
    <glyph glyph-name="Cacute" unicode="&#x106;" horiz-adv-x="711" 
d="M647 634v-58q-125 66 -243 66q-130 0 -214 -86t-84 -216q0 -133 85.5 -216.5t219.5 -83.5q110 0 243 70v-55q-120 -64 -242 -64q-154 0 -258.5 98t-104.5 251q0 149 104 250t254 101q116 0 240 -57zM515 932l-152 -156h-33l104 156h81z" />
    <glyph glyph-name="cacute" unicode="&#x107;" horiz-adv-x="441" 
d="M379 436v-53q-66 28 -117 28q-79 0 -125 -56q-44 -52 -44 -132q0 -83 45.5 -134t127.5 -51q56 0 121 26v-50q-69 -23 -125 -23q-101 0 -160.5 63t-59.5 164q0 102 57 169q61 71 161 71q50 0 119 -22zM316 677l-152 -156h-33l104 156h81z" />
    <glyph glyph-name="Ccaron" unicode="&#x10c;" horiz-adv-x="711" 
d="M647 634v-58q-125 66 -243 66q-130 0 -214 -86t-84 -216q0 -133 85.5 -216.5t219.5 -83.5q110 0 243 70v-55q-120 -64 -242 -64q-154 0 -258.5 98t-104.5 251q0 149 104 250t254 101q116 0 240 -57zM375 767h-61l-108 164h38l100 -109l99 109h38z" />
    <glyph glyph-name="ccaron" unicode="&#x10d;" horiz-adv-x="441" 
d="M379 436v-53q-66 28 -117 28q-79 0 -125 -56q-44 -52 -44 -132q0 -83 45.5 -134t127.5 -51q56 0 121 26v-50q-69 -23 -125 -23q-101 0 -160.5 63t-59.5 164q0 102 57 169q61 71 161 71q50 0 119 -22zM176 512h-61l-108 164h38l100 -109l99 109h38z" />
    <glyph glyph-name="Dslash" unicode="&#x110;" horiz-adv-x="740" 
d="M79 682h239q168 0 268 -86q104 -91 104 -255q0 -138 -80 -230q-97 -111 -283 -111h-248v320h-102v44h102v318zM132 638v-274h221v-44h-221v-276h192q135 0 222 81.5t87 215.5q0 136 -87.5 216.5t-224.5 80.5h-189z" />
    <glyph glyph-name="dcroat" unicode="&#x111;" horiz-adv-x="510" 
d="M401 79v290q-66 42 -131 42q-80 0 -129 -51.5t-49 -131.5q0 -82 53 -136t135 -54q60 0 121 41zM449 552h41v-44h-41v-508h-48v35q-64 -44 -133 -44q-98 0 -162.5 67.5t-64.5 166.5q0 101 63.5 167t163.5 66q60 0 133 -36v86h-133v44h133v130h48v-130z" />
    <glyph glyph-name="Gbreve" unicode="&#x11e;" horiz-adv-x="767" 
d="M650 633v-60q-122 69 -242 69q-131 0 -216 -85t-85 -216q0 -138 88 -219.5t228 -81.5q103 0 187 42v184h-144v44h197v-261q-120 -58 -242 -58q-156 0 -262 97q-109 100 -109 255q0 154 107 252q104 96 259 96q105 0 234 -58zM460 902h39q-43 -114 -135 -114
q-87 0 -138 114h41q32 -67 96 -67q61 0 97 67z" />
    <glyph glyph-name="gbreve" unicode="&#x11f;" horiz-adv-x="492" 
d="M417 449v-39h-102q62 -58 62 -119q0 -88 -66 -128q-22 -14 -123 -42q-66 -19 -66 -52q0 -38 76 -45q122 -10 142 -17q76 -25 76 -106q0 -71 -69 -105q-52 -26 -132 -26q-75 0 -127 23q-70 31 -70 97q0 89 131 109v2q-73 17 -73 64q0 46 90 73v2q-54 16 -87 55t-33 94
q0 79 57 122q52 38 134 38h180zM331 290q0 50 -35.5 84.5t-85.5 34.5t-84 -33.5t-34 -83.5q0 -51 34 -86.5t85 -35.5q50 0 85 35t35 85zM370 -103q0 79 -143 79q-163 0 -163 -83t154 -83q56 0 96 17q56 22 56 70zM260 647h39q-43 -114 -135 -114q-87 0 -138 114h41
q32 -67 96 -67q61 0 97 67z" />
    <glyph glyph-name="glyph273" unicode="&#x128;" horiz-adv-x="208" 
d="M131 682v-682h-53v682h53zM-6 729l-28 -5q0 34 18.5 57t51.5 23q24 0 74 -20.5t71 -20.5q32 0 38 41l25 5q3 -32 -17 -56.5t-52 -24.5q-23 0 -74.5 21t-71.5 21q-30 0 -35 -41z" />
    <glyph glyph-name="glyph274" unicode="&#x129;" horiz-adv-x="188" 
d="M118 449v-449h-48v449h48zM-19 499l-28 -5q0 34 18.5 57t51.5 23q24 0 74 -20.5t71 -20.5q32 0 38 41l25 5q3 -32 -17 -56.5t-52 -24.5q-23 0 -74.5 21t-71.5 21q-30 0 -35 -41z" />
    <glyph glyph-name="Idotaccent" unicode="&#x130;" horiz-adv-x="429" 
d="M131 682v-682h-53v682h53zM193 891q18 0 31 -13t13 -31t-13 -31t-31 -13t-31 13t-13 31t13 31t31 13z" />
    <glyph glyph-name="dotlessi" unicode="&#x131;" horiz-adv-x="188" 
d="M118 449v-449h-48v449h48z" />
    <glyph glyph-name="Lslash" unicode="&#x141;" horiz-adv-x="469" 
d="M132 682v-331l167 137v-50l-167 -137v-257h337v-44h-390v262l-121 -100v50l121 100v370h53z" />
    <glyph glyph-name="lslash" unicode="&#x142;" horiz-adv-x="188" 
d="M118 682v-307l100 86v-50l-100 -84v-327h-48v291l-98 -85v50l98 83v343h48z" />
    <glyph glyph-name="OE" unicode="&#x152;" horiz-adv-x="896" 
d="M851 682v-44h-322v-274h315v-44h-315v-276h329v-44h-450q-178 0 -280 112q-87 95 -87 228q0 154 106 250q103 92 259 92h445zM476 638h-59q-158 0 -245 -98q-74 -83 -74 -200q0 -136 94 -218q89 -78 227 -78h57v594z" />
    <glyph glyph-name="oe" unicode="&#x153;" horiz-adv-x="833" 
d="M793 242h-312q-3 -86 26 -139q36 -65 116 -65q84 0 160 67v-55q-74 -59 -166 -59q-115 0 -163 105q-81 -105 -192 -105q-101 0 -162 67q-59 64 -59 166t62 168t164 66q115 0 187 -95q21 43 63.5 69t90.5 26q88 0 140 -65q49 -62 45 -151zM483 280h254q-4 58 -36 93
q-35 38 -92 38q-55 0 -90 -38t-36 -93zM430 233q0 80 -40 128q-43 50 -122 50q-81 0 -128.5 -51.5t-47.5 -133.5q0 -79 46 -132q49 -56 127 -56q80 0 124 59q41 54 41 136z" />
    <glyph glyph-name="Scedilla" unicode="&#x15e;" horiz-adv-x="656" 
d="M400 648v-58q-91 52 -153 52q-59 0 -100 -35q-44 -37 -44 -95q0 -76 84 -114q16 -7 157 -68q84 -51 84 -152q0 -81 -58 -134t-140 -53q-85 0 -175 60v62q101 -73 172 -73q60 0 102 38t42 98q0 83 -84 123q-10 5 -157 68q-84 48 -84 143q0 78 59 131q58 50 137 50t158 -43
zM237 8l-12 -43q62 -10 62 -63q0 -39 -31 -59q-26 -18 -67 -18q-22 0 -44 5l5 32q19 -2 33 -2q65 0 65 39q0 38 -62 39l21 70h30z" />
    <glyph glyph-name="scedilla" unicode="&#x15f;" horiz-adv-x="383" 
d="M309 420v-52q-70 46 -123 46q-37 0 -65 -19q-31 -22 -31 -57q0 -45 60 -71q37 -16 113 -49q60 -37 60 -103q0 -57 -44.5 -90.5t-102.5 -33.5q-68 0 -135 41v47q81 -41 141 -41q38 0 66.5 20.5t28.5 57.5q0 41 -68 77q-52 23 -105 45q-60 36 -60 97q0 56 46 91
q42 32 99 32q54 0 120 -38zM140 8l-12 -43q62 -10 62 -63q0 -39 -31 -59q-26 -18 -67 -18q-22 0 -44 5l5 32q19 -2 33 -2q65 0 65 39q0 38 -62 39l21 70h30z" />
    <glyph glyph-name="Scaron" unicode="&#x160;" horiz-adv-x="469" 
d="M400 648v-58q-91 52 -153 52q-59 0 -100 -35q-44 -37 -44 -95q0 -76 84 -114q16 -7 157 -68q84 -51 84 -152q0 -81 -58 -134t-140 -53q-85 0 -175 60v62q101 -73 172 -73q60 0 102 38t42 98q0 83 -84 123q-10 5 -157 68q-84 48 -84 143q0 78 59 131q58 50 137 50t158 -43
zM266 730h-61l-108 164h38l100 -109l99 109h38z" />
    <glyph glyph-name="scaron" unicode="&#x161;" horiz-adv-x="354" 
d="M309 420v-52q-70 46 -123 46q-37 0 -65 -19q-31 -22 -31 -57q0 -45 60 -71q37 -16 113 -49q60 -37 60 -103q0 -57 -44.5 -90.5t-102.5 -33.5q-68 0 -135 41v47q81 -41 141 -41q38 0 66.5 20.5t28.5 57.5q0 41 -68 77q-52 23 -105 45q-60 36 -60 97q0 56 46 91
q42 32 99 32q54 0 120 -38zM209 512h-61l-108 164h38l100 -109l99 109h38z" />
    <glyph glyph-name="ch903" unicode="&#x168;" horiz-adv-x="698" 
d="M582 682h53v-372q0 -141 -71 -227q-77 -92 -215 -92q-134 0 -211 88q-74 83 -74 219v384h53v-382q0 -114 58 -184q62 -76 174 -76q114 0 176 78q57 72 57 189v375zM238 689l-28 -5q0 34 18.5 57t51.5 23q24 0 74 -20.5t71 -20.5q32 0 38 41l25 5q3 -32 -17 -56.5
t-52 -24.5q-23 0 -74.5 21t-71.5 21q-30 0 -35 -41z" />
    <glyph glyph-name="ch904" unicode="&#x169;" 
d="M379 0v74h-2q-32 -45 -62 -63q-34 -20 -86 -20q-79 0 -123 50t-44 130v278h48v-277q0 -59 32.5 -96.5t90.5 -37.5q51 0 87 26q28 21 59 70v315h48v-449h-48zM131 479l-28 -5q0 34 18.5 57t51.5 23q24 0 74 -20.5t71 -20.5q32 0 38 41l25 5q3 -32 -17 -56.5t-52 -24.5
q-23 0 -74.5 21t-71.5 21q-30 0 -35 -41z" />
    <glyph glyph-name="Ydieresis" unicode="&#x178;" horiz-adv-x="583" 
d="M583 682l-265 -316v-366h-53v366l-265 316h64l228 -270l227 270h64zM380 854q18 0 31 -13t13 -31t-13 -31t-31 -13t-31 13t-13 31t13 31t31 13zM203 854q18 0 31 -13t13 -31t-13 -31t-31 -13t-31 13t-13 31t13 31t31 13z" />
    <glyph glyph-name="Zcaron" unicode="&#x17d;" horiz-adv-x="635" 
d="M602 682l5 -19l-511 -619h515v-44h-597l-5 15l511 623h-488v44h570zM349 730h-61l-108 164h38l100 -109l99 109h38z" />
    <glyph glyph-name="zcaron" unicode="&#x17e;" horiz-adv-x="396" 
d="M381 449l4 -15l-295 -390h295v-44h-370l-5 15l297 390h-278v44h352zM230 512h-61l-108 164h38l100 -109l99 109h38z" />
    <glyph glyph-name="florin" unicode="&#x192;" horiz-adv-x="556" 
d="M359 521h109l-11 -47h-107l-121 -557q-14 -65 -41 -94q-31 -33 -94 -33q-38 0 -87 15l11 49q44 -11 71 -11q63 0 79 73l120 558h-82l9 47h82l24 104q24 105 129 105q30 0 89 -16l-10 -48q-40 10 -75 10q-38 0 -56 -26q-13 -17 -23 -61z" />
    <glyph glyph-name="glyph277" unicode="&#x1a0;" horiz-adv-x="823" 
d="M716 341q0 129 -87 215t-216 86t-217 -86t-88 -215t88 -215t217 -86t216 86t87 215zM554 663l78 19v-1q7 9 7 12q1 5 -7 16l-31 10v21h65q29 0 29 -12q0 -14 -89 -91q79 -48 123 -126t44 -170q0 -151 -105 -250.5t-257 -99.5q-151 0 -255.5 99.5t-104.5 250.5
t104.5 250.5t255.5 99.5q76 0 143 -28z" />
    <glyph glyph-name="glyph278" unicode="&#x1a1;" horiz-adv-x="542" 
d="M448 224q0 79 -49 133t-128 54q-80 0 -129 -53.5t-49 -133.5t49.5 -133t128.5 -53t128 53.5t49 132.5zM365 439h58q30 0 30 22q0 7 -5 14l-31 20l45 12q32 1 32 -14q0 -21 -75 -88q80 -67 80 -181q0 -100 -64 -166.5t-164 -66.5t-164.5 66.5t-64.5 166.5t64.5 167
t164.5 67q50 0 94 -19z" />
    <glyph glyph-name="glyph279" unicode="&#x1af;" horiz-adv-x="698" 
d="M635 637v-327q0 -141 -71 -227q-77 -92 -215 -92q-134 0 -211 88q-74 83 -74 219v384h53v-382q0 -114 58 -184q62 -76 174 -76q114 0 176 78q57 72 57 189v375h53v-1q7 9 7 12q1 5 -7 16l-31 10v21h65q35 0 35 -18q0 -23 -69 -85z" />
    <glyph glyph-name="glyph280" unicode="&#x1b0;" 
d="M470 507q32 1 32 -14q0 -21 -75 -88v-405h-48v74h-2q-32 -45 -62 -63q-34 -20 -86 -20q-79 0 -123 50t-44 130v278h48v-277q0 -59 32.5 -96.5t90.5 -37.5q51 0 87 26q28 21 59 70v315h52q30 0 30 14q0 5 -5 12l-31 20z" />
    <glyph glyph-name="circumflex" unicode="&#x2c6;" horiz-adv-x="333" 
d="M198 676l106 -164h-38l-99 109l-100 -109h-38l108 164h61z" />
    <glyph glyph-name="caron" unicode="&#x2c7;" horiz-adv-x="333" 
d="M198 512h-61l-108 164h38l100 -109l99 109h38z" />
    <glyph glyph-name="breve" unicode="&#x2d8;" horiz-adv-x="333" 
d="M264 647h39q-43 -114 -135 -114q-87 0 -138 114h41q32 -67 96 -67q61 0 97 67z" />
    <glyph glyph-name="dotaccent" unicode="&#x2d9;" horiz-adv-x="333" 
d="M166 636q18 0 31 -13t13 -31t-13 -31t-31 -13t-31 13t-13 31t13 31t31 13z" />
    <glyph glyph-name="ring" unicode="&#x2da;" horiz-adv-x="333" 
d="M167 652q-25 0 -42.5 -17t-17.5 -42t17.5 -42.5t42.5 -17.5t42 17.5t17 42.5t-17 42t-42 17zM167 679q36 0 61 -25t25 -61t-25 -61.5t-61 -25.5t-61.5 25.5t-25.5 61.5t25.5 61t61.5 25z" />
    <glyph glyph-name="ogonek" unicode="&#x2db;" horiz-adv-x="333" 
d="M232 -127v-38q-21 -5 -41 -5q-39 0 -65 21q-29 23 -29 61q0 74 73 98h32q-32 -32 -40 -43q-13 -18 -13 -39q0 -56 64 -56q9 0 19 1z" />
    <glyph glyph-name="tilde" unicode="&#x2dc;" horiz-adv-x="333" 
d="M35 548v0h-32q0 41 21 68t61 27q30 0 88 -24.5t82 -24.5q38 0 45 49h30q3 -39 -20 -67.5t-62 -28.5q-28 0 -86.5 24.5t-84.5 24.5q-36 0 -42 -48z" />
    <glyph glyph-name="hungarumlaut" unicode="&#x2dd;" horiz-adv-x="333" 
d="M385 677l-152 -156h-33l104 156h81zM252 677l-152 -156h-33l104 156h81z" />
    <glyph glyph-name="glyph281" unicode="&#x1ea0;" horiz-adv-x="667" 
d="M348 687l315 -687h-55l-108 236h-333l-108 -236h-55l315 687h29zM480 280l-147 321l-146 -321h293zM366 -3v-97h-65v97h65z" />
    <glyph glyph-name="glyph282" unicode="&#x1ea1;" horiz-adv-x="427" 
d="M421 78v-40l-8 -6q-55 -41 -83 -41q-19 0 -26 20q-4 8 -6 36q-72 -56 -141 -56q-50 0 -85.5 32.5t-35.5 81.5q0 88 93 130q64 29 169 34v57q0 92 -100 92q-61 0 -137 -57v49q78 48 145 48q61 0 98 -27q42 -31 42 -90v-280q0 -23 11 -23q13 0 64 40zM298 89v140
q-76 3 -136 -23q-78 -34 -78 -101q0 -34 28 -55q25 -19 61 -19q60 0 125 58zM206 -51v-97h-65v97l33 2z" />
    <glyph glyph-name="glyph283" unicode="&#x1ea2;" horiz-adv-x="667" 
d="M348 687l315 -687h-55l-108 236h-333l-108 -236h-55l315 687h29zM480 280l-147 321l-146 -321h293zM291 749q0 14 38.5 55.5t38.5 62.5q0 38 -31 38q-23 0 -42 -31l26 41q16 8 27 8q23 0 36.5 -16.5t13.5 -40.5q0 -26 -40.5 -68.5t-40.5 -54.5q0 -5 6 -12l11 -13
q-43 22 -43 31z" />
    <glyph glyph-name="glyph284" unicode="&#x1ea3;" horiz-adv-x="427" 
d="M421 78v-40l-8 -6q-55 -41 -83 -41q-19 0 -26 20q-4 8 -6 36q-72 -56 -141 -56q-50 0 -85.5 32.5t-35.5 81.5q0 88 93 130q64 29 169 34v57q0 92 -100 92q-61 0 -137 -57v49q78 48 145 48q61 0 98 -27q42 -31 42 -90v-280q0 -23 11 -23q13 0 64 40zM298 89v140
q-76 3 -136 -23q-78 -34 -78 -101q0 -34 28 -55q25 -19 61 -19q60 0 125 58zM163 529q0 14 38.5 55.5t38.5 62.5q0 38 -31 38q-23 0 -42 -31l26 41q16 8 27 8q23 0 36.5 -16.5t13.5 -40.5q0 -26 -40.5 -68.5t-40.5 -54.5q0 -5 6 -12l11 -13q-43 22 -43 31z" />
    <glyph glyph-name="glyph285" unicode="&#x1ea4;" horiz-adv-x="667" 
d="M348 687l315 -687h-55l-108 236h-333l-108 -236h-55l315 687h29zM480 280l-147 321l-146 -321h293zM342 835l115 -148h-34l-89 98l-90 -98h-34l117 148h15zM422 785l94 140h72z" />
    <glyph glyph-name="glyph286" unicode="&#x1ea5;" horiz-adv-x="427" 
d="M421 78v-40l-8 -6q-55 -41 -83 -41q-19 0 -26 20q-4 8 -6 36q-72 -56 -141 -56q-50 0 -85.5 32.5t-35.5 81.5q0 88 93 130q64 29 169 34v57q0 92 -100 92q-61 0 -137 -57v49q78 48 145 48q61 0 98 -27q42 -31 42 -90v-280q0 -23 11 -23q13 0 64 40zM298 89v140
q-76 3 -136 -23q-78 -34 -78 -101q0 -34 28 -55q25 -19 61 -19q60 0 125 58zM214 616l115 -148h-34l-89 98l-90 -98h-34l117 148h15zM294 566l94 140h72z" />
    <glyph glyph-name="glyph287" unicode="&#x1ea6;" horiz-adv-x="667" 
d="M348 687l315 -687h-55l-108 236h-333l-108 -236h-55l315 687h29zM480 280l-147 321l-146 -321h293zM342 835l115 -148h-34l-89 98l-90 -98h-34l117 148h15zM246 785l-166 140h72z" />
    <glyph glyph-name="glyph288" unicode="&#x1ea7;" horiz-adv-x="427" 
d="M421 78v-40l-8 -6q-55 -41 -83 -41q-19 0 -26 20q-4 8 -6 36q-72 -56 -141 -56q-50 0 -85.5 32.5t-35.5 81.5q0 88 93 130q64 29 169 34v57q0 92 -100 92q-61 0 -137 -57v49q78 48 145 48q61 0 98 -27q42 -31 42 -90v-280q0 -23 11 -23q13 0 64 40zM298 89v140
q-76 3 -136 -23q-78 -34 -78 -101q0 -34 28 -55q25 -19 61 -19q60 0 125 58zM214 616l115 -148h-34l-89 98l-90 -98h-34l117 148h15zM118 566l-166 140h72z" />
    <glyph glyph-name="glyph289" unicode="&#x1ea8;" horiz-adv-x="667" 
d="M348 687l315 -687h-55l-108 236h-333l-108 -236h-55l315 687h29zM480 280l-147 321l-146 -321h293zM342 835l115 -148h-34l-89 98l-90 -98h-34l117 148h15zM401 816q0 14 38.5 55.5t38.5 62.5q0 38 -31 38q-23 0 -42 -31l26 41q16 8 27 8q23 0 36.5 -16.5t13.5 -40.5
q0 -26 -40.5 -68.5t-40.5 -54.5q0 -5 6 -12l11 -13q-43 22 -43 31z" />
    <glyph glyph-name="glyph290" unicode="&#x1ea9;" horiz-adv-x="427" 
d="M421 78v-40l-8 -6q-55 -41 -83 -41q-19 0 -26 20q-4 8 -6 36q-72 -56 -141 -56q-50 0 -85.5 32.5t-35.5 81.5q0 88 93 130q64 29 169 34v57q0 92 -100 92q-61 0 -137 -57v49q78 48 145 48q61 0 98 -27q42 -31 42 -90v-280q0 -23 11 -23q13 0 64 40zM298 89v140
q-76 3 -136 -23q-78 -34 -78 -101q0 -34 28 -55q25 -19 61 -19q60 0 125 58zM213 616l115 -148h-34l-89 98l-90 -98h-34l117 148h15zM272 597q0 14 38.5 55.5t38.5 62.5q0 38 -31 38q-23 0 -42 -31l26 41q16 8 27 8q23 0 36.5 -16.5t13.5 -40.5q0 -26 -40.5 -68.5
t-40.5 -54.5q0 -5 6 -12l11 -13q-43 22 -43 31z" />
    <glyph glyph-name="glyph291" unicode="&#x1eaa;" horiz-adv-x="667" 
d="M348 687l315 -687h-55l-108 236h-333l-108 -236h-55l315 687h29zM480 280l-147 321l-146 -321h293zM342 835l115 -148h-34l-89 98l-90 -98h-34l117 148h15zM222 850l-28 -5q0 34 18.5 57t51.5 23q24 0 74 -20.5t71 -20.5q32 0 38 41l25 5q3 -32 -17 -56.5t-52 -24.5
q-23 0 -74.5 21t-71.5 21q-30 0 -35 -41z" />
    <glyph glyph-name="glyph292" unicode="&#x1eab;" horiz-adv-x="427" 
d="M421 78v-40l-8 -6q-55 -41 -83 -41q-19 0 -26 20q-4 8 -6 36q-72 -56 -141 -56q-50 0 -85.5 32.5t-35.5 81.5q0 88 93 130q64 29 169 34v57q0 92 -100 92q-61 0 -137 -57v49q78 48 145 48q61 0 98 -27q42 -31 42 -90v-280q0 -23 11 -23q13 0 64 40zM298 89v140
q-76 3 -136 -23q-78 -34 -78 -101q0 -34 28 -55q25 -19 61 -19q60 0 125 58zM213 616l115 -148h-34l-89 98l-90 -98h-34l117 148h15zM93 631l-28 -5q0 34 18.5 57t51.5 23q24 0 74 -20.5t71 -20.5q32 0 38 41l25 5q3 -32 -17 -56.5t-52 -24.5q-23 0 -74.5 21t-71.5 21
q-30 0 -35 -41z" />
    <glyph glyph-name="glyph293" unicode="&#x1eac;" horiz-adv-x="667" 
d="M348 687l315 -687h-55l-108 236h-333l-108 -236h-55l315 687h29zM480 280l-147 321l-146 -321h293zM342 835l115 -148h-34l-89 98l-90 -98h-34l117 148h15zM366 -3v-97h-65v97h65z" />
    <glyph glyph-name="glyph294" unicode="&#x1ead;" horiz-adv-x="427" 
d="M421 78v-40l-8 -6q-55 -41 -83 -41q-19 0 -26 20q-4 8 -6 36q-72 -56 -141 -56q-50 0 -85.5 32.5t-35.5 81.5q0 88 93 130q64 29 169 34v57q0 92 -100 92q-61 0 -137 -57v49q78 48 145 48q61 0 98 -27q42 -31 42 -90v-280q0 -23 11 -23q13 0 64 40zM298 89v140
q-76 3 -136 -23q-78 -34 -78 -101q0 -34 28 -55q25 -19 61 -19q60 0 125 58zM214 616l115 -148h-34l-89 98l-90 -98h-34l117 148h15zM206 -51v-97h-65v97l33 2z" />
    <glyph glyph-name="glyph295" unicode="&#x1eae;" horiz-adv-x="667" 
d="M348 687l315 -687h-55l-108 236h-333l-108 -236h-55l315 687h29zM480 280l-147 321l-146 -321h293zM421 809h35q-38 -102 -121 -102q-77 0 -124 102h36q29 -60 87 -60q56 0 87 60zM334 809l94 140h72z" />
    <glyph glyph-name="glyph296" unicode="&#x1eaf;" horiz-adv-x="427" 
d="M421 78v-40l-8 -6q-55 -41 -83 -41q-19 0 -26 20q-4 8 -6 36q-72 -56 -141 -56q-50 0 -85.5 32.5t-35.5 81.5q0 88 93 130q64 29 169 34v57q0 92 -100 92q-61 0 -137 -57v49q78 48 145 48q61 0 98 -27q42 -31 42 -90v-280q0 -23 11 -23q13 0 64 40zM298 89v140
q-76 3 -136 -23q-78 -34 -78 -101q0 -34 28 -55q25 -19 61 -19q60 0 125 58zM291 590h35q-38 -102 -121 -102q-77 0 -124 102h36q29 -60 87 -60q56 0 87 60zM204 590l94 140h72z" />
    <glyph glyph-name="glyph297" unicode="&#x1eb0;" horiz-adv-x="667" 
d="M348 687l315 -687h-55l-108 236h-333l-108 -236h-55l315 687h29zM480 280l-147 321l-146 -321h293zM421 809h35q-38 -102 -121 -102q-77 0 -124 102h36q29 -60 87 -60q56 0 87 60zM334 809l-166 140h72z" />
    <glyph glyph-name="glyph298" unicode="&#x1eb1;" horiz-adv-x="427" 
d="M421 78v-40l-8 -6q-55 -41 -83 -41q-19 0 -26 20q-4 8 -6 36q-72 -56 -141 -56q-50 0 -85.5 32.5t-35.5 81.5q0 88 93 130q64 29 169 34v57q0 92 -100 92q-61 0 -137 -57v49q78 48 145 48q61 0 98 -27q42 -31 42 -90v-280q0 -23 11 -23q13 0 64 40zM298 89v140
q-76 3 -136 -23q-78 -34 -78 -101q0 -34 28 -55q25 -19 61 -19q60 0 125 58zM291 589h35q-38 -102 -121 -102q-77 0 -124 102h36q29 -60 87 -60q56 0 87 60zM204 589l-166 140h72z" />
    <glyph glyph-name="glyph299" unicode="&#x1eb2;" horiz-adv-x="667" 
d="M348 687l315 -687h-55l-108 236h-333l-108 -236h-55l315 687h29zM480 280l-147 321l-146 -321h293zM421 809h35q-38 -102 -121 -102q-77 0 -124 102h36q29 -60 87 -60q56 0 87 60zM311 830q0 14 38.5 55.5t38.5 62.5q0 38 -31 38q-23 0 -42 -31l26 41q16 8 27 8
q23 0 36.5 -16.5t13.5 -40.5q0 -26 -40.5 -68.5t-40.5 -54.5q0 -5 6 -12l11 -13q-43 22 -43 31z" />
    <glyph glyph-name="glyph300" unicode="&#x1eb3;" horiz-adv-x="427" 
d="M421 78v-40l-8 -6q-55 -41 -83 -41q-19 0 -26 20q-4 8 -6 36q-72 -56 -141 -56q-50 0 -85.5 32.5t-35.5 81.5q0 88 93 130q64 29 169 34v57q0 92 -100 92q-61 0 -137 -57v49q78 48 145 48q61 0 98 -27q42 -31 42 -90v-280q0 -23 11 -23q13 0 64 40zM298 89v140
q-76 3 -136 -23q-78 -34 -78 -101q0 -34 28 -55q25 -19 61 -19q60 0 125 58zM292 589h35q-38 -102 -121 -102q-77 0 -124 102h36q29 -60 87 -60q56 0 87 60zM182 610q0 14 38.5 55.5t38.5 62.5q0 38 -31 38q-23 0 -42 -31l26 41q16 8 27 8q23 0 36.5 -16.5t13.5 -40.5
q0 -26 -40.5 -68.5t-40.5 -54.5q0 -5 6 -12l11 -13q-43 22 -43 31z" />
    <glyph glyph-name="glyph301" unicode="&#x1eb4;" horiz-adv-x="667" 
d="M348 687l315 -687h-55l-108 236h-333l-108 -236h-55l315 687h29zM480 280l-147 321l-146 -321h293zM421 809h35q-38 -102 -121 -102q-77 0 -124 102h36q29 -60 87 -60q56 0 87 60zM348 819l-28 -5q0 34 18.5 57t51.5 23q24 0 74 -20.5t71 -20.5q32 0 38 41l25 5
q3 -32 -17 -56.5t-52 -24.5q-23 0 -74.5 21t-71.5 21q-30 0 -35 -41z" />
    <glyph glyph-name="glyph302" unicode="&#x1eb5;" horiz-adv-x="427" 
d="M421 78v-40l-8 -6q-55 -41 -83 -41q-19 0 -26 20q-4 8 -6 36q-72 -56 -141 -56q-50 0 -85.5 32.5t-35.5 81.5q0 88 93 130q64 29 169 34v57q0 92 -100 92q-61 0 -137 -57v49q78 48 145 48q61 0 98 -27q42 -31 42 -90v-280q0 -23 11 -23q13 0 64 40zM298 89v140
q-76 3 -136 -23q-78 -34 -78 -101q0 -34 28 -55q25 -19 61 -19q60 0 125 58zM291 589h35q-38 -102 -121 -102q-77 0 -124 102h36q29 -60 87 -60q56 0 87 60zM218 599l-28 -5q0 34 18.5 57t51.5 23q24 0 74 -20.5t71 -20.5q32 0 38 41l25 5q3 -32 -17 -56.5t-52 -24.5
q-23 0 -74.5 21t-71.5 21q-30 0 -35 -41z" />
    <glyph glyph-name="glyph303" unicode="&#x1eb6;" horiz-adv-x="667" 
d="M348 687l315 -687h-55l-108 236h-333l-108 -236h-55l315 687h29zM480 280l-147 321l-146 -321h293zM421 809h35q-38 -102 -121 -102q-77 0 -124 102h36q29 -60 87 -60q56 0 87 60zM366 -3v-97h-65v97h65z" />
    <glyph glyph-name="glyph304" unicode="&#x1eb7;" horiz-adv-x="427" 
d="M421 78v-40l-8 -6q-55 -41 -83 -41q-19 0 -26 20q-4 8 -6 36q-72 -56 -141 -56q-50 0 -85.5 32.5t-35.5 81.5q0 88 93 130q64 29 169 34v57q0 92 -100 92q-61 0 -137 -57v49q78 48 145 48q61 0 98 -27q42 -31 42 -90v-280q0 -23 11 -23q13 0 64 40zM298 89v140
q-76 3 -136 -23q-78 -34 -78 -101q0 -34 28 -55q25 -19 61 -19q60 0 125 58zM206 -51v-97h-65v97l33 2zM291 590h35q-38 -102 -121 -102q-77 0 -124 102h36q29 -60 87 -60q56 0 87 60z" />
    <glyph glyph-name="glyph305" unicode="&#x1eb8;" 
d="M452 682v-44h-319v-273h311v-44h-311v-277h327v-44h-380v682h372zM302 -42v-97h-65v97h65z" />
    <glyph glyph-name="glyph306" unicode="&#x1eb9;" horiz-adv-x="479" 
d="M445 241h-354q-1 -12 -1 -23q0 -75 52.5 -127.5t127.5 -52.5q84 0 167 67v-54q-78 -60 -173 -60q-102 0 -163 68t-61 171q0 95 56 161.5t150 66.5q93 0 146 -61.5t53 -155.5zM97 280h291q-25 131 -142 131q-120 0 -149 -131zM296 -51v-97h-65v97l33 2z" />
    <glyph glyph-name="glyph307" unicode="&#x1eba;" 
d="M452 682v-44h-319v-273h311v-44h-311v-277h327v-44h-380v682h372zM227 749q0 14 38.5 55.5t38.5 62.5q0 38 -31 38q-23 0 -42 -31l26 41q16 8 27 8q23 0 36.5 -16.5t13.5 -40.5q0 -26 -40.5 -68.5t-40.5 -54.5q0 -5 6 -12l11 -13q-43 22 -43 31z" />
    <glyph glyph-name="glyph308" unicode="&#x1ebb;" horiz-adv-x="479" 
d="M445 241h-354q-1 -12 -1 -23q0 -75 52.5 -127.5t127.5 -52.5q84 0 167 67v-54q-78 -60 -173 -60q-102 0 -163 68t-61 171q0 95 56 161.5t150 66.5q93 0 146 -61.5t53 -155.5zM97 280h291q-25 131 -142 131q-120 0 -149 -131zM205 529q0 14 38.5 55.5t38.5 62.5
q0 38 -31 38q-23 0 -42 -31l26 41q16 8 27 8q23 0 36.5 -16.5t13.5 -40.5q0 -26 -40.5 -68.5t-40.5 -54.5q0 -5 6 -12l11 -13q-43 22 -43 31z" />
    <glyph glyph-name="glyph309" unicode="&#x1ebc;" 
d="M452 682v-44h-319v-273h311v-44h-311v-277h327v-44h-380v682h372zM158 729l-28 -5q0 34 18.5 57t51.5 23q24 0 74 -20.5t71 -20.5q32 0 38 41l25 5q3 -32 -17 -56.5t-52 -24.5q-23 0 -74.5 21t-71.5 21q-30 0 -35 -41z" />
    <glyph glyph-name="glyph310" unicode="&#x1ebd;" horiz-adv-x="479" 
d="M445 241h-354q-1 -12 -1 -23q0 -75 52.5 -127.5t127.5 -52.5q84 0 167 67v-54q-78 -60 -173 -60q-102 0 -163 68t-61 171q0 95 56 161.5t150 66.5q93 0 146 -61.5t53 -155.5zM97 280h291q-25 131 -142 131q-120 0 -149 -131zM134 509l-28 -5q0 34 18.5 57t51.5 23
q24 0 74 -20.5t71 -20.5q32 0 38 41l25 5q3 -32 -17 -56.5t-52 -24.5q-23 0 -74.5 21t-71.5 21q-30 0 -35 -41z" />
    <glyph glyph-name="glyph311" unicode="&#x1ebe;" 
d="M452 682v-44h-319v-273h311v-44h-311v-277h327v-44h-380v682h372zM277 856l115 -148h-34l-89 98l-90 -98h-34l117 148h15zM357 806l94 140h72z" />
    <glyph glyph-name="glyph312" unicode="&#x1ebf;" horiz-adv-x="479" 
d="M445 241h-354q-1 -12 -1 -23q0 -75 52.5 -127.5t127.5 -52.5q84 0 167 67v-54q-78 -60 -173 -60q-102 0 -163 68t-61 171q0 95 56 161.5t150 66.5q93 0 146 -61.5t53 -155.5zM97 280h291q-25 131 -142 131q-120 0 -149 -131zM254 616l115 -148h-34l-89 98l-90 -98h-34
l117 148h15zM334 566l94 140h72z" />
    <glyph glyph-name="glyph313" unicode="&#x1ec0;" 
d="M452 682v-44h-319v-273h311v-44h-311v-277h327v-44h-380v682h372zM277 855l115 -148h-34l-89 98l-90 -98h-34l117 148h15zM181 805l-166 140h72z" />
    <glyph glyph-name="glyph314" unicode="&#x1ec1;" horiz-adv-x="479" 
d="M445 241h-354q-1 -12 -1 -23q0 -75 52.5 -127.5t127.5 -52.5q84 0 167 67v-54q-78 -60 -173 -60q-102 0 -163 68t-61 171q0 95 56 161.5t150 66.5q93 0 146 -61.5t53 -155.5zM97 280h291q-25 131 -142 131q-120 0 -149 -131zM254 616l115 -148h-34l-89 98l-90 -98h-34
l117 148h15zM158 566l-166 140h72z" />
    <glyph glyph-name="glyph315" unicode="&#x1ec2;" 
d="M452 682v-44h-319v-273h311v-44h-311v-277h327v-44h-380v682h372zM277 855l115 -148h-34l-89 98l-90 -98h-34l117 148h15zM336 836q0 14 38.5 55.5t38.5 62.5q0 38 -31 38q-23 0 -42 -31l26 41q16 8 27 8q23 0 36.5 -16.5t13.5 -40.5q0 -26 -40.5 -68.5t-40.5 -54.5
q0 -5 6 -12l11 -13q-43 22 -43 31z" />
    <glyph glyph-name="glyph316" unicode="&#x1ec3;" horiz-adv-x="479" 
d="M445 241h-354q-1 -12 -1 -23q0 -75 52.5 -127.5t127.5 -52.5q84 0 167 67v-54q-78 -60 -173 -60q-102 0 -163 68t-61 171q0 95 56 161.5t150 66.5q93 0 146 -61.5t53 -155.5zM97 280h291q-25 131 -142 131q-120 0 -149 -131zM254 616l115 -148h-34l-89 98l-90 -98h-34
l117 148h15zM313 597q0 14 38.5 55.5t38.5 62.5q0 38 -31 38q-23 0 -42 -31l26 41q16 8 27 8q23 0 36.5 -16.5t13.5 -40.5q0 -26 -40.5 -68.5t-40.5 -54.5q0 -5 6 -12l11 -13q-43 22 -43 31z" />
    <glyph glyph-name="glyph317" unicode="&#x1ec4;" 
d="M452 682v-44h-319v-273h311v-44h-311v-277h327v-44h-380v682h372zM278 855l115 -148h-34l-89 98l-90 -98h-34l117 148h15zM158 870l-28 -5q0 34 18.5 57t51.5 23q24 0 74 -20.5t71 -20.5q32 0 38 41l25 5q3 -32 -17 -56.5t-52 -24.5q-23 0 -74.5 21t-71.5 21
q-30 0 -35 -41z" />
    <glyph glyph-name="glyph318" unicode="&#x1ec5;" horiz-adv-x="479" 
d="M445 241h-354q-1 -12 -1 -23q0 -75 52.5 -127.5t127.5 -52.5q84 0 167 67v-54q-78 -60 -173 -60q-102 0 -163 68t-61 171q0 95 56 161.5t150 66.5q93 0 146 -61.5t53 -155.5zM97 280h291q-25 131 -142 131q-120 0 -149 -131zM254 616l115 -148h-34l-89 98l-90 -98h-34
l117 148h15zM134 631l-28 -5q0 34 18.5 57t51.5 23q24 0 74 -20.5t71 -20.5q32 0 38 41l25 5q3 -32 -17 -56.5t-52 -24.5q-23 0 -74.5 21t-71.5 21q-30 0 -35 -41z" />
    <glyph glyph-name="glyph319" unicode="&#x1ec6;" 
d="M452 682v-44h-319v-273h311v-44h-311v-277h327v-44h-380v682h372zM277 856l115 -148h-34l-89 98l-90 -98h-34l117 148h15zM302 -42v-97h-65v97h65z" />
    <glyph glyph-name="glyph320" unicode="&#x1ec7;" horiz-adv-x="479" 
d="M445 241h-354q-1 -12 -1 -23q0 -75 52.5 -127.5t127.5 -52.5q84 0 167 67v-54q-78 -60 -173 -60q-102 0 -163 68t-61 171q0 95 56 161.5t150 66.5q93 0 146 -61.5t53 -155.5zM97 280h291q-25 131 -142 131q-120 0 -149 -131zM254 616l115 -148h-34l-89 98l-90 -98h-34
l117 148h15zM296 -51v-97h-65v97l33 2z" />
    <glyph glyph-name="glyph321" unicode="&#x1ec8;" horiz-adv-x="208" 
d="M131 682v-682h-53v682h53zM63 749q0 14 38.5 55.5t38.5 62.5q0 38 -31 38q-23 0 -42 -31l26 41q16 8 27 8q23 0 36.5 -16.5t13.5 -40.5q0 -26 -40.5 -68.5t-40.5 -54.5q0 -5 6 -12l11 -13q-43 22 -43 31z" />
    <glyph glyph-name="glyph322" unicode="&#x1ec9;" horiz-adv-x="188" 
d="M118 449v-449h-48v449h48zM51 519q0 14 38.5 55.5t38.5 62.5q0 38 -31 38q-23 0 -42 -31l26 41q16 8 27 8q23 0 36.5 -16.5t13.5 -40.5q0 -26 -40.5 -68.5t-40.5 -54.5q0 -5 6 -12l11 -13q-43 22 -43 31z" />
    <glyph glyph-name="glyph323" unicode="&#x1eca;" horiz-adv-x="208" 
d="M131 682v-682h-53v682h53zM138 -42v-97h-65v97l33 2z" />
    <glyph glyph-name="glyph324" unicode="&#x1ecb;" horiz-adv-x="188" 
d="M118 449v-449h-48v449h48zM118 582v-82h-48v82h48zM125 -42v-97h-65v97l33 2z" />
    <glyph glyph-name="glyph325" unicode="&#x1ecc;" horiz-adv-x="823" 
d="M773 341q0 -151 -105 -250.5t-257 -99.5q-151 0 -255.5 99.5t-104.5 250.5t104.5 250.5t255.5 99.5q152 0 257 -99.5t105 -250.5zM716 341q0 129 -87 215t-216 86t-217 -86t-88 -215t88 -215t217 -86t216 86t87 215zM444 -52v-97h-65v97l33 2z" />
    <glyph glyph-name="glyph326" unicode="&#x1ecd;" horiz-adv-x="542" 
d="M499 224q0 -100 -64 -166.5t-164 -66.5t-164.5 66.5t-64.5 166.5t64.5 167t164.5 67t164 -66.5t64 -167.5zM448 224q0 79 -49 133t-128 54q-80 0 -129 -53.5t-49 -133.5t49.5 -133t128.5 -53t128 53.5t49 132.5zM304 -51v-97h-65v97l33 2z" />
    <glyph glyph-name="glyph327" unicode="&#x1ece;" horiz-adv-x="823" 
d="M773 341q0 -151 -105 -250.5t-257 -99.5q-151 0 -255.5 99.5t-104.5 250.5t104.5 250.5t255.5 99.5q152 0 257 -99.5t105 -250.5zM716 341q0 129 -87 215t-216 86t-217 -86t-88 -215t88 -215t217 -86t216 86t87 215zM369 759q0 14 38.5 55.5t38.5 62.5q0 38 -31 38
q-23 0 -42 -31l26 41q16 8 27 8q23 0 36.5 -16.5t13.5 -40.5q0 -26 -40.5 -68.5t-40.5 -54.5q0 -5 6 -12l11 -13q-43 22 -43 31z" />
    <glyph glyph-name="glyph328" unicode="&#x1ecf;" horiz-adv-x="542" 
d="M499 224q0 -100 -64 -166.5t-164 -66.5t-164.5 66.5t-64.5 166.5t64.5 167t164.5 67t164 -66.5t64 -167.5zM448 224q0 79 -49 133t-128 54q-80 0 -129 -53.5t-49 -133.5t49.5 -133t128.5 -53t128 53.5t49 132.5zM229 529q0 14 38.5 55.5t38.5 62.5q0 38 -31 38
q-23 0 -42 -31l26 41q16 8 27 8q23 0 36.5 -16.5t13.5 -40.5q0 -26 -40.5 -68.5t-40.5 -54.5q0 -5 6 -12l11 -13q-43 22 -43 31z" />
    <glyph glyph-name="glyph329" unicode="&#x1ed0;" horiz-adv-x="823" 
d="M773 341q0 -151 -105 -250.5t-257 -99.5q-151 0 -255.5 99.5t-104.5 250.5t104.5 250.5t255.5 99.5q152 0 257 -99.5t105 -250.5zM716 341q0 129 -87 215t-216 86t-217 -86t-88 -215t88 -215t217 -86t216 86t87 215zM419 855l115 -148h-34l-89 98l-90 -98h-34l117 148h15
zM499 805l94 140h72z" />
    <glyph glyph-name="glyph330" unicode="&#x1ed1;" horiz-adv-x="542" 
d="M499 224q0 -100 -64 -166.5t-164 -66.5t-164.5 66.5t-64.5 166.5t64.5 167t164.5 67t164 -66.5t64 -167.5zM448 224q0 79 -49 133t-128 54q-80 0 -129 -53.5t-49 -133.5t49.5 -133t128.5 -53t128 53.5t49 132.5zM280 616l115 -148h-34l-89 98l-90 -98h-34l117 148h15z
M360 566l94 140h72z" />
    <glyph glyph-name="glyph331" unicode="&#x1ed2;" horiz-adv-x="823" 
d="M773 341q0 -151 -105 -250.5t-257 -99.5q-151 0 -255.5 99.5t-104.5 250.5t104.5 250.5t255.5 99.5q152 0 257 -99.5t105 -250.5zM716 341q0 129 -87 215t-216 86t-217 -86t-88 -215t88 -215t217 -86t216 86t87 215zM420 856l115 -148h-34l-89 98l-90 -98h-34l117 148h15
zM324 806l-166 140h72z" />
    <glyph glyph-name="glyph332" unicode="&#x1ed3;" horiz-adv-x="542" 
d="M499 224q0 -100 -64 -166.5t-164 -66.5t-164.5 66.5t-64.5 166.5t64.5 167t164.5 67t164 -66.5t64 -167.5zM448 224q0 79 -49 133t-128 54q-80 0 -129 -53.5t-49 -133.5t49.5 -133t128.5 -53t128 53.5t49 132.5zM279 616l115 -148h-34l-89 98l-90 -98h-34l117 148h15z
M183 566l-166 140h72z" />
    <glyph glyph-name="glyph333" unicode="&#x1ed4;" horiz-adv-x="823" 
d="M773 341q0 -151 -105 -250.5t-257 -99.5q-151 0 -255.5 99.5t-104.5 250.5t104.5 250.5t255.5 99.5q152 0 257 -99.5t105 -250.5zM716 341q0 129 -87 215t-216 86t-217 -86t-88 -215t88 -215t217 -86t216 86t87 215zM419 855l115 -148h-34l-89 98l-90 -98h-34l117 148h15
zM478 836q0 14 38.5 55.5t38.5 62.5q0 38 -31 38q-23 0 -42 -31l26 41q16 8 27 8q23 0 36.5 -16.5t13.5 -40.5q0 -26 -40.5 -68.5t-40.5 -54.5q0 -5 6 -12l11 -13q-43 22 -43 31z" />
    <glyph glyph-name="glyph334" unicode="&#x1ed5;" horiz-adv-x="542" 
d="M499 224q0 -100 -64 -166.5t-164 -66.5t-164.5 66.5t-64.5 166.5t64.5 167t164.5 67t164 -66.5t64 -167.5zM448 224q0 79 -49 133t-128 54q-80 0 -129 -53.5t-49 -133.5t49.5 -133t128.5 -53t128 53.5t49 132.5zM280 616l115 -148h-34l-89 98l-90 -98h-34l117 148h15z
M339 597q0 14 38.5 55.5t38.5 62.5q0 38 -31 38q-23 0 -42 -31l26 41q16 8 27 8q23 0 36.5 -16.5t13.5 -40.5q0 -26 -40.5 -68.5t-40.5 -54.5q0 -5 6 -12l11 -13q-43 22 -43 31z" />
    <glyph glyph-name="glyph335" unicode="&#x1ed6;" horiz-adv-x="823" 
d="M773 341q0 -151 -105 -250.5t-257 -99.5q-151 0 -255.5 99.5t-104.5 250.5t104.5 250.5t255.5 99.5q152 0 257 -99.5t105 -250.5zM716 341q0 129 -87 215t-216 86t-217 -86t-88 -215t88 -215t217 -86t216 86t87 215zM419 855l115 -148h-34l-89 98l-90 -98h-34l117 148h15
zM299 870l-28 -5q0 34 18.5 57t51.5 23q24 0 74 -20.5t71 -20.5q32 0 38 41l25 5q3 -32 -17 -56.5t-52 -24.5q-23 0 -74.5 21t-71.5 21q-30 0 -35 -41z" />
    <glyph glyph-name="glyph336" unicode="&#x1ed7;" horiz-adv-x="542" 
d="M499 224q0 -100 -64 -166.5t-164 -66.5t-164.5 66.5t-64.5 166.5t64.5 167t164.5 67t164 -66.5t64 -167.5zM448 224q0 79 -49 133t-128 54q-80 0 -129 -53.5t-49 -133.5t49.5 -133t128.5 -53t128 53.5t49 132.5zM280 616l115 -148h-34l-89 98l-90 -98h-34l117 148h15z
M160 631l-28 -5q0 34 18.5 57t51.5 23q24 0 74 -20.5t71 -20.5q32 0 38 41l25 5q3 -32 -17 -56.5t-52 -24.5q-23 0 -74.5 21t-71.5 21q-30 0 -35 -41z" />
    <glyph glyph-name="glyph337" unicode="&#x1ed8;" horiz-adv-x="823" 
d="M773 341q0 -151 -105 -250.5t-257 -99.5q-151 0 -255.5 99.5t-104.5 250.5t104.5 250.5t255.5 99.5q152 0 257 -99.5t105 -250.5zM716 341q0 129 -87 215t-216 86t-217 -86t-88 -215t88 -215t217 -86t216 86t87 215zM419 855l115 -148h-34l-89 98l-90 -98h-34l117 148h15
zM444 -52v-97h-65v97l33 2z" />
    <glyph glyph-name="glyph338" unicode="&#x1ed9;" horiz-adv-x="542" 
d="M499 224q0 -100 -64 -166.5t-164 -66.5t-164.5 66.5t-64.5 166.5t64.5 167t164.5 67t164 -66.5t64 -167.5zM448 224q0 79 -49 133t-128 54q-80 0 -129 -53.5t-49 -133.5t49.5 -133t128.5 -53t128 53.5t49 132.5zM280 616l115 -148h-34l-89 98l-90 -98h-34l117 148h15z
M304 -51v-97h-65v97l33 2z" />
    <glyph glyph-name="glyph339" unicode="&#x1eda;" horiz-adv-x="823" 
d="M716 341q0 129 -87 215t-216 86t-217 -86t-88 -215t88 -215t217 -86t216 86t87 215zM554 663l78 19v-1q7 9 7 12q1 5 -7 16l-31 10v21h65q29 0 29 -12q0 -14 -89 -91q79 -48 123 -126t44 -170q0 -151 -105 -250.5t-257 -99.5q-151 0 -255.5 99.5t-104.5 250.5
t104.5 250.5t255.5 99.5q76 0 143 -28zM411 728l94 140h72z" />
    <glyph glyph-name="glyph340" unicode="&#x1edb;" horiz-adv-x="542" 
d="M448 224q0 79 -49 133t-128 54q-80 0 -129 -53.5t-49 -133.5t49.5 -133t128.5 -53t128 53.5t49 132.5zM365 439h58q30 0 30 22q0 7 -5 14l-31 20l45 12q32 1 32 -14q0 -21 -75 -88q80 -67 80 -181q0 -100 -64 -166.5t-164 -66.5t-164.5 66.5t-64.5 166.5t64.5 167
t164.5 67q50 0 94 -19zM271 508l94 140h72z" />
    <glyph glyph-name="glyph341" unicode="&#x1edc;" horiz-adv-x="823" 
d="M716 341q0 129 -87 215t-216 86t-217 -86t-88 -215t88 -215t217 -86t216 86t87 215zM554 663l78 19v-1q7 9 7 12q1 5 -7 16l-31 10v21h65q29 0 29 -12q0 -14 -89 -91q79 -48 123 -126t44 -170q0 -151 -105 -250.5t-257 -99.5q-151 0 -255.5 99.5t-104.5 250.5
t104.5 250.5t255.5 99.5q76 0 143 -28zM412 729l-166 140h72z" />
    <glyph glyph-name="glyph342" unicode="&#x1edd;" horiz-adv-x="542" 
d="M448 224q0 79 -49 133t-128 54q-80 0 -129 -53.5t-49 -133.5t49.5 -133t128.5 -53t128 53.5t49 132.5zM365 439h58q30 0 30 22q0 7 -5 14l-31 20l45 12q32 1 32 -14q0 -21 -75 -88q80 -67 80 -181q0 -100 -64 -166.5t-164 -66.5t-164.5 66.5t-64.5 166.5t64.5 167
t164.5 67q50 0 94 -19zM271 508l-166 140h72z" />
    <glyph glyph-name="glyph343" unicode="&#x1ede;" horiz-adv-x="823" 
d="M716 341q0 129 -87 215t-216 86t-217 -86t-88 -215t88 -215t217 -86t216 86t87 215zM554 663l78 19v-1q7 9 7 12q1 5 -7 16l-31 10v21h65q29 0 29 -12q0 -14 -89 -91q79 -48 123 -126t44 -170q0 -151 -105 -250.5t-257 -99.5q-151 0 -255.5 99.5t-104.5 250.5
t104.5 250.5t255.5 99.5q76 0 143 -28zM369 759q0 14 38.5 55.5t38.5 62.5q0 38 -31 38q-23 0 -42 -31l26 41q16 8 27 8q23 0 36.5 -16.5t13.5 -40.5q0 -26 -40.5 -68.5t-40.5 -54.5q0 -5 6 -12l11 -13q-43 22 -43 31z" />
    <glyph glyph-name="glyph344" unicode="&#x1edf;" horiz-adv-x="542" 
d="M448 224q0 79 -49 133t-128 54q-80 0 -129 -53.5t-49 -133.5t49.5 -133t128.5 -53t128 53.5t49 132.5zM365 439h58q30 0 30 22q0 7 -5 14l-31 20l45 12q32 1 32 -14q0 -21 -75 -88q80 -67 80 -181q0 -100 -64 -166.5t-164 -66.5t-164.5 66.5t-64.5 166.5t64.5 167
t164.5 67q50 0 94 -19zM229 529q0 14 38.5 55.5t38.5 62.5q0 38 -31 38q-23 0 -42 -31l26 41q16 8 27 8q23 0 36.5 -16.5t13.5 -40.5q0 -26 -40.5 -68.5t-40.5 -54.5q0 -5 6 -12l11 -13q-43 22 -43 31z" />
    <glyph glyph-name="glyph345" unicode="&#x1ee0;" horiz-adv-x="823" 
d="M716 341q0 129 -87 215t-216 86t-217 -86t-88 -215t88 -215t217 -86t216 86t87 215zM554 663l78 19v-1q7 9 7 12q1 5 -7 16l-31 10v21h65q29 0 29 -12q0 -14 -89 -91q79 -48 123 -126t44 -170q0 -151 -105 -250.5t-257 -99.5q-151 0 -255.5 99.5t-104.5 250.5
t104.5 250.5t255.5 99.5q76 0 143 -28zM299 729l-28 -5q0 34 18.5 57t51.5 23q24 0 74 -20.5t71 -20.5q32 0 38 41l25 5q3 -32 -17 -56.5t-52 -24.5q-23 0 -74.5 21t-71.5 21q-30 0 -35 -41z" />
    <glyph glyph-name="glyph346" unicode="&#x1ee1;" horiz-adv-x="542" 
d="M448 224q0 79 -49 133t-128 54q-80 0 -129 -53.5t-49 -133.5t49.5 -133t128.5 -53t128 53.5t49 132.5zM365 439h58q30 0 30 22q0 7 -5 14l-31 20l45 12q32 1 32 -14q0 -21 -75 -88q80 -67 80 -181q0 -100 -64 -166.5t-164 -66.5t-164.5 66.5t-64.5 166.5t64.5 167
t164.5 67q50 0 94 -19zM160 509l-28 -5q0 34 18.5 57t51.5 23q24 0 74 -20.5t71 -20.5q32 0 38 41l25 5q3 -32 -17 -56.5t-52 -24.5q-23 0 -74.5 21t-71.5 21q-30 0 -35 -41z" />
    <glyph glyph-name="glyph347" unicode="&#x1ee2;" horiz-adv-x="823" 
d="M716 341q0 129 -87 215t-216 86t-217 -86t-88 -215t88 -215t217 -86t216 86t87 215zM554 663l78 19v-1q7 9 7 12q1 5 -7 16l-31 10v21h65q29 0 29 -12q0 -14 -89 -91q79 -48 123 -126t44 -170q0 -151 -105 -250.5t-257 -99.5q-151 0 -255.5 99.5t-104.5 250.5
t104.5 250.5t255.5 99.5q76 0 143 -28zM444 -52v-97h-65v97l33 2z" />
    <glyph glyph-name="glyph348" unicode="&#x1ee3;" horiz-adv-x="542" 
d="M448 224q0 79 -49 133t-128 54q-80 0 -129 -53.5t-49 -133.5t49.5 -133t128.5 -53t128 53.5t49 132.5zM365 439h58q30 0 30 22q0 7 -5 14l-31 20l45 12q32 1 32 -14q0 -21 -75 -88q80 -67 80 -181q0 -100 -64 -166.5t-164 -66.5t-164.5 66.5t-64.5 166.5t64.5 167
t164.5 67q50 0 94 -19zM304 -51v-97h-65v97l33 2z" />
    <glyph glyph-name="glyph349" unicode="&#x1ee4;" horiz-adv-x="698" 
d="M582 682h53v-372q0 -141 -71 -227q-77 -92 -215 -92q-134 0 -211 88q-74 83 -74 219v384h53v-382q0 -114 58 -184q62 -76 174 -76q114 0 176 78q57 72 57 189v375zM382 -52v-97h-65v97l33 2z" />
    <glyph glyph-name="glyph350" unicode="&#x1ee5;" 
d="M379 0v74h-2q-32 -45 -62 -63q-34 -20 -86 -20q-79 0 -123 50t-44 130v278h48v-277q0 -59 32.5 -96.5t90.5 -37.5q51 0 87 26q28 21 59 70v315h48v-449h-48zM262 -51v-97h-65v97l33 2z" />
    <glyph glyph-name="glyph351" unicode="&#x1ee6;" horiz-adv-x="698" 
d="M582 682h53v-372q0 -141 -71 -227q-77 -92 -215 -92q-134 0 -211 88q-74 83 -74 219v384h53v-382q0 -114 58 -184q62 -76 174 -76q114 0 176 78q57 72 57 189v375zM307 709q0 14 38.5 55.5t38.5 62.5q0 38 -31 38q-23 0 -42 -31l26 41q16 8 27 8q23 0 36.5 -16.5
t13.5 -40.5q0 -26 -40.5 -68.5t-40.5 -54.5q0 -5 6 -12l11 -13q-43 22 -43 31z" />
    <glyph glyph-name="glyph352" unicode="&#x1ee7;" 
d="M379 0v74h-2q-32 -45 -62 -63q-34 -20 -86 -20q-79 0 -123 50t-44 130v278h48v-277q0 -59 32.5 -96.5t90.5 -37.5q51 0 87 26q28 21 59 70v315h48v-449h-48zM201 479q0 14 38.5 55.5t38.5 62.5q0 38 -31 38q-23 0 -42 -31l26 41q16 8 27 8q23 0 36.5 -16.5t13.5 -40.5
q0 -26 -40.5 -68.5t-40.5 -54.5q0 -5 6 -12l11 -13q-43 22 -43 31z" />
    <glyph glyph-name="glyph353" unicode="&#x1ee8;" horiz-adv-x="698" 
d="M635 637v-327q0 -141 -71 -227q-77 -92 -215 -92q-134 0 -211 88q-74 83 -74 219v384h53v-382q0 -114 58 -184q62 -76 174 -76q114 0 176 78q57 72 57 189v375h53v-1q7 9 7 12q1 5 -7 16l-31 10v21h65q35 0 35 -18q0 -23 -69 -85zM349 686l94 140h72z" />
    <glyph glyph-name="glyph354" unicode="&#x1ee9;" 
d="M470 507q32 1 32 -14q0 -21 -75 -88v-405h-48v74h-2q-32 -45 -62 -63q-34 -20 -86 -20q-79 0 -123 50t-44 130v278h48v-277q0 -59 32.5 -96.5t90.5 -37.5q51 0 87 26q28 21 59 70v315h52q30 0 30 14q0 5 -5 12l-31 20zM244 458l94 140h72z" />
    <glyph glyph-name="glyph355" unicode="&#x1eea;" horiz-adv-x="698" 
d="M635 637v-327q0 -141 -71 -227q-77 -92 -215 -92q-134 0 -211 88q-74 83 -74 219v384h53v-382q0 -114 58 -184q62 -76 174 -76q114 0 176 78q57 72 57 189v375h53v-1q7 9 7 12q1 5 -7 16l-31 10v21h65q35 0 35 -18q0 -23 -69 -85zM350 688l-166 140h72z" />
    <glyph glyph-name="glyph356" unicode="&#x1eeb;" 
d="M470 507q32 1 32 -14q0 -21 -75 -88v-405h-48v74h-2q-32 -45 -62 -63q-34 -20 -86 -20q-79 0 -123 50t-44 130v278h48v-277q0 -59 32.5 -96.5t90.5 -37.5q51 0 87 26q28 21 59 70v315h52q30 0 30 14q0 5 -5 12l-31 20zM244 458l-166 140h72z" />
    <glyph glyph-name="glyph357" unicode="&#x1eec;" horiz-adv-x="698" 
d="M635 637v-327q0 -141 -71 -227q-77 -92 -215 -92q-134 0 -211 88q-74 83 -74 219v384h53v-382q0 -114 58 -184q62 -76 174 -76q114 0 176 78q57 72 57 189v375h53v-1q7 9 7 12q1 5 -7 16l-31 10v21h65q35 0 35 -18q0 -23 -69 -85zM307 709q0 14 38.5 55.5t38.5 62.5
q0 38 -31 38q-23 0 -42 -31l26 41q16 8 27 8q23 0 36.5 -16.5t13.5 -40.5q0 -26 -40.5 -68.5t-40.5 -54.5q0 -5 6 -12l11 -13q-43 22 -43 31z" />
    <glyph glyph-name="glyph358" unicode="&#x1eed;" 
d="M470 507q32 1 32 -14q0 -21 -75 -88v-405h-48v74h-2q-32 -45 -62 -63q-34 -20 -86 -20q-79 0 -123 50t-44 130v278h48v-277q0 -59 32.5 -96.5t90.5 -37.5q51 0 87 26q28 21 59 70v315h52q30 0 30 14q0 5 -5 12l-31 20zM201 479q0 14 38.5 55.5t38.5 62.5q0 38 -31 38
q-23 0 -42 -31l26 41q16 8 27 8q23 0 36.5 -16.5t13.5 -40.5q0 -26 -40.5 -68.5t-40.5 -54.5q0 -5 6 -12l11 -13q-43 22 -43 31z" />
    <glyph glyph-name="glyph359" unicode="&#x1eee;" horiz-adv-x="698" 
d="M635 637v-327q0 -141 -71 -227q-77 -92 -215 -92q-134 0 -211 88q-74 83 -74 219v384h53v-382q0 -114 58 -184q62 -76 174 -76q114 0 176 78q57 72 57 189v375h53v-1q7 9 7 12q1 5 -7 16l-31 10v21h65q35 0 35 -18q0 -23 -69 -85zM238 689l-28 -5q0 34 18.5 57t51.5 23
q24 0 74 -20.5t71 -20.5q32 0 38 41l25 5q3 -32 -17 -56.5t-52 -24.5q-23 0 -74.5 21t-71.5 21q-30 0 -35 -41z" />
    <glyph glyph-name="glyph360" unicode="&#x1eef;" 
d="M470 507q32 1 32 -14q0 -21 -75 -88v-405h-48v74h-2q-32 -45 -62 -63q-34 -20 -86 -20q-79 0 -123 50t-44 130v278h48v-277q0 -59 32.5 -96.5t90.5 -37.5q51 0 87 26q28 21 59 70v315h52q30 0 30 14q0 5 -5 12l-31 20zM131 479l-28 -5q0 34 18.5 57t51.5 23
q24 0 74 -20.5t71 -20.5q32 0 38 41l25 5q3 -32 -17 -56.5t-52 -24.5q-23 0 -74.5 21t-71.5 21q-30 0 -35 -41z" />
    <glyph glyph-name="glyph361" unicode="&#x1ef0;" horiz-adv-x="698" 
d="M635 637v-327q0 -141 -71 -227q-77 -92 -215 -92q-134 0 -211 88q-74 83 -74 219v384h53v-382q0 -114 58 -184q62 -76 174 -76q114 0 176 78q57 72 57 189v375h53v-1q7 9 7 12q1 5 -7 16l-31 10v21h65q35 0 35 -18q0 -23 -69 -85zM382 -52v-97h-65v97l33 2z" />
    <glyph glyph-name="glyph362" unicode="&#x1ef1;" 
d="M470 507q32 1 32 -14q0 -21 -75 -88v-405h-48v74h-2q-32 -45 -62 -63q-34 -20 -86 -20q-79 0 -123 50t-44 130v278h48v-277q0 -59 32.5 -96.5t90.5 -37.5q51 0 87 26q28 21 59 70v315h52q30 0 30 14q0 5 -5 12l-31 20zM262 -51v-97h-65v97l33 2z" />
    <glyph glyph-name="glyph363" unicode="&#x1ef2;" horiz-adv-x="583" 
d="M583 682l-265 -316v-366h-53v366l-265 316h64l228 -270l227 270h64zM289 687l-166 140h72z" />
    <glyph glyph-name="glyph364" unicode="&#x1ef3;" horiz-adv-x="417" 
d="M423 449l-336 -679h-49l157 317l-189 362h50l163 -314l155 314h49zM220 458l-166 140h72z" />
    <glyph glyph-name="glyph365" unicode="&#x1ef4;" horiz-adv-x="583" 
d="M583 682l-265 -316v-366h-53v366l-265 316h64l228 -270l227 270h64zM324 -42v-97h-65v97l33 2z" />
    <glyph glyph-name="glyph366" unicode="&#x1ef5;" horiz-adv-x="417" 
d="M423 449l-336 -679h-49l157 317l-189 362h50l163 -314l155 314h49zM292 -31v-97h-65v97l33 2z" />
    <glyph glyph-name="glyph367" unicode="&#x1ef6;" horiz-adv-x="583" 
d="M583 682l-265 -316v-366h-53v366l-265 316h64l228 -270l227 270h64zM247 709q0 14 38.5 55.5t38.5 62.5q0 38 -31 38q-23 0 -42 -31l26 41q16 8 27 8q23 0 36.5 -16.5t13.5 -40.5q0 -26 -40.5 -68.5t-40.5 -54.5q0 -5 6 -12l11 -13q-43 22 -43 31z" />
    <glyph glyph-name="glyph368" unicode="&#x1ef7;" horiz-adv-x="417" 
d="M423 449l-336 -679h-49l157 317l-189 362h50l163 -314l155 314h49zM177 479q0 14 38.5 55.5t38.5 62.5q0 38 -31 38q-23 0 -42 -31l26 41q16 8 27 8q23 0 36.5 -16.5t13.5 -40.5q0 -26 -40.5 -68.5t-40.5 -54.5q0 -5 6 -12l11 -13q-43 22 -43 31z" />
    <glyph glyph-name="glyph369" unicode="&#x1ef8;" horiz-adv-x="583" 
d="M583 682l-265 -316v-366h-53v366l-265 316h64l228 -270l227 270h64zM178 689l-28 -5q0 34 18.5 57t51.5 23q24 0 74 -20.5t71 -20.5q32 0 38 41l25 5q3 -32 -17 -56.5t-52 -24.5q-23 0 -74.5 21t-71.5 21q-30 0 -35 -41z" />
    <glyph glyph-name="glyph370" unicode="&#x1ef9;" horiz-adv-x="417" 
d="M423 449l-336 -679h-49l157 317l-189 362h50l163 -314l155 314h49zM107 479l-28 -5q0 34 18.5 57t51.5 23q24 0 74 -20.5t71 -20.5q32 0 38 41l25 5q3 -32 -17 -56.5t-52 -24.5q-23 0 -74.5 21t-71.5 21q-30 0 -35 -41z" />
    <glyph glyph-name="endash" unicode="&#x2013;" horiz-adv-x="500" 
d="M-6 266h512v-32h-512v32z" />
    <glyph glyph-name="emdash" unicode="&#x2014;" horiz-adv-x="1000" 
d="M-6 266h1012v-32h-1012v32z" />
    <glyph glyph-name="quoteleft" unicode="&#x2018;" horiz-adv-x="177" 
d="M56 470v76q0 91 65 138v-35q-21 -31 -21 -82h21v-97h-65z" />
    <glyph glyph-name="quoteright" unicode="&#x2019;" horiz-adv-x="177" 
d="M121 684v-76q0 -91 -65 -138v35q21 32 21 82h-21v97h65z" />
    <glyph glyph-name="quotesinglbase" unicode="&#x201a;" horiz-adv-x="177" 
d="M121 97v-76q0 -91 -65 -138v35q21 31 21 82h-21v97h65z" />
    <glyph glyph-name="quotedblleft" unicode="&#x201c;" horiz-adv-x="396" 
d="M275 470v76q0 91 65 138v-35q-21 -31 -21 -82h21v-97h-65zM56 470v76q0 91 65 138v-35q-21 -31 -21 -82h21v-97h-65z" />
    <glyph glyph-name="quotedblright" unicode="&#x201d;" horiz-adv-x="396" 
d="M340 684v-76q0 -91 -65 -138v35q21 32 21 82h-21v97h65zM121 684v-76q0 -91 -65 -138v35q21 32 21 82h-21v97h65z" />
    <glyph glyph-name="quotedblbase" unicode="&#x201e;" horiz-adv-x="396" 
d="M338 97v-76q0 -91 -65 -138v35q21 31 21 82h-21v97h65zM123 97v-76q0 -91 -65 -138v35q21 31 21 82h-21v97h65z" />
    <glyph glyph-name="dagger" unicode="&#x2020;" 
d="M277 691l-18 -283l205 13v-55l-205 13l18 -609h-65l19 609l-206 -13v55l206 -13l-19 283h65z" />
    <glyph glyph-name="daggerdbl" unicode="&#x2021;" horiz-adv-x="479" 
d="M213 231l14 180l-201 -14v55l201 -14l-19 253h63l-18 -253l200 14v-55l-200 14l13 -180l-13 -181l200 14v-55l-200 14l18 -253h-63l19 253l-201 -14v55l201 -14z" />
    <glyph glyph-name="bullet" unicode="&#x2022;" horiz-adv-x="500" 
d="M250 463q50 0 86 -36t36 -86t-36 -86t-86 -36t-86 36t-36 86t36 86t86 36z" />
    <glyph glyph-name="ellipsis" unicode="&#x2026;" horiz-adv-x="1000" 
d="M865 97v-97h-65v97h65zM532 97v-97h-65v97h65zM199 97v-97h-65v97h65z" />
    <glyph glyph-name="perthousand" unicode="&#x2030;" horiz-adv-x="1052" 
d="M1036 149q0 -67 -47 -114t-114 -47t-114 47t-47 114t47 114t114 47t114 -47t47 -114zM993 149q0 49 -34.5 83.5t-83.5 34.5t-83.5 -34.5t-34.5 -83.5t34.5 -83.5t83.5 -34.5t83.5 34.5t34.5 83.5zM665 149q0 -67 -47 -114t-114 -47t-114 47t-47 114t47 114t114 47
t114 -47t47 -114zM622 149q0 49 -34.5 83.5t-83.5 34.5t-83.5 -34.5t-34.5 -83.5t34.5 -83.5t83.5 -34.5t83.5 34.5t34.5 83.5zM338 530q0 -67 -47 -114t-114 -47t-114 47t-47 114t47 114t114 47t114 -47t47 -114zM295 530q0 49 -34.5 83.5t-83.5 34.5t-83.5 -34.5
t-34.5 -83.5t34.5 -83.5t83.5 -34.5t83.5 34.5t34.5 83.5zM631 688l-549 -699h-50l550 699h49z" />
    <glyph glyph-name="guilsinglleft" unicode="&#x2039;" horiz-adv-x="281" 
d="M77 231l188 -224h-60l-189 224l189 224h60z" />
    <glyph glyph-name="guilsinglright" unicode="&#x203a;" horiz-adv-x="281" 
d="M204 231l-188 224h60l189 -224l-189 -224h-60z" />
    <glyph glyph-name="fraction" unicode="&#x2044;" horiz-adv-x="135" 
d="M350 691l-526 -718h-39l526 718h39z" />
    <glyph glyph-name="franc" unicode="&#x20a3;" horiz-adv-x="1035" 
d="M429 682v-44h-298v-259h269v-44h-269v-335h-53v682h351zM1025 405l-28 -45q-56 51 -90 51q-68 0 -144 -129v-282h-48v449h48v-118h2q80 127 157 127q43 0 103 -53z" />
    <glyph glyph-name="u20AB" unicode="&#x20ab;" horiz-adv-x="393" 
d="M197 501q-48 0 -84 -88q-20 -49 -20 -90q0 -51 39 -51q41 0 74 71q28 60 28 107q0 51 -37 51zM200 267q-53 -62 -106 -62q-91 0 -91 102q0 81 54 153q59 78 137 78q34 0 61 -24l20 75h-100l10 36h100l2 16q0 31 -48 32l7 33q67 2 128 14l15 3q6 0 6 -9q-1 -2 -3 -12
l-19 -77h65l-10 -36h-65l-69 -280q-5 -20 -5 -27q0 -15 12 -15q6 0 49 42l20 -18q-70 -86 -117 -86q-43 0 -53 62zM9 160h221v-56h-221v56z" />
    <glyph glyph-name="trademark" unicode="&#x2122;" horiz-adv-x="940" 
d="M100 714h310v-41h-129v-356h-51v356h-130v41zM456 714h75l99 -317h2l103 317h76v-397h-45v356h-2l-117 -356h-34l-110 356h-2v-356h-45v397z" />
    <glyph glyph-name="minus" unicode="&#x2212;" horiz-adv-x="660" 
d="M68 373h524v-44h-524v44z" />
    <glyph glyph-name="SF370000" unicode="&#x255f;" horiz-adv-x="718" 
d="M348 687l315 -687h-55l-108 236h-333l-108 -236h-55l315 687h29zM480 280l-147 321l-146 -321h293z" />
    <glyph glyph-name="SF420000" unicode="&#x2560;" horiz-adv-x="681" 
d="M452 682v-44h-319v-273h311v-44h-311v-277h327v-44h-380v682h372z" />
    <glyph glyph-name="SF190000" unicode="&#x2561;" horiz-adv-x="429" 
d="M131 682v-682h-53v682h53z" />
    <glyph glyph-name="SF200000" unicode="&#x2562;" horiz-adv-x="773" 
d="M773 341q0 -150 -105.5 -250t-256.5 -100q-150 0 -255 100t-105 250t105 250t255 100q151 0 256.5 -100t105.5 -250zM716 341q0 128 -87.5 214.5t-215.5 86.5t-216.5 -86.5t-88.5 -214.5t88.5 -214.5t216.5 -86.5t215.5 86.5t87.5 214.5z" />
    <glyph glyph-name="SF230000" unicode="&#x2563;" horiz-adv-x="811" 
d="M582 682h53v-372q0 -141 -72 -227q-77 -92 -214 -92q-133 0 -211 88q-74 84 -74 219v384h53v-382q0 -114 58 -184q63 -76 174 -76q113 0 176 78q57 72 57 189v375z" />
    <glyph glyph-name="SF470000" unicode="&#x2564;" horiz-adv-x="699" 
d="M583 682l-265 -316v-366h-53v366l-265 316h64l228 -270l227 270h64z" />
    <glyph glyph-name="SF480000" unicode="&#x2565;" horiz-adv-x="541" 
d="M421 78v-40l-8 -6q-55 -41 -83 -41q-19 0 -26 20q-4 8 -6 36q-72 -56 -141 -56q-49 0 -85 32.5t-36 81.5q0 87 93 130q66 29 169 34v57q0 92 -100 92q-61 0 -137 -57v49q78 48 145 48q60 0 98 -27q42 -31 42 -90v-280q0 -23 11 -23q13 0 64 40zM298 89v140
q-75 3 -136 -23q-78 -34 -78 -101q0 -34 28 -55q25 -19 61 -19q60 0 125 58z" />
    <glyph glyph-name="SF410000" unicode="&#x2566;" horiz-adv-x="431" 
d="M445 241h-354q-1 -12 -1 -23q0 -75 52.5 -127.5t127.5 -52.5q84 0 167 67v-54q-78 -60 -173 -60q-101 0 -164 70q-60 67 -60 169q0 95 56.5 161.5t149.5 66.5q92 0 147 -63q52 -60 52 -154zM97 280h291q-25 131 -142 131q-58 0 -99 -37q-37 -35 -50 -94z" />
    <glyph glyph-name="SF450000" unicode="&#x2567;" horiz-adv-x="314" 
d="M118 449v-449h-48v449h48zM118 682v-82h-48v82h48z" />
    <glyph glyph-name="SF460000" unicode="&#x2568;" horiz-adv-x="314" 
d="M118 449v-449h-48v449h48z" />
    <glyph glyph-name="SF400000" unicode="&#x2569;" horiz-adv-x="498" 
d="M499 224q0 -100 -64.5 -166.5t-163.5 -66.5t-164 66.5t-65 166.5t65 167t164 67q100 0 164 -67t64 -167zM448 224q0 79 -49.5 133t-127.5 54q-79 0 -128.5 -53.5t-49.5 -133.5q0 -79 49.5 -132.5t128.5 -53.5q78 0 127.5 53.5t49.5 132.5z" />
    <glyph glyph-name="SF540000" unicode="&#x256a;" horiz-adv-x="557" 
d="M379 0v74h-2q-31 -44 -62 -63q-35 -20 -86 -20q-78 0 -122.5 50t-44.5 130v278h48v-277q0 -59 32.5 -96.5t90.5 -37.5q51 0 87 26q28 21 59 70v315h48v-449h-48z" />
    <glyph glyph-name="SF530000" unicode="&#x256b;" horiz-adv-x="497" 
d="M423 449l-336 -679h-49l157 317l-189 362h50l163 -314l155 314h49z" />
    <glyph glyph-name="circle" unicode="&#x25cb;" horiz-adv-x="718" 
d="M426 908l106 -164h-38l-99 109l-100 -109h-38l108 164h61zM540 1097l-152 -156h-33l104 156h81z" />
    <glyph glyph-name="H18533" unicode="&#x25cf;" horiz-adv-x="718" 
d="M426 908l106 -164h-38l-99 109l-100 -109h-38l108 164h61zM388 1098h81l104 -156h-33z" />
    <glyph glyph-name="invbullet" unicode="&#x25d8;" horiz-adv-x="718" 
d="M426 908l106 -164h-38l-99 109l-100 -109h-38l108 164h61zM614 903q9 28 11 64q1 11 8 13q2 0 8 1q67 11 67 54q0 35 -28 35q-5 0 -14 -1t-14 -1q-21 0 -21 18q0 28 32 28q46 0 75 -24q31 -27 27 -72q-6 -59 -87 -81q-25 -7 -31 -34h-33z" />
    <glyph glyph-name="invcircle" unicode="&#x25d9;" horiz-adv-x="718" 
d="M426 908l106 -164h-38l-99 109l-100 -109h-38l108 164h61zM310 968v0h-32q0 41 21 68t61 27q30 0 88 -24.5t82 -24.5q38 0 45 49h30q3 -39 -20 -67.5t-62 -28.5q-28 0 -86.5 24.5t-84.5 24.5q-36 0 -42 -48z" />
    <glyph glyph-name="fi" unicode="&#xf001;" horiz-adv-x="479" 
d="M235 449v-39h-93v-410h-48v410h-82v39h82v56q0 186 161 186q66 0 106 -30q45 -32 48 -96h-48q-7 86 -104 86q-115 0 -115 -146v-56h93zM409 449v-449h-48v449h48z" />
    <glyph glyph-name="fl" unicode="&#xf002;" horiz-adv-x="479" 
d="M237 449v-39h-93v-410h-48v410h-83v39h83v78q0 72 40 118t111 46q33 0 67 -15v-47q-45 15 -71 15q-99 0 -99 -115v-80h93zM409 682v-682h-48v682h48z" />
    <glyph glyph-name="periodcentered" horiz-adv-x="281" 
d="M141 400q23 0 38.5 -15.5t15.5 -38.5t-15.5 -38.5t-38.5 -15.5q-22 0 -38 16t-16 38q0 23 15.5 38.5t38.5 15.5z" />
    <glyph glyph-name="glyph231" horiz-adv-x="278" 
 />
    <glyph glyph-name="glyph232" horiz-adv-x="278" 
 />
    <glyph glyph-name="glyph258" horiz-adv-x="278" 
 />
    <glyph glyph-name="glyph259" horiz-adv-x="278" 
 />
    <glyph glyph-name="glyph275" horiz-adv-x="249" 
 />
    <glyph glyph-name="glyph276" horiz-adv-x="249" 
 />
    <glyph glyph-name="glyph261" horiz-adv-x="500" 
d="M253 522q9 28 11 64q1 11 8 13q2 0 8 1q67 11 67 54q0 35 -28 35q-5 0 -14 -1t-14 -1q-21 0 -21 18q0 28 32 28q46 0 75 -24q31 -27 27 -72q-6 -59 -87 -81q-25 -7 -31 -34h-33z" />
    <glyph glyph-name="glyph262" horiz-adv-x="541" 
d="M223 676l106 -164h-38l-99 109l-100 -109h-38l108 164h61zM336 866l-152 -156h-33l104 156h81z" />
    <glyph glyph-name="glyph263" horiz-adv-x="541" 
d="M223 676l106 -164h-38l-99 109l-100 -109h-38l108 164h61zM185 866h81l104 -156h-33z" />
    <glyph glyph-name="glyph264" horiz-adv-x="541" 
d="M223 676l106 -164h-38l-99 109l-100 -109h-38l108 164h61zM411 671q9 28 11 64q1 11 8 13q2 0 8 1q67 11 67 54q0 35 -28 35q-5 0 -14 -1t-14 -1q-21 0 -21 18q0 28 32 28q46 0 75 -24q31 -27 27 -72q-6 -59 -87 -81q-25 -7 -31 -34h-33z" />
    <glyph glyph-name="glyph265" horiz-adv-x="541" 
d="M223 676l106 -164h-38l-99 109l-100 -109h-38l108 164h61zM107 736v0h-32q0 41 21 68t61 27q30 0 88 -24.5t82 -24.5q38 0 45 49h30q3 -39 -20 -67.5t-62 -28.5q-28 0 -86.5 24.5t-84.5 24.5q-36 0 -42 -48z" />
    <glyph glyph-name="glyph266" horiz-adv-x="541" 
d="M294 646h39q-43 -114 -135 -114q-87 0 -138 114h41q32 -67 96 -67q61 0 97 67zM415 866l-152 -156h-33l104 156h81z" />
    <glyph glyph-name="glyph267" horiz-adv-x="541" 
d="M294 646h39q-43 -114 -135 -114q-87 0 -138 114h41q32 -67 96 -67q61 0 97 67zM132 866h81l104 -156h-33z" />
    <glyph glyph-name="glyph268" horiz-adv-x="541" 
d="M294 646h39q-43 -114 -135 -114q-87 0 -138 114h41q32 -67 96 -67q61 0 97 67zM306 671q9 28 11 64q1 11 8 13q2 0 8 1q67 11 67 54q0 35 -28 35q-5 0 -14 -1t-14 -1q-21 0 -21 18q0 28 32 28q46 0 75 -24q31 -27 27 -72q-6 -59 -87 -81q-25 -7 -31 -34h-33z" />
    <glyph glyph-name="glyph269" horiz-adv-x="541" 
d="M294 646h39q-43 -114 -135 -114q-87 0 -138 114h41q32 -67 96 -67q61 0 97 67zM107 736v0h-32q0 41 21 68t61 27q30 0 88 -24.5t82 -24.5q38 0 45 49h30q3 -39 -20 -67.5t-62 -28.5q-28 0 -86.5 24.5t-84.5 24.5q-36 0 -42 -48z" />
    <glyph glyph-name="glyph270" horiz-adv-x="249" 
 />
  </font>
</defs>
</svg>
