<?xml version="1.0" standalone="no"?>
<!DOCTYPE svg PUBLIC "-//W3C//DTD SVG 1.1//EN" "http://www.w3.org/Graphics/SVG/1.1/DTD/svg11.dtd" >
<svg xmlns="http://www.w3.org/2000/svg" xmlns:xlink="http://www.w3.org/1999/xlink" version="1.1">
<metadata>
Created by FontForge 20170731 at Tue Oct  4 22:28:13 2005
 By Aleksey,,,
(c) Copyright 2005 by Tong Duc Thinh. All Rights Reserved
</metadata>
<defs>
<font id="SFUGillSansExtraBold" horiz-adv-x="698" >
  <font-face 
    font-family="SFU GillSans"
    font-weight="800"
    font-stretch="normal"
    units-per-em="1000"
    panose-1="0 0 8 0 0 0 0 0 0 0"
    ascent="800"
    descent="-200"
    x-height="528"
    cap-height="682"
    bbox="-200 -250 1251 1179"
    underline-thickness="50"
    underline-position="-225"
    unicode-range="U+0020-F002"
  />
<missing-glyph horiz-adv-x="500" 
d="M63 0v1150h375v-1150h-375zM125 63h250v1025h-250v-1025z" />
    <glyph glyph-name=".notdef" horiz-adv-x="500" 
d="M63 0v1150h375v-1150h-375zM125 63h250v1025h-250v-1025z" />
    <glyph glyph-name=".null" horiz-adv-x="0" 
 />
    <glyph glyph-name="nonmarkingreturn" horiz-adv-x="333" 
 />
    <glyph glyph-name="space" unicode=" " horiz-adv-x="333" 
 />
    <glyph glyph-name="exclam" unicode="!" horiz-adv-x="365" 
d="M183 -9q-51 0 -86.5 36t-35.5 87q0 87 90 118q-90 176 -90 293q0 61 30 109q34 57 92 57t92 -57q30 -48 30 -109q0 -117 -90 -293q90 -31 90 -118q0 -51 -35.5 -87t-86.5 -36z" />
    <glyph glyph-name="quotedbl" unicode="&#x22;" horiz-adv-x="500" 
d="M278 716h198v-118l-32 -145h-134l-32 145v118zM24 716h198v-118l-32 -145h-134l-32 145v118z" />
    <glyph glyph-name="numbersign" unicode="#" horiz-adv-x="667" 
d="M275 397l-25 -121h147l25 121h-147zM33 156v120h97l25 121h-122v120h148l37 176h120l-37 -176h147l37 176h120l-37 -176h71v-120h-97l-25 -121h122v-120h-148l-37 -176h-120l37 176h-147l-37 -176h-120l37 176h-71z" />
    <glyph glyph-name="dollar" unicode="$" horiz-adv-x="615" 
d="M278 109v159q-239 59 -239 209q0 94 75 148q66 48 164 49v24h67v-27q105 -12 190 -65v-153q-110 87 -190 100v-142q106 -27 161 -67q78 -57 78 -148q0 -96 -74 -150q-63 -47 -165 -54v-67h-67v67q-117 5 -211 44v145q112 -66 211 -72zM345 253v-143q91 9 91 68
q0 53 -91 75zM278 426v134q-35 0 -60 -14q-31 -16 -31 -49q0 -49 91 -71z" />
    <glyph glyph-name="percent" unicode="%" horiz-adv-x="917" 
d="M540 176q0 81 49 130.5t130 49.5t129.5 -49.5t48.5 -130.5t-48.5 -130.5t-129.5 -49.5t-130 49.5t-49 130.5zM661 176q0 -80 58 -80q57 0 57 80t-57 80q-58 0 -58 -80zM19 511q0 81 49 130.5t130 49.5t129.5 -49.5t48.5 -130.5t-48.5 -130.5t-129.5 -49.5t-130 49.5
t-49 130.5zM140 511q0 -80 58 -80q57 0 57 80t-57 80q-58 0 -58 -80zM196 -24l411 731h107l-410 -731h-108z" />
    <glyph glyph-name="ampersand" unicode="&#x26;" horiz-adv-x="844" 
d="M619 352h172q-55 -105 -133 -170q55 -45 91 -45q34 0 59 24l15 -14q-56 -72 -80 -96q-59 -60 -105 -60q-41 0 -116 71q-102 -71 -232 -71q-96 0 -158 40q-73 46 -73 137q0 111 142 184q-83 76 -83 151q0 92 80 144q69 44 166 44q89 0 151 -41q73 -47 73 -131
q0 -108 -121 -159l91 -86q28 25 61 78zM424 154l-131 112q-59 -29 -59 -80q0 -34 26 -55t61 -21q50 0 103 44zM376 438q73 34 73 81q0 30 -22.5 47t-53.5 17q-28 0 -48 -13q-24 -16 -24 -42q0 -39 75 -90z" />
    <glyph glyph-name="quotesingle" unicode="'" horiz-adv-x="281" 
d="M42 716h198v-118l-32 -145h-134l-32 145v118z" />
    <glyph glyph-name="parenleft" unicode="(" horiz-adv-x="458" 
d="M46 233q0 249 276 458h156q-108 -108 -161 -207q-63 -119 -63 -251q0 -237 224 -461h-156q-276 209 -276 461z" />
    <glyph glyph-name="parenright" unicode=")" horiz-adv-x="458" 
d="M412 233q0 -252 -276 -461h-156q224 224 224 461q0 132 -63 251q-53 99 -161 207h156q276 -209 276 -458z" />
    <glyph glyph-name="asterisk" unicode="*" horiz-adv-x="635" 
d="M288 472v0l-39 102q-25 65 -25 81q0 36 94 36q42 0 56 -3q36 -7 36 -34q0 -21 -18 -67l-45 -115q14 -6 24 -18l104 80q43 33 61 33q27 0 47 -58q16 -48 16 -85q0 -36 -68 -31l-144 10q-2 -17 -10 -31l100 -67q64 -43 64 -60q0 -24 -51.5 -62t-77.5 -38q-22 0 -41 70
l-35 126q-8 -1 -18 -1q-11 0 -19 1l-34 -126q-19 -70 -40 -70q-25 0 -78 38t-53 61q0 18 37 43l128 85q-9 17 -10 31l-140 -10q-73 -5 -73 31q0 37 17 85q21 58 47 58q16 0 48 -24l117 -89q8 11 23 18z" />
    <glyph glyph-name="plus" unicode="+" horiz-adv-x="667" 
d="M56 405h208v208h139v-208h208v-139h-208v-208h-139v208h-208v139z" />
    <glyph glyph-name="comma" unicode="," horiz-adv-x="365" 
d="M20 -177v17q103 50 120 146q-43 12 -69 43t-26 74q0 53 36 88.5t89 35.5q67 0 107 -47.5t40 -115.5q0 -115 -93 -184q-86 -62 -204 -57z" />
    <glyph glyph-name="hyphen" unicode="-" horiz-adv-x="448" 
d="M34 174v181h380v-181h-380z" />
    <glyph glyph-name="hyphen" unicode="&#x2010;" horiz-adv-x="448" 
d="M34 174v181h380v-181h-380z" />
    <glyph glyph-name="period" unicode="." horiz-adv-x="365" 
d="M183 236q51 0 86.5 -35.5t35.5 -86.5t-35.5 -87t-86.5 -36t-87 36t-36 87t36 86.5t87 35.5z" />
    <glyph glyph-name="slash" unicode="/" horiz-adv-x="281" 
d="M154 682h141l-169 -832h-140z" />
    <glyph glyph-name="zero" unicode="0" horiz-adv-x="677" 
d="M46 341q0 148 71 243q79 107 222 107q142 0 221 -107q71 -96 71 -243t-71 -243q-79 -107 -221 -107q-143 0 -222 107q-71 95 -71 243zM235 341q0 -179 104 -179q103 0 103 179t-103 179q-104 0 -104 -179z" />
    <glyph glyph-name="one" unicode="1" horiz-adv-x="677" 
d="M226 0v682h226v-682h-226z" />
    <glyph glyph-name="two" unicode="2" horiz-adv-x="677" 
d="M617 167v-167h-561v10q180 177 229 240q66 85 66 157q0 49 -31.5 80t-80.5 31q-81 0 -150 -92v181q61 45 107 63q55 21 123 21q121 0 187 -76q53 -61 53 -145q0 -146 -163 -303h221z" />
    <glyph glyph-name="three" unicode="3" horiz-adv-x="677" 
d="M124 518v136q82 37 175 37q100 0 167 -45q78 -53 78 -148t-90 -146q100 -50 100 -159q0 -94 -69 -150q-64 -52 -161 -52q-110 0 -213 56v163q75 -61 136 -61q37 0 60 18q27 20 27 55q0 38 -31 58q-27 17 -67 17q-20 0 -47 -4v117q13 -1 26 -1q46 0 78 15q43 20 43 60
q0 35 -32 55q-27 16 -65 16q-58 0 -115 -37z" />
    <glyph glyph-name="four" unicode="4" horiz-adv-x="677" 
d="M325 0v137h-289v154l305 398h192v-426h112v-126h-112v-137h-208zM131 263h194v253h-2z" />
    <glyph glyph-name="five" unicode="5" horiz-adv-x="677" 
d="M590 682v-158h-191l-29 -121q88 -3 139 -52.5t51 -137.5q0 -112 -79 -170q-71 -52 -187 -52q-99 0 -193 31v151q61 -18 106 -18q113 0 113 76q0 43 -37 64q-31 17 -77 17q-38 0 -79 -10l91 380h372z" />
    <glyph glyph-name="six" unicode="6" horiz-adv-x="677" 
d="M428 691l182 -120q-129 -31 -203 -103q98 -8 161 -65q66 -61 66 -157q0 -97 -63 -168q-78 -87 -224 -87q-135 0 -217 76.5t-82 210.5q0 155 115 273q108 111 265 140zM445 246q0 47 -28 74.5t-75 27.5q-46 0 -75.5 -28t-29.5 -74q0 -45 29 -71t75 -26q45 0 74.5 26
t29.5 71z" />
    <glyph glyph-name="seven" unicode="7" horiz-adv-x="677" 
d="M98 0l257 515h-282v167h610v-14l-334 -668h-251z" />
    <glyph glyph-name="eight" unicode="8" horiz-adv-x="677" 
d="M165 347q-102 50 -102 152q0 103 92 153q72 39 185 39q111 0 184 -40q91 -50 91 -152q0 -101 -103 -152q117 -38 117 -155q0 -109 -95 -160q-75 -41 -195 -41t-194 40q-96 52 -96 161q0 117 116 155zM339 111q41 0 71 26.5t30 67.5q0 94 -101 94q-45 0 -73 -24.5
t-28 -69.5q0 -41 29.5 -67.5t71.5 -26.5zM429 492q0 40 -25 64t-65 24q-41 0 -65.5 -23.5t-24.5 -64.5q0 -40 25 -64t65 -24q39 0 64.5 24.5t25.5 63.5z" />
    <glyph glyph-name="nine" unicode="9" horiz-adv-x="677" 
d="M292 -9l-236 125q149 32 223 115q-98 10 -161 67q-68 61 -68 157q0 113 90 178q80 58 198 58q132 0 214 -73q84 -76 84 -206q0 -140 -107 -259q-94 -105 -237 -162zM239 437q0 -44 29 -72.5t73 -28.5t75 29t31 73q0 43 -30.5 69t-74.5 26t-73.5 -26.5t-29.5 -69.5z" />
    <glyph glyph-name="colon" unicode=":" horiz-adv-x="365" 
d="M183 560q51 0 86.5 -35.5t35.5 -86.5t-35.5 -87t-86.5 -36t-87 36t-36 87t36 86.5t87 35.5zM183 236q51 0 86.5 -35.5t35.5 -86.5t-35.5 -87t-86.5 -36t-87 36t-36 87t36 86.5t87 35.5z" />
    <glyph glyph-name="semicolon" unicode=";" horiz-adv-x="365" 
d="M20 -177v17q103 50 120 146q-43 12 -69 43t-26 74q0 53 36 88.5t89 35.5q67 0 107 -47.5t40 -115.5q0 -115 -93 -184q-86 -62 -204 -57zM183 560q51 0 86.5 -35.5t35.5 -86.5t-35.5 -87t-86.5 -36t-87 36t-36 87t36 86.5t87 35.5z" />
    <glyph glyph-name="less" unicode="&#x3c;" horiz-adv-x="667" 
d="M56 272v126l554 230v-150l-363 -143l363 -143v-150z" />
    <glyph glyph-name="equal" unicode="=" horiz-adv-x="667" 
d="M56 287h555v-139h-555v139zM56 524h555v-139h-555v139z" />
    <glyph glyph-name="greater" unicode="&#x3e;" horiz-adv-x="667" 
d="M611 272l-554 -230v150l363 143l-363 143v150l554 -230v-126z" />
    <glyph glyph-name="question" unicode="?" horiz-adv-x="396" 
d="M78 114q0 85 86 117q-38 36 -38 75q0 23 17 66t17 65q0 32 -25 50q-23 15 -56 15q-23 0 -56 -10l59 180q54 19 104 19q74 0 122 -40q52 -42 52 -114q0 -52 -38 -102q-23 -29 -70 -86q-38 -47 -38 -84q0 -26 21 -34q35 -13 51 -29q36 -36 36 -88q0 -51 -35.5 -87
t-86.5 -36t-86.5 36t-35.5 87z" />
    <glyph glyph-name="at" unicode="@" horiz-adv-x="740" 
d="M565 506l-61 -386q-6 -38 17 -38q41 0 87 54q60 71 60 187q0 127 -72.5 202.5t-199.5 75.5q-150 0 -239 -105q-85 -98 -85 -251q0 -150 83 -243q86 -98 234 -98q137 0 253 91h110q-61 -79 -160.5 -126t-200.5 -47q-177 0 -291 124q-112 121 -112 299q0 164 90 287
q112 152 318 152q162 0 259 -99.5t97 -261.5q0 -150 -99 -245q-81 -78 -164 -78q-59 0 -76 58q-59 -58 -117 -58q-79 0 -122 68q-37 58 -37 142q0 108 50 201q60 112 159 112q65 0 115 -72l9 55h95zM245 183q0 -106 67 -106q69 0 99 130q16 70 16 141q0 91 -64 91
q-63 0 -95 -103q-23 -72 -23 -153z" />
    <glyph glyph-name="A" unicode="A" horiz-adv-x="896" 
d="M12 0l311 682h250l311 -682h-237l-45 111h-308l-45 -111h-237zM343 234h209l-104 270z" />
    <glyph glyph-name="B" unicode="B" horiz-adv-x="781" 
d="M72 0v682h399q93 0 152 -36q73 -43 73 -129q0 -95 -107 -142q147 -52 147 -181q0 -88 -60.5 -141t-149.5 -53h-454zM311 104h72q122 0 122 99q0 92 -116 92h-78v-191zM311 399h69q108 0 108 90q0 89 -108 89h-69v-179z" />
    <glyph glyph-name="C" unicode="C" horiz-adv-x="760" 
d="M687 233v-182q-106 -60 -254 -60q-196 0 -298 115q-85 95 -85 232q0 166 116 263q109 90 279 90q135 0 236 -46v-199q-99 63 -198 63q-85 0 -137 -41q-57 -44 -57 -127q0 -82 58 -127q53 -41 138 -41q95 0 202 60z" />
    <glyph glyph-name="D" unicode="D" horiz-adv-x="833" 
d="M73 0v682h342q182 0 284 -116q86 -98 86 -234q0 -132 -76 -224q-90 -108 -251 -108h-385zM312 162h63q171 0 171 179q0 83 -43.5 131t-126.5 48h-64v-358z" />
    <glyph glyph-name="E" unicode="E" horiz-adv-x="635" 
d="M72 0v682h511v-144h-272v-120h249v-144h-249v-130h276v-144h-515z" />
    <glyph glyph-name="F" unicode="F" horiz-adv-x="603" 
d="M71 0v682h498v-144h-259v-124h243v-144h-243v-270h-239z" />
    <glyph glyph-name="G" unicode="G" horiz-adv-x="781" 
d="M713 386v-364q-135 -32 -268 -32q-200 0 -308 116q-88 94 -88 227q0 169 125 268q114 90 288 90q123 0 238 -46v-171q-107 58 -203 58q-91 0 -150 -52t-59 -142q0 -86 55 -134q52 -46 139 -46q23 0 48 4v80h-85v144h268z" />
    <glyph glyph-name="H" unicode="H" horiz-adv-x="885" 
d="M72 0v682h239v-248h263v248h239v-682h-239v258h-263v-258h-239z" />
    <glyph glyph-name="I" unicode="I" horiz-adv-x="385" 
d="M73 0v682h239v-682h-239z" />
    <glyph glyph-name="J" unicode="J" horiz-adv-x="406" 
d="M329 682v-647q0 -105 -31 -164q-52 -99 -182 -99q-49 0 -80 8l-91 199q19 -3 44 -3q22 0 48.5 9.5t36.5 25.5q16 26 16 79v592h239z" />
    <glyph glyph-name="K" unicode="K" horiz-adv-x="833" 
d="M74 0v682h239v-309l273 309h251l-278 -317l288 -365h-285l-247 319h-2v-319h-239z" />
    <glyph glyph-name="L" unicode="L" horiz-adv-x="583" 
d="M73 0v682h239v-511h268v-171h-507z" />
    <glyph glyph-name="M" unicode="M" horiz-adv-x="979" 
d="M305 366l6 -366h-239v682h214l204 -276l204 276h214v-682h-239l6 366l-2 2l-183 -250l-183 250z" />
    <glyph glyph-name="N" unicode="N" horiz-adv-x="927" 
d="M75 0v682h204l345 -350l-13 350h242v-682h-204l-345 350l13 -350h-242z" />
    <glyph glyph-name="O" unicode="O" horiz-adv-x="833" 
d="M46 341q0 163 105 258q101 92 266 92q164 0 266 -92q105 -96 105 -258t-105 -258q-102 -92 -266 -92q-165 0 -266 92q-105 95 -105 258zM285 341q0 -66 33 -106q35 -44 99 -44t99 44q33 40 33 106t-33 106q-35 44 -99 44t-99 -44q-33 -40 -33 -106z" />
    <glyph glyph-name="P" unicode="P" horiz-adv-x="689" 
d="M70 0v682h352q116 0 188 -48q83 -57 83 -167q0 -115 -88 -174q-75 -50 -196 -50h-100v-243h-239zM309 370h59q105 0 105 94q0 91 -106 91h-58v-185z" />
    <glyph glyph-name="Q" unicode="Q" horiz-adv-x="854" 
d="M859 -47l-156 -144q-83 19 -202 67q-107 45 -193 92q-261 144 -261 376q0 139 88 235q103 112 288 112q168 0 274 -92q111 -97 111 -261q0 -190 -176 -292q118 -61 227 -93zM286 337q0 -65 39 -107.5t103 -42.5q66 0 103.5 42.5t37.5 109.5t-39 109.5t-105 42.5
t-102.5 -43.5t-36.5 -110.5z" />
    <glyph glyph-name="R" unicode="R" horiz-adv-x="813" 
d="M73 0v682h389q110 0 179 -42q84 -50 84 -153q0 -110 -110 -158q35 -15 61 -52q20 -28 51 -97l81 -180h-235l-43 101q-35 83 -56 114q-45 70 -97 70h-65v-285h-239zM312 390h65q122 0 122 92q0 90 -117 90h-70v-182z" />
    <glyph glyph-name="S" unicode="S" horiz-adv-x="573" 
d="M50 38v185q100 -68 186 -68q68 0 68 47q0 27 -66 62q-91 49 -122 76q-66 59 -66 146q0 97 73 154q67 51 168 51q118 0 215 -73v-180q-96 89 -170 89q-66 0 -66 -47q0 -32 68 -68q102 -55 127 -76q68 -58 68 -142q0 -99 -76 -154q-68 -49 -171 -49q-135 0 -236 47z" />
    <glyph glyph-name="T" unicode="T" horiz-adv-x="719" 
d="M240 511h-213v171h665v-171h-213v-511h-239v511z" />
    <glyph glyph-name="U" unicode="U" horiz-adv-x="833" 
d="M782 682v-369q0 -161 -102 -245q-94 -77 -259 -77q-161 0 -258 66q-112 78 -112 231v394h239v-364q0 -64 30 -101q33 -41 95 -41q65 0 98 46q30 40 30 108v352h239z" />
    <glyph glyph-name="V" unicode="V" horiz-adv-x="802" 
d="M300 0l-287 682h258l153 -424h2l146 424h218l-283 -682h-207z" />
    <glyph glyph-name="W" unicode="W" horiz-adv-x="979" 
d="M253 0l-240 682h224l79 -306h2l85 306h173l90 -306h2l74 306h224l-231 -682h-143l-100 338h-2l-94 -338h-143z" />
    <glyph glyph-name="X" unicode="X" horiz-adv-x="917" 
d="M27 0l294 338l-283 344h298l139 -202l146 202h263l-280 -322l298 -360h-298l-153 216l-161 -216h-263z" />
    <glyph glyph-name="Y" unicode="Y" horiz-adv-x="802" 
d="M281 0v304l-265 378h285l130 -226l127 226h234l-272 -387v-295h-239z" />
    <glyph glyph-name="Z" unicode="Z" horiz-adv-x="781" 
d="M36 0l349 520h-358v162h731l-349 -520h336v-162h-709z" />
    <glyph glyph-name="bracketleft" unicode="[" horiz-adv-x="438" 
d="M83 -228v919h354v-120h-146v-679h146v-120h-354z" />
    <glyph glyph-name="backslash" unicode="\" horiz-adv-x="281" 
d="M127 682l168 -832h-140l-169 832h141z" />
    <glyph glyph-name="bracketright" unicode="]" horiz-adv-x="438" 
d="M355 -228h-354v120h146v679h-146v120h354v-919z" />
    <glyph glyph-name="asciicircum" unicode="^" horiz-adv-x="656" 
d="M260 728h136l200 -397h-173l-95 240l-94 -240h-173z" />
    <glyph glyph-name="underscore" unicode="_" horiz-adv-x="500" 
d="M-6 -75h512v-50h-512v50z" />
    <glyph glyph-name="grave" unicode="`" horiz-adv-x="333" 
d="M263 584h-109l-198 163h216z" />
    <glyph glyph-name="a" unicode="a" horiz-adv-x="625" 
d="M613 134l-38 -141q-29 -2 -51 -2q-100 0 -136 51q-75 -51 -173 -51q-70 0 -115 29q-53 34 -53 100q0 50 40 90q30 30 135 58q111 30 136 49q-1 38 -24 53q-18 12 -59 12q-92 0 -211 -90v155q110 90 249 90q99 0 162 -41q75 -48 75 -142v-150q0 -42 11 -55.5t52 -14.5z
M358 154v75q-17 -12 -71 -29q-49 -15 -65.5 -32t-16.5 -40q0 -25 17 -42t42 -17q53 0 99 36q-5 15 -5 49z" />
    <glyph glyph-name="b" unicode="b" horiz-adv-x="708" 
d="M64 0v682h208v-167q59 22 120 22q120 0 198 -77.5t78 -197.5q0 -116 -77 -189t-195 -73h-332zM272 357v-182q38 -7 67 -7q51 0 84 24q37 27 37 76q0 47 -33 74t-82 27q-36 0 -73 -12z" />
    <glyph glyph-name="c" unicode="c" horiz-adv-x="552" 
d="M507 195v-171q-91 -33 -168 -33q-127 0 -211 70q-89 75 -89 200q0 127 84 203q82 73 210 73q89 0 170 -27v-175q-68 31 -132 31q-51 0 -86 -25q-38 -29 -38 -78q0 -50 42 -77q36 -24 88 -24t130 33z" />
    <glyph glyph-name="d" unicode="d" 
d="M641 682v-682h-333q-122 0 -195 73t-73 195q0 121 73.5 195t194.5 74q62 0 125 -22v167h208zM433 180v175q-42 11 -74 11q-48 0 -79.5 -26.5t-31.5 -73.5t37 -73q33 -22 82 -22q26 0 66 9z" />
    <glyph glyph-name="e" unicode="e" horiz-adv-x="615" 
d="M543 180l38 -86q-89 -103 -244 -103q-127 0 -211 73q-89 77 -89 202q0 117 78 194t195 77q116 0 191.5 -76.5t75.5 -192.5q0 -21 -3 -43h-345q1 -48 51 -78q43 -27 94 -27q82 0 169 60zM221 303h182q-2 118 -91 118q-50 0 -74 -35q-20 -31 -17 -83z" />
    <glyph glyph-name="f" unicode="f" horiz-adv-x="417" 
d="M95 0v331h-81v132h81v31q0 96 59 148q55 49 153 49q46 0 90 -11v-138q-21 7 -35 7q-59 0 -59 -71v-15h90v-132h-90v-331h-208z" />
    <glyph glyph-name="g" unicode="g" horiz-adv-x="604" 
d="M588 537v-113h-79q32 -47 32 -102q0 -67 -48 -115q-36 -36 -80 -48q-26 -5 -52 -11q-36 -10 -36 -27q0 -18 37 -26q28 -5 83 -16q52 -12 87 -47q39 -39 39 -92q0 -92 -101 -137q-76 -34 -181 -34q-258 0 -258 134q0 49 42 82q37 29 89 36v2q-44 19 -44 62q0 49 62 72
q-128 49 -128 171q0 105 92 162q77 47 189 47h255zM210 331q0 -34 25.5 -54.5t59.5 -20.5q36 0 62 21t26 56t-25.5 55t-61.5 20q-35 0 -60.5 -21t-25.5 -56zM197 -82q0 -68 100 -68q107 0 107 65q0 38 -36 58q-29 16 -71 16q-39 0 -67 -16q-33 -19 -33 -55z" />
    <glyph glyph-name="h" unicode="h" horiz-adv-x="677" 
d="M60 0v682h208v-221q70 76 169 76q90 0 135.5 -51.5t45.5 -142.5v-343h-208v288q0 78 -61 78q-44 0 -81 -52v-314h-208z" />
    <glyph glyph-name="i" unicode="i" horiz-adv-x="333" 
d="M63 0v528h208v-528h-208zM167 706q29 0 49.5 -20.5t20.5 -49.5t-20.5 -49.5t-49.5 -20.5t-49.5 20.5t-20.5 49.5t20.5 49.5t49.5 20.5z" />
    <glyph glyph-name="j" unicode="j" horiz-adv-x="333" 
d="M272 528v-566q0 -91 -59 -148.5t-149 -49.5l-71 132q44 18 59 44q12 23 12 74v514h208zM168 706q29 0 49.5 -20.5t20.5 -49.5t-20.5 -49.5t-49.5 -20.5t-49.5 20.5t-20.5 49.5t20.5 49.5t49.5 20.5z" />
    <glyph glyph-name="k" unicode="k" horiz-adv-x="708" 
d="M61 0v682h208v-336l171 182h257l-221 -225l252 -303h-261l-196 244h-2v-244h-208z" />
    <glyph glyph-name="l" unicode="l" horiz-adv-x="333" 
d="M63 0v682h208v-682h-208z" />
    <glyph glyph-name="m" unicode="m" horiz-adv-x="1010" 
d="M61 0v528h208v-70q72 79 165 79q103 0 159 -94q82 94 188 94q84 0 130 -59q42 -53 42 -140v-338h-208v303q0 63 -55 63q-47 0 -79 -54v-312h-208v299q0 67 -58 67q-42 0 -76 -54v-312h-208z" />
    <glyph glyph-name="n" unicode="n" horiz-adv-x="677" 
d="M61 0v528h208v-69q79 78 170 78q87 0 134 -50t47 -138v-349h-208v289q0 77 -60 77q-49 0 -83 -57v-309h-208z" />
    <glyph glyph-name="o" unicode="o" 
d="M38 264q0 130 92 204q85 69 219 69t219 -69q92 -74 92 -204q0 -129 -92 -204q-85 -69 -217 -69q-134 0 -220 69q-93 74 -93 204zM246 264q0 -46 28.5 -74t74.5 -28t74.5 28t28.5 74t-28.5 74t-74.5 28t-74.5 -28t-28.5 -74z" />
    <glyph glyph-name="p" unicode="p" 
d="M263 528v-51q73 60 154 60q109 0 177 -82q64 -77 64 -188q0 -122 -74.5 -199t-196.5 -77q-64 0 -124 23v-242h-208v756h208zM263 350v-171q43 -17 78 -17q48 0 78.5 29.5t30.5 77.5t-30.5 76t-78.5 28q-36 0 -78 -23z" />
    <glyph glyph-name="q" unicode="q" horiz-adv-x="699" 
d="M639 528v-756h-208v242q-59 -23 -125 -23q-120 0 -194 75t-74 196q0 118 72 192t189 74h340zM431 173v173q-35 11 -71 11q-50 0 -82 -25.5t-32 -74.5q0 -46 32 -70.5t79 -24.5q35 0 74 11z" />
    <glyph glyph-name="r" unicode="r" horiz-adv-x="542" 
d="M62 528h188v-141h2q56 150 169 150q58 0 128 -41l-92 -210q-47 44 -89 44q-40 0 -67 -37q-23 -30 -31 -74v-219h-208v528z" />
    <glyph glyph-name="s" unicode="s" horiz-adv-x="500" 
d="M442 494v-139q-87 53 -145 53q-49 0 -49 -36q0 -27 60 -49q80 -29 114 -63q47 -47 47 -109q0 -61 -44 -105q-55 -55 -159 -55q-138 0 -226 51v150q96 -72 166 -72q55 0 55 41q0 25 -57 52q-84 40 -107 57q-57 44 -57 112q0 81 69 122q57 33 144 33q100 0 189 -43z" />
    <glyph glyph-name="t" unicode="t" horiz-adv-x="531" 
d="M485 209v-159q-80 -59 -182 -59q-108 0 -164 56q-41 41 -41 140v209h-92v65l253 225h47v-158h167v-132h-167v-158q0 -70 62 -70q54 0 117 41z" />
    <glyph glyph-name="u" unicode="u" 
d="M610 528v-334q0 -58 46 -58q14 0 32 6l-54 -142q-41 -9 -90 -9q-56 0 -86 18q-34 21 -48 73q-73 -91 -180 -91q-90 0 -136 56q-44 52 -44 144v337h208v-286q0 -80 62 -80q44 0 82 54v312h208z" />
    <glyph glyph-name="v" unicode="v" horiz-adv-x="656" 
d="M246 0l-234 528h223l110 -281l111 281h189l-228 -528h-171z" />
    <glyph glyph-name="w" unicode="w" horiz-adv-x="927" 
d="M209 0l-197 528h212l81 -258h2l95 258h133l94 -258h2l76 258h208l-185 -528h-154l-107 293l-108 -293h-152z" />
    <glyph glyph-name="x" unicode="x" horiz-adv-x="688" 
d="M30 0l200 251l-209 277h258l85 -136l87 136h209l-194 -245l214 -283h-259l-90 149l-92 -149h-209z" />
    <glyph glyph-name="y" unicode="y" horiz-adv-x="635" 
d="M71 -228l149 305l-209 451h224l97 -259l106 259h195l-365 -756h-197z" />
    <glyph glyph-name="z" unicode="z" horiz-adv-x="615" 
d="M25 0l233 371h-216v157h539v-17l-229 -354h221v-157h-548z" />
    <glyph glyph-name="braceleft" unicode="{" horiz-adv-x="385" 
d="M12 315q95 -8 95 111v88q0 106 51 148q46 37 154 37h65v-160h-21q-45 0 -60 -27q-12 -21 -12 -70q0 -103 -15 -143q-18 -47 -72 -67q61 -23 78 -86q9 -32 9 -123q0 -49 12 -70q15 -29 60 -29h21v-160h-65q-108 0 -154 37q-51 42 -51 148v90q0 118 -95 110v166z" />
    <glyph glyph-name="bar" unicode="|" horiz-adv-x="635" 
d="M248 750h140v-1000h-140v1000z" />
    <glyph glyph-name="braceright" unicode="}" horiz-adv-x="385" 
d="M373 315v-166q-95 8 -95 -110v-90q0 -106 -51 -148q-46 -37 -154 -37h-65v160h21q45 0 60 29q12 21 12 70q0 91 9 123q17 63 78 86q-54 20 -72 67q-15 40 -15 143q0 49 -12 70q-15 27 -60 27h-21v160h65q108 0 154 -37q51 -42 51 -148v-88q0 -119 95 -111z" />
    <glyph glyph-name="asciitilde" unicode="~" horiz-adv-x="656" 
d="M604 458v0v-141q-82 -73 -157 -73q-45 0 -129.5 40t-114.5 40q-75 0 -152 -77v142q81 71 162 71q45 0 127.5 -40t116.5 -40q65 0 147 78z" />
    <glyph glyph-name="euro" horiz-adv-x="498" 
d="M522 633l-23 -156l-48 6q0 157 -94 157q-103 0 -161 -211h172l-21 -48h-164q-6 -24 -16 -73h147l-21 -47h-134q-6 -41 -6 -74q0 -56 21 -91q26 -43 78 -43q58 0 101 68q24 38 51 119l55 -10l-54 -188q-77 -53 -159 -53q-111 0 -166 84q-47 71 -47 188h-74l21 47h56
q3 25 12 73h-66l21 48h59q41 112 108 183q83 88 187 88q94 0 165 -67z" />
    <glyph glyph-name="exclamdown" unicode="&#xa1;" horiz-adv-x="365" 
d="M182 537q51 0 86.5 -36t35.5 -87q0 -87 -90 -118q90 -176 90 -293q0 -61 -30 -109q-34 -57 -92 -57t-92 57q-30 48 -30 109q0 117 90 293q-90 31 -90 118q0 51 35.5 87t86.5 36z" />
    <glyph glyph-name="cent" unicode="&#xa2;" horiz-adv-x="552" 
d="M296 -7l-58 -185h-49l61 192q-96 23 -153.5 93t-57.5 168q0 126 85 202q82 74 210 74q41 0 83 -7l43 136h49l-46 -145q22 -4 40 -11v-175q-47 22 -90 28l-63 -199q13 -3 28 -3q55 0 129 34v-171q-91 -33 -166 -33q-21 0 -45 2zM305 177l60 189q-49 -2 -82 -27
q-36 -29 -36 -76q0 -57 58 -86z" />
    <glyph glyph-name="sterling" unicode="&#xa3;" horiz-adv-x="615" 
d="M573 167l-27 -167h-505q37 145 79 281h-80v140h126q87 270 323 270q22 0 37 -2l62 -177q-32 8 -52 8q-95 0 -133 -99h91v-140h-137l-33 -114h249z" />
    <glyph glyph-name="currency" unicode="&#xa4;" horiz-adv-x="667" 
d="M333 570q69 0 113 -30l68 68l91 -91l-68 -68q30 -48 30 -113q0 -63 -30 -113l68 -68l-91 -91l-67 67q-53 -29 -114 -29q-62 0 -113 30l-68 -68l-91 91l68 68q-30 45 -30 113q0 70 30 113l-68 68l91 91l68 -68q45 30 113 30zM333 442q-44 0 -75 -31t-31 -75t31 -75t75 -31
t75 31t31 75t-31 75t-75 31z" />
    <glyph glyph-name="yen" unicode="&#xa5;" horiz-adv-x="729" 
d="M254 106h-219v80h219v79h-219v80h190l-210 337h257l117 -225l114 225h211l-214 -337h188v-80h-219v-79h219v-80h-219v-106h-215v106z" />
    <glyph glyph-name="brokenbar" unicode="&#xa6;" horiz-adv-x="635" 
d="M248 175h140v-350h-140v350zM248 675h140v-350h-140v350z" />
    <glyph glyph-name="section" unicode="&#xa7;" horiz-adv-x="646" 
d="M119 430q-35 48 -35 98q0 86 76 129q62 35 155 35q82 0 153 -28q94 -38 94 -109q0 -32 -24 -51.5t-56 -19.5q-65 0 -83 63q-8 25 -16 33q-20 20 -64 20q-30 0 -53 -13q-28 -16 -28 -44q0 -35 54 -58q41 -16 122 -49q192 -81 192 -230q0 -101 -74 -170q31 -45 31 -96
q0 -94 -82 -137q-64 -34 -167 -34q-81 0 -146 26q-87 36 -87 105q0 35 28 55q25 18 61 18q73 0 77 -62q1 -24 9 -32q18 -18 67 -18q32 0 56 12q30 15 30 44q0 37 -54 62q-41 17 -123 53q-192 85 -192 238q0 88 79 160zM457 97q26 30 26 61q0 44 -56 83q-34 24 -114 60
t-115 62q-29 -29 -29 -53q0 -44 44 -78q28 -22 109 -61q88 -43 135 -74z" />
    <glyph glyph-name="dieresis" unicode="&#xa8;" horiz-adv-x="333" 
d="M290 747q29 0 49.5 -20.5t20.5 -49.5t-20.5 -50t-49.5 -21t-50 21t-21 50t21 49.5t50 20.5zM45 747q29 0 49.5 -20.5t20.5 -49.5t-20.5 -50t-49.5 -21t-50 21t-21 50t21 49.5t50 20.5z" />
    <glyph glyph-name="copyright" unicode="&#xa9;" horiz-adv-x="740" 
d="M457 311l100 -24q-43 -141 -185 -141q-93 0 -148 59t-55 152q0 91 57 150t147 59q68 0 116 -34q50 -37 64 -101l-96 -15q-18 78 -89 78q-48 0 -72 -47q-18 -36 -18 -90q0 -139 91 -139q69 0 88 93zM-3 356q0 156 108.5 264.5t264.5 108.5t264.5 -108.5t108.5 -264.5
q0 -155 -109 -263.5t-264 -108.5t-264 108.5t-109 263.5zM69 356q0 -125 88 -212.5t213 -87.5t213 87.5t88 212.5q0 126 -87.5 213.5t-213.5 87.5t-213.5 -87.5t-87.5 -213.5z" />
    <glyph glyph-name="ordfeminine" unicode="&#xaa;" horiz-adv-x="396" 
d="M399 452l-29 -97q-20 -1 -35 -1q-56 0 -92 28q-55 -28 -108 -28q-45 0 -75 17q-36 21 -36 63q0 41 36 64q22 14 78 28q62 16 83 26q0 33 -48 33q-56 0 -140 -58v107q76 57 165 57q158 0 158 -116v-88q0 -25 8 -30.5t35 -4.5zM221 458v33q-25 -8 -51 -16q-34 -14 -34 -33
q0 -30 38 -30q18 0 50 16q-3 13 -3 30z" />
    <glyph glyph-name="guillemotleft" unicode="&#xab;" horiz-adv-x="708" 
d="M525 262l150 -262h-179l-149 262l149 262h179zM225 262l150 -262h-179l-149 262l149 262h179z" />
    <glyph glyph-name="logicalnot" unicode="&#xac;" horiz-adv-x="667" 
d="M56 524h555v-376h-139v237h-416v139z" />
    <glyph glyph-name="sfthyphen" unicode="&#xad;" horiz-adv-x="338" 
d="M8 174l33 122h246l-33 -122h-246z" />
    <glyph glyph-name="registered" unicode="&#xae;" horiz-adv-x="740" 
d="M547 158h-100l-33 64q-51 99 -105 99h-27v-163h-81v397h200q53 0 87.5 -29t34.5 -82q0 -48 -29.5 -76.5t-77.5 -34.5v-2q29 -10 50 -38q7 -9 34 -55zM282 384h78q78 0 78 55q0 54 -83 54h-73v-109zM-3 356q0 156 108.5 264.5t264.5 108.5t264.5 -108.5t108.5 -264.5
q0 -155 -109 -263.5t-264 -108.5t-264 108.5t-109 263.5zM69 356q0 -125 88 -212.5t213 -87.5t213 87.5t88 212.5q0 126 -87.5 213.5t-213.5 87.5t-213.5 -87.5t-87.5 -213.5z" />
    <glyph glyph-name="macron" unicode="&#xaf;" horiz-adv-x="333" 
d="M-24 661v78h382v-78h-382z" />
    <glyph glyph-name="macron" unicode="&#x2c9;" horiz-adv-x="333" 
d="M-24 661v78h382v-78h-382z" />
    <glyph glyph-name="degree" unicode="&#xb0;" horiz-adv-x="396" 
d="M198 729q58 0 99 -41t41 -99t-41 -99t-99 -41t-99 41t-41 99t41 99t99 41zM198 639q-21 0 -35.5 -14.5t-14.5 -35.5t14.5 -35.5t35.5 -14.5t35.5 14.5t14.5 35.5t-14.5 35.5t-35.5 14.5z" />
    <glyph glyph-name="plusminus" unicode="&#xb1;" horiz-adv-x="667" 
d="M56 104h555v-139h-555v139zM56 498h208v208h139v-208h208v-139h-208v-208h-139v208h-208v139z" />
    <glyph glyph-name="twosuperior" unicode="&#xb2;" horiz-adv-x="396" 
d="M368 432v-96h-343v15q116 96 140 121q36 38 36 72q0 22 -19 34.5t-42 12.5q-47 0 -96 -54v109q66 45 141 45q61 0 102 -27q47 -32 47 -90q0 -64 -85 -142h119z" />
    <glyph glyph-name="threesuperior" unicode="&#xb3;" horiz-adv-x="396" 
d="M66 588v83q49 20 108 20q58 0 99 -22q52 -27 52 -80q0 -42 -44 -72q50 -31 50 -79q0 -53 -46 -82q-40 -25 -96 -25q-67 0 -131 30v97q52 -34 86 -34q46 0 46 28q0 30 -53 30q-6 0 -33 -2v72q11 -1 23 -1q63 0 63 30q0 29 -52 29q-32 0 -72 -22z" />
    <glyph glyph-name="acute" unicode="&#xb4;" horiz-adv-x="333" 
d="M70 584l91 163h216l-198 -163h-109z" />
    <glyph glyph-name="mu" unicode="&#xb5;" horiz-adv-x="667" 
d="M59 528h199v-270q0 -106 76 -106q75 0 75 111v265h199v-528h-187v41h-2q-26 -50 -79 -50q-57 0 -80 46h-2v-233h-199v724z" />
    <glyph glyph-name="mu" unicode="&#x3bc;" horiz-adv-x="667" 
d="M59 528h199v-270q0 -106 76 -106q75 0 75 111v265h199v-528h-187v41h-2q-26 -50 -79 -50q-57 0 -80 46h-2v-233h-199v724z" />
    <glyph glyph-name="paragraph" unicode="&#xb6;" horiz-adv-x="854" 
d="M790 716v-155h-65v-760h-145v760h-81v-760h-145v499h-28q-260 0 -260 212q0 100 65 154q61 50 165 50h494z" />
    <glyph glyph-name="ch270" unicode="&#xb7;" horiz-adv-x="249" 
d="M38 348q0 34 23 57t57 23t57.5 -23t23.5 -57t-23.5 -57.5t-57.5 -23.5t-57 23.5t-23 57.5z" />
    <glyph glyph-name="ch270" unicode="&#x2219;" horiz-adv-x="249" 
d="M38 348q0 34 23 57t57 23t57.5 -23t23.5 -57t-23.5 -57.5t-57.5 -23.5t-57 23.5t-23 57.5z" />
    <glyph glyph-name="cedilla" unicode="&#xb8;" horiz-adv-x="333" 
d="M3 -233v79q15 -1 29 -1q78 0 78 39q0 37 -58 35l65 83l102 6l-27 -42q43 -3 71 -24q31 -24 31 -65q0 -61 -61 -91q-46 -23 -114 -23t-116 4z" />
    <glyph glyph-name="onesuperior" unicode="&#xb9;" horiz-adv-x="396" 
d="M125 336v351h145v-351h-145z" />
    <glyph glyph-name="ordmasculine" unicode="&#xba;" horiz-adv-x="448" 
d="M19 523q0 82 62 128q56 41 141 41q86 0 143 -41q64 -45 64 -128q0 -81 -64 -127q-56 -41 -141 -41q-86 0 -142 40q-63 45 -63 128zM166 523q0 -25 16.5 -39.5t41.5 -14.5t41.5 14.5t16.5 39.5q0 24 -17 38.5t-41 14.5t-41 -14.5t-17 -38.5z" />
    <glyph glyph-name="guillemotright" unicode="&#xbb;" horiz-adv-x="708" 
d="M483 262l-150 262h179l149 -262l-149 -262h-179zM183 262l-150 262h179l149 -262l-149 -262h-179z" />
    <glyph glyph-name="onequarter" unicode="&#xbc;" horiz-adv-x="917" 
d="M684 0v68h-170v88l183 199h122v-209h66v-78h-66v-68h-135zM591 146h93v102zM196 -24l411 731h107l-410 -731h-108zM139 336v351h145v-351h-145z" />
    <glyph glyph-name="onehalf" unicode="&#xbd;" horiz-adv-x="917" 
d="M875 96v-96h-343v15q116 96 140 121q36 38 36 72q0 22 -19 34.5t-42 12.5q-47 0 -96 -54v109q66 45 141 45q61 0 102 -27q47 -32 47 -90q0 -64 -85 -142h119zM196 -24l411 731h107l-410 -731h-108zM139 336v351h145v-351h-145z" />
    <glyph glyph-name="threequarters" unicode="&#xbe;" horiz-adv-x="917" 
d="M684 0v68h-170v88l183 199h122v-209h66v-78h-66v-68h-135zM591 146h93v102zM196 -24l411 731h107l-410 -731h-108zM80 588v83q49 20 108 20q58 0 99 -22q52 -27 52 -80q0 -42 -44 -72q50 -31 50 -79q0 -53 -46 -82q-40 -25 -96 -25q-67 0 -131 30v97q52 -34 86 -34
q46 0 46 28q0 30 -53 30q-6 0 -33 -2v72q11 -1 23 -1q63 0 63 30q0 29 -52 29q-32 0 -72 -22z" />
    <glyph glyph-name="questiondown" unicode="&#xbf;" horiz-adv-x="396" 
d="M318 414q0 -85 -86 -117q38 -36 38 -75q0 -23 -17 -66t-17 -65q0 -32 24 -48.5t57 -16.5q23 0 56 10l-59 -180q-54 -19 -104 -19q-74 0 -122 40q-52 42 -52 114q0 52 38 102q23 29 70 86q38 47 38 84q0 26 -21 34q-35 13 -51 29q-36 36 -36 88q0 51 35.5 87t86.5 36
t86.5 -36t35.5 -87z" />
    <glyph glyph-name="Agrave" unicode="&#xc0;" horiz-adv-x="896" 
d="M478 727h-71l-196 156h168zM884 0h-237l-45 111h-308l-45 -111h-237l311 682h250zM552 234l-104 270l-105 -270h209z" />
    <glyph glyph-name="Aacute" unicode="&#xc1;" horiz-adv-x="896" 
d="M12 0l311 682h250l311 -682h-237l-45 111h-308l-45 -111h-237zM343 234h209l-104 270zM418 727l99 156h168l-196 -156h-71z" />
    <glyph glyph-name="Acircumflex" unicode="&#xc2;" horiz-adv-x="896" 
d="M12 0l311 682h250l311 -682h-237l-45 111h-308l-45 -111h-237zM343 234h209l-104 270zM529 852l111 -150h-108l-84 89l-85 -89h-108l112 150h162z" />
    <glyph glyph-name="Atilde" unicode="&#xc3;" horiz-adv-x="896" 
d="M12 0l311 682h250l311 -682h-237l-45 111h-308l-45 -111h-237zM343 234h209l-104 270zM633 869v-79q-61 -56 -108 -56q-27 0 -81 25.5t-72 25.5q-47 0 -106 -57v80q65 54 112 54q26 0 79.5 -25.5t73.5 -25.5q41 0 102 58z" />
    <glyph glyph-name="Adieresis" unicode="&#xc4;" horiz-adv-x="896" 
d="M12 0l311 682h250l311 -682h-237l-45 111h-308l-45 -111h-237zM343 234h209l-104 270zM572 896q29 0 49.5 -20.5t20.5 -49.5t-20.5 -50t-49.5 -21t-50 21t-21 50t21 49.5t50 20.5zM327 896q29 0 49.5 -20.5t20.5 -49.5t-20.5 -50t-49.5 -21t-50 21t-21 50t21 49.5
t50 20.5z" />
    <glyph glyph-name="Aring" unicode="&#xc5;" horiz-adv-x="896" 
d="M12 0l311 682h250l311 -682h-237l-45 111h-308l-45 -111h-237zM343 234h209l-104 270zM449 922q41 0 70 -29t29 -70t-29 -70.5t-70 -29.5t-70.5 29.5t-29.5 70.5t29.5 70t70.5 29zM449 870q-20 0 -33.5 -13.5t-13.5 -33.5t13.5 -34t33.5 -14t34 14t14 34t-14 33.5
t-34 13.5z" />
    <glyph glyph-name="AE" unicode="&#xc6;" horiz-adv-x="1013" 
d="M10 0l358 682h593v-144h-236v-120h214v-144h-214v-130h240v-144h-479v163h-161l-65 -163h-250zM370 278h116v290h-2z" />
    <glyph glyph-name="Ccedilla" unicode="&#xc7;" horiz-adv-x="760" 
d="M266 -81l64 82q-129 24 -204.5 115t-75.5 222q0 166 116 263q109 90 279 90q135 0 236 -46v-199q-99 63 -198 63q-85 0 -137 -41q-57 -44 -57 -127q0 -82 58 -127q53 -41 138 -41q95 0 202 60v-182q-106 -60 -254 -60q-7 0 -11 1l-16 -26q43 -3 71 -24q31 -24 31 -65
q0 -61 -61 -91q-46 -23 -114 -23t-116 4v79q15 -1 29 -1q78 0 78 39q0 37 -58 35z" />
    <glyph glyph-name="Egrave" unicode="&#xc8;" horiz-adv-x="635" 
d="M72 0v682h511v-144h-272v-120h249v-144h-249v-130h276v-144h-515zM294 727l99 156h168l-196 -156h-71z" />
    <glyph glyph-name="Eacute" unicode="&#xc9;" horiz-adv-x="635" 
d="M72 0v682h511v-144h-272v-120h249v-144h-249v-130h276v-144h-515zM294 727l99 156h168l-196 -156h-71z" />
    <glyph glyph-name="Ecircumflex" unicode="&#xca;" horiz-adv-x="635" 
d="M72 0v682h511v-144h-272v-120h249v-144h-249v-130h276v-144h-515zM405 862l111 -150h-108l-84 89l-85 -89h-108l112 150h162z" />
    <glyph glyph-name="Edieresis" unicode="&#xcb;" horiz-adv-x="635" 
d="M72 0v682h511v-144h-272v-120h249v-144h-249v-130h276v-144h-515zM441 896q29 0 49.5 -20.5t20.5 -49.5t-20.5 -50t-49.5 -21t-50 21t-21 50t21 49.5t50 20.5zM196 896q29 0 49.5 -20.5t20.5 -49.5t-20.5 -50t-49.5 -21t-50 21t-21 50t21 49.5t50 20.5z" />
    <glyph glyph-name="Igrave" unicode="&#xcc;" horiz-adv-x="385" 
d="M73 0v682h239v-682h-239zM222 727h-71l-196 156h168z" />
    <glyph glyph-name="Iacute" unicode="&#xcd;" horiz-adv-x="385" 
d="M73 0v682h239v-682h-239zM162 727l99 156h168l-196 -156h-71z" />
    <glyph glyph-name="Icircumflex" unicode="&#xce;" horiz-adv-x="385" 
d="M73 0v682h239v-682h-239zM313 908l73 -167h-120l-73 79l-74 -79h-120l74 167h240z" />
    <glyph glyph-name="Idieresis" unicode="&#xcf;" horiz-adv-x="385" 
d="M73 0v682h239v-682h-239zM316 896q29 0 49.5 -20.5t20.5 -49.5t-20.5 -50t-49.5 -21t-50 21t-21 50t21 49.5t50 20.5zM71 896q29 0 49.5 -20.5t20.5 -49.5t-20.5 -50t-49.5 -21t-50 21t-21 50t21 49.5t50 20.5z" />
    <glyph glyph-name="Eth" unicode="&#xd0;" horiz-adv-x="833" 
d="M73 0v288h-82v104h82v290h342q182 0 284 -116q86 -98 86 -234q0 -132 -76 -224q-90 -108 -251 -108h-385zM312 162h63q171 0 171 179q0 83 -43.5 131t-126.5 48h-64v-128h132v-104h-132v-126z" />
    <glyph glyph-name="Ntilde" unicode="&#xd1;" horiz-adv-x="927" 
d="M75 0v682h204l345 -350l-13 350h242v-682h-204l-345 350l13 -350h-242zM359 742v0h-89q6 166 124 166q27 0 73.5 -18.5t66.5 -18.5q30 0 33 37h91q-2 -69 -27 -112q-32 -54 -95 -54q-25 0 -73.5 18.5t-67.5 18.5q-28 0 -36 -37z" />
    <glyph glyph-name="Ograve" unicode="&#xd2;" horiz-adv-x="833" 
d="M46 341q0 163 105 258q101 92 266 92t266 -92q105 -95 105 -258t-105 -258q-101 -92 -266 -92t-266 92q-105 95 -105 258zM285 341q0 -65 33 -106q35 -44 99 -44t99 44q33 41 33 106t-34 107.5t-98 42.5t-98 -42.5t-34 -107.5zM449 737h-71l-196 156h168z" />
    <glyph glyph-name="Oacute" unicode="&#xd3;" horiz-adv-x="833" 
d="M46 341q0 163 105 258q101 92 266 92t266 -92q105 -95 105 -258t-105 -258q-101 -92 -266 -92t-266 92q-105 95 -105 258zM285 341q0 -65 33 -106q35 -44 99 -44t99 44q33 41 33 106t-34 107.5t-98 42.5t-98 -42.5t-34 -107.5zM388 737l99 156h168l-196 -156h-71z" />
    <glyph glyph-name="Ocircumflex" unicode="&#xd4;" horiz-adv-x="833" 
d="M46 341q0 163 105 258q101 92 266 92t266 -92q105 -95 105 -258t-105 -258q-101 -92 -266 -92t-266 92q-105 95 -105 258zM285 341q0 -65 33 -106q35 -44 99 -44t99 44q33 41 33 106t-34 107.5t-98 42.5t-98 -42.5t-34 -107.5zM499 861l111 -150h-108l-84 89l-85 -89
h-108l112 150h162z" />
    <glyph glyph-name="Otilde" unicode="&#xd5;" horiz-adv-x="833" 
d="M46 341q0 163 105 258q101 92 266 92t266 -92q105 -95 105 -258t-105 -258q-101 -92 -266 -92t-266 92q-105 95 -105 258zM285 341q0 -65 33 -106q35 -44 99 -44t99 44q33 41 33 106t-34 107.5t-98 42.5t-98 -42.5t-34 -107.5zM603 862v-79q-61 -56 -108 -56
q-27 0 -81 25.5t-72 25.5q-47 0 -106 -57v80q65 54 112 54q26 0 79.5 -25.5t73.5 -25.5q41 0 102 58z" />
    <glyph glyph-name="Odieresis" unicode="&#xd6;" horiz-adv-x="833" 
d="M46 341q0 163 105 258q101 92 266 92q164 0 266 -92q105 -96 105 -258t-105 -258q-102 -92 -266 -92q-165 0 -266 92q-105 95 -105 258zM285 341q0 -66 33 -106q35 -44 99 -44t99 44q33 40 33 106t-33 106q-35 44 -99 44t-99 -44q-33 -40 -33 -106zM540 896
q29 0 49.5 -20.5t20.5 -49.5t-20.5 -50t-49.5 -21t-50 21t-21 50t21 49.5t50 20.5zM295 896q29 0 49.5 -20.5t20.5 -49.5t-20.5 -50t-49.5 -21t-50 21t-21 50t21 49.5t50 20.5z" />
    <glyph glyph-name="multiply" unicode="&#xd7;" horiz-adv-x="667" 
d="M234 335l-168 168l98 98l169 -169l169 169l98 -98l-168 -168l168 -168l-98 -98l-169 169l-169 -169l-98 98z" />
    <glyph glyph-name="Oslash" unicode="&#xd8;" horiz-adv-x="833" 
d="M536 412l-190 -202q23 -19 71 -19q64 0 99 44q33 40 33 106q0 42 -13 71zM641 631l65 70l54 -51l-62 -66q90 -96 90 -243q0 -162 -105 -258q-102 -92 -266 -92q-126 0 -224 59l-86 -92l-54 51l84 89q-91 97 -91 243q0 163 105 258q101 92 266 92q131 0 224 -60zM298 271
l191 199q-34 21 -72 21q-64 0 -99 -44q-33 -40 -33 -106q0 -42 13 -70z" />
    <glyph glyph-name="Ugrave" unicode="&#xd9;" horiz-adv-x="833" 
d="M782 682v-369q0 -162 -102 -245q-94 -77 -259 -77q-162 0 -258 66q-112 76 -112 231v394h239v-364q0 -64 30 -101q33 -41 95 -41q65 0 98 46q30 41 30 108v352h239zM447 702h-71l-196 156h168z" />
    <glyph glyph-name="Uacute" unicode="&#xda;" horiz-adv-x="833" 
d="M782 682v-369q0 -162 -102 -245q-94 -77 -259 -77q-162 0 -258 66q-112 76 -112 231v394h239v-364q0 -64 30 -101q33 -41 95 -41q65 0 98 46q30 41 30 108v352h239zM386 703l99 156h168l-196 -156h-71z" />
    <glyph glyph-name="Ucircumflex" unicode="&#xdb;" horiz-adv-x="833" 
d="M782 682v-369q0 -161 -102 -245q-94 -77 -259 -77q-161 0 -258 66q-112 78 -112 231v394h239v-364q0 -64 30 -101q33 -41 95 -41q65 0 98 46q30 40 30 108v352h239zM537 908l73 -167h-120l-73 79l-74 -79h-120l74 167h240z" />
    <glyph glyph-name="Udieresis" unicode="&#xdc;" horiz-adv-x="833" 
d="M782 682v-369q0 -161 -102 -245q-94 -77 -259 -77q-161 0 -258 66q-112 78 -112 231v394h239v-364q0 -64 30 -101q33 -41 95 -41q65 0 98 46q30 40 30 108v352h239zM540 896q29 0 49.5 -20.5t20.5 -49.5t-20.5 -50t-49.5 -21t-50 21t-21 50t21 49.5t50 20.5zM295 896
q29 0 49.5 -20.5t20.5 -49.5t-20.5 -50t-49.5 -21t-50 21t-21 50t21 49.5t50 20.5z" />
    <glyph glyph-name="Yacute" unicode="&#xdd;" horiz-adv-x="802" 
d="M281 0v304l-265 378h285l130 -226l127 226h234l-272 -387v-295h-239zM401 702l99 156h168l-196 -156h-71z" />
    <glyph glyph-name="Thorn" unicode="&#xde;" horiz-adv-x="667" 
d="M69 0v682h239v-122h113q115 0 187 -49q84 -56 84 -166q0 -115 -88 -174q-75 -50 -196 -50h-100v-121h-239zM308 248h59q105 0 105 94q0 91 -106 91h-58v-185z" />
    <glyph glyph-name="germandbls" unicode="&#xdf;" 
d="M62 0v479q0 212 282 212q113 0 184 -34q96 -45 96 -145q0 -77 -80 -120q122 -48 122 -187q0 -96 -55.5 -155t-151.5 -59q-62 0 -108 14v158q19 -8 34 -8q36 0 55 25q18 22 18 59q0 83 -79 83h-16v127q69 5 69 64q0 69 -84 69q-78 0 -78 -82v-500h-208z" />
    <glyph glyph-name="agrave" unicode="&#xe0;" horiz-adv-x="625" 
d="M613 134l-38 -141q-29 -2 -51 -2q-100 0 -136 51q-75 -51 -173 -51q-70 0 -115 29q-53 34 -53 100q0 50 40 90q30 30 135 58q111 30 136 49q-2 65 -83 65q-92 0 -211 -90v155q110 90 249 90q99 0 162 -41q75 -48 75 -142v-150q0 -42 11.5 -55.5t51.5 -14.5zM358 154v75
q-17 -12 -71 -29q-82 -26 -82 -72q0 -25 17 -42t42 -17q53 0 99 36q-5 15 -5 49zM351 605h-71l-196 155h167z" />
    <glyph glyph-name="aacute" unicode="&#xe1;" horiz-adv-x="625" 
d="M613 134l-38 -141q-29 -2 -51 -2q-100 0 -136 51q-75 -51 -173 -51q-70 0 -115 29q-53 34 -53 100q0 50 40 90q30 30 135 58q111 30 136 49q-2 65 -83 65q-92 0 -211 -90v155q110 90 249 90q99 0 162 -41q75 -48 75 -142v-150q0 -42 11.5 -55.5t51.5 -14.5zM358 154v75
q-17 -12 -71 -29q-82 -26 -82 -72q0 -25 17 -42t42 -17q53 0 99 36q-5 15 -5 49zM277 606l100 155h167l-196 -155h-71z" />
    <glyph glyph-name="acircumflex" unicode="&#xe2;" horiz-adv-x="625" 
d="M613 134l-38 -141q-29 -2 -51 -2q-100 0 -136 51q-75 -51 -173 -51q-70 0 -115 29q-53 34 -53 100q0 50 40 90q30 30 135 58q111 30 136 49q-2 65 -83 65q-92 0 -211 -90v155q110 90 249 90q99 0 162 -41q75 -48 75 -142v-150q0 -42 11.5 -55.5t51.5 -14.5zM358 154v75
q-17 -12 -71 -29q-82 -26 -82 -72q0 -25 17 -42t42 -17q53 0 99 36q-5 15 -5 49zM395 716l111 -150h-108l-84 89l-85 -89h-108l112 150h162z" />
    <glyph glyph-name="atilde" unicode="&#xe3;" horiz-adv-x="625" 
d="M613 134l-38 -141q-29 -2 -51 -2q-100 0 -136 51q-75 -51 -173 -51q-70 0 -115 29q-53 34 -53 100q0 50 40 90q30 30 135 58q111 30 136 49q-2 65 -83 65q-92 0 -211 -90v155q110 90 249 90q99 0 162 -41q75 -48 75 -142v-150q0 -42 11.5 -55.5t51.5 -14.5zM358 154v75
q-17 -12 -71 -29q-82 -26 -82 -72q0 -25 17 -42t42 -17q53 0 99 36q-5 15 -5 49zM499 740v-79q-61 -56 -108 -56q-27 0 -81 25t-72 25q-48 0 -106 -56v80q63 54 112 54q26 0 79.5 -25.5t73.5 -25.5q41 0 102 58z" />
    <glyph glyph-name="adieresis" unicode="&#xe4;" horiz-adv-x="625" 
d="M613 134l-38 -141q-29 -2 -51 -2q-100 0 -136 51q-75 -51 -173 -51q-70 0 -115 29q-53 34 -53 100q0 50 40 90q30 30 135 58q111 30 136 49q-1 38 -24 53q-18 12 -59 12q-92 0 -211 -90v155q110 90 249 90q99 0 162 -41q75 -48 75 -142v-150q0 -42 11 -55.5t52 -14.5z
M358 154v75q-17 -12 -71 -29q-49 -15 -65.5 -32t-16.5 -40q0 -25 17 -42t42 -17q53 0 99 36q-5 15 -5 49zM436 747q29 0 49.5 -20.5t20.5 -49.5t-20.5 -50t-49.5 -21t-50 21t-21 50t21 49.5t50 20.5zM191 747q29 0 49.5 -20.5t20.5 -49.5t-20.5 -50t-49.5 -21t-50 21t-21 50
t21 49.5t50 20.5z" />
    <glyph glyph-name="aring" unicode="&#xe5;" horiz-adv-x="625" 
d="M613 134l-38 -141q-29 -2 -51 -2q-100 0 -136 51q-75 -51 -173 -51q-70 0 -115 29q-53 34 -53 100q0 50 40 90q30 30 135 58q111 30 136 49q-1 38 -24 53q-18 12 -59 12q-92 0 -211 -90v155q110 90 249 90q99 0 162 -41q75 -48 75 -142v-150q0 -42 11 -55.5t52 -14.5z
M358 154v75q-17 -12 -71 -29q-49 -15 -65.5 -32t-16.5 -40q0 -25 17 -42t42 -17q53 0 99 36q-5 15 -5 49zM313 773q41 0 70 -29t29 -70t-29 -70.5t-70 -29.5t-70.5 29.5t-29.5 70.5t29.5 70t70.5 29zM313 721q-20 0 -33.5 -13.5t-13.5 -33.5t13.5 -34t33.5 -14t34 14t14 34
t-14 33.5t-34 13.5z" />
    <glyph glyph-name="ae" unicode="&#xe6;" horiz-adv-x="906" 
d="M63 291v156q111 90 241 90q98 0 169 -39q64 39 138 39q116 0 189 -79.5t73 -197.5q0 -17 -2 -35h-346q3 -54 46 -83q37 -26 94 -26q90 0 171 64l37 -85q-56 -59 -118 -83q-56 -21 -143 -21q-130 0 -207 62q-96 -62 -187 -62q-70 0 -117 29q-56 35 -56 101q0 100 149 141
q112 31 161 52v13q0 63 -73 63q-97 0 -219 -99zM351 219v12q-36 -13 -106 -42q-42 -18 -42 -60q0 -57 64 -57q51 0 105 39q-21 48 -21 108zM518 303h182q1 50 -21 83q-25 38 -72 38q-87 0 -89 -121z" />
    <glyph glyph-name="ccedilla" unicode="&#xe7;" horiz-adv-x="552" 
d="M162 -81l68 90q-89 26 -140 93t-51 159q0 127 84 203q82 73 210 73q89 0 170 -27v-175q-68 31 -132 31q-51 0 -86 -25q-38 -29 -38 -78q0 -50 42 -77q36 -24 88 -24t130 33v-171q-91 -33 -168 -33q-14 0 -21 2l-16 -27q43 -3 71 -24q31 -24 31 -65q0 -61 -61 -91
q-46 -23 -114 -23t-116 4v79q15 -1 29 -1q78 0 78 39q0 37 -58 35z" />
    <glyph glyph-name="egrave" unicode="&#xe8;" horiz-adv-x="615" 
d="M543 180l38 -86q-89 -103 -244 -103q-127 0 -211 73q-89 77 -89 202q0 118 77.5 194.5t195.5 76.5q117 0 192 -76t75 -193q0 -21 -3 -43h-345q1 -48 51 -78q43 -27 94 -27q82 0 169 60zM221 303h182q-2 118 -91 118q-98 0 -91 -118zM351 605h-71l-196 155h167z" />
    <glyph glyph-name="eacute" unicode="&#xe9;" horiz-adv-x="615" 
d="M543 180l38 -86q-89 -103 -244 -103q-127 0 -211 73q-89 77 -89 202q0 118 77.5 194.5t195.5 76.5q117 0 192 -76t75 -193q0 -21 -3 -43h-345q1 -48 51 -78q43 -27 94 -27q82 0 169 60zM221 303h182q-2 118 -91 118q-98 0 -91 -118zM277 606l100 155h167l-196 -155h-71z
" />
    <glyph glyph-name="ecircumflex" unicode="&#xea;" horiz-adv-x="615" 
d="M543 180l38 -86q-89 -103 -244 -103q-127 0 -211 73q-89 77 -89 202q0 118 77.5 194.5t195.5 76.5q117 0 192 -76t75 -193q0 -21 -3 -43h-345q1 -48 51 -78q43 -27 94 -27q82 0 169 60zM221 303h182q-2 118 -91 118q-98 0 -91 -118zM395 706l111 -150h-108l-84 89
l-85 -89h-108l112 150h162z" />
    <glyph glyph-name="edieresis" unicode="&#xeb;" horiz-adv-x="615" 
d="M543 180l38 -86q-89 -103 -244 -103q-127 0 -211 73q-89 77 -89 202q0 117 78 194t195 77q116 0 191.5 -76.5t75.5 -192.5q0 -21 -3 -43h-345q1 -48 51 -78q43 -27 94 -27q82 0 169 60zM221 303h182q-2 118 -91 118q-50 0 -74 -35q-20 -31 -17 -83zM431 747
q29 0 49.5 -20.5t20.5 -49.5t-20.5 -50t-49.5 -21t-50 21t-21 50t21 49.5t50 20.5zM186 747q29 0 49.5 -20.5t20.5 -49.5t-20.5 -50t-49.5 -21t-50 21t-21 50t21 49.5t50 20.5z" />
    <glyph glyph-name="igrave" unicode="&#xec;" horiz-adv-x="333" 
d="M63 0v528h208v-528h-208zM131 596l100 155h167l-196 -155h-71z" />
    <glyph glyph-name="iacute" unicode="&#xed;" horiz-adv-x="333" 
d="M63 0v528h208v-528h-208zM131 596l100 155h167l-196 -155h-71z" />
    <glyph glyph-name="icircumflex" unicode="&#xee;" horiz-adv-x="333" 
d="M63 0v528h208v-528h-208zM287 759l73 -167h-120l-73 79l-74 -79h-120l74 167h240z" />
    <glyph glyph-name="idieresis" unicode="&#xef;" horiz-adv-x="333" 
d="M63 0v528h208v-528h-208zM290 747q29 0 49.5 -20.5t20.5 -49.5t-20.5 -50t-49.5 -21t-50 21t-21 50t21 49.5t50 20.5zM45 747q29 0 49.5 -20.5t20.5 -49.5t-20.5 -50t-49.5 -21t-50 21t-21 50t21 49.5t50 20.5z" />
    <glyph glyph-name="eth" unicode="&#xf0;" horiz-adv-x="699" 
d="M165 603l129 46q-49 47 -108 83v5h199q31 -16 58 -36l104 36l19 -50l-75 -28q171 -170 171 -375q0 -138 -83.5 -215.5t-222.5 -77.5q-137 0 -223 69q-94 75 -94 209q0 114 78.5 189.5t192.5 75.5q44 0 79 -16l2 2q-28 46 -57 83l-150 -53zM247 261q0 -46 28.5 -72.5
t74.5 -26.5t74.5 26.5t28.5 72.5t-28.5 74t-74.5 28t-74.5 -28t-28.5 -74z" />
    <glyph glyph-name="ntilde" unicode="&#xf1;" horiz-adv-x="677" 
d="M61 0v528h208v-69q79 78 170 78q87 0 134 -50t47 -138v-349h-208v289q0 77 -60 77q-49 0 -83 -57v-309h-208zM234 593v0h-89q6 166 124 166q27 0 73.5 -18.5t66.5 -18.5q30 0 33 37h91q-2 -69 -27 -112q-32 -54 -95 -54q-25 0 -73.5 18.5t-67.5 18.5q-28 0 -36 -37z" />
    <glyph glyph-name="ograve" unicode="&#xf2;" 
d="M38 264q0 131 92 205q85 68 219 68t219 -68q92 -74 92 -205q0 -130 -92 -204q-84 -69 -217 -69q-134 0 -220 68q-93 74 -93 205zM246 264q0 -46 28.5 -74t74.5 -28t74.5 28t28.5 74t-28.5 74t-74.5 28t-74.5 -28t-28.5 -74zM387 606h-71l-196 155h167z" />
    <glyph glyph-name="oacute" unicode="&#xf3;" 
d="M38 264q0 131 92 205q85 68 219 68t219 -68q92 -74 92 -205q0 -130 -92 -204q-84 -69 -217 -69q-134 0 -220 68q-93 74 -93 205zM246 264q0 -46 28.5 -74t74.5 -28t74.5 28t28.5 74t-28.5 74t-74.5 28t-74.5 -28t-28.5 -74zM313 606l100 155h167l-196 -155h-71z" />
    <glyph glyph-name="ocircumflex" unicode="&#xf4;" 
d="M38 264q0 131 92 205q85 68 219 68t219 -68q92 -74 92 -205q0 -130 -92 -204q-84 -69 -217 -69q-134 0 -220 68q-93 74 -93 205zM246 264q0 -46 28.5 -74t74.5 -28t74.5 28t28.5 74t-28.5 74t-74.5 28t-74.5 -28t-28.5 -74zM431 705l111 -150h-108l-84 89l-85 -89h-108
l112 150h162z" />
    <glyph glyph-name="otilde" unicode="&#xf5;" 
d="M38 264q0 131 92 205q85 68 219 68t219 -68q92 -74 92 -205q0 -130 -92 -204q-84 -69 -217 -69q-134 0 -220 68q-93 74 -93 205zM246 264q0 -46 28.5 -74t74.5 -28t74.5 28t28.5 74t-28.5 74t-74.5 28t-74.5 -28t-28.5 -74zM535 741v-79q-61 -56 -108 -56q-27 0 -81 25
t-72 25q-48 0 -106 -56v80q63 54 112 54q26 0 79.5 -25.5t73.5 -25.5q41 0 102 58z" />
    <glyph glyph-name="odieresis" unicode="&#xf6;" 
d="M38 264q0 130 92 204q85 69 219 69t219 -69q92 -74 92 -204q0 -129 -92 -204q-85 -69 -217 -69q-134 0 -220 69q-93 74 -93 204zM246 264q0 -46 28.5 -74t74.5 -28t74.5 28t28.5 74t-28.5 74t-74.5 28t-74.5 -28t-28.5 -74zM473 747q29 0 49.5 -20.5t20.5 -49.5
t-20.5 -50t-49.5 -21t-50 21t-21 50t21 49.5t50 20.5zM228 747q29 0 49.5 -20.5t20.5 -49.5t-20.5 -50t-49.5 -21t-50 21t-21 50t21 49.5t50 20.5z" />
    <glyph glyph-name="divide" unicode="&#xf7;" horiz-adv-x="667" 
d="M334 613q33 0 56.5 -23.5t23.5 -56.5t-23.5 -56.5t-56.5 -23.5t-56.5 23.5t-23.5 56.5t23.5 56.5t56.5 23.5zM334 218q33 0 56.5 -23.5t23.5 -56.5t-23.5 -56.5t-56.5 -23.5t-56.5 23.5t-23.5 56.5t23.5 56.5t56.5 23.5zM56 266v139h556v-139h-556z" />
    <glyph glyph-name="oslash" unicode="&#xf8;" 
d="M435 323l-139 -148q24 -13 53 -13q46 0 74.5 28t28.5 74q0 42 -17 59zM532 493l71 75l33 -31l-66 -70q90 -75 90 -203q0 -129 -92 -204q-85 -69 -217 -69q-112 0 -186 44l-72 -77l-33 32l68 72q-90 75 -90 202q0 130 92 204q85 69 219 69q108 0 183 -44zM262 205l140 149
q-22 12 -53 12q-46 0 -74.5 -28t-28.5 -74q0 -30 16 -59z" />
    <glyph glyph-name="ugrave" unicode="&#xf9;" 
d="M610 528v-334q0 -58 46 -58q14 0 32 6l-54 -142q-41 -9 -90 -9q-57 0 -86 18q-34 21 -48 73q-73 -91 -180 -91q-90 0 -136 56q-44 53 -44 144v337h208v-286q0 -80 62 -80q44 0 82 54v312h208zM367 576h-71l-196 155h167z" />
    <glyph glyph-name="uacute" unicode="&#xfa;" 
d="M610 528v-334q0 -58 46 -58q14 0 32 6l-54 -142q-41 -9 -90 -9q-57 0 -86 18q-34 21 -48 73q-73 -91 -180 -91q-90 0 -136 56q-44 53 -44 144v337h208v-286q0 -80 62 -80q44 0 82 54v312h208zM293 576l100 155h167l-196 -155h-71z" />
    <glyph glyph-name="ucircumflex" unicode="&#xfb;" 
d="M610 528v-334q0 -58 46 -58q14 0 32 6l-54 -142q-41 -9 -90 -9q-56 0 -86 18q-34 21 -48 73q-73 -91 -180 -91q-90 0 -136 56q-44 52 -44 144v337h208v-286q0 -80 62 -80q44 0 82 54v312h208zM470 759l73 -167h-120l-73 79l-74 -79h-120l74 167h240z" />
    <glyph glyph-name="udieresis" unicode="&#xfc;" 
d="M610 528v-334q0 -58 46 -58q14 0 32 6l-54 -142q-41 -9 -90 -9q-56 0 -86 18q-34 21 -48 73q-73 -91 -180 -91q-90 0 -136 56q-44 52 -44 144v337h208v-286q0 -80 62 -80q44 0 82 54v312h208zM473 747q29 0 49.5 -20.5t20.5 -49.5t-20.5 -50t-49.5 -21t-50 21t-21 50
t21 49.5t50 20.5zM228 747q29 0 49.5 -20.5t20.5 -49.5t-20.5 -50t-49.5 -21t-50 21t-21 50t21 49.5t50 20.5z" />
    <glyph glyph-name="yacute" unicode="&#xfd;" horiz-adv-x="635" 
d="M71 -228l149 305l-209 451h224l97 -259l106 259h195l-365 -756h-197zM296 566l100 155h167l-196 -155h-71z" />
    <glyph glyph-name="thorn" unicode="&#xfe;" 
d="M263 682v-205q73 60 154 60q109 0 177 -82q64 -77 64 -188q0 -122 -74.5 -199t-196.5 -77q-64 0 -124 23v-242h-208v910h208zM263 350v-171q43 -17 78 -17q48 0 78.5 29.5t30.5 77.5t-30.5 76t-78.5 28q-36 0 -78 -23z" />
    <glyph glyph-name="ydieresis" unicode="&#xff;" horiz-adv-x="635" 
d="M71 -228l149 305l-209 451h224l97 -259l106 259h195l-365 -756h-197zM441 747q29 0 49.5 -20.5t20.5 -49.5t-20.5 -50t-49.5 -21t-50 21t-21 50t21 49.5t50 20.5zM196 747q29 0 49.5 -20.5t20.5 -49.5t-20.5 -50t-49.5 -21t-50 21t-21 50t21 49.5t50 20.5z" />
    <glyph glyph-name="glyph271" unicode="&#x102;" horiz-adv-x="896" 
d="M12 0l311 682h250l311 -682h-237l-45 111h-308l-45 -111h-237zM343 234h209l-104 270zM447 727q-103 0 -187 112l-9 63q90 -91 196 -91q104 0 194 91l-9 -63q-84 -112 -185 -112z" />
    <glyph glyph-name="glyph272" unicode="&#x103;" horiz-adv-x="625" 
d="M613 134l-38 -141q-29 -2 -51 -2q-100 0 -136 51q-75 -51 -173 -51q-70 0 -115 29q-53 34 -53 100q0 50 40 90q30 30 135 58q111 30 136 49q-2 65 -83 65q-92 0 -211 -90v155q110 90 249 90q99 0 162 -41q75 -48 75 -142v-150q0 -42 11.5 -55.5t51.5 -14.5zM358 154v75
q-17 -12 -71 -29q-82 -26 -82 -72q0 -25 17 -42t42 -17q53 0 99 36q-5 15 -5 49zM313 585q-103 0 -187 111l-9 63q91 -91 196 -91q103 0 194 91l-9 -63q-84 -111 -185 -111z" />
    <glyph glyph-name="Cacute" unicode="&#x106;" horiz-adv-x="711" 
d="M687 233v-182q-106 -60 -254 -60q-196 0 -298 115q-85 95 -85 232q0 166 116 263q109 90 279 90q135 0 236 -46v-199q-99 63 -198 63q-85 0 -137 -41q-57 -44 -57 -127q0 -82 58 -127q53 -41 138 -41q95 0 202 60zM247 839l91 163h216l-198 -163h-109z" />
    <glyph glyph-name="cacute" unicode="&#x107;" horiz-adv-x="441" 
d="M507 195v-171q-91 -33 -168 -33q-127 0 -211 70q-89 75 -89 200q0 127 84 203q82 73 210 73q89 0 170 -27v-175q-68 31 -132 31q-51 0 -86 -25q-38 -29 -38 -78q0 -50 42 -77q36 -24 88 -24t130 33zM48 584l91 163h216l-198 -163h-109z" />
    <glyph glyph-name="Ccaron" unicode="&#x10c;" horiz-adv-x="711" 
d="M687 233v-182q-106 -60 -254 -60q-196 0 -298 115q-85 95 -85 232q0 166 116 263q109 90 279 90q135 0 236 -46v-199q-99 63 -198 63q-85 0 -137 -41q-57 -44 -57 -127q0 -82 58 -127q53 -41 138 -41q95 0 202 60zM224 847l-74 167h120l74 -79l73 79h120l-73 -167h-240z
" />
    <glyph glyph-name="ccaron" unicode="&#x10d;" horiz-adv-x="441" 
d="M507 195v-171q-91 -33 -168 -33q-127 0 -211 70q-89 75 -89 200q0 127 84 203q82 73 210 73q89 0 170 -27v-175q-68 31 -132 31q-51 0 -86 -25q-38 -29 -38 -78q0 -50 42 -77q36 -24 88 -24t130 33zM25 592l-74 167h120l74 -79l73 79h120l-73 -167h-240z" />
    <glyph glyph-name="Dslash" unicode="&#x110;" horiz-adv-x="833" 
d="M73 0v288h-82v104h82v290h342q182 0 284 -116q86 -98 86 -234q0 -132 -76 -224q-90 -108 -251 -108h-385zM312 162h63q171 0 171 179q0 84 -43.5 131.5t-126.5 47.5h-64v-128h132v-104h-132v-126z" />
    <glyph glyph-name="dcroat" unicode="&#x111;" 
d="M433 180v175q-42 11 -74 11q-48 0 -79.5 -26.5t-31.5 -73.5q0 -48 37 -73q32 -22 82 -22q26 0 66 9zM641 625h42v-49h-42v-576h-333q-122 0 -195 73t-73 195t73.5 195.5t194.5 73.5q62 0 125 -22v61h-125v49h125v57h208v-57z" />
    <glyph glyph-name="Gbreve" unicode="&#x11e;" horiz-adv-x="767" 
d="M713 386v-364q-135 -32 -268 -32q-200 0 -308 116q-88 94 -88 227q0 169 125 268q114 90 288 90q123 0 238 -46v-171q-107 58 -203 58q-91 0 -150 -52t-59 -142q0 -86 55 -134q52 -46 139 -46q23 0 48 4v80h-85v144h268zM459 1012h79q-10 -69 -57 -114q-50 -47 -118 -47
q-69 0 -117 46t-58 115h78q21 -70 98 -70q74 0 95 70z" />
    <glyph glyph-name="gbreve" unicode="&#x11f;" horiz-adv-x="492" 
d="M588 537v-113h-79q32 -47 32 -102q0 -67 -48 -115q-36 -36 -80 -48q-26 -5 -52 -11q-36 -10 -36 -27q0 -18 37 -26q28 -5 83 -16q52 -12 87 -47q39 -39 39 -92q0 -92 -101 -137q-76 -34 -181 -34q-258 0 -258 134q0 49 42 82q37 29 89 36v2q-44 19 -44 62q0 49 62 72
q-128 49 -128 171q0 105 92 162q77 47 189 47h255zM210 331q0 -34 25.5 -54.5t59.5 -20.5q36 0 62 21t26 56t-25.5 55t-61.5 20q-35 0 -60.5 -21t-25.5 -56zM197 -82q0 -68 100 -68q107 0 107 65q0 38 -36 58q-29 16 -71 16q-39 0 -67 -16q-33 -19 -33 -55zM259 757h79
q-10 -69 -57 -114q-50 -47 -118 -47q-69 0 -117 46t-58 115h78q21 -70 98 -70q74 0 95 70z" />
    <glyph glyph-name="glyph273" unicode="&#x128;" horiz-adv-x="385" 
d="M73 0v682h239v-682h-239zM376 862v-79q-61 -56 -108 -56q-27 0 -81 25.5t-72 25.5q-47 0 -106 -57v80q65 54 112 54q26 0 79.5 -25.5t73.5 -25.5q41 0 102 58z" />
    <glyph glyph-name="glyph274" unicode="&#x129;" horiz-adv-x="333" 
d="M63 0v528h208v-528h-208zM352 721v-79q-61 -56 -108 -56q-27 0 -81 25t-72 25q-48 0 -106 -56v80q63 54 112 54q26 0 79.5 -25.5t73.5 -25.5q41 0 102 58z" />
    <glyph glyph-name="Idotaccent" unicode="&#x130;" horiz-adv-x="429" 
d="M73 0v682h239v-682h-239zM194 1002q29 0 49.5 -20.5t20.5 -49.5t-20.5 -50t-49.5 -21t-50 21t-21 50t21 49.5t50 20.5z" />
    <glyph glyph-name="dotlessi" unicode="&#x131;" horiz-adv-x="333" 
d="M63 0v528h208v-528h-208z" />
    <glyph glyph-name="Lslash" unicode="&#x141;" horiz-adv-x="583" 
d="M73 0v206l-71 -62v125l71 62v351h239v-143l105 91v-125l-105 -91v-243h268v-171h-507z" />
    <glyph glyph-name="lslash" unicode="&#x142;" horiz-adv-x="406" 
d="M307 399v-399h-208v207l-84 -77v124l84 77v351h208v-160l84 77v-123z" />
    <glyph glyph-name="OE" unicode="&#x152;" horiz-adv-x="1033" 
d="M982 682v-144h-237v-120h215v-144h-215v-130h240v-144h-590q-156 0 -252.5 93.5t-96.5 248.5q0 149 92.5 244.5t240.5 95.5h603zM506 538h-36q-89 0 -137 -54t-48 -144q0 -87 48 -139t134 -52h39v389z" />
    <glyph glyph-name="oe" unicode="&#x153;" horiz-adv-x="1010" 
d="M934 176l41 -80q-89 -105 -244 -105q-117 0 -192 71q-81 -71 -204 -71q-126 0 -210 75q-87 77 -87 202q0 121 87 197q83 72 206 72q108 0 211 -66q79 66 178 66q114 0 184 -79q67 -75 67 -191v-42h-338q9 -51 46.5 -82t89.5 -31q76 0 165 64zM246 263q0 -51 24 -82
q26 -35 75 -35q50 0 75 36q23 31 23 83t-25 84.5t-75 32.5q-49 0 -74 -36q-23 -32 -23 -83zM633 303h164v6q0 114 -79 114q-44 0 -68 -41q-14 -24 -17 -79z" />
    <glyph glyph-name="Scedilla" unicode="&#x15e;" horiz-adv-x="656" 
d="M50 38v185q100 -68 186 -68q68 0 68 47q0 27 -66 62q-91 49 -122 76q-66 59 -66 146q0 97 73 154q67 51 168 51q118 0 215 -73v-180q-96 89 -170 89q-66 0 -66 -47q0 -32 68 -68q102 -55 127 -76q68 -58 68 -142q0 -99 -76 -154q-68 -49 -171 -49q-135 0 -236 47z
M42 -233v79q15 -1 29 -1q78 0 78 39q0 37 -58 35l65 83l102 6l-27 -42q43 -3 71 -24q31 -24 31 -65q0 -61 -61 -91q-46 -23 -114 -23t-116 4z" />
    <glyph glyph-name="scedilla" unicode="&#x15f;" horiz-adv-x="383" 
d="M442 494v-139q-87 53 -145 53q-49 0 -49 -36q0 -27 60 -49q80 -29 114 -63q47 -47 47 -109q0 -61 -44 -105q-55 -55 -159 -55q-138 0 -226 51v150q96 -72 166 -72q55 0 55 41q0 25 -57 52q-84 40 -107 57q-57 44 -57 112q0 81 69 122q57 33 144 33q100 0 189 -43z
M-55 -233v79q15 -1 29 -1q78 0 78 39q0 37 -58 35l65 83l102 6l-27 -42q43 -3 71 -24q31 -24 31 -65q0 -61 -61 -91q-46 -23 -114 -23t-116 4z" />
    <glyph glyph-name="Scaron" unicode="&#x160;" horiz-adv-x="573" 
d="M50 38v185q100 -68 186 -68q68 0 68 47q0 27 -66 62q-91 49 -122 76q-66 59 -66 146q0 97 73 154q67 51 168 51q118 0 215 -73v-180q-96 89 -170 89q-66 0 -66 -47q0 -32 68 -68q102 -55 127 -76q68 -58 68 -142q0 -99 -76 -154q-68 -49 -171 -49q-135 0 -236 47z
M167 741l-74 167h120l74 -79l73 79h120l-73 -167h-240z" />
    <glyph glyph-name="scaron" unicode="&#x161;" horiz-adv-x="500" 
d="M442 494v-139q-87 53 -145 53q-49 0 -49 -36q0 -27 60 -49q80 -29 114 -63q47 -47 47 -109q0 -61 -44 -105q-55 -55 -159 -55q-138 0 -226 51v150q96 -72 166 -72q55 0 55 41q0 25 -57 52q-84 40 -107 57q-57 44 -57 112q0 81 69 122q57 33 144 33q100 0 189 -43z
M131 592l-74 167h120l74 -79l73 79h120l-73 -167h-240z" />
    <glyph glyph-name="ch903" unicode="&#x168;" horiz-adv-x="833" 
d="M782 682v-369q0 -162 -102 -245q-94 -77 -259 -77q-162 0 -258 66q-112 76 -112 231v394h239v-364q0 -64 30 -101q33 -41 95 -41q65 0 98 46q30 41 30 108v352h239zM600 842v-79q-61 -56 -108 -56q-27 0 -81 25.5t-72 25.5q-47 0 -106 -57v80q65 54 112 54
q26 0 79.5 -25.5t73.5 -25.5q41 0 102 58z" />
    <glyph glyph-name="ch904" unicode="&#x169;" 
d="M610 528v-334q0 -58 46 -58q14 0 32 6l-54 -142q-41 -9 -90 -9q-57 0 -86 18q-34 21 -48 73q-73 -91 -180 -91q-90 0 -136 56q-44 53 -44 144v337h208v-286q0 -80 62 -80q44 0 82 54v312h208zM517 721v-79q-61 -56 -108 -56q-27 0 -81 25t-72 25q-48 0 -106 -56v80
q63 54 112 54q26 0 79.5 -25.5t73.5 -25.5q41 0 102 58z" />
    <glyph glyph-name="Ydieresis" unicode="&#x178;" horiz-adv-x="802" 
d="M281 0v304l-265 378h285l130 -226l127 226h234l-272 -387v-295h-239zM525 896q29 0 49.5 -20.5t20.5 -49.5t-20.5 -50t-49.5 -21t-50 21t-21 50t21 49.5t50 20.5zM280 896q29 0 49.5 -20.5t20.5 -49.5t-20.5 -50t-49.5 -21t-50 21t-21 50t21 49.5t50 20.5z" />
    <glyph glyph-name="Zcaron" unicode="&#x17d;" horiz-adv-x="781" 
d="M36 0l349 520h-358v162h731l-349 -520h336v-162h-709zM271 741l-74 167h120l74 -79l73 79h120l-73 -167h-240z" />
    <glyph glyph-name="zcaron" unicode="&#x17e;" horiz-adv-x="615" 
d="M25 0l233 371h-216v157h539v-17l-229 -354h221v-157h-548zM188 592l-74 167h120l74 -79l73 79h120l-73 -167h-240z" />
    <glyph glyph-name="florin" unicode="&#x192;" horiz-adv-x="615" 
d="M455 455h97l-30 -140h-96l-92 -423q-27 -123 -175 -123q-72 0 -167 27l36 125q51 -16 76 -16q35 0 48 59l76 351h-93l29 140h95l22 102q15 72 58 103t118 31q81 0 169 -30l-35 -125q-48 19 -77 19q-23 0 -36 -23q-5 -10 -14 -43z" />
    <glyph glyph-name="glyph277" unicode="&#x1a0;" horiz-adv-x="833" 
d="M285 341q0 -65 33 -106q35 -44 99 -44t99 44q33 41 33 106t-34 107.5t-98 42.5t-98 -42.5t-34 -107.5zM670 609q20 14 28 44q-31 8 -31 38q0 28 18 45.5t46 12.5q48 -8 48 -63q0 -37 -24.5 -64t-61.5 -35q95 -96 95 -246q0 -163 -105 -258q-101 -92 -266 -92t-266 92
q-105 95 -105 258t105 258q101 92 266 92q155 0 253 -82z" />
    <glyph glyph-name="glyph278" unicode="&#x1a1;" 
d="M246 264q0 -46 28.5 -74t74.5 -28t74.5 28t28.5 74t-28.5 74t-74.5 28t-74.5 -28t-28.5 -74zM530 495q22 9 35 31q-23 15 -23 40q0 20 14.5 35t34.5 15q24 0 40 -17t16 -41q0 -33 -24.5 -58t-57.5 -29q95 -77 95 -207t-92 -204q-84 -69 -217 -69q-134 0 -220 68
q-93 74 -93 205t92 205q85 68 219 68q107 0 181 -42z" />
    <glyph glyph-name="glyph279" unicode="&#x1af;" horiz-adv-x="833" 
d="M782 589v-276q0 -162 -102 -245q-94 -77 -259 -77q-162 0 -258 66q-112 76 -112 231v394h239v-364q0 -64 30 -101q33 -41 95 -41q65 0 98 46q30 41 30 108v352h209q-3 11 -1 23q4 22 22.5 35t40.5 9q48 -8 48 -63q0 -35 -22.5 -62t-57.5 -35z" />
    <glyph glyph-name="glyph280" unicode="&#x1b0;" 
d="M607 528q-20 15 -20 38q0 20 14.5 35t34.5 15q24 0 40 -17t16 -41q0 -33 -24 -57.5t-58 -29.5v-277q0 -58 46 -58q14 0 32 6l-54 -142q-41 -9 -90 -9q-57 0 -86 18q-34 21 -48 73q-73 -91 -180 -91q-90 0 -136 56q-44 53 -44 144v337h208v-286q0 -80 62 -80q44 0 82 54
v312h205z" />
    <glyph glyph-name="circumflex" unicode="&#x2c6;" horiz-adv-x="333" 
d="M287 759l73 -167h-120l-73 79l-74 -79h-120l74 167h240z" />
    <glyph glyph-name="caron" unicode="&#x2c7;" horiz-adv-x="333" 
d="M47 592l-74 167h120l74 -79l73 79h120l-73 -167h-240z" />
    <glyph glyph-name="breve" unicode="&#x2d8;" horiz-adv-x="333" 
d="M263 757h79q-10 -69 -57 -114q-50 -47 -118 -47q-69 0 -117 46t-58 115h78q21 -70 98 -70q74 0 95 70z" />
    <glyph glyph-name="dotaccent" unicode="&#x2d9;" horiz-adv-x="333" 
d="M167 747q29 0 49.5 -20.5t20.5 -49.5t-20.5 -50t-49.5 -21t-50 21t-21 50t21 49.5t50 20.5z" />
    <glyph glyph-name="ring" unicode="&#x2da;" horiz-adv-x="333" 
d="M167 773q41 0 70 -29t29 -70t-29 -70.5t-70 -29.5t-70.5 29.5t-29.5 70.5t29.5 70t70.5 29zM167 721q-20 0 -33.5 -13.5t-13.5 -33.5t13.5 -34t33.5 -14t34 14t14 34t-14 33.5t-34 13.5z" />
    <glyph glyph-name="ogonek" unicode="&#x2db;" horiz-adv-x="333" 
d="M70 14h116q-14 -48 -14 -78q0 -82 96 -82q32 0 87 14v-84q-84 -24 -144 -24q-69 0 -116 27q-58 33 -58 97q0 49 33 130z" />
    <glyph glyph-name="tilde" unicode="&#x2dc;" horiz-adv-x="333" 
d="M62 593v0h-89q6 166 124 166q27 0 73.5 -18.5t66.5 -18.5q30 0 33 37h91q-2 -69 -27 -112q-32 -54 -95 -54q-25 0 -73.5 18.5t-67.5 18.5q-28 0 -36 -37z" />
    <glyph glyph-name="hungarumlaut" unicode="&#x2dd;" horiz-adv-x="333" 
d="M264 577l91 163h216l-198 -163h-109zM8 577l91 163h216l-198 -163h-109z" />
    <glyph glyph-name="glyph281" unicode="&#x1ea0;" horiz-adv-x="896" 
d="M12 0l311 682h250l311 -682h-237l-45 111h-308l-45 -111h-237zM343 234h209l-104 270zM447 -29q32 0 54 -22t22 -54t-22 -54.5t-54 -22.5t-54.5 22.5t-22.5 54.5t22.5 54t54.5 22z" />
    <glyph glyph-name="glyph282" unicode="&#x1ea1;" horiz-adv-x="625" 
d="M613 134l-38 -141q-29 -2 -51 -2q-100 0 -136 51q-75 -51 -173 -51q-70 0 -115 29q-53 34 -53 100q0 50 40 90q30 30 135 58q111 30 136 49q-2 65 -83 65q-92 0 -211 -90v155q110 90 249 90q99 0 162 -41q75 -48 75 -142v-150q0 -42 11.5 -55.5t51.5 -14.5zM358 154v75
q-17 -12 -71 -29q-82 -26 -82 -72q0 -25 17 -42t42 -17q53 0 99 36q-5 15 -5 49zM315 -39q32 0 54 -22t22 -54t-22 -54.5t-54 -22.5t-54.5 22.5t-22.5 54.5t22.5 54t54.5 22z" />
    <glyph glyph-name="glyph283" unicode="&#x1ea2;" horiz-adv-x="896" 
d="M12 0l311 682h250l311 -682h-237l-45 111h-308l-45 -111h-237zM343 234h209l-104 270zM448 787q0 -28 20 -67q-9 13 -57 40q-37 21 -32 41q7 28 62.5 56.5t59.5 44.5q4 14 -8 31q-8 11 -12 11q-1 0 -2 -2q-6 -21 -25.5 -38.5t-41.5 -19.5q-40 -3 -40 35q0 25 21 45.5
t46 23.5q36 4 77 -19q45 -25 45 -60q0 -27 -56.5 -61t-56.5 -61z" />
    <glyph glyph-name="glyph284" unicode="&#x1ea3;" horiz-adv-x="625" 
d="M613 134l-38 -141q-29 -2 -51 -2q-100 0 -136 51q-75 -51 -173 -51q-70 0 -115 29q-53 34 -53 100q0 50 40 90q30 30 135 58q111 30 136 49q-2 65 -83 65q-92 0 -211 -90v155q110 90 249 90q99 0 162 -41q75 -48 75 -142v-150q0 -42 11.5 -55.5t51.5 -14.5zM358 154v75
q-17 -12 -71 -29q-82 -26 -82 -72q0 -25 17 -42t42 -17q53 0 99 36q-5 15 -5 49zM350 663q0 -28 20 -67q-9 13 -57 40q-37 21 -32 41q7 28 62.5 56.5t59.5 44.5q4 14 -8 31q-8 11 -12 11q-1 0 -2 -2q-6 -21 -25.5 -38.5t-41.5 -19.5q-40 -3 -40 35q0 25 21 45.5t46 23.5
q36 4 77 -19q45 -25 45 -60q0 -27 -56.5 -61t-56.5 -61z" />
    <glyph glyph-name="glyph285" unicode="&#x1ea4;" horiz-adv-x="896" 
d="M12 0l311 682h250l311 -682h-237l-45 111h-308l-45 -111h-237zM343 234h209l-104 270zM541 857l110 -150h-107l-84 89l-85 -89h-108l112 150h162zM622 796l100 155h167l-196 -155h-71z" />
    <glyph glyph-name="glyph286" unicode="&#x1ea5;" horiz-adv-x="625" 
d="M613 134l-38 -141q-29 -2 -51 -2q-100 0 -136 51q-75 -51 -173 -51q-70 0 -115 29q-53 34 -53 100q0 50 40 90q30 30 135 58q111 30 136 49q-2 65 -83 65q-92 0 -211 -90v155q110 90 249 90q99 0 162 -41q75 -48 75 -142v-150q0 -42 11.5 -55.5t51.5 -14.5zM358 154v75
q-17 -12 -71 -29q-82 -26 -82 -72q0 -25 17 -42t42 -17q53 0 99 36q-5 15 -5 49zM394 716l110 -150h-107l-84 89l-85 -89h-108l112 150h162zM475 655l100 155h167l-196 -155h-71z" />
    <glyph glyph-name="glyph287" unicode="&#x1ea6;" horiz-adv-x="896" 
d="M12 0l311 682h250l311 -682h-237l-45 111h-308l-45 -111h-237zM343 234h209l-104 270zM517 857l111 -150h-108l-84 89l-85 -89h-108l112 150h162zM272 796h-71l-196 155h167z" />
    <glyph glyph-name="glyph288" unicode="&#x1ea7;" horiz-adv-x="625" 
d="M613 134l-38 -141q-29 -2 -51 -2q-100 0 -136 51q-75 -51 -173 -51q-70 0 -115 29q-53 34 -53 100q0 50 40 90q30 30 135 58q111 30 136 49q-2 65 -83 65q-92 0 -211 -90v155q110 90 249 90q99 0 162 -41q75 -48 75 -142v-150q0 -42 11.5 -55.5t51.5 -14.5zM358 154v75
q-17 -12 -71 -29q-82 -26 -82 -72q0 -25 17 -42t42 -17q53 0 99 36q-5 15 -5 49zM395 716l111 -150h-108l-84 89l-85 -89h-108l112 150h162zM150 655h-71l-196 155h167z" />
    <glyph glyph-name="glyph289" unicode="&#x1ea8;" horiz-adv-x="896" 
d="M12 0l311 682h250l311 -682h-237l-45 111h-308l-45 -111h-237zM343 234h209l-104 270zM529 852l111 -150h-108l-84 89l-85 -89h-108l112 150h162zM659 860q0 -28 20 -67q-9 13 -57 40q-37 21 -32 41q7 28 62.5 56.5t59.5 44.5q4 14 -8 31q-8 11 -12 11q-1 0 -2 -2
q-6 -21 -25.5 -38.5t-41.5 -19.5q-40 -3 -40 35q0 25 21 45.5t46 23.5q36 4 77 -19q45 -25 45 -60q0 -27 -56.5 -61t-56.5 -61z" />
    <glyph glyph-name="glyph290" unicode="&#x1ea9;" horiz-adv-x="625" 
d="M613 134l-38 -141q-29 -2 -51 -2q-100 0 -136 51q-75 -51 -173 -51q-70 0 -115 29q-53 34 -53 100q0 50 40 90q30 30 135 58q111 30 136 49q-2 65 -83 65q-92 0 -211 -90v155q110 90 249 90q99 0 162 -41q75 -48 75 -142v-150q0 -42 11.5 -55.5t51.5 -14.5zM358 154v75
q-17 -12 -71 -29q-82 -26 -82 -72q0 -25 17 -42t42 -17q53 0 99 36q-5 15 -5 49zM394 716l111 -150h-108l-84 89l-85 -89h-108l112 150h162zM524 714q0 -28 20 -67q-9 13 -57 40q-37 21 -32 41q7 28 62.5 56.5t59.5 44.5q4 14 -8 31q-8 11 -12 11q-1 0 -2 -2
q-6 -21 -25.5 -38.5t-41.5 -19.5q-40 -3 -40 35q0 25 21 45.5t46 23.5q36 4 77 -19q45 -25 45 -60q0 -27 -56.5 -61t-56.5 -61z" />
    <glyph glyph-name="glyph291" unicode="&#x1eaa;" horiz-adv-x="896" 
d="M12 0l311 682h250l311 -682h-237l-45 111h-308l-45 -111h-237zM343 234h209l-104 270zM529 854l111 -150h-108l-84 89l-84 -89h-108l111 150h162zM633 1026v-79q-61 -56 -108 -56q-27 0 -81 25t-72 25q-48 0 -106 -56v80q63 54 112 54q26 0 79.5 -25.5t73.5 -25.5
q41 0 102 58z" />
    <glyph glyph-name="glyph292" unicode="&#x1eab;" horiz-adv-x="625" 
d="M613 134l-38 -141q-29 -2 -51 -2q-100 0 -136 51q-75 -51 -173 -51q-70 0 -115 29q-53 34 -53 100q0 50 40 90q30 30 135 58q111 30 136 49q-2 65 -83 65q-92 0 -211 -90v155q110 90 249 90q99 0 162 -41q75 -48 75 -142v-150q0 -42 11.5 -55.5t51.5 -14.5zM358 154v75
q-17 -12 -71 -29q-82 -26 -82 -72q0 -25 17 -42t42 -17q53 0 99 36q-5 15 -5 49zM397 718l111 -150h-108l-84 89l-84 -89h-108l111 150h162zM501 900v-79q-61 -56 -108 -56q-27 0 -81 25t-72 25q-48 0 -106 -56v80q63 54 112 54q26 0 79.5 -25.5t73.5 -25.5q41 0 102 58z
" />
    <glyph glyph-name="glyph293" unicode="&#x1eac;" horiz-adv-x="896" 
d="M12 0l311 682h250l311 -682h-237l-45 111h-308l-45 -111h-237zM343 234h209l-104 270zM529 852l111 -150h-108l-84 89l-85 -89h-108l112 150h162zM447 -29q32 0 54 -22t22 -54t-22 -54.5t-54 -22.5t-54.5 22.5t-22.5 54.5t22.5 54t54.5 22z" />
    <glyph glyph-name="glyph294" unicode="&#x1ead;" horiz-adv-x="625" 
d="M613 134l-38 -141q-29 -2 -51 -2q-100 0 -136 51q-75 -51 -173 -51q-70 0 -115 29q-53 34 -53 100q0 50 40 90q30 30 135 58q111 30 136 49q-2 65 -83 65q-92 0 -211 -90v155q110 90 249 90q99 0 162 -41q75 -48 75 -142v-150q0 -42 11.5 -55.5t51.5 -14.5zM358 154v75
q-17 -12 -71 -29q-82 -26 -82 -72q0 -25 17 -42t42 -17q53 0 99 36q-5 15 -5 49zM395 716l111 -150h-108l-84 89l-85 -89h-108l112 150h162zM315 -39q32 0 54 -22t22 -54t-22 -54.5t-54 -22.5t-54.5 22.5t-22.5 54.5t22.5 54t54.5 22z" />
    <glyph glyph-name="glyph295" unicode="&#x1eae;" horiz-adv-x="896" 
d="M12 0l311 682h250l311 -682h-237l-45 111h-308l-45 -111h-237zM343 234h209l-104 270zM450 734q-103 0 -187 111l-9 63q91 -91 196 -91q103 0 194 91l-9 -63q-84 -111 -185 -111zM414 899l100 156h167l-196 -156h-71z" />
    <glyph glyph-name="glyph296" unicode="&#x1eaf;" horiz-adv-x="625" 
d="M613 134l-38 -141q-29 -2 -51 -2q-100 0 -136 51q-75 -51 -173 -51q-70 0 -115 29q-53 34 -53 100q0 50 40 90q30 30 135 58q111 30 136 49q-2 65 -83 65q-92 0 -211 -90v155q110 90 249 90q99 0 162 -41q75 -48 75 -142v-150q0 -42 11.5 -55.5t51.5 -14.5zM358 154v75
q-17 -12 -71 -29q-82 -26 -82 -72q0 -25 17 -42t42 -17q53 0 99 36q-5 15 -5 49zM313 585q-103 0 -187 111l-9 63q91 -91 196 -91q103 0 194 91l-9 -63q-84 -111 -185 -111zM277 760l100 156h167l-196 -156h-71z" />
    <glyph glyph-name="glyph297" unicode="&#x1eb0;" horiz-adv-x="896" 
d="M12 0l311 682h250l311 -682h-237l-45 111h-308l-45 -111h-237zM343 234h209l-104 270zM444 734q-103 0 -187 111l-9 63q92 -91 196 -91q103 0 194 91l-9 -63q-84 -111 -185 -111zM482 899h-71l-196 156h167z" />
    <glyph glyph-name="glyph298" unicode="&#x1eb1;" horiz-adv-x="625" 
d="M613 134l-38 -141q-29 -2 -51 -2q-100 0 -136 51q-75 -51 -173 -51q-70 0 -115 29q-53 34 -53 100q0 50 40 90q30 30 135 58q111 30 136 49q-2 65 -83 65q-92 0 -211 -90v155q110 90 249 90q99 0 162 -41q75 -48 75 -142v-150q0 -42 11.5 -55.5t51.5 -14.5zM358 154v75
q-17 -12 -71 -29q-82 -26 -82 -72q0 -25 17 -42t42 -17q53 0 99 36q-5 15 -5 49zM313 586q-103 0 -187 111l-9 63q92 -91 196 -91q103 0 194 91l-9 -63q-84 -111 -185 -111zM351 761h-71l-196 156h167z" />
    <glyph glyph-name="glyph299" unicode="&#x1eb2;" horiz-adv-x="896" 
d="M12 0l311 682h250l311 -682h-237l-45 111h-308l-45 -111h-237zM343 234h209l-104 270zM447 727q-103 0 -187 112l-9 63q90 -91 196 -91q104 0 194 91l-9 -63q-84 -112 -185 -112zM448 945q0 -28 20 -67q-9 13 -57 40q-37 21 -32 41q7 28 62.5 56.5t59.5 44.5q4 14 -8 31
q-8 11 -12 11q-1 0 -2 -2q-6 -21 -25.5 -38.5t-41.5 -19.5q-40 -3 -40 35q0 25 21 45.5t46 23.5q36 4 77 -19q45 -25 45 -60q0 -27 -56.5 -61t-56.5 -61z" />
    <glyph glyph-name="glyph300" unicode="&#x1eb3;" horiz-adv-x="625" 
d="M613 134l-38 -141q-29 -2 -51 -2q-100 0 -136 51q-75 -51 -173 -51q-70 0 -115 29q-53 34 -53 100q0 50 40 90q30 30 135 58q111 30 136 49q-2 65 -83 65q-92 0 -211 -90v155q110 90 249 90q99 0 162 -41q75 -48 75 -142v-150q0 -42 11.5 -55.5t51.5 -14.5zM358 154v75
q-17 -12 -71 -29q-82 -26 -82 -72q0 -25 17 -42t42 -17q53 0 99 36q-5 15 -5 49zM313 586q-103 0 -187 112l-9 63q90 -91 196 -91q104 0 194 91l-9 -63q-84 -112 -185 -112zM314 814q0 -28 20 -67q-9 13 -57 40q-37 21 -32 41q7 28 62.5 56.5t59.5 44.5q4 14 -8 31
q-8 11 -12 11q-1 0 -2 -2q-6 -21 -25.5 -38.5t-41.5 -19.5q-40 -3 -40 35q0 25 21 45.5t46 23.5q36 4 77 -19q45 -25 45 -60q0 -27 -56.5 -61t-56.5 -61z" />
    <glyph glyph-name="glyph301" unicode="&#x1eb4;" horiz-adv-x="896" 
d="M12 0l311 682h250l311 -682h-237l-45 111h-308l-45 -111h-237zM343 234h209l-104 270zM459 737q-103 0 -188 111l-9 63q91 -90 197 -90q103 0 194 90l-9 -63q-85 -111 -185 -111zM825 1069v-79q-59 -56 -108 -56q-27 0 -81 25t-72 25q-49 0 -105 -56v80q63 54 111 54
q26 0 79.5 -25.5t73.5 -25.5q41 0 102 58z" />
    <glyph glyph-name="glyph302" unicode="&#x1eb5;" horiz-adv-x="625" 
d="M613 134l-38 -141q-29 -2 -51 -2q-100 0 -136 51q-75 -51 -173 -51q-70 0 -115 29q-53 34 -53 100q0 50 40 90q30 30 135 58q111 30 136 49q-2 65 -83 65q-92 0 -211 -90v155q110 90 249 90q99 0 162 -41q75 -48 75 -142v-150q0 -42 11.5 -55.5t51.5 -14.5zM358 154v75
q-17 -12 -71 -29q-82 -26 -82 -72q0 -25 17 -42t42 -17q53 0 99 36q-5 15 -5 49zM313 585q-103 0 -188 111l-9 63q91 -90 197 -90q103 0 194 90l-9 -63q-85 -111 -185 -111zM679 917v-79q-59 -56 -108 -56q-27 0 -81 25t-72 25q-49 0 -105 -56v80q63 54 111 54
q26 0 79.5 -25.5t73.5 -25.5q41 0 102 58z" />
    <glyph glyph-name="glyph303" unicode="&#x1eb6;" horiz-adv-x="896" 
d="M12 0l311 682h250l311 -682h-237l-45 111h-308l-45 -111h-237zM343 234h209l-104 270zM447 727q-103 0 -187 112l-9 63q90 -91 196 -91q104 0 194 91l-9 -63q-84 -112 -185 -112zM447 -29q32 0 54 -22t22 -54t-22 -54.5t-54 -22.5t-54.5 22.5t-22.5 54.5t22.5 54t54.5 22
z" />
    <glyph glyph-name="glyph304" unicode="&#x1eb7;" horiz-adv-x="625" 
d="M613 134l-38 -141q-29 -2 -51 -2q-100 0 -136 51q-75 -51 -173 -51q-70 0 -115 29q-53 34 -53 100q0 50 40 90q30 30 135 58q111 30 136 49q-2 65 -83 65q-92 0 -211 -90v155q110 90 249 90q99 0 162 -41q75 -48 75 -142v-150q0 -42 11.5 -55.5t51.5 -14.5zM358 154v75
q-17 -12 -71 -29q-82 -26 -82 -72q0 -25 17 -42t42 -17q53 0 99 36q-5 15 -5 49zM315 -39q32 0 54 -22t22 -54t-22 -54.5t-54 -22.5t-54.5 22.5t-22.5 54.5t22.5 54t54.5 22zM313 585q-103 0 -187 111l-9 63q91 -91 196 -91q103 0 194 91l-9 -63q-84 -111 -185 -111z" />
    <glyph glyph-name="glyph305" unicode="&#x1eb8;" horiz-adv-x="635" 
d="M72 0v682h511v-144h-272v-120h249v-144h-249v-130h276v-144h-515zM324 -49q32 0 54 -22t22 -54t-22 -54.5t-54 -22.5t-54.5 22.5t-22.5 54.5t22.5 54t54.5 22z" />
    <glyph glyph-name="glyph306" unicode="&#x1eb9;" horiz-adv-x="615" 
d="M543 180l38 -86q-89 -103 -244 -103q-127 0 -211 73q-89 77 -89 202q0 118 77.5 194.5t195.5 76.5q117 0 192 -76t75 -193q0 -21 -3 -43h-345q1 -48 51 -78q43 -27 94 -27q82 0 169 60zM221 303h182q-2 118 -91 118q-98 0 -91 -118zM337 -49q32 0 54 -22t22 -54
t-22 -54.5t-54 -22.5t-54.5 22.5t-22.5 54.5t22.5 54t54.5 22z" />
    <glyph glyph-name="glyph307" unicode="&#x1eba;" horiz-adv-x="635" 
d="M72 0v682h511v-144h-272v-120h249v-144h-249v-130h276v-144h-515zM324 787q0 -28 20 -67q-9 13 -57 40q-37 21 -32 41q7 28 62.5 56.5t59.5 44.5q4 14 -8 31q-8 11 -12 11q-1 0 -2 -2q-6 -21 -25.5 -38.5t-41.5 -19.5q-40 -3 -40 35q0 25 21 45.5t46 23.5q36 4 77 -19
q45 -25 45 -60q0 -27 -56.5 -61t-56.5 -61z" />
    <glyph glyph-name="glyph308" unicode="&#x1ebb;" horiz-adv-x="615" 
d="M543 180l38 -86q-89 -103 -244 -103q-127 0 -211 73q-89 77 -89 202q0 118 77.5 194.5t195.5 76.5q117 0 192 -76t75 -193q0 -21 -3 -43h-345q1 -48 51 -78q43 -27 94 -27q82 0 169 60zM221 303h182q-2 118 -91 118q-98 0 -91 -118zM314 663q0 -28 20 -67q-9 13 -57 40
q-37 21 -32 41q7 28 62.5 56.5t59.5 44.5q4 14 -8 31q-8 11 -12 11q-1 0 -2 -2q-6 -21 -25.5 -38.5t-41.5 -19.5q-40 -3 -40 35q0 25 21 45.5t46 23.5q36 4 77 -19q45 -25 45 -60q0 -27 -56.5 -61t-56.5 -61z" />
    <glyph glyph-name="glyph309" unicode="&#x1ebc;" horiz-adv-x="635" 
d="M72 0v682h511v-144h-272v-120h249v-144h-249v-130h276v-144h-515zM509 862v-79q-61 -56 -108 -56q-27 0 -81 25.5t-72 25.5q-47 0 -106 -57v80q65 54 112 54q26 0 79.5 -25.5t73.5 -25.5q41 0 102 58z" />
    <glyph glyph-name="glyph310" unicode="&#x1ebd;" horiz-adv-x="615" 
d="M543 180l38 -86q-89 -103 -244 -103q-127 0 -211 73q-89 77 -89 202q0 118 77.5 194.5t195.5 76.5q117 0 192 -76t75 -193q0 -21 -3 -43h-345q1 -48 51 -78q43 -27 94 -27q82 0 169 60zM221 303h182q-2 118 -91 118q-98 0 -91 -118zM495 741v-79q-61 -56 -108 -56
q-27 0 -81 25t-72 25q-48 0 -106 -56v80q63 54 112 54q26 0 79.5 -25.5t73.5 -25.5q41 0 102 58z" />
    <glyph glyph-name="glyph311" unicode="&#x1ebe;" horiz-adv-x="635" 
d="M72 0v682h511v-144h-272v-120h249v-144h-249v-130h276v-144h-515zM417 867l110 -150h-107l-84 89l-85 -89h-108l112 150h162zM498 806l100 155h167l-196 -155h-71z" />
    <glyph glyph-name="glyph312" unicode="&#x1ebf;" horiz-adv-x="615" 
d="M543 180l38 -86q-89 -103 -244 -103q-127 0 -211 73q-89 77 -89 202q0 118 77.5 194.5t195.5 76.5q117 0 192 -76t75 -193q0 -21 -3 -43h-345q1 -48 51 -78q43 -27 94 -27q82 0 169 60zM221 303h182q-2 118 -91 118q-98 0 -91 -118zM394 706l110 -150h-107l-84 89
l-85 -89h-108l112 150h162zM475 645l100 155h167l-196 -155h-71z" />
    <glyph glyph-name="glyph313" unicode="&#x1ec0;" horiz-adv-x="635" 
d="M72 0v682h511v-144h-272v-120h249v-144h-249v-130h276v-144h-515zM393 867l111 -150h-108l-84 89l-85 -89h-108l112 150h162zM148 806h-71l-196 155h167z" />
    <glyph glyph-name="glyph314" unicode="&#x1ec1;" horiz-adv-x="615" 
d="M543 180l38 -86q-89 -103 -244 -103q-127 0 -211 73q-89 77 -89 202q0 118 77.5 194.5t195.5 76.5q117 0 192 -76t75 -193q0 -21 -3 -43h-345q1 -48 51 -78q43 -27 94 -27q82 0 169 60zM221 303h182q-2 118 -91 118q-98 0 -91 -118zM395 706l111 -150h-108l-84 89
l-85 -89h-108l112 150h162zM150 645h-71l-196 155h167z" />
    <glyph glyph-name="glyph315" unicode="&#x1ec2;" horiz-adv-x="635" 
d="M72 0v682h511v-144h-272v-120h249v-144h-249v-130h276v-144h-515zM405 862l111 -150h-108l-84 89l-85 -89h-108l112 150h162zM535 860q0 -28 20 -67q-9 13 -57 40q-37 21 -32 41q7 28 62.5 56.5t59.5 44.5q4 14 -8 31q-8 11 -12 11q-1 0 -2 -2q-6 -21 -25.5 -38.5
t-41.5 -19.5q-40 -3 -40 35q0 25 21 45.5t46 23.5q36 4 77 -19q45 -25 45 -60q0 -27 -56.5 -61t-56.5 -61z" />
    <glyph glyph-name="glyph316" unicode="&#x1ec3;" horiz-adv-x="615" 
d="M543 180l38 -86q-89 -103 -244 -103q-127 0 -211 73q-89 77 -89 202q0 118 77.5 194.5t195.5 76.5q117 0 192 -76t75 -193q0 -21 -3 -43h-345q1 -48 51 -78q43 -27 94 -27q82 0 169 60zM221 303h182q-2 118 -91 118q-98 0 -91 -118zM390 705l111 -150h-108l-84 89
l-85 -89h-108l112 150h162zM520 703q0 -28 20 -67q-9 13 -57 40q-37 21 -32 41q7 28 62.5 56.5t59.5 44.5q4 14 -8 31q-8 11 -12 11q-1 0 -2 -2q-6 -21 -25.5 -38.5t-41.5 -19.5q-40 -3 -40 35q0 25 21 45.5t46 23.5q36 4 77 -19q45 -25 45 -60q0 -27 -56.5 -61t-56.5 -61z
" />
    <glyph glyph-name="glyph317" unicode="&#x1ec4;" horiz-adv-x="635" 
d="M72 0v682h511v-144h-272v-120h249v-144h-249v-130h276v-144h-515zM405 864l111 -150h-108l-84 89l-84 -89h-108l111 150h162zM509 1036v-79q-61 -56 -108 -56q-27 0 -81 25t-72 25q-48 0 -106 -56v80q63 54 112 54q26 0 79.5 -25.5t73.5 -25.5q41 0 102 58z" />
    <glyph glyph-name="glyph318" unicode="&#x1ec5;" horiz-adv-x="615" 
d="M543 180l38 -86q-89 -103 -244 -103q-127 0 -211 73q-89 77 -89 202q0 118 77.5 194.5t195.5 76.5q117 0 192 -76t75 -193q0 -21 -3 -43h-345q1 -48 51 -78q43 -27 94 -27q82 0 169 60zM221 303h182q-2 118 -91 118q-98 0 -91 -118zM391 706l111 -150h-108l-84 89
l-84 -89h-108l111 150h162zM495 888v-79q-61 -56 -108 -56q-27 0 -81 25t-72 25q-48 0 -106 -56v80q63 54 112 54q26 0 79.5 -25.5t73.5 -25.5q41 0 102 58z" />
    <glyph glyph-name="glyph319" unicode="&#x1ec6;" horiz-adv-x="635" 
d="M72 0v682h511v-144h-272v-120h249v-144h-249v-130h276v-144h-515zM405 862l111 -150h-108l-84 89l-85 -89h-108l112 150h162zM324 -49q32 0 54 -22t22 -54t-22 -54.5t-54 -22.5t-54.5 22.5t-22.5 54.5t22.5 54t54.5 22z" />
    <glyph glyph-name="glyph320" unicode="&#x1ec7;" horiz-adv-x="615" 
d="M543 180l38 -86q-89 -103 -244 -103q-127 0 -211 73q-89 77 -89 202q0 118 77.5 194.5t195.5 76.5q117 0 192 -76t75 -193q0 -21 -3 -43h-345q1 -48 51 -78q43 -27 94 -27q82 0 169 60zM221 303h182q-2 118 -91 118q-98 0 -91 -118zM395 706l111 -150h-108l-84 89
l-85 -89h-108l112 150h162zM337 -49q32 0 54 -22t22 -54t-22 -54.5t-54 -22.5t-54.5 22.5t-22.5 54.5t22.5 54t54.5 22z" />
    <glyph glyph-name="glyph321" unicode="&#x1ec8;" horiz-adv-x="385" 
d="M73 0v682h239v-682h-239zM191 777q0 -28 20 -67q-9 13 -57 40q-37 21 -32 41q7 28 62.5 56.5t59.5 44.5q4 14 -8 31q-8 11 -12 11q-1 0 -2 -2q-6 -21 -25.5 -38.5t-41.5 -19.5q-40 -3 -40 35q0 25 21 45.5t46 23.5q36 4 77 -19q45 -25 45 -60q0 -27 -56.5 -61t-56.5 -61z
" />
    <glyph glyph-name="glyph322" unicode="&#x1ec9;" horiz-adv-x="333" 
d="M63 0v528h208v-528h-208zM168 653q0 -28 20 -67q-9 13 -57 40q-37 21 -32 41q7 28 62.5 56.5t59.5 44.5q4 14 -8 31q-8 11 -12 11q-1 0 -2 -2q-6 -21 -25.5 -38.5t-41.5 -19.5q-40 -3 -40 35q0 25 21 45.5t46 23.5q36 4 77 -19q45 -25 45 -60q0 -27 -56.5 -61t-56.5 -61z
" />
    <glyph glyph-name="glyph323" unicode="&#x1eca;" horiz-adv-x="385" 
d="M73 0v682h239v-682h-239zM193 -49q32 0 54 -22t22 -54t-22 -54.5t-54 -22.5t-54.5 22.5t-22.5 54.5t22.5 54t54.5 22z" />
    <glyph glyph-name="glyph324" unicode="&#x1ecb;" horiz-adv-x="333" 
d="M63 0v528h208v-528h-208zM167 732q31 0 52 -21t21 -52t-21 -52t-52 -21t-52 21t-21 52t21 52t52 21zM168 -40q32 0 54 -22t22 -54t-22 -54.5t-54 -22.5t-54.5 22.5t-22.5 54.5t22.5 54t54.5 22z" />
    <glyph glyph-name="glyph325" unicode="&#x1ecc;" horiz-adv-x="833" 
d="M46 341q0 163 105 258q101 92 266 92t266 -92q105 -95 105 -258t-105 -258q-101 -92 -266 -92t-266 92q-105 95 -105 258zM285 341q0 -65 33 -106q35 -44 99 -44t99 44q33 41 33 106t-34 107.5t-98 42.5t-98 -42.5t-34 -107.5zM417 -59q32 0 54 -22t22 -54t-22 -54.5
t-54 -22.5t-54.5 22.5t-22.5 54.5t22.5 54t54.5 22z" />
    <glyph glyph-name="glyph326" unicode="&#x1ecd;" 
d="M38 264q0 131 92 205q85 68 219 68t219 -68q92 -74 92 -205q0 -130 -92 -204q-84 -69 -217 -69q-134 0 -220 68q-93 74 -93 205zM246 264q0 -46 28.5 -74t74.5 -28t74.5 28t28.5 74t-28.5 74t-74.5 28t-74.5 -28t-28.5 -74zM352 -50q32 0 54 -22t22 -54t-22 -54.5
t-54 -22.5t-54.5 22.5t-22.5 54.5t22.5 54t54.5 22z" />
    <glyph glyph-name="glyph327" unicode="&#x1ece;" horiz-adv-x="833" 
d="M46 341q0 163 105 258q101 92 266 92t266 -92q105 -95 105 -258t-105 -258q-101 -92 -266 -92t-266 92q-105 95 -105 258zM285 341q0 -65 33 -106q35 -44 99 -44t99 44q33 41 33 106t-34 107.5t-98 42.5t-98 -42.5t-34 -107.5zM418 797q0 -28 20 -67q-9 13 -57 40
q-37 21 -32 41q7 28 62.5 56.5t59.5 44.5q4 14 -8 31q-8 11 -12 11q-1 0 -2 -2q-6 -21 -25.5 -38.5t-41.5 -19.5q-40 -3 -40 35q0 25 21 45.5t46 23.5q36 4 77 -19q45 -25 45 -60q0 -27 -56.5 -61t-56.5 -61z" />
    <glyph glyph-name="glyph328" unicode="&#x1ecf;" 
d="M38 264q0 131 92 205q85 68 219 68t219 -68q92 -74 92 -205q0 -130 -92 -204q-84 -69 -217 -69q-134 0 -220 68q-93 74 -93 205zM246 264q0 -46 28.5 -74t74.5 -28t74.5 28t28.5 74t-28.5 74t-74.5 28t-74.5 -28t-28.5 -74zM350 663q0 -28 20 -67q-9 13 -57 40
q-37 21 -32 41q7 28 62.5 56.5t59.5 44.5q4 14 -8 31q-8 11 -12 11q-1 0 -2 -2q-6 -21 -25.5 -38.5t-41.5 -19.5q-40 -3 -40 35q0 25 21 45.5t46 23.5q36 4 77 -19q45 -25 45 -60q0 -27 -56.5 -61t-56.5 -61z" />
    <glyph glyph-name="glyph329" unicode="&#x1ed0;" horiz-adv-x="833" 
d="M46 341q0 163 105 258q101 92 266 92t266 -92q105 -95 105 -258t-105 -258q-101 -92 -266 -92t-266 92q-105 95 -105 258zM285 341q0 -65 33 -106q35 -44 99 -44t99 44q33 41 33 106t-34 107.5t-98 42.5t-98 -42.5t-34 -107.5zM511 866l110 -150h-107l-84 89l-85 -89
h-108l112 150h162zM592 805l100 155h167l-196 -155h-71z" />
    <glyph glyph-name="glyph330" unicode="&#x1ed1;" 
d="M38 264q0 131 92 205q85 68 219 68t219 -68q92 -74 92 -205q0 -130 -92 -204q-84 -69 -217 -69q-134 0 -220 68q-93 74 -93 205zM246 264q0 -46 28.5 -74t74.5 -28t74.5 28t28.5 74t-28.5 74t-74.5 28t-74.5 -28t-28.5 -74zM431 706l110 -150h-107l-84 89l-85 -89h-108
l112 150h162zM512 645l100 155h167l-196 -155h-71z" />
    <glyph glyph-name="glyph331" unicode="&#x1ed2;" horiz-adv-x="833" 
d="M46 341q0 163 105 258q101 92 266 92t266 -92q105 -95 105 -258t-105 -258q-101 -92 -266 -92t-266 92q-105 95 -105 258zM285 341q0 -65 33 -106q35 -44 99 -44t99 44q33 41 33 106t-34 107.5t-98 42.5t-98 -42.5t-34 -107.5zM487 867l111 -150h-108l-84 89l-85 -89
h-108l112 150h162zM242 806h-71l-196 155h167z" />
    <glyph glyph-name="glyph332" unicode="&#x1ed3;" 
d="M38 264q0 131 92 205q85 68 219 68t219 -68q92 -74 92 -205q0 -130 -92 -204q-84 -69 -217 -69q-134 0 -220 68q-93 74 -93 205zM246 264q0 -46 28.5 -74t74.5 -28t74.5 28t28.5 74t-28.5 74t-74.5 28t-74.5 -28t-28.5 -74zM431 705l111 -150h-108l-84 89l-85 -89h-108
l112 150h162zM186 644h-71l-196 155h167z" />
    <glyph glyph-name="glyph333" unicode="&#x1ed4;" horiz-adv-x="833" 
d="M46 341q0 163 105 258q101 92 266 92t266 -92q105 -95 105 -258t-105 -258q-101 -92 -266 -92t-266 92q-105 95 -105 258zM285 341q0 -65 33 -106q35 -44 99 -44t99 44q33 41 33 106t-34 107.5t-98 42.5t-98 -42.5t-34 -107.5zM498 862l111 -150h-108l-84 89l-85 -89
h-108l112 150h162zM628 860q0 -28 20 -67q-9 13 -57 40q-37 21 -32 41q7 28 62.5 56.5t59.5 44.5q4 14 -8 31q-8 11 -12 11q-1 0 -2 -2q-6 -21 -25.5 -38.5t-41.5 -19.5q-40 -3 -40 35q0 25 21 45.5t46 23.5q36 4 77 -19q45 -25 45 -60q0 -27 -56.5 -61t-56.5 -61z" />
    <glyph glyph-name="glyph334" unicode="&#x1ed5;" 
d="M38 264q0 131 92 205q85 68 219 68t219 -68q92 -74 92 -205q0 -130 -92 -204q-84 -69 -217 -69q-134 0 -220 68q-93 74 -93 205zM246 264q0 -46 28.5 -74t74.5 -28t74.5 28t28.5 74t-28.5 74t-74.5 28t-74.5 -28t-28.5 -74zM430 705l111 -150h-108l-84 89l-85 -89h-108
l112 150h162zM560 703q0 -28 20 -67q-9 13 -57 40q-37 21 -32 41q7 28 62.5 56.5t59.5 44.5q4 14 -8 31q-8 11 -12 11q-1 0 -2 -2q-6 -21 -25.5 -38.5t-41.5 -19.5q-40 -3 -40 35q0 25 21 45.5t46 23.5q36 4 77 -19q45 -25 45 -60q0 -27 -56.5 -61t-56.5 -61z" />
    <glyph glyph-name="glyph335" unicode="&#x1ed6;" horiz-adv-x="833" 
d="M46 341q0 163 105 258q101 92 266 92t266 -92q105 -95 105 -258t-105 -258q-101 -92 -266 -92t-266 92q-105 95 -105 258zM285 341q0 -65 33 -106q35 -44 99 -44t99 44q33 41 33 106t-34 107.5t-98 42.5t-98 -42.5t-34 -107.5zM498 874l111 -150h-108l-84 89l-84 -89
h-108l111 150h162zM602 1046v-79q-61 -56 -108 -56q-27 0 -81 25t-72 25q-48 0 -106 -56v80q63 54 112 54q26 0 79.5 -25.5t73.5 -25.5q41 0 102 58z" />
    <glyph glyph-name="glyph336" unicode="&#x1ed7;" 
d="M38 264q0 131 92 205q85 68 219 68t219 -68q92 -74 92 -205q0 -130 -92 -204q-84 -69 -217 -69q-134 0 -220 68q-93 74 -93 205zM246 264q0 -46 28.5 -74t74.5 -28t74.5 28t28.5 74t-28.5 74t-74.5 28t-74.5 -28t-28.5 -74zM430 718l111 -150h-108l-84 89l-84 -89h-108
l111 150h162zM534 900v-79q-61 -56 -108 -56q-27 0 -81 25t-72 25q-48 0 -106 -56v80q63 54 112 54q26 0 79.5 -25.5t73.5 -25.5q41 0 102 58z" />
    <glyph glyph-name="glyph337" unicode="&#x1ed8;" horiz-adv-x="833" 
d="M46 341q0 163 105 258q101 92 266 92t266 -92q105 -95 105 -258t-105 -258q-101 -92 -266 -92t-266 92q-105 95 -105 258zM285 341q0 -65 33 -106q35 -44 99 -44t99 44q33 41 33 106t-34 107.5t-98 42.5t-98 -42.5t-34 -107.5zM499 861l111 -150h-108l-84 89l-85 -89
h-108l112 150h162zM417 -59q32 0 54 -22t22 -54t-22 -54.5t-54 -22.5t-54.5 22.5t-22.5 54.5t22.5 54t54.5 22z" />
    <glyph glyph-name="glyph338" unicode="&#x1ed9;" 
d="M38 264q0 131 92 205q85 68 219 68t219 -68q92 -74 92 -205q0 -130 -92 -204q-84 -69 -217 -69q-134 0 -220 68q-93 74 -93 205zM246 264q0 -46 28.5 -74t74.5 -28t74.5 28t28.5 74t-28.5 74t-74.5 28t-74.5 -28t-28.5 -74zM431 705l111 -150h-108l-84 89l-85 -89h-108
l112 150h162zM352 -50q32 0 54 -22t22 -54t-22 -54.5t-54 -22.5t-54.5 22.5t-22.5 54.5t22.5 54t54.5 22z" />
    <glyph glyph-name="glyph339" unicode="&#x1eda;" horiz-adv-x="833" 
d="M285 341q0 -65 33 -106q35 -44 99 -44t99 44q33 41 33 106t-34 107.5t-98 42.5t-98 -42.5t-34 -107.5zM670 609q20 14 28 44q-31 8 -31 38q0 28 18 45.5t46 12.5q48 -8 48 -63q0 -37 -24.5 -64t-61.5 -35q95 -96 95 -246q0 -163 -105 -258q-101 -92 -266 -92t-266 92
q-105 95 -105 258t105 258q101 92 266 92q155 0 253 -82zM388 737l99 156h168l-196 -156h-71z" />
    <glyph glyph-name="glyph340" unicode="&#x1edb;" 
d="M246 264q0 -46 28.5 -74t74.5 -28t74.5 28t28.5 74t-28.5 74t-74.5 28t-74.5 -28t-28.5 -74zM530 495q22 9 35 31q-23 15 -23 40q0 20 14.5 35t34.5 15q24 0 40 -17t16 -41q0 -33 -24.5 -58t-57.5 -29q95 -77 95 -207t-92 -204q-84 -69 -217 -69q-134 0 -220 68
q-93 74 -93 205t92 205q85 68 219 68q107 0 181 -42zM313 606l100 155h167l-196 -155h-71z" />
    <glyph glyph-name="glyph341" unicode="&#x1edc;" horiz-adv-x="833" 
d="M285 341q0 -65 33 -106q35 -44 99 -44t99 44q33 41 33 106t-34 107.5t-98 42.5t-98 -42.5t-34 -107.5zM670 609q20 14 28 44q-31 8 -31 38q0 28 18 45.5t46 12.5q48 -8 48 -63q0 -37 -24.5 -64t-61.5 -35q95 -96 95 -246q0 -163 -105 -258q-101 -92 -266 -92t-266 92
q-105 95 -105 258t105 258q101 92 266 92q155 0 253 -82zM449 737h-71l-196 156h168z" />
    <glyph glyph-name="glyph342" unicode="&#x1edd;" 
d="M246 264q0 -46 28.5 -74t74.5 -28t74.5 28t28.5 74t-28.5 74t-74.5 28t-74.5 -28t-28.5 -74zM530 495q22 9 35 31q-23 15 -23 40q0 20 14.5 35t34.5 15q24 0 40 -17t16 -41q0 -33 -24.5 -58t-57.5 -29q95 -77 95 -207t-92 -204q-84 -69 -217 -69q-134 0 -220 68
q-93 74 -93 205t92 205q85 68 219 68q107 0 181 -42zM387 606h-71l-196 155h167z" />
    <glyph glyph-name="glyph343" unicode="&#x1ede;" horiz-adv-x="833" 
d="M285 341q0 -65 33 -106q35 -44 99 -44t99 44q33 41 33 106t-34 107.5t-98 42.5t-98 -42.5t-34 -107.5zM670 609q20 14 28 44q-31 8 -31 38q0 28 18 45.5t46 12.5q48 -8 48 -63q0 -37 -24.5 -64t-61.5 -35q95 -96 95 -246q0 -163 -105 -258q-101 -92 -266 -92t-266 92
q-105 95 -105 258t105 258q101 92 266 92q155 0 253 -82zM418 797q0 -28 20 -67q-9 13 -57 40q-37 21 -32 41q7 28 62.5 56.5t59.5 44.5q4 14 -8 31q-8 11 -12 11q-1 0 -2 -2q-6 -21 -25.5 -38.5t-41.5 -19.5q-40 -3 -40 35q0 25 21 45.5t46 23.5q36 4 77 -19q45 -25 45 -60
q0 -27 -56.5 -61t-56.5 -61z" />
    <glyph glyph-name="glyph344" unicode="&#x1edf;" 
d="M246 264q0 -46 28.5 -74t74.5 -28t74.5 28t28.5 74t-28.5 74t-74.5 28t-74.5 -28t-28.5 -74zM530 495q22 9 35 31q-23 15 -23 40q0 20 14.5 35t34.5 15q24 0 40 -17t16 -41q0 -33 -24.5 -58t-57.5 -29q95 -77 95 -207t-92 -204q-84 -69 -217 -69q-134 0 -220 68
q-93 74 -93 205t92 205q85 68 219 68q107 0 181 -42zM350 663q0 -28 20 -67q-9 13 -57 40q-37 21 -32 41q7 28 62.5 56.5t59.5 44.5q4 14 -8 31q-8 11 -12 11q-1 0 -2 -2q-6 -21 -25.5 -38.5t-41.5 -19.5q-40 -3 -40 35q0 25 21 45.5t46 23.5q36 4 77 -19q45 -25 45 -60
q0 -27 -56.5 -61t-56.5 -61z" />
    <glyph glyph-name="glyph345" unicode="&#x1ee0;" horiz-adv-x="833" 
d="M285 341q0 -65 33 -106q35 -44 99 -44t99 44q33 41 33 106t-34 107.5t-98 42.5t-98 -42.5t-34 -107.5zM670 609q20 14 28 44q-31 8 -31 38q0 28 18 45.5t46 12.5q48 -8 48 -63q0 -37 -24.5 -64t-61.5 -35q95 -96 95 -246q0 -163 -105 -258q-101 -92 -266 -92t-266 92
q-105 95 -105 258t105 258q101 92 266 92q155 0 253 -82zM603 862v-79q-61 -56 -108 -56q-27 0 -81 25.5t-72 25.5q-47 0 -106 -57v80q65 54 112 54q26 0 79.5 -25.5t73.5 -25.5q41 0 102 58z" />
    <glyph glyph-name="glyph346" unicode="&#x1ee1;" 
d="M246 264q0 -46 28.5 -74t74.5 -28t74.5 28t28.5 74t-28.5 74t-74.5 28t-74.5 -28t-28.5 -74zM530 495q22 9 35 31q-23 15 -23 40q0 20 14.5 35t34.5 15q24 0 40 -17t16 -41q0 -33 -24.5 -58t-57.5 -29q95 -77 95 -207t-92 -204q-84 -69 -217 -69q-134 0 -220 68
q-93 74 -93 205t92 205q85 68 219 68q107 0 181 -42zM535 741v-79q-61 -56 -108 -56q-27 0 -81 25t-72 25q-48 0 -106 -56v80q63 54 112 54q26 0 79.5 -25.5t73.5 -25.5q41 0 102 58z" />
    <glyph glyph-name="glyph347" unicode="&#x1ee2;" horiz-adv-x="833" 
d="M285 341q0 -65 33 -106q35 -44 99 -44t99 44q33 41 33 106t-34 107.5t-98 42.5t-98 -42.5t-34 -107.5zM670 609q20 14 28 44q-31 8 -31 38q0 28 18 45.5t46 12.5q48 -8 48 -63q0 -37 -24.5 -64t-61.5 -35q95 -96 95 -246q0 -163 -105 -258q-101 -92 -266 -92t-266 92
q-105 95 -105 258t105 258q101 92 266 92q155 0 253 -82zM417 -59q32 0 54 -22t22 -54t-22 -54.5t-54 -22.5t-54.5 22.5t-22.5 54.5t22.5 54t54.5 22z" />
    <glyph glyph-name="glyph348" unicode="&#x1ee3;" 
d="M246 264q0 -46 28.5 -74t74.5 -28t74.5 28t28.5 74t-28.5 74t-74.5 28t-74.5 -28t-28.5 -74zM530 495q22 9 35 31q-23 15 -23 40q0 20 14.5 35t34.5 15q24 0 40 -17t16 -41q0 -33 -24.5 -58t-57.5 -29q95 -77 95 -207t-92 -204q-84 -69 -217 -69q-134 0 -220 68
q-93 74 -93 205t92 205q85 68 219 68q107 0 181 -42zM352 -50q32 0 54 -22t22 -54t-22 -54.5t-54 -22.5t-54.5 22.5t-22.5 54.5t22.5 54t54.5 22z" />
    <glyph glyph-name="glyph349" unicode="&#x1ee4;" horiz-adv-x="833" 
d="M782 682v-369q0 -162 -102 -245q-94 -77 -259 -77q-162 0 -258 66q-112 76 -112 231v394h239v-364q0 -64 30 -101q33 -41 95 -41q65 0 98 46q30 41 30 108v352h239zM421 -59q32 0 54 -22t22 -54t-22 -54.5t-54 -22.5t-54.5 22.5t-22.5 54.5t22.5 54t54.5 22z" />
    <glyph glyph-name="glyph350" unicode="&#x1ee5;" 
d="M610 528v-334q0 -58 46 -58q14 0 32 6l-54 -142q-41 -9 -90 -9q-57 0 -86 18q-34 21 -48 73q-73 -91 -180 -91q-90 0 -136 56q-44 53 -44 144v337h208v-286q0 -80 62 -80q44 0 82 54v312h208zM330 -40q32 0 54 -22t22 -54t-22 -54.5t-54 -22.5t-54.5 22.5t-22.5 54.5
t22.5 54t54.5 22z" />
    <glyph glyph-name="glyph351" unicode="&#x1ee6;" horiz-adv-x="833" 
d="M782 682v-369q0 -162 -102 -245q-94 -77 -259 -77q-162 0 -258 66q-112 76 -112 231v394h239v-364q0 -64 30 -101q33 -41 95 -41q65 0 98 46q30 41 30 108v352h239zM416 762q0 -28 20 -67q-9 13 -57 40q-37 21 -32 41q7 28 62.5 56.5t59.5 44.5q4 14 -8 31q-8 11 -12 11
q-1 0 -2 -2q-6 -21 -25.5 -38.5t-41.5 -19.5q-40 -3 -40 35q0 25 21 45.5t46 23.5q36 4 77 -19q45 -25 45 -60q0 -27 -56.5 -61t-56.5 -61z" />
    <glyph glyph-name="glyph352" unicode="&#x1ee7;" 
d="M610 528v-334q0 -58 46 -58q14 0 32 6l-54 -142q-41 -9 -90 -9q-57 0 -86 18q-34 21 -48 73q-73 -91 -180 -91q-90 0 -136 56q-44 53 -44 144v337h208v-286q0 -80 62 -80q44 0 82 54v312h208zM328 623q0 -28 20 -67q-9 13 -57 40q-37 21 -32 41q7 28 62.5 56.5t59.5 44.5
q4 14 -8 31q-8 11 -12 11q-1 0 -2 -2q-6 -21 -25.5 -38.5t-41.5 -19.5q-40 -3 -40 35q0 25 21 45.5t46 23.5q36 4 77 -19q45 -25 45 -60q0 -27 -56.5 -61t-56.5 -61z" />
    <glyph glyph-name="glyph353" unicode="&#x1ee8;" horiz-adv-x="833" 
d="M782 589v-276q0 -162 -102 -245q-94 -77 -259 -77q-162 0 -258 66q-112 76 -112 231v394h239v-364q0 -64 30 -101q33 -41 95 -41q65 0 98 46q30 41 30 108v352h209q-3 11 -1 23q4 22 22.5 35t40.5 9q48 -8 48 -63q0 -35 -22.5 -62t-57.5 -35zM386 703l99 156h168
l-196 -156h-71z" />
    <glyph glyph-name="glyph354" unicode="&#x1ee9;" 
d="M607 528q-20 15 -20 38q0 20 14.5 35t34.5 15q24 0 40 -17t16 -41q0 -33 -24 -57.5t-58 -29.5v-277q0 -58 46 -58q14 0 32 6l-54 -142q-41 -9 -90 -9q-57 0 -86 18q-34 21 -48 73q-73 -91 -180 -91q-90 0 -136 56q-44 53 -44 144v337h208v-286q0 -80 62 -80q44 0 82 54
v312h205zM293 576l100 155h167l-196 -155h-71z" />
    <glyph glyph-name="glyph355" unicode="&#x1eea;" horiz-adv-x="833" 
d="M782 589v-276q0 -162 -102 -245q-94 -77 -259 -77q-162 0 -258 66q-112 76 -112 231v394h239v-364q0 -64 30 -101q33 -41 95 -41q65 0 98 46q30 41 30 108v352h209q-3 11 -1 23q4 22 22.5 35t40.5 9q48 -8 48 -63q0 -35 -22.5 -62t-57.5 -35zM447 702h-71l-196 156h168z
" />
    <glyph glyph-name="glyph356" unicode="&#x1eeb;" 
d="M607 528q-20 15 -20 38q0 20 14.5 35t34.5 15q24 0 40 -17t16 -41q0 -33 -24 -57.5t-58 -29.5v-277q0 -58 46 -58q14 0 32 6l-54 -142q-41 -9 -90 -9q-57 0 -86 18q-34 21 -48 73q-73 -91 -180 -91q-90 0 -136 56q-44 53 -44 144v337h208v-286q0 -80 62 -80q44 0 82 54
v312h205zM367 576h-71l-196 155h167z" />
    <glyph glyph-name="glyph357" unicode="&#x1eec;" horiz-adv-x="833" 
d="M782 589v-276q0 -162 -102 -245q-94 -77 -259 -77q-162 0 -258 66q-112 76 -112 231v394h239v-364q0 -64 30 -101q33 -41 95 -41q65 0 98 46q30 41 30 108v352h209q-3 11 -1 23q4 22 22.5 35t40.5 9q48 -8 48 -63q0 -35 -22.5 -62t-57.5 -35zM416 762q0 -28 20 -67
q-9 13 -57 40q-37 21 -32 41q7 28 62.5 56.5t59.5 44.5q4 14 -8 31q-8 11 -12 11q-1 0 -2 -2q-6 -21 -25.5 -38.5t-41.5 -19.5q-40 -3 -40 35q0 25 21 45.5t46 23.5q36 4 77 -19q45 -25 45 -60q0 -27 -56.5 -61t-56.5 -61z" />
    <glyph glyph-name="glyph358" unicode="&#x1eed;" 
d="M607 528q-20 15 -20 38q0 20 14.5 35t34.5 15q24 0 40 -17t16 -41q0 -33 -24 -57.5t-58 -29.5v-277q0 -58 46 -58q14 0 32 6l-54 -142q-41 -9 -90 -9q-57 0 -86 18q-34 21 -48 73q-73 -91 -180 -91q-90 0 -136 56q-44 53 -44 144v337h208v-286q0 -80 62 -80q44 0 82 54
v312h205zM328 623q0 -28 20 -67q-9 13 -57 40q-37 21 -32 41q7 28 62.5 56.5t59.5 44.5q4 14 -8 31q-8 11 -12 11q-1 0 -2 -2q-6 -21 -25.5 -38.5t-41.5 -19.5q-40 -3 -40 35q0 25 21 45.5t46 23.5q36 4 77 -19q45 -25 45 -60q0 -27 -56.5 -61t-56.5 -61z" />
    <glyph glyph-name="glyph359" unicode="&#x1eee;" horiz-adv-x="833" 
d="M782 589v-276q0 -162 -102 -245q-94 -77 -259 -77q-162 0 -258 66q-112 76 -112 231v394h239v-364q0 -64 30 -101q33 -41 95 -41q65 0 98 46q30 41 30 108v352h209q-3 11 -1 23q4 22 22.5 35t40.5 9q48 -8 48 -63q0 -35 -22.5 -62t-57.5 -35zM600 842v-79
q-61 -56 -108 -56q-27 0 -81 25.5t-72 25.5q-47 0 -106 -57v80q65 54 112 54q26 0 79.5 -25.5t73.5 -25.5q41 0 102 58z" />
    <glyph glyph-name="glyph360" unicode="&#x1eef;" 
d="M607 528q-20 15 -20 38q0 20 14.5 35t34.5 15q24 0 40 -17t16 -41q0 -33 -24 -57.5t-58 -29.5v-277q0 -58 46 -58q14 0 32 6l-54 -142q-41 -9 -90 -9q-57 0 -86 18q-34 21 -48 73q-73 -91 -180 -91q-90 0 -136 56q-44 53 -44 144v337h208v-286q0 -80 62 -80q44 0 82 54
v312h205zM517 721v-79q-61 -56 -108 -56q-27 0 -81 25t-72 25q-48 0 -106 -56v80q63 54 112 54q26 0 79.5 -25.5t73.5 -25.5q41 0 102 58z" />
    <glyph glyph-name="glyph361" unicode="&#x1ef0;" horiz-adv-x="833" 
d="M782 589v-276q0 -162 -102 -245q-94 -77 -259 -77q-162 0 -258 66q-112 76 -112 231v394h239v-364q0 -64 30 -101q33 -41 95 -41q65 0 98 46q30 41 30 108v352h209q-3 11 -1 23q4 22 22.5 35t40.5 9q48 -8 48 -63q0 -35 -22.5 -62t-57.5 -35zM421 -59q32 0 54 -22t22 -54
t-22 -54.5t-54 -22.5t-54.5 22.5t-22.5 54.5t22.5 54t54.5 22z" />
    <glyph glyph-name="glyph362" unicode="&#x1ef1;" 
d="M607 528q-20 15 -20 38q0 20 14.5 35t34.5 15q24 0 40 -17t16 -41q0 -33 -24 -57.5t-58 -29.5v-277q0 -58 46 -58q14 0 32 6l-54 -142q-41 -9 -90 -9q-57 0 -86 18q-34 21 -48 73q-73 -91 -180 -91q-90 0 -136 56q-44 53 -44 144v337h208v-286q0 -80 62 -80q44 0 82 54
v312h205zM330 -40q32 0 54 -22t22 -54t-22 -54.5t-54 -22.5t-54.5 22.5t-22.5 54.5t22.5 54t54.5 22z" />
    <glyph glyph-name="glyph363" unicode="&#x1ef2;" horiz-adv-x="802" 
d="M281 0v304l-265 378h285l130 -226l127 226h234l-272 -387v-295h-239zM460 702h-71l-196 156h168z" />
    <glyph glyph-name="glyph364" unicode="&#x1ef3;" horiz-adv-x="635" 
d="M71 -228l149 305l-209 451h224l97 -259l106 259h195l-365 -756h-197zM370 566h-71l-196 155h167z" />
    <glyph glyph-name="glyph365" unicode="&#x1ef4;" horiz-adv-x="802" 
d="M281 0v304l-265 378h285l130 -226l127 226h234l-272 -387v-295h-239zM402 -49q32 0 54 -22t22 -54t-22 -54.5t-54 -22.5t-54.5 22.5t-22.5 54.5t22.5 54t54.5 22z" />
    <glyph glyph-name="glyph366" unicode="&#x1ef5;" horiz-adv-x="635" 
d="M71 -228l149 305l-209 451h224l97 -259l106 259h195l-365 -756h-197zM460 -30q32 0 54 -22t22 -54t-22 -54.5t-54 -22.5t-54.5 22.5t-22.5 54.5t22.5 54t54.5 22z" />
    <glyph glyph-name="glyph367" unicode="&#x1ef6;" horiz-adv-x="802" 
d="M281 0v304l-265 378h285l130 -226l127 226h234l-272 -387v-295h-239zM429 752q0 -28 20 -67q-9 13 -57 40q-37 21 -32 41q7 28 62.5 56.5t59.5 44.5q4 14 -8 31q-8 11 -12 11q-1 0 -2 -2q-6 -21 -25.5 -38.5t-41.5 -19.5q-40 -3 -40 35q0 25 21 45.5t46 23.5q36 4 77 -19
q45 -25 45 -60q0 -27 -56.5 -61t-56.5 -61z" />
    <glyph glyph-name="glyph368" unicode="&#x1ef7;" horiz-adv-x="635" 
d="M71 -228l149 305l-209 451h224l97 -259l106 259h195l-365 -756h-197zM333 603q0 -28 20 -67q-9 13 -57 40q-37 21 -32 41q7 28 62.5 56.5t59.5 44.5q4 14 -8 31q-8 11 -12 11q-1 0 -2 -2q-6 -21 -25.5 -38.5t-41.5 -19.5q-40 -3 -40 35q0 25 21 45.5t46 23.5q36 4 77 -19
q45 -25 45 -60q0 -27 -56.5 -61t-56.5 -61z" />
    <glyph glyph-name="glyph369" unicode="&#x1ef8;" horiz-adv-x="802" 
d="M281 0v304l-265 378h285l130 -226l127 226h234l-272 -387v-295h-239zM616 837v-79q-61 -56 -108 -56q-27 0 -81 25.5t-72 25.5q-47 0 -106 -57v80q65 54 112 54q26 0 79.5 -25.5t73.5 -25.5q41 0 102 58z" />
    <glyph glyph-name="glyph370" unicode="&#x1ef9;" horiz-adv-x="635" 
d="M71 -228l149 305l-209 451h224l97 -259l106 259h195l-365 -756h-197zM522 701v-79q-61 -56 -108 -56q-27 0 -81 25t-72 25q-48 0 -106 -56v80q63 54 112 54q26 0 79.5 -25.5t73.5 -25.5q41 0 102 58z" />
    <glyph glyph-name="endash" unicode="&#x2013;" horiz-adv-x="500" 
d="M-6 404h512v-190h-512v190z" />
    <glyph glyph-name="emdash" unicode="&#x2014;" horiz-adv-x="1000" 
d="M-6 404h1012v-190h-1012v190z" />
    <glyph glyph-name="quoteleft" unicode="&#x2018;" horiz-adv-x="365" 
d="M326 691v0v-22q-96 -45 -100 -141q41 -4 64 -32t23 -70q0 -51 -36 -87t-87 -36q-61 0 -98 48q-34 43 -34 106q0 107 82 173q76 60 186 61z" />
    <glyph glyph-name="quoteright" unicode="&#x2019;" horiz-adv-x="365" 
d="M39 303v0v22q96 45 100 141q-41 4 -64 32t-23 70q0 51 36 87t87 36q61 0 98 -48q34 -43 34 -106q0 -107 -82 -173q-76 -60 -186 -61z" />
    <glyph glyph-name="quotesinglbase" unicode="&#x201a;" horiz-adv-x="365" 
d="M48 -161v0v22q96 45 100 141q-41 4 -64 32t-23 70q0 51 36 87t87 36q61 0 98 -48q34 -43 34 -106q0 -107 -82 -173q-76 -60 -186 -61z" />
    <glyph glyph-name="quotedblleft" unicode="&#x201c;" 
d="M662 691v0v-22q-96 -45 -100 -141q41 -4 64 -32t23 -70q0 -51 -36 -87t-87 -36q-61 0 -98 48q-34 43 -34 106q0 107 82 173q76 60 186 61zM329 691v0v-22q-96 -45 -100 -141q41 -4 64 -32t23 -70q0 -51 -36 -87t-87 -36q-61 0 -98 48q-34 43 -34 106q0 107 82 173
q76 60 186 61z" />
    <glyph glyph-name="quotedblright" unicode="&#x201d;" 
d="M369 303v0v22q96 45 100 141q-41 4 -64 32t-23 70q0 51 36 87t87 36q61 0 98 -48q34 -43 34 -106q0 -107 -82 -173q-76 -60 -186 -61zM36 303v0v22q96 45 100 141q-41 4 -64 32t-23 70q0 51 36 87t87 36q61 0 98 -48q34 -43 34 -106q0 -107 -82 -173q-76 -60 -186 -61z
" />
    <glyph glyph-name="quotedblbase" unicode="&#x201e;" 
d="M371 -161v0v22q96 45 100 141q-41 4 -64 32t-23 70q0 51 36 87t87 36q61 0 98 -48q34 -43 34 -106q0 -107 -82 -173q-76 -60 -186 -61zM38 -161v0v22q96 45 100 141q-41 4 -64 32t-23 70q0 51 36 87t87 36q61 0 98 -48q34 -43 34 -106q0 -107 -82 -173q-76 -60 -186 -61z
" />
    <glyph glyph-name="dagger" unicode="&#x2020;" horiz-adv-x="604" 
d="M354 450l170 40q13 3 22 3q23 0 28 -39q1 -8 1 -54q0 -83 -27 -83q-7 0 -20 3l-174 40l55 -549q3 -28 -12 -36q-11 -6 -43 -6h-104q-35 0 -44 4q-14 6 -11 35l55 552l-174 -40q-13 -3 -20 -3q-21 0 -26 35q-1 7 -1 50q0 42 2 53q5 38 27 38q9 0 22 -3l170 -40l-36 196
q-3 16 -3 19q0 20 39 25q9 1 52 1t52 -1q38 -5 38 -25q0 -8 -2 -19z" />
    <glyph glyph-name="daggerdbl" unicode="&#x2021;" horiz-adv-x="615" 
d="M353 492l187 32q12 2 16 2q23 0 23 -24v-100q0 -35 -22 -35q-4 0 -10 1l-194 34l29 -172l-29 -172l183 32q11 2 19 2q24 0 24 -34v-100q0 -29 -28 -24l-198 34l33 -153q2 -9 2 -15q0 -31 -35 -31h-92q-17 0 -27 10.5t-7 26.5l34 162l-196 -34q-30 -5 -30 24v100
q0 34 24 34q8 0 19 -2l183 -32l-28 172l28 172l-182 -32q-17 -3 -22 -3q-22 0 -22 35v100q0 29 34 23l192 -33l-34 163q-1 6 -1 10q0 26 35 26h92q35 0 35 -29q0 -6 -1 -11z" />
    <glyph glyph-name="bullet" unicode="&#x2022;" horiz-adv-x="500" 
d="M250 514q67 0 114.5 -47.5t47.5 -114.5t-47.5 -114.5t-114.5 -47.5t-114.5 47.5t-47.5 114.5t47.5 114.5t114.5 47.5z" />
    <glyph glyph-name="ellipsis" unicode="&#x2026;" horiz-adv-x="1000" 
d="M833 236q51 0 86.5 -35.5t35.5 -86.5t-35.5 -87t-86.5 -36t-87 36t-36 87t36 86.5t87 35.5zM500 236q51 0 86.5 -35.5t35.5 -86.5t-35.5 -87t-86.5 -36t-87 36t-36 87t36 86.5t87 35.5zM167 236q51 0 86.5 -35.5t35.5 -86.5t-35.5 -87t-86.5 -36t-87 36t-36 87t36 86.5
t87 35.5z" />
    <glyph glyph-name="perthousand" unicode="&#x2030;" horiz-adv-x="1271" 
d="M894 176q0 81 49 130.5t130 49.5t129.5 -49.5t48.5 -130.5t-48.5 -130.5t-129.5 -49.5t-130 49.5t-49 130.5zM1015 176q0 -80 58 -80q57 0 57 80t-57 80q-58 0 -58 -80zM496 176q0 81 49 130.5t130 49.5t129.5 -49.5t48.5 -130.5t-48.5 -130.5t-129.5 -49.5t-130 49.5
t-49 130.5zM617 176q0 -80 58 -80q57 0 57 80t-57 80q-58 0 -58 -80zM19 511q0 81 49 130.5t130 49.5t129.5 -49.5t48.5 -130.5t-48.5 -130.5t-129.5 -49.5t-130 49.5t-49 130.5zM140 511q0 -80 58 -80q57 0 57 80t-57 80q-58 0 -58 -80zM175 -24l411 731h107l-410 -731
h-108z" />
    <glyph glyph-name="guilsinglleft" unicode="&#x2039;" horiz-adv-x="406" 
d="M223 262l150 -262h-179l-149 262l149 262h179z" />
    <glyph glyph-name="guilsinglright" unicode="&#x203a;" horiz-adv-x="406" 
d="M183 262l-150 262h179l149 -262l-149 -262h-179z" />
    <glyph glyph-name="fraction" unicode="&#x2044;" horiz-adv-x="125" 
d="M-200 -24l411 731h107l-410 -731h-108z" />
    <glyph glyph-name="franc" unicode="&#x20a3;" horiz-adv-x="1035" 
d="M71 0v682h498v-144h-259v-124h243v-144h-243v-270h-239zM714 528h188v-141h2q56 150 169 150q58 0 128 -41l-92 -210q-47 44 -89 44q-40 0 -67 -37q-23 -30 -31 -74v-219h-208v528z" />
    <glyph glyph-name="u20AB" unicode="&#x20ab;" horiz-adv-x="393" 
d="M197 501q-48 0 -84 -88q-20 -49 -20 -90q0 -51 39 -51q41 0 74 71q28 60 28 107q0 51 -37 51zM200 267q-53 -62 -106 -62q-91 0 -91 102q0 81 54 153q59 78 137 78q34 0 61 -24l20 75h-100l10 36h100l2 16q0 31 -48 32l7 33q67 2 128 14l15 3q6 0 6 -9q-1 -2 -3 -12
l-19 -77h65l-10 -36h-65l-69 -280q-5 -20 -5 -27q0 -15 12 -15q6 0 49 42l20 -18q-70 -86 -117 -86q-43 0 -53 62zM9 160h221v-56h-221v56z" />
    <glyph glyph-name="trademark" unicode="&#x2122;" horiz-adv-x="1000" 
d="M27 715h391v-95h-138v-303h-115v303h-138v95zM463 715h173l55 -218h2l57 218h172v-398h-110v281h-2l-73 -281h-90l-72 281h-2v-281h-110v398z" />
    <glyph glyph-name="minus" unicode="&#x2212;" horiz-adv-x="667" 
d="M56 405h555v-139h-555v139z" />
    <glyph glyph-name="SF370000" unicode="&#x255f;" horiz-adv-x="718" 
d="M12 0l311 682h250l311 -682h-237l-45 111h-308l-45 -111h-237zM343 234h209l-104 270z" />
    <glyph glyph-name="SF420000" unicode="&#x2560;" horiz-adv-x="681" 
d="M72 0v682h511v-144h-272v-120h249v-144h-249v-130h276v-144h-515z" />
    <glyph glyph-name="SF190000" unicode="&#x2561;" horiz-adv-x="429" 
d="M73 0v682h239v-682h-239z" />
    <glyph glyph-name="SF200000" unicode="&#x2562;" horiz-adv-x="773" 
d="M46 341q0 163 105 258q101 92 266 92q164 0 266 -92q105 -96 105 -258t-105 -258q-102 -92 -266 -92q-165 0 -266 92q-105 95 -105 258zM285 341q0 -66 33 -106q35 -44 99 -44t99 44q33 40 33 106t-33 106q-35 44 -99 44t-99 -44q-33 -40 -33 -106z" />
    <glyph glyph-name="SF230000" unicode="&#x2563;" horiz-adv-x="811" 
d="M782 682v-369q0 -161 -102 -245q-94 -77 -259 -77q-161 0 -258 66q-112 78 -112 231v394h239v-364q0 -64 30 -101q33 -41 95 -41q65 0 98 46q30 40 30 108v352h239z" />
    <glyph glyph-name="SF470000" unicode="&#x2564;" horiz-adv-x="699" 
d="M281 0v304l-265 378h285l130 -226l127 226h234l-272 -387v-295h-239z" />
    <glyph glyph-name="SF480000" unicode="&#x2565;" horiz-adv-x="541" 
d="M613 134l-38 -141q-29 -2 -51 -2q-100 0 -136 51q-75 -51 -173 -51q-70 0 -115 29q-53 34 -53 100q0 50 40 90q30 30 135 58q111 30 136 49q-1 38 -24 53q-18 12 -59 12q-92 0 -211 -90v155q110 90 249 90q99 0 162 -41q75 -48 75 -142v-150q0 -42 11 -55.5t52 -14.5z
M358 154v75q-17 -12 -71 -29q-49 -15 -65.5 -32t-16.5 -40q0 -25 17 -42t42 -17q53 0 99 36q-5 15 -5 49z" />
    <glyph glyph-name="SF410000" unicode="&#x2566;" horiz-adv-x="431" 
d="M543 180l38 -86q-89 -103 -244 -103q-127 0 -211 73q-89 77 -89 202q0 117 78 194t195 77q116 0 191.5 -76.5t75.5 -192.5q0 -21 -3 -43h-345q1 -48 51 -78q43 -27 94 -27q82 0 169 60zM221 303h182q-2 118 -91 118q-50 0 -74 -35q-20 -31 -17 -83z" />
    <glyph glyph-name="SF450000" unicode="&#x2567;" horiz-adv-x="314" 
d="M63 0v528h208v-528h-208zM167 706q29 0 49.5 -20.5t20.5 -49.5t-20.5 -49.5t-49.5 -20.5t-49.5 20.5t-20.5 49.5t20.5 49.5t49.5 20.5z" />
    <glyph glyph-name="SF460000" unicode="&#x2568;" horiz-adv-x="314" 
d="M63 0v528h208v-528h-208z" />
    <glyph glyph-name="SF400000" unicode="&#x2569;" horiz-adv-x="498" 
d="M38 264q0 130 92 204q85 69 219 69t219 -69q92 -74 92 -204q0 -129 -92 -204q-85 -69 -217 -69q-134 0 -220 69q-93 74 -93 204zM246 264q0 -46 28.5 -74t74.5 -28t74.5 28t28.5 74t-28.5 74t-74.5 28t-74.5 -28t-28.5 -74z" />
    <glyph glyph-name="SF540000" unicode="&#x256a;" horiz-adv-x="557" 
d="M610 528v-334q0 -58 46 -58q14 0 32 6l-54 -142q-41 -9 -90 -9q-56 0 -86 18q-34 21 -48 73q-73 -91 -180 -91q-90 0 -136 56q-44 52 -44 144v337h208v-286q0 -80 62 -80q44 0 82 54v312h208z" />
    <glyph glyph-name="SF530000" unicode="&#x256b;" horiz-adv-x="497" 
d="M71 -228l149 305l-209 451h224l97 -259l106 259h195l-365 -756h-197z" />
    <glyph glyph-name="circle" unicode="&#x25cb;" horiz-adv-x="718" 
d="M515 991l73 -167h-120l-73 79l-74 -79h-120l74 167h240zM272 1004l91 163h216l-198 -163h-109z" />
    <glyph glyph-name="H18533" unicode="&#x25cf;" horiz-adv-x="718" 
d="M515 991l73 -167h-120l-73 79l-74 -79h-120l74 167h240zM574 1005h-109l-198 163h216z" />
    <glyph glyph-name="invbullet" unicode="&#x25d8;" horiz-adv-x="718" 
d="M515 991l73 -167h-120l-73 79l-74 -79h-120l74 167h240zM614 903q9 28 11 64q1 11 8 13q2 0 8 1q67 11 67 54q0 35 -28 35q-5 0 -14 -1t-14 -1q-21 0 -21 18q0 28 32 28q46 0 75 -24q31 -27 27 -72q-6 -59 -87 -81q-25 -7 -31 -34h-33z" />
    <glyph glyph-name="invcircle" unicode="&#x25d9;" horiz-adv-x="718" 
d="M515 991l73 -167h-120l-73 79l-74 -79h-120l74 167h240zM337 1013v0h-89q6 166 124 166q27 0 73.5 -18.5t66.5 -18.5q30 0 33 37h91q-2 -69 -27 -112q-32 -54 -95 -54q-25 0 -73.5 18.5t-67.5 18.5q-28 0 -36 -37z" />
    <glyph glyph-name="fi" unicode="&#xf001;" horiz-adv-x="760" 
d="M489 0v528h208v-528h-208zM593 706q29 0 49.5 -20.5t20.5 -49.5t-20.5 -49.5t-49.5 -20.5t-49.5 20.5t-20.5 49.5t20.5 49.5t49.5 20.5zM95 0v331h-84v132h84v15q0 106 66 161q62 52 169 52q83 0 149 -21v-142q-48 27 -96 27q-80 0 -80 -77v-15h103v-132h-103v-331h-208z
" />
    <glyph glyph-name="fl" unicode="&#xf002;" horiz-adv-x="760" 
d="M95 0v331h-84v132h84q-5 113 60 172q61 56 175 56q100 0 158 -51v42h208v-682h-208v467q0 43 -28 65.5t-72 22.5q-93 0 -84 -92h101v-132h-102v-331h-208z" />
    <glyph glyph-name="periodcentered" horiz-adv-x="365" 
d="M183 463q51 0 86.5 -35.5t35.5 -86.5t-35.5 -87t-86.5 -36t-87 36t-36 87t36 86.5t87 35.5z" />
    <glyph glyph-name="glyph231" horiz-adv-x="333" 
 />
    <glyph glyph-name="glyph232" horiz-adv-x="333" 
 />
    <glyph glyph-name="glyph258" horiz-adv-x="278" 
 />
    <glyph glyph-name="glyph259" horiz-adv-x="278" 
 />
    <glyph glyph-name="glyph275" horiz-adv-x="249" 
 />
    <glyph glyph-name="glyph276" horiz-adv-x="249" 
 />
    <glyph glyph-name="glyph261" horiz-adv-x="500" 
d="M253 522q9 28 11 64q1 11 8 13q2 0 8 1q67 11 67 54q0 35 -28 35q-5 0 -14 -1t-14 -1q-21 0 -21 18q0 28 32 28q46 0 75 -24q31 -27 27 -72q-6 -59 -87 -81q-25 -7 -31 -34h-33z" />
    <glyph glyph-name="glyph262" horiz-adv-x="541" 
d="M312 759l73 -167h-120l-73 79l-74 -79h-120l74 167h240zM68 773l91 163h216l-198 -163h-109z" />
    <glyph glyph-name="glyph263" horiz-adv-x="541" 
d="M312 759l73 -167h-120l-73 79l-74 -79h-120l74 167h240zM371 773h-109l-198 163h216z" />
    <glyph glyph-name="glyph264" horiz-adv-x="541" 
d="M312 759l73 -167h-120l-73 79l-74 -79h-120l74 167h240zM411 671q9 28 11 64q1 11 8 13q2 0 8 1q67 11 67 54q0 35 -28 35q-5 0 -14 -1t-14 -1q-21 0 -21 18q0 28 32 28q46 0 75 -24q31 -27 27 -72q-6 -59 -87 -81q-25 -7 -31 -34h-33z" />
    <glyph glyph-name="glyph265" horiz-adv-x="541" 
d="M312 759l73 -167h-120l-73 79l-74 -79h-120l74 167h240zM134 781v0h-89q6 166 124 166q27 0 73.5 -18.5t66.5 -18.5q30 0 33 37h91q-2 -69 -27 -112q-32 -54 -95 -54q-25 0 -73.5 18.5t-67.5 18.5q-28 0 -36 -37z" />
    <glyph glyph-name="glyph266" horiz-adv-x="541" 
d="M293 756h79q-10 -69 -57 -114q-50 -47 -118 -47q-69 0 -117 46t-58 115h78q21 -70 98 -70q74 0 95 70zM147 773l91 163h216l-198 -163h-109z" />
    <glyph glyph-name="glyph267" horiz-adv-x="541" 
d="M293 756h79q-10 -69 -57 -114q-50 -47 -118 -47q-69 0 -117 46t-58 115h78q21 -70 98 -70q74 0 95 70zM318 773h-109l-198 163h216z" />
    <glyph glyph-name="glyph268" horiz-adv-x="541" 
d="M293 756h79q-10 -69 -57 -114q-50 -47 -118 -47q-69 0 -117 46t-58 115h78q21 -70 98 -70q74 0 95 70zM306 671q9 28 11 64q1 11 8 13q2 0 8 1q67 11 67 54q0 35 -28 35q-5 0 -14 -1t-14 -1q-21 0 -21 18q0 28 32 28q46 0 75 -24q31 -27 27 -72q-6 -59 -87 -81
q-25 -7 -31 -34h-33z" />
    <glyph glyph-name="glyph269" horiz-adv-x="541" 
d="M293 756h79q-10 -69 -57 -114q-50 -47 -118 -47q-69 0 -117 46t-58 115h78q21 -70 98 -70q74 0 95 70zM134 781v0h-89q6 166 124 166q27 0 73.5 -18.5t66.5 -18.5q30 0 33 37h91q-2 -69 -27 -112q-32 -54 -95 -54q-25 0 -73.5 18.5t-67.5 18.5q-28 0 -36 -37z" />
    <glyph glyph-name="glyph270" horiz-adv-x="249" 
 />
  </font>
</defs>
</svg>
